<?xml version="1.0" encoding="utf-8"?>
<!-- Generator: Adobe Illustrator 24.3.0, SVG Export Plug-In . SVG Version: 6.00 Build 0)  -->
<svg version="1.1" id="Capa_1" xmlns="http://www.w3.org/2000/svg" xmlns:xlink="http://www.w3.org/1999/xlink" x="0px" y="0px"
	 viewBox="0 0 448.1 448.1" style="enable-background:new 0 0 448.1 448.1;" xml:space="preserve">
<style type="text/css">
	.st0{fill:#999999;}
</style>
<g>
	<g>
		<path class="st0" d="M447.9,316.8v-75.2c0-11.2-3.2-22.4-8-32L392,128c-4.8-9.6-16-16-27.2-16h-72c-11.2,0-20.8,9.6-20.8,20.8V304
			h-16V80c0-17.6-14.4-32-32-32H0v288h48c8-27.2,32-48,62.4-48c30.4,0,56,20.8,62.4,48h116.8c8-27.2,32-48,62.4-48
			c25.6,0,46.4,14.4,56,35.2c4.8,8,12.7,12.8,20.7,12.8C439.9,336,449.5,326.4,447.9,316.8z M304,224v-80h64l46.4,80H304z"/>
	</g>
</g>
<g>
	<g>
		<path class="st0" d="M352,304c-27.2,0-48,20.8-48,48s20.8,48,48,48s48-20.8,48-48S379.2,304,352,304z M352,374.4
			c-12.8,0-22.4-9.6-22.4-22.4s9.6-22.4,22.4-22.4c12.8,0,22.4,9.6,22.4,22.4S364.8,374.4,352,374.4z"/>
	</g>
</g>
<g>
	<g>
		<path class="st0" d="M112,304c-27.2,0-48,20.8-48,48s20.8,48,48,48s48-20.8,48-48S139.2,304,112,304z M112,374.4
			c-12.8,0-22.4-9.6-22.4-22.4s9.6-22.4,22.4-22.4s22.4,9.6,22.4,22.4S124.8,374.4,112,374.4z"/>
	</g>
</g>
<g>
	<g>
		<circle class="st0" cx="112" cy="352" r="8"/>
	</g>
</g>
<g>
	<g>
		<circle class="st0" cx="352" cy="352" r="8"/>
	</g>
</g>
</svg>
