<?xml version="1.0" encoding="utf-8"?>
<!-- Generator: Adobe Illustrator 25.0.1, SVG Export Plug-In . SVG Version: 6.00 Build 0)  -->
<svg version="1.1" id="レイヤー_1" xmlns="http://www.w3.org/2000/svg" xmlns:xlink="http://www.w3.org/1999/xlink" x="0px"
	 y="0px" viewBox="0 0 420 210" style="enable-background:new 0 0 420 210;" xml:space="preserve">
<style type="text/css">
	.st0{fill:#84CCD3;}
	.st1{fill:#F7C2C7;}
	.st2{fill:#171717;}
	.st3{fill:#211614;}
	.st4{fill:#FFFFFF;}
	.st5{fill:#E63230;}
	.st6{fill:none;stroke:#84CCD3;stroke-width:3.13;stroke-miterlimit:10;}
	.st7{font-family:'KozGoPr6N-Regular-83pv-RKSJ-H';}
	.st8{font-size:8.75px;}
</style>
<rect x="6.3" y="31.5" class="st0" width="406.8" height="172.3"/>
<path class="st1" d="M399,40c0,19.2-15.6,34.8-34.8,34.8S329.5,59.2,329.5,40S345,5.3,364.2,5.3C383.4,5.3,399,20.8,399,40"/>
<path class="st2" d="M349,35.4h-2.9v-1.2h4.2V40c1.1,2,4.1,2.2,6.2,2.2c2.2,0,5-0.2,7.1-0.4l-1,1.5c-1.5,0.1-3.5,0.2-5.4,0.2
	c-2.7,0-5.8-0.1-7.7-2.3c0,0-1.3,1.2-2.7,2.1c0.1,0.1,0.1,0.3,0.1,0.4c0,0.1-0.1,0.2-0.2,0.2c-0.2,0-0.4-0.2-1.3-1.4
	c1.6-0.8,3.5-2.3,3.5-2.3L349,35.4L349,35.4z M347.9,26.9c0.2,0.1,1.8,1.3,3,2.8l-1.1,1c-1-1.5-2.7-2.8-2.9-3L347.9,26.9z
	 M350.9,39.8c2.6-0.9,4.5-2.5,5.1-4.9h-4.7v-1.2h5c0-0.3,0.1-0.5,0.1-0.8v-1.7H352V30h5.5c0.3-0.5,1.2-2.1,1.7-3.7
	c0.1,0,1.7,0.5,1.7,0.9c0,0.1-0.2,0.2-0.5,0.2h-0.2c-0.4,0.8-1,1.9-1.4,2.6h3.2v1.2h-4.6V33c0,0.3,0,0.5,0,0.7h5.5v1.2h-5.1
	c0.7,1.5,2.3,3.6,5.5,4.7l-1.6,1c-2.7-1.4-4.1-3.4-4.8-4.8c-0.8,2.2-2.5,4-4.8,5L350.9,39.8z M354.1,26.4c0.1,0.1,1.2,1.4,1.8,2.8
	l-1.2,0.5c-0.5-1.5-1.6-2.7-1.7-2.9L354.1,26.4z"/>
<path class="st2" d="M368.9,41.5c0-1.5,0.1-4.8,0.2-6.2c-0.4,1.1-1.3,3.4-2.7,5.4l-1.4-0.4c2.1-2.3,3.5-5.8,3.9-6.6h-3.1v-1.1h3.2
	v-4.9c0,0,0-0.8-0.1-1.2c1.6,0,1.8,0.2,1.8,0.3s-0.2,0.3-0.5,0.3c0,0.3-0.1,0.8-0.1,0.8v4.7h2.9v1.1h-2.7c0.3,0.5,1.3,2.5,2.8,4.3
	l-1.3,0.5c-0.6-1.1-1.3-2.7-1.7-3.5c0,2.3,0.1,4.2,0.1,6.6V44h-1.3L368.9,41.5L368.9,41.5z M367,31.7c-0.3-1.5-1-3.4-1-3.6l1.1-0.3
	c0.1,0.2,0.8,2,1.1,3.6L367,31.7z M370.7,31.5c0.6-1.4,0.9-3.2,1-3.8c1.3,0.3,1.6,0.3,1.6,0.5c0,0.1-0.2,0.3-0.5,0.3l0,0
	c-0.1,0.3-0.6,2.3-1.1,3.2L370.7,31.5z M372.5,39l6.8-1.7V28c0,0,0-0.9-0.1-1.5c1.8,0,2,0.2,2,0.4c0,0.1-0.2,0.3-0.6,0.4
	c0,0.4,0,0.9,0,0.9V37l2.3-0.6l0.2,1.2l-2.5,0.7V44h-1.3v-5.3l-6.5,1.6L372.5,39z M374.2,32.3c0.2,0.1,2,0.9,3.6,2.4l-0.8,1.1
	c-1.7-1.6-3.4-2.4-3.6-2.5L374.2,32.3z M375.1,28c0.2,0.1,1.9,1.2,3.2,2.8l-0.9,1c-1.5-1.9-3-2.8-3.2-3L375.1,28z"/>
<path class="st2" d="M345.6,65.2c1.5-1,2.7-2.8,3.1-3.8c0.7,0.2,1.6,0.6,1.6,0.9c0,0.1-0.1,0.2-0.4,0.2c-0.1,0-0.2,0-0.3,0
	c-0.6,1.2-1.6,2.6-2.5,3.4L345.6,65.2z M346.6,59.4h2.3v-3.7h-2.7v-1.2h2.7v-2.9c-0.6,0.7-1.3,1.4-2,1.9l-1.2-0.7
	c2.3-1.4,3.9-4,4.3-5c0.1,0,0.8,0.3,1.4,0.5c0.1,0.1,0.2,0.2,0.2,0.2c0,0.1-0.1,0.2-0.4,0.2c-0.1,0-0.2,0-0.2,0
	c-0.2,0.3-0.5,0.8-0.9,1.3h12v1.1h-2v3.2h3v1.2h-3v3.7h2.6v1.1h-16.1L346.6,59.4L346.6,59.4z M352.2,51.3H350v3.2h2.2V51.3z
	 M352.2,55.7H350v3.7h2.2V55.7z M351.8,65.5c0.1-0.4,0.1-0.9,0.1-1.5c0-0.9-0.1-1.8-0.2-2.5l1.3-0.1c0.2,0.9,0.4,2.2,0.4,3.3
	c0,0.2,0,0.4,0,0.6L351.8,65.5z M355.5,51.3h-2.1v3.2h2.1V51.3z M355.5,55.7h-2.1v3.7h2.1V55.7z M356.7,65.6
	c-0.2-1.2-0.9-2.9-1.4-3.9l1.2-0.2c0.6,0.9,1.4,2.7,1.7,3.8L356.7,65.6z M358.9,51.3h-2.2v3.2h2.2V51.3z M358.9,55.7h-2.2v3.7h2.2
	V55.7z M359.8,61.3c1,0.7,2.8,2.2,3.4,3.3l-1.1,1c-0.6-1.4-2.2-2.9-3.2-3.6L359.8,61.3z"/>
<path class="st2" d="M368.9,63.2c0-1.5,0.1-4.8,0.2-6.2c-0.4,1.1-1.3,3.4-2.7,5.4L365,62c2.1-2.3,3.5-5.8,3.9-6.6h-3.1v-1.1h3.2
	v-4.9c0,0,0-0.8-0.1-1.2c1.6,0,1.8,0.2,1.8,0.3s-0.2,0.3-0.5,0.3c0,0.3-0.1,0.8-0.1,0.8v4.7h2.9v1.1h-2.7c0.3,0.5,1.3,2.5,2.8,4.3
	l-1.3,0.5c-0.6-1.1-1.3-2.7-1.7-3.5c0,2.3,0.1,4.2,0.1,6.6v2.6h-1.3L368.9,63.2L368.9,63.2z M367,53.4c-0.3-1.5-1-3.4-1-3.6l1.1-0.3
	c0.1,0.2,0.8,2,1.1,3.6L367,53.4z M370.7,53.2c0.6-1.4,0.9-3.2,1-3.8c1.3,0.3,1.6,0.3,1.6,0.5c0,0.1-0.2,0.3-0.5,0.3l0,0
	c-0.1,0.3-0.6,2.3-1.1,3.2L370.7,53.2z M372.5,60.8l6.8-1.7v-9.3c0,0,0-0.9-0.1-1.5c1.8,0,2,0.2,2,0.3s-0.2,0.3-0.6,0.3
	c0,0.4,0,0.9,0,0.9v8.8l2.3-0.6l0.2,1.2l-2.5,0.7v5.7h-1.3v-5.3l-6.5,1.6L372.5,60.8z M374.2,54.1c0.2,0.1,2,0.9,3.6,2.4l-0.8,1.1
	c-1.7-1.6-3.4-2.4-3.6-2.5L374.2,54.1z M375.1,49.7c0.2,0.1,1.9,1.2,3.2,2.8l-0.9,1c-1.5-1.9-3-2.8-3.2-3L375.1,49.7z"/>
<path class="st1" d="M321.6,40c0,19.2-15.6,34.8-34.8,34.8S252,59.2,252,40s15.6-34.8,34.8-34.8S321.6,20.8,321.6,40"/>
<path class="st3" d="M272.5,31.8h-2.7v-1c2.2-0.2,3-1.4,3.2-2.1h1.2V43h-1.7V31.8z"/>
<path class="st3" d="M280.4,41.8c0.2-0.4,0.7-1,1.3-1.8c1.2-1.5,3.1-3,4.5-4.5c1-1,1.5-2,1.5-3.2c0-1.5-1-2.5-2.6-2.5
	c-1.8,0-2.9,1.5-3,3.4h-1.7c0.2-2.7,1.7-4.9,4.7-4.9c3.1,0,4.3,2.1,4.3,3.8s-0.6,2.9-2.1,4.3c-1.4,1.3-3.1,2.8-4.1,3.9
	c-0.3,0.3-0.6,0.8-0.8,1l7.1-0.1V43h-9L280.4,41.8L280.4,41.8z"/>
<path class="st3" d="M292.1,32.3c0-2.4,1.3-3.7,3.1-3.7c1.8,0,3.1,1.3,3.1,3.7c0,2.5-1.3,3.7-3.1,3.7S292.1,34.8,292.1,32.3
	 M303.4,28.7h1.4L294.5,43H293L303.4,28.7z M296.8,32.3c0-1.9-0.6-2.7-1.7-2.7c-1,0-1.7,0.8-1.7,2.7s0.7,2.7,1.7,2.7
	C296,34.9,296.8,34.2,296.8,32.3 M299.7,39.5c0-2.5,1.3-3.7,3.1-3.7c1.8,0,3.1,1.3,3.1,3.7s-1.3,3.7-3.1,3.7S299.7,41.9,299.7,39.5
	 M304.5,39.5c0-1.9-0.6-2.7-1.6-2.7s-1.7,0.8-1.7,2.7s0.7,2.6,1.7,2.6C303.7,42.1,304.5,41.4,304.5,39.5"/>
<path class="st3" d="M268.3,56.8c0-4.4,2.7-7.4,6.7-7.4s6.6,3,6.6,7.4c0,4-2.2,7.5-6.6,7.5C270.5,64.3,268.3,60.8,268.3,56.8
	 M279.8,56.7c0-2.7-1.4-5.9-4.9-5.9S270,54,270,56.7c0,3.2,1.6,6.2,4.9,6.2C278.2,62.9,279.8,59.9,279.8,56.7"/>
<polygon class="st3" points="284.8,49.7 293.8,49.7 293.8,51.2 286.5,51.2 286.5,55.7 292.8,55.7 292.8,57.1 286.5,57.1 286.5,64 
	284.8,64 "/>
<polygon class="st3" points="296.3,49.7 305.3,49.7 305.3,51.2 298,51.2 298,55.7 304.2,55.7 304.2,57.1 298,57.1 298,64 296.3,64 
	"/>
<path class="st2" d="M21.2,88.1c4-1.8,5.9-5.1,6-5.3c1,0.2,1.1,0.3,1.1,0.4s-0.1,0.2-0.4,0.2c0.6,0.7,2.5,3.1,5.9,4.4l-1,0.8
	c-0.9-0.4-1.7-1-2.5-1.6v0.9h-5.7V87c-0.7,0.6-1.6,1.2-2.6,1.7L21.2,88.1z M25.2,94.2c3.1-0.4,4.8-2.7,5.3-3.9H23v-0.9h7.8
	c0,0,0.1-0.1,0.2-0.1c0,0,0,0,0.1,0c0,0,0.8,0.5,0.8,0.7c0,0.1-0.1,0.2-0.3,0.2c-0.6,1.5-2.4,4.2-5.4,4.8L25.2,94.2z M30.4,87.1
	c-1.5-1.2-2.6-2.4-3-3c-0.5,0.7-1.4,1.8-2.7,3H30.4z"/>
<path class="st2" d="M36.8,91.8c1-1.5,2.3-3.8,3.1-5.9c-0.6,0.1-1.2,0.2-1.7,0.2c-0.4,0-0.8-0.1-1.2-0.2L36.8,85l0,0
	c0,0,0-0.1,0.1-0.1l0,0c0.6,0.2,1,0.4,1.6,0.4c0.4,0,0.9-0.1,1.6-0.2c0.2-0.8,0.3-1.3,0.3-1.9c1.1,0.1,1.4,0.2,1.4,0.3
	c0,0.1-0.1,0.2-0.4,0.2c-0.1,0.3-0.1,0.7-0.2,1.1c0.6-0.2,1.2-0.4,1.7-0.6l0.1,0.9c-0.6,0.2-1.3,0.3-2,0.5c-0.9,2.2-2.2,4.8-3,6.4
	L36.8,91.8z M46.5,93.8c-0.5-0.6-1.5-1.2-2.2-1.6c-0.1,1.2-1.2,2-2.5,2s-2.4-0.8-2.4-1.7c0-0.7,0.6-1.6,2.5-1.6c0.5,0,1,0.1,1.5,0.2
	c0-0.8-0.1-1.7-0.1-2.4c0-0.3,0-0.7,0-0.9c0,0,0.7,0,1,0.1c0.2,0,0.3,0.1,0.3,0.2s-0.1,0.2-0.3,0.2c-0.1,0.3-0.1,0.7-0.1,1.1
	c0,0.6,0.1,1.3,0.1,2c0.9,0.3,2.4,1.2,3,1.8L46.5,93.8z M42,91.8c-1,0-1.6,0.4-1.6,0.8c0,0.5,0.9,0.8,1.5,0.8c0.8,0,1.5-0.5,1.6-1.4
	C43,91.8,42.5,91.8,42,91.8 M43.5,85.7c0.2,0,0.4,0,0.6,0c1.2,0,2.6,0.2,3.1,0.7l-0.3,0.8v0.1c0,0,0,0-0.1,0
	c-0.5-0.5-1.5-0.7-2.7-0.7c-0.2,0-0.4,0-0.6,0c-0.1,0-0.1,0-0.1,0l0,0L43.5,85.7z"/>
<path class="st2" d="M52.7,93.2c0.3,0,0.7,0,1.1,0c4.5,0,5.7-1.9,5.7-2.9c0-0.8-0.7-1.5-2-1.5c-2.3,0-4,1.9-4.3,2.3c0,0-0.8,0-0.9,0
	c-0.1,0-0.1,0-0.1-0.1c0-0.9,0.2-2.4,0.4-3.5c0.1-0.8,0.2-1.6,0.2-1.9c0-0.1,0-0.1,0.1-0.1c0,0,0,0,0.1,0l0.9,0.3
	c-0.1,0.4-0.2,1.1-0.3,1.7c-0.2,0.8-0.3,1.8-0.4,2.1c1.6-1.4,3.3-1.8,4.6-1.8c2,0,3,1.1,3,2.3c0,2.2-2.6,3.9-6.8,3.9h-0.3L52.7,93.2
	z M53.1,83.8c0.3,0,0.6,0,0.9,0c1.2,0,2.4,0.1,3.4,0.3l-0.3,1.1c-0.9-0.3-2.3-0.4-3.6-0.4c-0.3,0-0.6,0-0.8,0L53.1,83.8z"/>
<path class="st2" d="M67.3,93.4c0.2-0.3,0.5-0.7,0.9-1.3c0.9-1.1,2.2-2.1,3.2-3.2c0.7-0.7,1.1-1.4,1.1-2.3c0-1.1-0.7-1.8-1.9-1.8
	c-1.3,0-2.1,1.1-2.1,2.4h-1.2c0.2-1.9,1.2-3.4,3.4-3.4c2.2,0,3,1.5,3,2.7s-0.4,2.1-1.5,3.1c-1,0.9-2.2,2-2.9,2.8
	c-0.2,0.2-0.5,0.6-0.6,0.7l5-0.1v1.1h-6.4V93.4z"/>
<path class="st2" d="M82.1,93.8c2.7-0.8,3.6-2.8,3.8-5h-2.4c-0.5,1-1.1,1.8-1.8,2.3l-1-0.3c1.6-1.3,2.5-3.1,2.9-4.6
	c0.1,0,1.2,0.2,1.2,0.5c0,0.1-0.2,0.2-0.4,0.2c-0.1,0.4-0.3,0.8-0.5,1.2h5.5v0.8H87c-0.2,2.4-1.4,4.7-3.8,5.7L82.1,93.8z"/>
<path class="st2" d="M93,94.7c2.8-1.7,3.1-4.2,3.1-6.7c0-0.4,0-0.9,0-1.3c0-1.1-0.1-3.3-0.1-3.5h7.4v8.2c0,1,0,1.7,0,1.9
	c0,1.4-1.1,1.7-2.6,1.7c-0.2,0-0.3,0-0.5,0l-0.8-1.1c0.6,0.1,1.1,0.1,1.5,0.1c0.9,0,1.4-0.2,1.4-0.8v-2.9h-5.6
	c-0.2,1.8-0.9,3.4-2.7,4.8L93,94.7z M102.5,89.4v-2.3H97c0,0.8,0,1.5-0.1,2.3H102.5z M102.5,86.3v-2.1H97c0,0,0,1,0,2.1H102.5z"/>
<path class="st2" d="M109.5,83.5h8.4V95h-1v-0.9h-6.4v1h-1V83.5z M116.9,84.4h-6.4v2.2h6.4V84.4z M116.9,87.5h-6.4v2.3h6.4V87.5z
	 M116.9,90.8h-6.4v2.4h6.4V90.8z"/>
<path class="st2" d="M123.4,83.3c0.9,0,1.4,0,1.4,0.2c0,0.1-0.1,0.2-0.4,0.2l0.1,7.2c1.7-0.8,3.2-1.6,3.6-1.9v1
	c-1,0.6-3.7,2-5.5,2.8c0,0.1,0,0.2,0,0.2c0,0.2-0.1,0.2-0.1,0.2s-0.2-0.1-0.3-0.2c-0.2-0.3-0.6-0.9-0.6-1c0.6-0.2,1.3-0.4,1.9-0.7
	L123.4,83.3z M124,94.3c6.8-1.6,7.2-5.9,7.3-10.9c0.1,0,0.9,0,1.2,0.1c0.2,0,0.2,0.1,0.2,0.2s-0.1,0.2-0.4,0.3
	c-0.2,2.3-0.3,4.6-1.3,6.6c0.5,0.8,1.7,2.6,3.3,3.7l-1.1,0.6c-1.1-1-2.1-2.5-2.7-3.4c-1,1.5-2.7,2.8-5.4,3.7L124,94.3z M126.6,84.1
	c0.2,0.2,1.7,1.8,2.6,3.4l-0.8,0.6c-0.8-1.7-2.3-3.3-2.5-3.5L126.6,84.1z"/>
<path class="st2" d="M136.3,83.2h3.1l0.1-0.1c0,0,0,0,0.1,0c0.1,0.1,0.6,0.5,0.6,0.6s-0.1,0.1-0.2,0.2c-0.4,1.5-1,3.2-1,3.2
	c0.4,0.4,1.1,1.4,1.1,2.6c0,0.9-0.2,2.3-1.9,2.3H138l-0.6-1c0.2,0,0.5,0.1,0.7,0.1c0.8,0,1-0.7,1-1.3c0-1-0.4-1.9-1.1-2.6
	c0.1-0.1,0.7-1.8,0.9-3.2h-1.8v11.2h-0.9L136.3,83.2L136.3,83.2z M139.8,92.3h1.8v-1.8h-1v-0.8h3.6V89c0-0.1,0-0.6,0-0.8
	c1.1,0.1,1.3,0.1,1.3,0.3c0,0.1-0.1,0.2-0.4,0.2c0,0.2,0,0.5,0,0.5v0.6h2.4v0.8H145v1.8h2.9v0.8H145v2.1h-0.9v-2.1h-4.4L139.8,92.3
	L139.8,92.3z M139.9,88.2c1.6-0.4,2.8-1,3.7-1.6c-0.8-0.7-1.2-1.3-1.4-1.6c-0.4,0.4-0.9,0.9-1.5,1.3l-0.9-0.4c2.2-1.4,3-3,3.1-3.2
	c0,0,1,0.2,1,0.4c0,0.1-0.1,0.2-0.3,0.2h-0.1c-0.1,0.1-0.2,0.3-0.3,0.5h2.7c0.1,0,0.1-0.1,0.2-0.1c0.1,0,0.6,0.5,0.7,0.5
	c0,0.1,0.1,0.1,0.1,0.1c0,0.1-0.1,0.1-0.3,0.2c-0.5,0.8-1.1,1.5-1.8,2.2c0.9,0.5,2,1,3.6,1.3l-0.9,0.8c-1.4-0.4-2.5-1-3.3-1.6
	c-1,0.7-2.1,1.3-3.4,1.8L139.9,88.2z M144.2,90.4h-1.7v1.8h1.7V90.4z M142.7,84.5c0.1,0.3,0.6,1,1.5,1.7c0.9-0.7,1.4-1.4,1.5-1.8
	L142.7,84.5L142.7,84.5z"/>
<path class="st2" d="M153.2,89.3c-0.2,0.2-0.4,0.4-0.4,0.5c0,0.4,1,0.4,1,0.4c0.1,0,0.1,0,0.2,0c0-0.9,0.1-1.7,0.2-2.5
	c-0.3,0-0.6,0-0.9,0c-0.6,0-1.2-0.1-1.6-0.3c0,0,0-0.8,0-0.9s0-0.1,0.1-0.1c0,0,0,0,0.1,0c0.8,0.3,1.2,0.4,1.8,0.4
	c0.2,0,0.4,0,0.6,0c0.1-1.1,0.2-2.1,0.2-3.1c0-0.2,0-0.4,0-0.6l0,0c0,0,0-0.1,0.1-0.1c0,0,0.8,0.1,1.1,0.2c0.1,0,0.2,0.1,0.2,0.2
	s-0.1,0.2-0.4,0.2c-0.1,0.8-0.2,1.8-0.4,3c0.4-0.1,0.9-0.2,1.3-0.3v0.9c-0.4,0.1-0.9,0.2-1.4,0.3c-0.1,0.8-0.2,1.6-0.2,2.5
	c0.7-0.2,1.5-0.4,2.3-0.8l-0.1,1c-0.6,0.3-1.4,0.6-2.2,0.7v0.7c0,1.4,0.8,2,1.8,2c1.7,0,2.7-1.7,2.7-2.8c0-1.4-1.2-2.8-2.3-3.7
	l1.1-0.2c1.1,1,2.2,2.3,2.2,3.9c0,1.9-1.6,3.8-3.8,3.8c-1.7,0-2.6-1.2-2.6-2.9v-0.1c0-0.2,0-0.4,0-0.6c-0.1,0-0.2,0-0.3,0
	c-0.8,0-1.8-0.3-1.8-1c0-0.3,0.2-0.6,0.5-0.9L153.2,89.3z"/>
<path class="st2" d="M166.7,86.1c0-1.1,0.2-2,1.4-2.2v0.7c-0.7,0.2-0.7,0.7-0.7,1.3h0.7v1.4h-1.4V86.1L166.7,86.1z M168.9,86.1
	c0-1.1,0.3-2,1.4-2.2v0.7c-0.7,0.2-0.7,0.7-0.7,1.3h0.7v1.4h-1.4V86.1z"/>
<path class="st2" d="M173.2,85.7C173.2,85.6,173.2,85.6,173.2,85.7c0-0.1,0-0.1,0.1-0.1l0,0c0.3,0,0.7,0,1,0c0.7,0,1.3-0.1,2-0.1
	c0.9-0.1,1.9-0.2,2.9-0.2c0-0.7-0.1-1.4-0.1-1.9c1,0,1.5,0,1.5,0.2c0,0.1-0.1,0.2-0.4,0.2c0,0.3,0,0.8-0.1,1.3c1-0.1,2-0.1,2.9-0.1
	c0.4,0,0.8,0,1.2,0v1c-0.9-0.1-1.9-0.2-2.9-0.2c-0.4,0-0.8,0-1.2,0c0,0.9,0,1.9,0,2.4c0.5,0.7,0.6,1.5,0.6,1.9
	c0,1.6-1.2,3.4-3.9,4.3c-0.5-0.3-1.1-0.7-1.2-0.7c0.7-0.1,3.9-1,4.2-3.4c-0.3,0.6-0.8,0.9-1.7,0.9c-1.3,0-1.9-1.1-1.9-1.9
	c0-1.1,0.9-2.1,2.1-2.1c0.4,0,0.7,0.1,1,0.2v-0.5c0-0.4,0-0.8,0-1.3c-1.1,0.1-2.2,0.2-3.1,0.3c-0.9,0.1-1.8,0.3-2.7,0.3L173.2,85.7z
	 M178.2,88.3c-1.1,0-1.2,0.9-1.2,1.2c0,0.5,0.3,1.1,1.1,1.1c1,0,1.2-1,1.2-1.9C179,88.5,178.7,88.3,178.2,88.3 M182.3,82.6
	c0.1,0.1,0.9,0.8,1.3,1.6l-0.8,0.4c-0.3-0.6-0.7-1.3-1.2-1.7L182.3,82.6z M183.9,82.3c0.2,0.1,0.9,0.8,1.3,1.6l-0.7,0.5
	c-0.3-0.6-0.7-1.2-1.3-1.7L183.9,82.3z"/>
<path class="st2" d="M190.6,93.1c3.1,0,5.4-1,5.4-2.8c0-0.4-0.1-1.7-2-1.7c-1,0-1.9,0.3-2.7,0.7c-0.7,0.3-1.5,0.8-2.2,1
	c0,0-0.5-0.7-0.6-0.8l-0.1-0.1c0,0,0-0.1,0.1-0.1c0.9-0.2,1.7-0.5,2.5-0.8c0.9-0.3,1.9-0.7,3.1-0.7c2.9,0,2.9,2.3,2.9,2.5
	c0,2.7-3.5,3.7-5.7,3.7c-0.4-0.3-0.7-0.7-0.9-0.9C190.3,93.1,190.6,93.1,190.6,93.1z"/>
<path class="st2" d="M210.8,93.9c-1,0.3-2.1,0.4-3.2,0.4c-0.6,0-4.4,0-4.4-2.6c0-1.5,1.4-2.5,2.9-3.2c-0.2-0.5-0.4-1.1-0.4-1.9
	c0-0.5,0.1-1.1,0.1-1.8v-0.3c0-0.3,0-0.7,0-1.1l0,0c0-0.1,0-0.1,0.1-0.1c0,0,0.7,0.1,1.2,0.2c0.1,0,0.2,0.1,0.2,0.2
	s-0.1,0.2-0.4,0.2c-0.1,1-0.1,2.1-0.1,2.7c0,0.7,0.1,1.2,0.3,1.7c0.5-0.2,1-0.3,1.5-0.4c0.6-0.2,1.2-0.3,1.8-0.4l0,0
	c0.1,0,0.1,0,0.1,0.1v1.1c-2.6,0.2-6.2,1.2-6.2,3.1c0,1.6,2.3,1.7,3.1,1.7c1.2,0,2.6-0.2,3.7-0.7L210.8,93.9z"/>
<path class="st2" d="M216.2,86.2L216.2,86.2C216.2,86.1,216.3,86.1,216.2,86.2L216.2,86.2c0.5,0.1,1,0.3,1.6,0.3
	c0.2,0,0.4,0,1.3-0.2c0-1,0-2-0.1-2.7c1.2,0,1.4,0.1,1.4,0.2S220.3,84,220,84c0,0.4-0.1,1.1-0.1,2c0.7-0.2,1.4-0.5,2.2-0.8v1
	c-0.7,0.3-1.5,0.5-2.3,0.8c0,0.8,0,1.6,0,2.4c1.3-0.5,2.2-0.7,3.2-0.7c1.8,0,3.2,0.8,3.2,2.2c0,1.3-1.3,3-3.4,3
	c-0.8,0-1.3-0.2-1.9-0.6c0,0-0.1-1.1-0.2-1.2c0.7,0.5,1.3,0.8,2.1,0.8c1.5,0,2.3-1.1,2.3-2c0-0.8-0.9-1.4-2.2-1.4
	c-1.2,0-2.2,0.4-3.1,0.8c0,0.5,0,1.1,0,1.5c0,0.7,0,1.3,0,1.8c0,0.1,0,0.2-0.1,0.2c-0.2,0.1-0.7,0.2-0.9,0.2c-0.1,0-0.1-0.1-0.2-0.2
	l-0.1-0.1c-0.4-0.3-1.4-0.7-2.1-0.9c-0.3,0.4-0.4,0.4-0.4,0.4c-0.1,0-0.2,0-0.2,0c-0.1-0.1-0.8-0.4-0.8-0.6c0,0,0-0.1,0.1-0.1
	c0.1-0.1,0.3-0.2,0.3-0.2c0.9-0.8,2.3-1.9,3.4-2.5v-2.5c-0.2,0-1,0.2-1.6,0.2c-0.4,0-0.7-0.1-1.1-0.2L216.2,86.2z M219.1,90.6
	c-0.6,0.4-1.6,1.1-2,1.6c0.6,0.2,1.3,0.4,2,0.6C219.1,92.1,219.1,91.3,219.1,90.6 M223.8,85.6c1.5,0,3,0.3,3.4,1l-0.3,0.9
	c0,0,0,0.1-0.1,0.1c0,0,0,0-0.1,0c-0.6-0.8-1.9-1.1-3.3-1.1L223.8,85.6z"/>
<path class="st2" d="M230.9,89.1c-0.4,0.4-0.9,0.8-1.3,1.1l-0.9-0.5c1.2-0.7,3-2.6,3.7-4.2c0.9,0.6,1.1,0.7,1.1,0.8
	c0,0.1-0.1,0.1-0.2,0.1c-0.1,0-0.1,0-0.2,0c-0.4,0.6-0.8,1.2-1.4,1.9c0.1,0,0.3,0,0.3,0c0.2,0,0.3,0.1,0.3,0.2s-0.1,0.2-0.4,0.3
	c0,0.1,0,0.6,0,0.6v5.9H231L230.9,89.1z M228.8,86.2c1-0.6,2.5-1.9,3.2-3.5c0.1,0,0.6,0.2,0.9,0.5c0.1,0.1,0.2,0.2,0.2,0.2
	c0,0.1-0.1,0.2-0.3,0.2c-0.1,0-0.1,0-0.2,0c-0.7,1.1-1.6,2.2-2.9,3.2L228.8,86.2z M235.8,94.1c0.3,0,0.8,0.1,1.3,0.1
	c0.7,0,1.3-0.2,1.3-0.8v-2.2h-5.7v-0.8h5.7v-1.1h-5.5v-0.8h8.3v0.8h-1.9v1.1h2.1v0.8h-2.1v0.9c0,0.7,0,1.2,0,1.3
	c0,1.4-1.2,1.6-2.5,1.6h-0.3L235.8,94.1z M234.5,91.4c0.1,0.1,1.2,0.7,2,1.6l-0.8,0.7c-0.6-0.8-1.6-1.6-1.9-1.7L234.5,91.4z
	 M234.1,83.1h5.8V88h-0.8v-0.6H235V88h-0.8L234.1,83.1L234.1,83.1z M239.1,83.9H235v1h4.1V83.9z M239.1,85.6H235v1h4.1V85.6z"/>
<path class="st2" d="M244.4,91.8c1-1.5,2.3-3.8,3.1-5.9c-0.6,0.1-1.2,0.2-1.7,0.2c-0.4,0-0.8-0.1-1.1-0.2l-0.2-0.9l0,0
	c0,0,0-0.1,0.1-0.1l0,0c0.6,0.2,1.1,0.4,1.6,0.4c0.4,0,0.9-0.1,1.6-0.2c0.2-0.8,0.3-1.3,0.3-1.9c1.1,0.1,1.4,0.2,1.4,0.3
	c0,0.1-0.1,0.2-0.4,0.2c-0.1,0.3-0.1,0.7-0.2,1.1c0.6-0.2,1.2-0.4,1.7-0.6l0.1,0.9c-0.6,0.2-1.3,0.3-2,0.5c-0.9,2.2-2.2,4.8-3.1,6.4
	L244.4,91.8z M254.2,93.8c-0.6-0.6-1.5-1.2-2.2-1.6c-0.1,1.2-1.2,2-2.5,2s-2.4-0.8-2.4-1.7c0-0.7,0.6-1.6,2.5-1.6
	c0.5,0,1,0.1,1.5,0.2c0-0.8-0.1-1.7-0.1-2.4c0-0.3,0-0.7,0.1-0.9c0,0,0.7,0,1,0.1c0.2,0,0.3,0.1,0.3,0.2s-0.1,0.2-0.4,0.2
	c-0.1,0.3-0.1,0.7-0.1,1.1c0,0.6,0.1,1.3,0.1,2c0.9,0.3,2.4,1.2,3,1.8L254.2,93.8z M249.6,91.8c-1,0-1.6,0.4-1.6,0.8
	c0,0.5,0.9,0.8,1.5,0.8c0.8,0,1.6-0.5,1.6-1.4C250.7,91.8,250.1,91.8,249.6,91.8 M251.2,85.7c0.2,0,0.4,0,0.6,0
	c1.2,0,2.6,0.2,3.1,0.7l-0.3,0.8c0,0,0,0.1-0.1,0.1c0,0,0,0-0.1,0c-0.5-0.5-1.5-0.7-2.7-0.7c-0.2,0-0.4,0-0.6,0c-0.1,0-0.1,0-0.1,0
	l0,0L251.2,85.7z"/>
<path class="st2" d="M257.6,86.8c0.7-0.2,0.7-0.7,0.7-1.2h-0.7v-1.4h1.4v1.2c0,1.1-0.2,2-1.4,2.2V86.8z M259.9,86.8
	c0.7-0.2,0.7-0.7,0.7-1.2h-0.7v-1.4h1.4v1.2c0,1.1-0.3,2-1.4,2.2V86.8z"/>
<path class="st2" d="M267.1,89.9l4.6-0.9l-0.5-2.3l-3.9,0.8l-0.2-0.9l3.9-0.8l-0.3-1.2c0,0-0.1-0.7-0.2-1.1c0.5-0.1,0.9-0.1,1.1-0.1
	h0.1c0.2,0,0.3,0.1,0.3,0.1c0,0.1-0.1,0.2-0.3,0.3c0,0.4,0.2,1,0.2,1l0.1,0.7l3.8-0.7l0.2,0.9l-3.8,0.7l0.5,2.3l4.5-0.9l0.2,0.9
	l-4.5,0.9l1,4.4l-1,0.2l-1-4.5l-4.6,0.9L267.1,89.9z"/>
<path class="st2" d="M284.7,89.5c-1,0.2-1.9,0.5-2.5,0.6l-0.3-0.8c0.6-0.1,1.5-0.3,2.6-0.6l-0.3-1.4c0,0-0.1-0.5-0.2-0.8
	c0.3-0.1,1-0.1,1.1-0.1c0.2,0,0.3,0.1,0.3,0.2s-0.1,0.2-0.3,0.3c0,0.3,0.1,0.7,0.1,0.8l0.2,0.9c1.8-0.4,3.6-0.8,3.6-0.9
	c0.1,0,0.2-0.2,0.3-0.2c0,0,0.9,0.3,0.9,0.5c0,0.1-0.1,0.1-0.2,0.2c-0.6,1.3-1.5,2.7-2.2,3.3l-1.1-0.2c0.7-0.7,1.4-1.5,2-2.7
	c-0.7,0.2-1.9,0.5-3.2,0.8l1.2,5.2l-0.9,0.2L284.7,89.5z"/>
<path class="st2" d="M296.4,84.7c1.1,0.5,2.5,1.6,3.1,2.4l-0.8,0.9c-0.7-1.1-2-2.1-3-2.7L296.4,84.7z M305.6,87.7
	c-2.1,2.7-5.1,4.9-8.5,5.9c0,0.2-0.1,0.4-0.2,0.4c-0.2,0-1.1-1.1-1.2-1.2c0,0,0,0,0-0.1s0,0,0.1-0.1c4-0.5,7.5-3.7,9.3-6.3
	L305.6,87.7z"/>
<path class="st2" d="M308.6,90c0.5-0.4,1-0.9,1.4-1.4c0.5-0.6,1-1.1,1.5-1.6c0.5-0.4,0.9-0.7,1.4-0.7s1,0.2,1.5,0.6
	c1,0.8,2.1,1.9,3.2,2.9c1,0.9,2.1,1.9,3.1,2.6l-1.2,0.7c-1.9-1.7-3.9-3.8-5.8-5.5c-0.3-0.2-0.5-0.4-0.8-0.4c-0.5,0-0.5,0-3.2,3.3
	L308.6,90z M317.7,84.3c0.9,0,1.6,0.7,1.6,1.6s-0.7,1.6-1.6,1.6s-1.6-0.7-1.6-1.6C316.1,85.1,316.8,84.3,317.7,84.3 M318.6,86
	c0-0.5-0.4-0.9-0.9-0.9s-0.9,0.4-0.9,0.9s0.4,0.8,0.9,0.8S318.6,86.4,318.6,86"/>
<rect x="323.2" y="88.4" class="st2" width="10.6" height="1"/>
<path class="st2" d="M338.8,84.7c1.1,0.5,2.5,1.6,3.1,2.4l-0.8,0.9c-0.7-1.1-2-2.1-3-2.7L338.8,84.7z M348,87.7
	c-2.1,2.7-5.1,4.9-8.5,5.9c0,0.2-0.1,0.4-0.2,0.4c-0.2,0-1.1-1.1-1.2-1.2c0,0,0,0,0-0.1s0,0,0.1-0.1c4-0.5,7.5-3.7,9.3-6.3L348,87.7
	z"/>
<path class="st2" d="M352.6,91.2c1.1,0,1.9,0.9,1.9,1.9c0,1.1-0.9,1.9-1.9,1.9s-1.9-0.9-1.9-1.9C350.6,92.1,351.5,91.2,352.6,91.2
	 M353.7,93.2c0-0.6-0.5-1.2-1.1-1.2s-1.1,0.5-1.1,1.2c0,0.6,0.5,1.2,1.1,1.2C353.2,94.3,353.7,93.8,353.7,93.2"/>
<path class="st2" d="M364.2,91.4c-0.9,1.7-1.6,2.1-2.2,2.1c-0.3,0-0.5-0.1-0.8-0.2c-2.2-1.1-2.2-3.6-2.2-5.6c0-0.6,0-1.3,0-1.9l0,0
	c0,0,0-0.1,0.1-0.1l0,0c0,0,0.8,0.1,1.1,0.1c0.1,0,0.2,0.1,0.2,0.2s-0.1,0.2-0.4,0.2c0,0.8-0.1,2.4-0.1,2.7c0,1.6,0.4,2.8,1.6,3.4
	c0.1,0.1,0.2,0.1,0.4,0.1c0.5,0,0.9-0.7,1.6-2.3L364.2,91.4z M368.7,91.9L368.7,91.9c-0.1,0-0.1,0-0.1,0l0,0v-0.2
	c0-1.9-1.1-4.3-2.7-5.7l0.9-0.3c1.5,1.3,2.9,4,2.9,5.8v0.1L368.7,91.9z"/>
<path class="st2" d="M372.5,87.6C372.4,87.6,372.4,87.6,372.5,87.6c0-0.1,0-0.1,0.1-0.1c1.1-0.2,2.1-0.7,3.3-1.1
	c1.2-0.4,2.4-0.8,4-0.8c2.8,0,3.7,1.8,3.7,3.2c0,3.2-4,4.7-7.4,4.7c-0.4-0.4-1-0.9-1-1h0.4c3.3,0,6.9-1.1,6.9-3.8
	c0-0.4-0.1-2.3-2.6-2.3c-1.4,0-2.6,0.4-3.6,0.9s-2,1-2.9,1.2L372.5,87.6z"/>
<path class="st2" d="M24.7,111.9c-0.2,0.2-0.4,0.4-0.4,0.5c0,0.4,1,0.4,1,0.4c0.1,0,0.1,0,0.2,0c0-0.9,0.1-1.7,0.2-2.5
	c-0.3,0-0.6,0-0.9,0c-0.6,0-1.2-0.1-1.6-0.3c0,0,0-0.8,0-0.9s0-0.1,0-0.1s0,0,0.1,0c0.8,0.3,1.2,0.4,1.8,0.4c0.2,0,0.4,0,0.6,0
	c0.1-1.1,0.2-2.1,0.2-3.1c0-0.2,0-0.4,0-0.6l0,0c0,0,0-0.1,0.1-0.1c0,0,0.8,0.1,1.1,0.2c0.1,0,0.2,0.1,0.2,0.2s-0.1,0.2-0.4,0.2
	c-0.1,0.8-0.2,1.8-0.4,3c0.5-0.1,0.9-0.2,1.3-0.3v0.9c-0.4,0.1-0.9,0.2-1.4,0.3c-0.1,0.8-0.2,1.6-0.2,2.5c0.7-0.2,1.5-0.4,2.3-0.8
	l-0.1,1c-0.6,0.3-1.4,0.6-2.2,0.7v0.7c0,1.4,0.8,2,1.8,2c1.7,0,2.7-1.7,2.7-2.8c0-1.4-1.2-2.8-2.3-3.7l1.1-0.2
	c1.1,1,2.2,2.3,2.2,3.9c0,1.9-1.6,3.8-3.8,3.8c-1.7,0-2.6-1.2-2.6-2.9v-0.1c0-0.2,0-0.4,0-0.6c-0.1,0-0.2,0-0.3,0
	c-0.8,0-1.8-0.3-1.8-1c0-0.3,0.2-0.6,0.5-0.9L24.7,111.9z"/>
<path class="st2" d="M35,117.4c1.1-1.5,1.3-3.6,1.3-4.8v-3.4c-0.1,0.2-0.3,0.4-0.5,0.6l-0.9-0.3c1.7-1.6,2.6-4.2,2.7-4.4
	c0,0,0.5,0.1,0.9,0.3c0.2,0.1,0.2,0.1,0.2,0.2s-0.2,0.2-0.4,0.2l0,0l-0.2,0.3h1.4c0.1,0,0.2-0.1,0.2-0.1l0,0
	c0.2,0.1,0.6,0.4,0.6,0.6c0,0.1-0.2,0.1-0.2,0.2s-0.5,1-0.9,1.6H41v1.1c1.8-0.6,2.5-1.5,2.6-2.9h-2v-0.7h5.8c-0.1,2.6-0.2,4-2.1,4
	c-0.2,0-0.4,0-0.6,0l-0.5-0.9c0.3,0,0.7,0.1,1,0.1c1,0,1.2-0.7,1.3-2.4h-2c-0.1,1.2-0.6,2.7-2.7,3.5l-0.8-0.6v5.6c0,0,0,0.7,0,1.2
	c0,1.1-0.9,1.4-1.8,1.4c-0.2,0-0.4,0-0.6,0c0-0.1-0.4-0.8-0.5-1c0.4,0.1,0.8,0.1,1.2,0.1c0.5,0,0.8-0.1,0.8-0.6V114H37
	c-0.1,1.2-0.4,2.6-1,3.6L35,117.4z M38.4,108.2c0.4-0.6,0.8-1.4,0.9-1.5h-1.4c-0.2,0.5-0.5,1-0.9,1.5H38.4z M38.3,113.3v-1.8h-1.2
	v1.3c0,0.2,0,0.3,0,0.5H38.3z M38.3,109h-1.2v1.8h1.2V109z M40.3,109H39v1.8h1.3V109z M40.3,111.5H39v1.8h1.3V111.5z M41.6,114.2
	h2.8v-1.7h-1.5c-0.2,0.5-0.5,1.1-0.8,1.4l-0.9-0.3c0.9-0.9,1.5-2.8,1.6-3.5c0.9,0.3,1.2,0.4,1.2,0.5s-0.1,0.1-0.4,0.1
	c-0.1,0.2-0.2,0.5-0.3,0.9h1.1V111c0-0.1,0-0.6,0-0.9c0.5,0,1.3,0,1.3,0.2c0,0.1-0.2,0.2-0.4,0.2c0,0.2,0,0.6,0,0.6v0.5h2.3v0.8
	h-2.3v1.7H48v0.8h-2.8v2.8h-0.9V115h-2.8L41.6,114.2L41.6,114.2z"/>
<path class="st2" d="M49.2,116.9c0.9-1.6,1.2-3.6,1.2-3.9c1.1,0.2,1.2,0.3,1.2,0.4s-0.2,0.2-0.4,0.2c0,0.3-0.4,2-1,3.5L49.2,116.9z
	 M52,111.8c-0.6,0.1-1.2,0.2-1.8,0.2c0,0.2-0.1,0.4-0.2,0.4c-0.1,0-0.2-0.2-0.4-1.2c0.3,0,0.6,0,0.9,0c0.4-0.4,0.7-0.8,1.1-1.3
	c-0.4-0.5-1-1.2-1.8-1.9l0.5-0.7c0.2,0.1,0.3,0.2,0.5,0.4c0.6-0.8,1.3-2.1,1.5-2.6c0.9,0.4,1.1,0.6,1.1,0.8c0,0.1-0.1,0.2-0.3,0.2
	c-0.1,0-0.1,0-0.2,0c-0.3,0.5-1,1.5-1.5,2.3c0.3,0.3,0.6,0.7,0.8,0.9c0.8-1.1,1.5-2.2,1.7-2.7c1,0.6,1.1,0.7,1.1,0.8
	c0,0.1-0.1,0.2-0.3,0.2c-0.1,0-0.1,0-0.2,0c-0.2,0.2-1.6,2.2-2.8,3.6c1-0.1,1.9-0.2,2.4-0.3c-0.2-0.5-0.4-0.9-0.6-1.3l0.7-0.3
	c0.2,0.4,0.9,1.6,1.2,2.9l-0.8,0.4c-0.1-0.3-0.2-0.7-0.3-1.1c-0.3,0.1-0.7,0.1-1.2,0.2v6.1H52V111.8z M54.4,116.7
	c-0.2-1.4-0.8-2.9-1-3.5l0.8-0.2c0.2,0.6,0.8,2.1,1.1,3.4L54.4,116.7z M56.8,116.4c0.5,0.1,1,0.2,1.5,0.2c0.8,0,1.4-0.2,1.8-1.2
	c0.6-1.6,0.5-4.8,0.5-7h-3.8c-0.3,0.7-0.7,1.5-1.2,2.2l-1-0.3c1.3-1.4,2.1-3.9,2.3-4.9c1.2,0.2,1.3,0.2,1.3,0.4
	c0,0.1-0.1,0.2-0.5,0.2c-0.1,0.4-0.3,1-0.5,1.7h4.4v1c0,6.2-0.1,9.1-3.3,9.1c-0.2,0-0.5,0-0.7,0L56.8,116.4z M57,110.1
	c0.7,0.8,1.6,2.1,2.1,3.2l-0.9,0.6c-0.4-1.3-1.2-2.6-2-3.4L57,110.1z"/>
<path class="st2" d="M64.6,108.3C64.6,108.3,64.6,108.2,64.6,108.3c0-0.1,0-0.2,0.1-0.2c1.9,0,4.7-0.9,9.5-1.5c0.1,0,0.1,0,0.2,0
	s0.1,0,0.1,0c0.2,0,0.5,0.9,0.5,1s-0.1,0.1-0.1,0.1s-0.1,0-0.2-0.1c-0.7,0-1.1,0.1-1.6,0.3c-1.3,0.5-3.8,2.6-3.8,4.6
	c0,2.3,2.7,2.9,4.5,3l-0.9,1.1c-1.4-0.2-4.6-1.1-4.6-3.9c0-2.6,2.8-4.6,3.2-4.9c-2.4,0.3-4.9,1.2-6.4,1.4L64.6,108.3z M73.8,108.9
	c0.2,0.2,1,0.9,1.5,1.7l-0.7,0.5c-0.3-0.5-0.9-1.4-1.4-1.8L73.8,108.9z M75.1,108.3c0.2,0.1,1,0.8,1.5,1.6l-0.7,0.5
	c-0.3-0.5-0.9-1.3-1.5-1.7L75.1,108.3z"/>
<path class="st2" d="M79.7,110C79.7,110,79.7,109.9,79.7,110C79.8,109.9,79.8,109.9,79.7,110c0.9,0.2,1.6,0.3,2.4,0.3
	s1.7-0.2,2.9-0.4c-0.3-0.4-0.6-0.9-0.8-1.4c-0.8,0.2-1.4,0.3-1.9,0.3s-0.9-0.1-1.5-0.3l-0.1-0.9c0,0,0-0.1,0.1-0.1l0,0
	c0.7,0.3,1.1,0.4,1.7,0.4c0.4,0,0.8-0.1,1.3-0.2c-0.3-0.6-0.7-1.2-1-1.9c0.2,0,1.1-0.2,1.2-0.2c0.2,0,0.2,0.1,0.2,0.1
	c0,0.1-0.1,0.2-0.3,0.3c0.2,0.5,0.4,1,0.6,1.4c1.1-0.3,1.7-0.5,2.2-0.7l0.4,0.8c-0.5,0.2-1.3,0.4-2.2,0.7c0.3,0.5,0.5,0.9,0.8,1.4
	c1.2-0.3,1.9-0.6,2.4-0.9l0.5,0.9c-0.5,0.2-1.3,0.5-2.4,0.8c0.7,1.2,1.4,2.2,1.7,3.3L87,114c-0.8-0.4-1.9-0.7-3-0.7
	c-1.4,0-2.9,0.3-2.9,1.2c0,1,1.7,1.5,3.3,1.5c0.8,0,1.7-0.2,2.4-0.5l-0.2,1.2c-0.5,0.1-1.5,0.3-2.2,0.3c-2,0-4.3-0.8-4.3-2.4
	c0-1.9,2.8-2.1,4-2.1c0.9,0,1.8,0.1,2.2,0.2c-0.2-0.6-0.6-1.2-1-2c-1.6,0.4-2.7,0.6-3.7,0.6c-0.7,0-1.3-0.1-2-0.3L79.7,110z"/>
<path class="st2" d="M92.7,114.5c0.9,0.5,2.4,1.7,3.1,2.4l-0.8,0.9c-0.8-1-2-2.1-3-2.7L92.7,114.5z"/>
<path class="st2" d="M99,116.8c3.4-0.3,5.1-1.3,5.7-2.8h-5v-0.8h5.2c0-0.2,0-0.3,0-0.4c0-0.2,0-0.4,0-0.6c0.4,0,1.4,0.1,1.4,0.3
	c0,0.1-0.1,0.2-0.4,0.2c0,0.2,0,0.3,0,0.5h5.3v0.8H106c0.7,1,2.6,2.5,5.8,2.5h0.1l-0.9,1c-3-0.2-4.8-1.8-5.5-3
	c-0.6,1.3-2.1,2.6-5.6,3.1L99,116.8z M99.5,111h5.4v-1.3h-4.5v-0.8h4.5v-1.2H100v-0.8h3.2c-0.3-0.6-0.8-1.2-0.9-1.3l0.9-0.3
	c0.1,0.2,0.7,0.9,1,1.6h2.3c0.4-0.6,0.8-1.5,0.9-1.6c0.1,0,1.2,0.4,1.2,0.6c0,0.1-0.1,0.2-0.4,0.2c-0.1,0-0.1,0-0.2,0
	c0,0-0.2,0.4-0.6,0.8h3.2v0.8h-4.9v1.2h4.5v0.8h-4.5v1.3h5.5v0.8H99.5V111z"/>
<path class="st2" d="M112.9,117.4c1.4-1.8,1.6-4.7,1.6-7c0-1.1,0-4.1,0-4.6h3.6v8.1c0,1,0,1.8,0,1.9l0,0c0,1.1-1,1.4-1.9,1.4
	c-0.1,0-0.2,0-0.2,0l-0.6-1c0.3,0,0.7,0.1,1,0.1c0.5,0,0.9-0.1,0.9-0.7v-2.8h-2c-0.1,1.8-0.5,3.6-1.3,4.8L112.9,117.4z M117.2,112
	v-2.4h-1.9c0,0.3,0,0.5,0,0.8c0,0.5,0,1,0,1.6H117.2z M117.2,106.7h-1.9v2.2h1.9V106.7z M117.6,117.4c1.8-1.3,2-3.9,2-6.1
	c0-0.6,0-1.2,0-1.7c0-1-0.1-3.5-0.1-3.7h4.2c0,0.4,0,8.6,0,10.2c0,0.2,0.1,0.4,0.6,0.4c0.2,0,0.6,0,0.7-0.6c0.1-0.7,0.1-2.1,0.1-2.5
	l0.8,0.8c0,0.3,0,1.3-0.2,2c-0.1,0.7-0.4,1.3-1.6,1.3c-1.3,0-1.4-0.6-1.4-1.2v-9.5h-2.3c0,0.2,0,2.2,0,2.9c0,0.4,0,0.8,0,1.3
	c0,2.4-0.2,5-1.8,6.8L117.6,117.4z"/>
<path class="st2" d="M130.8,116.2c3.1-0.8,4.4-2.4,4.4-5.5v-0.5h-3v3.1h-1v-3.1h-3.4v-0.9h3.4v-1.6c0,0,0-0.8,0-1.2h0.2
	c0.7,0,1.2,0,1.2,0.2c0,0.1-0.1,0.2-0.4,0.2c0,0.4,0,0.9,0,0.9v1.4h3c0-0.4,0-1.2,0-1.9c0-0.3,0-0.7,0-0.9c1.3,0,1.4,0.2,1.4,0.2
	c0,0.1-0.1,0.2-0.4,0.2c0,0.2,0,0.6,0,0.9c0,0.2,0,0.5,0,0.7s0,0.5,0,0.7h3.2v0.9h-3.2v0.1c0,0.4,0,0.8,0,1.1
	c-0.2,2.8-1.6,4.4-4.3,5.5L130.8,116.2z"/>
<path class="st2" d="M144.8,111.1c0.4,0.2,1.2,0.5,1.2,0.7c0,0.1-0.1,0.2-0.3,0.2h-0.1c-0.5,1.1-1.5,2.6-2.4,3.3
	c0,0-1.1-0.4-1.1-0.5C143.4,113.9,144.4,112.2,144.8,111.1 M147.5,109.6h-4.6v-0.9h4.6v-0.9c0-0.4,0-0.7,0-1.1c1.1,0,1.4,0,1.4,0.2
	c0,0.1-0.1,0.2-0.4,0.2c0,0.3,0,0.7,0,0.7v0.8h4.5v0.9h-4.5v2.1c0,0.4,0.1,3,0.1,3.1c0,1.3-1.1,1.8-2.3,1.8c-0.2,0-0.4,0-0.6,0
	c0-0.1-0.6-1-0.7-1.1c0.4,0.1,0.9,0.2,1.4,0.2c0.6,0,1.1-0.2,1.1-0.9V109.6L147.5,109.6z M150.6,111.1c0.8,0.6,2.3,2.3,2.7,3.4
	l-0.9,0.6c-0.4-1.1-1.6-2.8-2.5-3.5L150.6,111.1z M152.3,105.2c0.8,0,1.5,0.7,1.5,1.5s-0.7,1.5-1.5,1.5s-1.5-0.7-1.5-1.5
	S151.5,105.2,152.3,105.2 M153.1,106.7c0-0.4-0.4-0.8-0.8-0.8c-0.4,0-0.8,0.3-0.8,0.8s0.4,0.8,0.8,0.8
	C152.7,107.5,153.1,107.1,153.1,106.7"/>
<rect x="156.6" y="110.9" class="st2" width="10.6" height="1"/>
<path class="st2" d="M174.5,107.5c0,0,0-0.8,0-1.3c1.5,0.1,1.6,0.1,1.6,0.3c0,0.1-0.1,0.2-0.4,0.3c0,0.3,0,0.6,0,0.8v0.2v1.8
	c1.5,0.5,3.7,1.3,5,2l-0.8,1.1c-1.3-0.9-2.9-1.6-4.2-2.1v6.5h-1.1L174.5,107.5L174.5,107.5z"/>
<path class="st2" d="M184.3,110.9L184.3,110.9C184.3,110.8,184.3,110.8,184.3,110.9c0.8-0.3,1.6-0.6,2.5-1l0.4-0.2
	c-0.4-0.9-0.8-1.8-1.1-2.6c0.1,0,0.9-0.2,1.2-0.2c0.1,0,0.2,0.1,0.2,0.1c0,0.1-0.1,0.2-0.2,0.3c0.2,0.6,0.4,1.3,0.8,2.1
	c0.8-0.4,1.7-0.8,2.5-1.1c-0.2-0.5-0.5-1.2-1.3-1.9l0.8-0.3c0.6,0.5,1.2,1.3,1.4,1.9c0.8-0.2,1.4-0.3,1.8-0.3c1.7,0,2.6,0.9,2.6,2.1
	c0,0.7-0.7,2.9-3.7,2.9c-0.6,0-1.1-0.1-1.4-0.1l-0.6-1.1c0.7,0.2,1.4,0.3,2,0.3c1.8,0,2.6-1.1,2.6-1.9c0-0.1,0-1.3-1.7-1.3
	c-1.3,0-2.9,0.7-4.8,1.7c0.3,0.7,0.6,1.3,1,2c0.8,1.6,1.7,3.3,2.3,4.6l-1.1,0.5c-0.3-0.9-0.4-1.2-3-6.7l-0.3,0.2
	c-0.8,0.5-1.5,0.8-2.1,1L184.3,110.9z"/>
<path class="st2" d="M200.5,114.9c0-1.4,0.1-3.7,0.1-4.9v0.1c-0.2,0.7-0.8,2.4-1.8,3.9l-1-0.3c1.5-1.6,2.4-4.2,2.6-4.9h-2.1V108h2.3
	v-1.7v-0.9c1.3,0,1.4,0.2,1.4,0.2c0,0.1-0.1,0.2-0.4,0.3c0,0.1,0,0.6,0,0.6v1.5h2v0.8h-1.9v0.1c0.3,0.7,1.1,2.3,2.1,3.6l-0.9,0.3
	c-0.7-1.1-1.3-2.7-1.4-3.1c0,1.2,0.1,4.3,0.1,5.3v2.7h-0.9L200.5,114.9L200.5,114.9z M204.2,106h5.7v11.5H209v-0.8h-3.9v0.9h-0.9
	L204.2,106L204.2,106z M209,106.8h-3.9v2.3h3.9V106.8z M209,110h-3.9v2.4h3.9V110z M209,113.3h-3.9v2.5h3.9V113.3z"/>
<path class="st2" d="M212.2,107.4h4.8v0.8h-4.8V107.4z M212.8,112.7h3.8v3.9h-0.8v-0.2h-2.1v1.1h-0.8L212.8,112.7L212.8,112.7z
	 M212.9,105.7h3.7v0.8h-3.7V105.7z M212.9,109.2h3.7v0.8h-3.7V109.2z M212.9,110.9h3.6v0.8h-3.6V110.9z M215.7,113.5h-2.1v2.1h2.1
	V113.5z M216.1,117c3.8-0.8,4.2-3.8,4.2-5.5c0-0.4,0-0.8,0-1c0.3,0,0.7,0,0.9,0.1c0.3,0,0.4,0.1,0.4,0.2s-0.1,0.2-0.4,0.2
	c0,0.3,0,0.5,0,0.7c0.1,3.5,2.5,4.7,4,5l-1.1,0.8c-1.1-0.5-2.6-1.6-3.3-3.7c-0.6,2-1.7,3.2-3.7,3.9L216.1,117z M216.9,110.6
	c2.5-0.5,3.4-2.7,3.4-4.3c0-0.3,0-0.8,0-1c0.9,0,1.2,0.1,1.2,0.2s-0.1,0.2-0.4,0.2v0.2c0,0.2,0,0.3,0,0.4c0,2.6,2.4,3.6,3.9,3.9
	l-0.9,0.7c-1.2-0.4-2.6-1.5-3.2-3.1c-0.5,1.8-1.7,2.7-2.8,3.2L216.9,110.6z M217.5,114.7c0.2-0.2,0.6-1.2,0.6-2.5V112
	c0,0,1.2,0,1.2,0.2c0,0.1-0.1,0.2-0.4,0.2c0,1-0.3,2.1-0.4,2.3H217.5z M217.7,108.7c0.2-0.2,0.6-1.1,0.6-2.4v-0.2
	c0.1,0,0.7,0.1,0.9,0.1s0.2,0.1,0.2,0.1c0,0.1-0.2,0.2-0.4,0.2c0,1-0.3,1.9-0.4,2.2L217.7,108.7z M221.6,108c0.1-0.1,1.3-0.9,1.9-2
	c0.1,0.1,0.5,0.3,0.8,0.5c0.1,0.1,0.1,0.1,0.1,0.2s-0.1,0.1-0.2,0.1c-0.1,0-0.1,0-0.2,0c-0.8,0.9-1.5,1.5-1.6,1.6L221.6,108z
	 M221.7,113.9c0.1-0.1,1.3-1.1,1.9-2.1c0.1,0.1,0.5,0.3,0.8,0.5c0.1,0.1,0.1,0.2,0.1,0.2c0,0.1-0.1,0.1-0.2,0.1c-0.1,0-0.1,0-0.2,0
	c-0.8,0.9-1.5,1.6-1.6,1.7L221.7,113.9z"/>
<path class="st2" d="M227,116.6c1.4-2.3,2.6-4.5,3.4-6.4c-1.4,0.3-1.9,0.4-2.5,0.4c-0.1,0-0.2,0-0.3,0l-0.3-0.9l0,0
	c0-0.1,0.1-0.1,0.1-0.1c0.3,0,0.7,0.1,1,0.1c0.4,0,0.8,0,1.2-0.1l1.2-0.2c0.3-0.9,0.7-2,0.7-3c0.1,0,0.9,0.2,1.2,0.2
	c0.2,0,0.2,0.1,0.2,0.2s-0.2,0.2-0.4,0.2c-0.1,0.4-0.4,1.4-0.7,2.2l0.4-0.1c0.1,0,0.3,0,0.5,0c1.5,0,1.8,1.3,1.8,2.7
	c0,1-0.1,2.2-0.4,3c-0.4,1.3-1.5,1.9-2.6,1.9c-0.5,0-1-0.2-1.5-0.5l-0.1-1.3c0.4,0.5,1.1,0.8,1.6,0.8c0.7,0,1.3-0.3,1.6-1.2
	c0.2-0.7,0.4-1.9,0.4-2.8c0-1.1-0.2-1.7-1-1.7c-0.2,0-0.6,0.1-1,0.1c-0.8,2.1-1.9,4.1-3.3,6.8L227,116.6z M236,108.9
	c1.8,1.1,3,2.5,3.1,3.7l-0.9,0.5h-0.1c0,0-0.1,0-0.1-0.1c-0.1-1.2-1.1-2.7-3-3.6v-0.1v-0.1L236,108.9z M236.3,106.9
	c0.3,0.1,1.3,0.6,1.9,1.2l-0.6,0.7c-0.3-0.4-1-0.9-1.9-1.3L236.3,106.9z M237.4,105.8c0.2,0.1,1.2,0.6,1.9,1.1l-0.6,0.7
	c-0.4-0.5-1.1-0.9-1.8-1.2L237.4,105.8z"/>
<path class="st2" d="M247.1,113.9c-0.9,1.7-1.6,2.1-2.2,2.1c-0.3,0-0.6-0.1-0.8-0.2c-2.2-1.1-2.2-3.6-2.2-5.6c0-0.6,0-1.3,0-1.9l0,0
	c0,0,0-0.1,0.1-0.1l0,0c0,0,0.8,0.1,1.1,0.1c0.1,0,0.2,0.1,0.2,0.2s-0.1,0.2-0.4,0.2c0,0.8-0.1,2.4-0.1,2.7c0,1.6,0.4,2.8,1.6,3.4
	c0.1,0.1,0.2,0.1,0.4,0.1c0.5,0,0.9-0.7,1.6-2.3L247.1,113.9z M251.6,114.4C251.5,114.4,251.5,114.4,251.6,114.4c-0.1,0-0.1,0-0.1,0
	l0,0v-0.2c0-1.9-1.1-4.3-2.7-5.7l0.9-0.3c1.5,1.3,2.9,4,2.9,5.8v0.1L251.6,114.4z"/>
<path class="st2" d="M255.3,110.2C255.3,110.1,255.2,110.1,255.3,110.2c0-0.1,0-0.1,0.1-0.1c1.1-0.2,2.1-0.7,3.3-1.1s2.4-0.8,4-0.8
	c2.8,0,3.7,1.8,3.7,3.2c0,3.2-4,4.7-7.4,4.7c-0.4-0.4-1-0.9-1-1h0.4c3.3,0,6.9-1.1,6.9-3.8c0-0.4-0.1-2.3-2.6-2.3
	c-1.4,0-2.6,0.4-3.6,0.9s-2,1-2.9,1.2L255.3,110.2z"/>
<path class="st2" d="M269.7,108.3C269.7,108.3,269.7,108.2,269.7,108.3c0-0.1,0-0.2,0.1-0.2c1.9,0,4.7-0.9,9.5-1.5
	c0.1,0,0.1,0,0.2,0s0.1,0,0.1,0c0.2,0,0.5,0.9,0.5,1s-0.1,0.1-0.1,0.1c-0.1,0-0.1,0-0.2-0.1c-0.7,0-1.1,0.1-1.6,0.3
	c-1.3,0.5-3.8,2.6-3.8,4.6c0,2.3,2.7,2.9,4.5,3l-0.9,1.1c-1.4-0.2-4.6-1.1-4.6-3.9c0-2.6,2.8-4.6,3.2-4.9c-2.4,0.3-4.9,1.2-6.4,1.4
	L269.7,108.3z M278.9,108.9c0.2,0.2,1,0.9,1.5,1.7l-0.7,0.5c-0.3-0.5-1-1.4-1.4-1.8L278.9,108.9z M280.2,108.3
	c0.2,0.1,1,0.8,1.5,1.6l-0.7,0.5c-0.3-0.5-1-1.3-1.5-1.7L280.2,108.3z"/>
<path class="st2" d="M286.3,111.9c-0.2,0.2-0.4,0.4-0.4,0.5c0,0.4,1,0.4,1,0.4c0.1,0,0.1,0,0.2,0c0-0.9,0.1-1.7,0.2-2.5
	c-0.3,0-0.6,0-0.9,0c-0.6,0-1.2-0.1-1.6-0.3c0,0,0-0.8,0-0.9s0-0.1,0.1-0.1c0,0,0,0,0.1,0c0.8,0.3,1.2,0.4,1.8,0.4
	c0.2,0,0.4,0,0.6,0c0.1-1.1,0.2-2.1,0.2-3.1c0-0.2,0-0.4,0-0.6l0,0c0,0,0-0.1,0.1-0.1c0,0,0.8,0.1,1.1,0.2c0.1,0,0.2,0.1,0.2,0.2
	s-0.1,0.2-0.4,0.2c-0.1,0.8-0.2,1.8-0.4,3c0.5-0.1,0.9-0.2,1.3-0.3v0.9c-0.4,0.1-0.9,0.2-1.4,0.3c-0.1,0.8-0.2,1.6-0.2,2.5
	c0.7-0.2,1.5-0.4,2.3-0.8l-0.1,1c-0.6,0.3-1.4,0.6-2.2,0.7v0.7c0,1.4,0.8,2,1.8,2c1.7,0,2.7-1.7,2.7-2.8c0-1.4-1.2-2.8-2.3-3.7
	l1.1-0.2c1.1,1,2.2,2.3,2.2,3.9c0,1.9-1.6,3.8-3.8,3.8c-1.7,0-2.6-1.2-2.6-2.9v-0.1c0-0.2,0-0.4,0-0.6c-0.1,0-0.2,0-0.3,0
	c-0.8,0-1.8-0.3-1.8-1c0-0.3,0.2-0.6,0.5-0.9L286.3,111.9z"/>
<path class="st2" d="M297,116.8c2.5-0.3,4.3-1.1,5.6-1.9c-1.4-1.2-2-2.5-2.1-3h-1v-0.8h6.4c0.1,0,0.1-0.1,0.2-0.1s0.8,0.6,0.8,0.7
	s-0.1,0.1-0.3,0.1c0,0-0.6,1.5-2.6,3c1.3,0.8,3.1,1.4,5.6,1.6l-1.1,1c-2.4-0.3-4.1-1.1-5.3-2c-1.3,0.9-3,1.7-5.4,2.2L297,116.8z
	 M297.6,109h2.7c-0.4-0.8-0.9-1.5-0.9-1.6l0.8-0.3c0.1,0.1,0.6,0.9,1.1,1.8h1.8c-0.2-0.9-0.7-1.7-0.7-1.8l0.8-0.1
	c0.1,0.1,0.6,0.9,0.8,1.9h1.3c0.3-0.5,0.8-1.3,1-2.2c0.1,0,0.8,0.2,1,0.3c0.2,0.1,0.2,0.1,0.2,0.2s-0.1,0.2-0.4,0.2H307
	c-0.2,0.4-0.6,1-0.9,1.5h2.9v3h-1v-2.2h-9.5v2.2h-0.9V109L297.6,109z M298,106.1c0.5,0,1,0,1.5,0c2.7,0,6.1-0.2,7.9-0.6
	c0.1,0.1,0.7,0.8,0.7,1.1c0,0.1-0.1,0.1-0.1,0.1c-0.1,0-0.3-0.1-0.5-0.2c-2.2,0.2-6,0.5-8.8,0.5L298,106.1z M301.4,112
	c0.2,0.5,0.7,1.5,2,2.4c1.6-1.2,2.2-2.4,2.2-2.4H301.4z"/>
<path class="st2" d="M313.7,116.3c-0.5-0.7-0.7-2.2-0.7-3.6v-0.4c0.1-2.7,0.6-4.7,0.7-6c0-0.1,0-0.1,0.1-0.1c0,0,0,0,0.1,0l1,0.3
	c0.1,0,0.2,0.1,0.2,0.2s-0.1,0.2-0.4,0.2c-0.2,1-0.7,3-0.8,4.9c0,0.3-0.1,0.7-0.1,1.1c0,0.2,0,0.7,0.1,0.7c0,0,0.1-0.2,0.2-0.4
	c0.2-0.6,0.8-2.2,0.9-2.5c0,0.1,0.3,0.6,0.4,0.9c-0.1,0.3-0.4,1.2-0.6,1.8c-0.1,0.5-0.3,1.1-0.3,1.9c0,0.2,0,0.4,0,0.7
	c0,0.1,0,0.1-0.1,0.1L313.7,116.3z M316,108.7C316,108.7,316,108.6,316,108.7C316,108.6,316,108.6,316,108.7L316,108.7
	c0.7,0.1,1.4,0.2,2.1,0.2c0.2,0,0.7,0,1.7-0.1c0-1-0.1-1.9-0.1-2.6c0.9,0,1.5,0,1.5,0.2c0,0.1-0.1,0.2-0.4,0.2c0,0.2,0,0.6,0,1
	c0,0.3,0,0.6,0,0.9c0.7-0.1,1.4-0.3,2.1-0.5v0.9c-0.7,0.1-1.4,0.3-2.1,0.4c0,0.5,0,1.1,0,1.6c0,2.8-0.2,4.5-3.4,6.1
	c-0.5-0.3-1.1-0.6-1.2-0.7c3.2-1.2,3.6-2.7,3.6-5.2c0-0.5,0-1.1,0-1.7c-1.1,0.2-1.8,0.2-2.1,0.2c-0.6,0-1.1-0.1-1.5-0.2L316,108.7z"
	/>
<path class="st2" d="M328.5,115.7c0.3,0,0.7,0,1.1,0c4.5,0,5.7-1.9,5.7-2.9c0-0.8-0.7-1.5-2-1.5c-2.3,0-4,1.9-4.3,2.3
	c0,0-0.8,0-0.9,0s-0.1,0-0.1-0.1c0-0.9,0.2-2.4,0.4-3.5c0.1-0.8,0.2-1.6,0.2-1.9c0-0.1,0-0.1,0.1-0.1c0,0,0,0,0.1,0l0.9,0.3
	c-0.1,0.4-0.2,1.1-0.3,1.7c-0.1,0.8-0.4,1.8-0.4,2.1c1.6-1.4,3.3-1.8,4.6-1.8c2,0,3,1.1,3,2.3c0,2.2-2.6,3.9-6.8,3.9h-0.3
	L328.5,115.7z M328.9,106.3c0.3,0,0.6,0,0.9,0c1.2,0,2.4,0.1,3.4,0.3l-0.3,1.1c-0.9-0.3-2.3-0.4-3.6-0.4c-0.3,0-0.6,0-0.8,0
	L328.9,106.3z"/>
<path class="st2" d="M340,115.8C339.9,115.7,339.9,115.7,340,115.8C339.9,115.7,340,115.7,340,115.8c0.6-0.9,1.4-2,2-2.9
	c0.5-0.7,1.1-1.8,1.5-2.7v-0.4c-0.6,0.4-1.5,0.9-2.4,1.1l-0.7-0.9v-0.1c0,0,0-0.1,0.1-0.1c1.1,0,2.4-0.6,3-0.9
	c0.1-1,0.1-1.9,0.1-2.5V106c1.2,0,1.4,0.1,1.4,0.2s-0.1,0.2-0.4,0.2c-0.1,1.1-0.3,2.5-0.4,3.9c2-2.1,3.2-2.7,4-2.7
	c0.9,0,1.3,0.7,1.3,1.8c0,0.4,0,0.8-0.1,1.3c-0.2,0.9-0.4,1.9-0.4,2.8c0,0.6,0.2,1.1,0.8,1.1c0.8,0,1.9-0.8,2.3-1.2l0.1,1.3
	c-0.7,0.6-1.6,1-2.4,1c-0.9,0-1.6-0.5-1.6-1.9l0,0c0-1,0.2-1.9,0.4-2.7c0.1-0.7,0.2-1.2,0.2-1.6c0-0.7-0.2-0.9-0.6-0.9
	c-0.3,0-1.3,0.1-3.9,3v0.2c-0.1,0.8-0.1,1.6-0.1,2.5c0,0.8,0,1.7,0.1,2.5l-1.1,0.1v-0.5c0-1.4,0.1-3,0.2-4.2v-0.1
	c-0.7,1.3-1.5,2.7-2.2,3.9L340,115.8z"/>
<path class="st2" d="M355.4,107.7L355.4,107.7C355.4,107.6,355.4,107.6,355.4,107.7L355.4,107.7c0.7,0.2,1.4,0.3,2.2,0.3
	c0.7,0,1.7-0.1,2.2-0.2v-0.6c0-0.6,0-1.2,0-1.8c1.4,0,1.4,0.2,1.4,0.2c0,0.1-0.1,0.2-0.4,0.2c0,0.5,0,0.9-0.1,1.4v0.3
	c1-0.1,2.1-0.3,3.1-0.5v0.9c-1,0.2-2,0.3-3.1,0.5c0,0.7,0,1.4,0,2.1c0.9-0.1,1.9-0.3,2.7-0.6v1c-0.9,0.2-1.8,0.4-2.7,0.5
	c0,0.9,0.1,1.8,0.1,2.4c1.6,0.5,2.9,1.2,3.8,1.8l-0.9,0.7c-0.8-0.8-2-1.4-2.8-1.7c-0.1,1.4-1.1,2.1-2.4,2.1c-1.4,0-2.7-0.7-2.7-1.7
	c0-0.7,0.7-1.6,2.9-1.6c0.4,0,0.8,0,1.2,0.1c0-0.7-0.1-1.4-0.1-2.2c-0.9,0.1-1.2,0.1-1.5,0.1c-1.4,0-2.1-0.3-2.1-0.8
	c0-0.3,0.4-0.7,0.7-0.9l0.9,0.1c-0.3,0.2-0.5,0.4-0.5,0.5s0.3,0.2,1,0.2c0.3,0,0.7,0,1.4-0.1c0-0.7,0-1.4-0.1-2.1
	c-1.5,0.2-2.1,0.2-2.7,0.2s-1.2-0.1-1.6-0.3L355.4,107.7z M358.7,114.4c-0.6,0-1.9,0.2-1.9,0.8c0,0.5,0.9,0.8,1.7,0.8
	c0.9,0,1.5-0.5,1.5-1.4C359.7,114.5,359.2,114.4,358.7,114.4"/>
<path class="st2" d="M368.6,108.2C368.6,108.2,368.6,108.1,368.6,108.2c0-0.1,0-0.1,0.1-0.1l0,0c0.3,0,0.7,0,1,0
	c0.7,0,1.3-0.1,2-0.1c0.9-0.1,1.9-0.2,2.9-0.2c0-0.7-0.1-1.4-0.1-1.9c1,0,1.5,0,1.5,0.2c0,0.1-0.1,0.2-0.4,0.2c0,0.3,0,0.8-0.1,1.3
	c1-0.1,2-0.1,2.9-0.1c0.4,0,0.8,0,1.2,0v1c-0.9-0.1-1.9-0.2-2.9-0.2c-0.4,0-0.8,0-1.2,0c0,0.9,0,1.9,0,2.4c0.5,0.6,0.6,1.5,0.6,1.9
	c0,1.6-1.2,3.4-3.9,4.3c-0.5-0.3-1.1-0.7-1.2-0.7c0.7-0.1,3.9-1,4.2-3.4c-0.3,0.6-0.8,0.9-1.7,0.9c-1.3,0-2-1.1-2-1.9
	c0-1.1,0.9-2.1,2.1-2.1c0.4,0,0.7,0.1,1,0.2v-0.5c0-0.4,0-0.8,0-1.3c-1.1,0.1-2.2,0.2-3.1,0.3c-0.9,0.1-1.8,0.3-2.7,0.3L368.6,108.2
	z M373.6,110.9c-1.1,0-1.2,0.9-1.2,1.2c0,0.5,0.3,1.1,1,1.1c1,0,1.2-1,1.2-1.9C374.4,111,374.1,110.9,373.6,110.9"/>
<path class="st2" d="M384,113.8c1.1,0,1.9,0.9,1.9,1.9c0,1.1-0.9,1.9-1.9,1.9s-1.9-0.9-1.9-1.9C382,114.7,382.9,113.8,384,113.8
	 M385.1,115.7c0-0.6-0.5-1.2-1.1-1.2s-1.1,0.5-1.1,1.2c0,0.6,0.5,1.2,1.1,1.2C384.6,116.9,385.1,116.4,385.1,115.7"/>
<path class="st2" d="M23,46.1h5c0,0,0.1-0.1,0.3-0.1c0.1,0,0.8,0.6,0.9,0.7c0.1,0.1,0.1,0.1,0.1,0.2c0,0.1-0.1,0.2-0.4,0.3
	c-0.7,2.4-1.5,4.3-1.8,5c0.6,0.6,1.7,2.3,1.7,4.1c0,3.2-1.7,3.6-3.1,3.6h-0.1l-0.9-1.6c0.3,0,0.7,0.1,1.1,0.1c0.7,0,1.7-0.2,1.7-2.1
	c0-2.3-1.6-3.8-1.8-4c0.5-1.2,1.2-2.9,1.7-5.1h-3v17.6H23V46.1L23,46.1z M30.5,46.2h8.8v9.2h-1.4v-0.6h-2.4c0.1,0.7,0.3,2,0.9,3.4
	c0.6-0.3,2.5-1.3,3.9-2.4c0.1,0.1,1.1,1.2,1.1,1.7c0,0.1-0.1,0.2-0.2,0.2c-0.1,0-0.3-0.1-0.5-0.2c-1,0.6-3,1.7-3.7,2
	c1,1.7,2.5,3.3,5.2,4l-1.7,1.1c-5-2.2-6-7.9-6.3-9.7h-2.3v6.7c1.7-0.5,3-1.1,3.5-1.3l0.1,1.4c-1.1,0.5-3.7,1.6-6.9,2.5v0.2
	c0,0.3-0.1,0.5-0.2,0.5c-0.3,0-1.1-1.8-1.1-2c1.1-0.2,2.2-0.5,3.3-0.9L30.5,46.2L30.5,46.2z M37.9,47.5h-6v2.4h6V47.5z M37.9,51.2
	h-6v2.5h6V51.2z"/>
<path class="st2" d="M43.2,64c4.4-2.5,4.7-6.7,4.8-8.7c0,0,2.2,0.1,2.2,0.5c0,0.1-0.2,0.3-0.7,0.3c-0.1,0.5-0.2,1.1-0.3,1.9
	c0.5,1.1,1.6,2.8,3.4,3.7v-9H47v-1.3h12.7v1.3h-5.6v3.5h6.3v1.3h-6.3v4.8c0.8,0.2,2,0.3,3.5,0.3c2.1,0,4.4-0.2,5.6-0.4L62,64
	c-1.2,0.1-2.4,0.1-3.7,0.1c-1.2,0-2.4,0-3.6-0.2c-3.5-0.4-5.3-3.1-6-4.4c-0.6,1.7-1.7,3.5-3.6,5L43.2,64z M44.7,47.8h7.8v-0.7
	c0,0,0-1-0.1-1.8c2,0,2.3,0.2,2.3,0.4s-0.2,0.4-0.7,0.5c0,0.5,0,1.1,0,1.1v0.5h7.9v4.4h-1.5v-3.1H46.1v3h-1.4
	C44.7,52.1,44.7,47.8,44.7,47.8z"/>
<path class="st2" d="M67.6,56.6l7.2-1.4L74,51.6l-6.2,1.2l-0.3-1.5l6.1-1.2l-0.4-1.8c0,0-0.2-1-0.4-1.7c0.8-0.1,1.4-0.2,1.8-0.2h0.2
	c0.3,0,0.4,0.1,0.4,0.2c0,0.1-0.2,0.3-0.5,0.5c0.1,0.6,0.3,1.5,0.3,1.5l0.2,1.2l6-1.1l0.3,1.5l-6,1.2l0.8,3.6l7-1.4l0.3,1.5l-7,1.4
	l1.5,7l-1.5,0.3l-1.6-7l-7.2,1.4L67.6,56.6z"/>
<path class="st2" d="M94.7,55.9c-1.6,0.4-3,0.7-3.9,1l-0.4-1.3c0.9-0.2,2.4-0.5,4.1-0.9L94,52.4c0,0-0.2-0.8-0.3-1.2
	c0.4-0.1,1.6-0.2,1.7-0.2c0.3,0,0.4,0.1,0.4,0.2c0,0.1-0.2,0.3-0.4,0.5c0.1,0.4,0.2,1.2,0.2,1.2l0.3,1.4c2.9-0.7,5.7-1.3,5.7-1.4
	c0.2,0,0.3-0.2,0.4-0.2c0,0,1.4,0.5,1.4,0.8c0,0.1-0.2,0.2-0.3,0.3c-1,2.1-2.4,4.2-3.4,5.2L98,58.6c1.2-1,2.2-2.3,3.2-4.2
	c-1.1,0.3-3,0.8-5,1.2l1.8,8.2L96.6,64L94.7,55.9z"/>
<path class="st2" d="M112.7,48.3c1.8,0.8,3.9,2.5,4.8,3.8l-1.3,1.5c-1-1.7-3.1-3.3-4.7-4.2L112.7,48.3z M127.1,53
	c-3.4,4.2-8.1,7.8-13.3,9.3c0,0.4-0.1,0.6-0.3,0.6c-0.3,0-1.7-1.7-1.8-1.8V61c0,0,0-0.1,0.1-0.1c6.2-0.8,11.8-5.8,14.7-9.8L127.1,53
	z"/>
<path class="st2" d="M131.4,56.7c0.8-0.6,1.5-1.4,2.2-2.1c0.8-0.9,1.6-1.7,2.4-2.5c0.7-0.7,1.5-1.1,2.3-1.1s1.5,0.3,2.3,1
	c1.6,1.3,3.4,3,5.1,4.5c1.6,1.5,3.3,2.9,4.9,4.1l-1.9,1.2c-3-2.7-6.1-6-9.1-8.7c-0.4-0.4-0.8-0.6-1.2-0.6c-0.7,0-0.8,0-5,5.2
	L131.4,56.7z M145.7,47.8c1.4,0,2.5,1.1,2.5,2.5s-1.1,2.5-2.5,2.5s-2.5-1.1-2.5-2.5C143.2,48.9,144.4,47.8,145.7,47.8 M147.1,50.3
	c0-0.8-0.6-1.4-1.4-1.4s-1.3,0.6-1.3,1.4c0,0.8,0.6,1.3,1.3,1.3S147.1,51.1,147.1,50.3"/>
<rect x="153.9" y="54.2" class="st2" width="16.6" height="1.6"/>
<path class="st2" d="M178,48.3c1.8,0.8,3.9,2.5,4.8,3.8l-1.3,1.5c-1-1.7-3.1-3.3-4.6-4.2L178,48.3z M192.5,53
	c-3.4,4.2-8.1,7.8-13.3,9.3c0,0.4-0.1,0.6-0.3,0.6c-0.3,0-1.7-1.7-1.8-1.8V61c0,0,0-0.1,0.1-0.1c6.2-0.8,11.8-5.8,14.6-9.8L192.5,53
	z"/>
<path class="st2" d="M197.7,49.3h7.3V47c0,0,0-0.8-0.1-1.7c2.2,0,2.3,0.3,2.3,0.4c0,0.2-0.3,0.4-0.7,0.5c0,0.4,0,1,0,1v2.2h7.5V59
	h-1.5v-1.5h-6v7.3H205v-7.3h-5.8v1.6h-1.5V49.3L197.7,49.3z M205,50.7h-5.8V56h5.8V50.7z M212.5,50.7h-6V56h6V50.7z"/>
<path class="st2" d="M226.3,61.6h2.5V64h-2.5V61.6z M226.6,52.4v-6h2v6l-0.4,6.2H227L226.6,52.4z"/>
<polygon class="st4" points="395.9,191.2 18.9,191.2 18.9,138.2 395.9,138.2 408.5,164.7 "/>
<path class="st2" d="M29.6,152.2c-0.6,0.6-1.2,1.2-2,1.7l-0.9-0.7c2.7-1.4,4.1-4.1,4.5-5.2h-3.6v-0.9h2v-1.5c0,0,0-0.5,0-1
	c1.3,0,1.5,0.1,1.5,0.3c0,0.1-0.1,0.2-0.4,0.3c0,0.2,0,0.7,0,0.7v1.2h1.1c0.1,0,0.1-0.1,0.2-0.1c0,0,0.8,0.5,0.8,0.7
	c0,0.1-0.1,0.1-0.3,0.2c-0.3,0.8-0.9,1.9-1.7,3c0.2,0.2,0.5,0.4,0.8,0.7c0.3-0.3,0.8-1,1.2-1.8c0.1,0.1,0.6,0.3,1,0.5
	c0.1,0.1,0.1,0.1,0.1,0.2c0,0.1-0.1,0.1-0.2,0.1c-0.1,0-0.2,0-0.3,0c-0.4,0.6-0.9,1.2-1.2,1.5c0.5,0.3,0.9,0.7,1.3,0.9l-0.9,0.7
	c-0.6-0.5-1.4-1.2-2-1.8v6.3h-1L29.6,152.2z M31,157.5c3.9-1.5,4.3-6.3,4.3-9.9v-0.7H33V146h6.8c0,2.5,0.1,7.6-0.5,9.8
	c-0.4,1.5-1.4,2-2.7,2c-0.3,0-0.7,0-1-0.1l-0.7-1.2c0.6,0.1,1.2,0.3,1.7,0.3c0.8,0,1.4-0.3,1.7-1.3c0.5-1.8,0.4-6.4,0.5-8.6h-2.5
	c0,3.8-0.2,9.3-4.3,11.2L31,157.5z"/>
<path class="st2" d="M42.9,145.6h11.6v12.2h-1V157H44v1h-1L42.9,145.6L42.9,145.6z M53.4,146.6H44v9.4h9.5L53.4,146.6L53.4,146.6z
	 M45.8,148.6h5.5v5.8h-1v-0.7h-3.6v0.8h-1L45.8,148.6L45.8,148.6z M50.4,149.5h-3.6v3.2h3.6V149.5z"/>
<path class="st5" d="M39.2,176.9c0-4.6,1.8-6.9,4.5-6.9s4.5,2.2,4.5,6.9c0,4.6-1.8,6.8-4.5,6.8S39.2,181.6,39.2,176.9 M46.6,176.9
	c0-3.7-1.2-5.7-2.9-5.7c-1.8,0-2.9,2-2.9,5.7c0,3.6,1.1,5.6,2.9,5.6S46.6,180.5,46.6,176.9"/>
<path class="st5" d="M50.2,173.6c0-2.2,1.2-3.4,2.8-3.4s2.8,1.2,2.8,3.4c0,2.3-1.2,3.4-2.8,3.4C51.5,177,50.2,175.9,50.2,173.6
	 M60.7,170.3H62l-9.5,13.1h-1.4L60.7,170.3z M54.6,173.6c0-1.7-0.6-2.5-1.5-2.5s-1.5,0.7-1.5,2.5s0.7,2.4,1.5,2.4
	C53.9,176.1,54.6,175.4,54.6,173.6 M57.3,180.2c0-2.2,1.2-3.4,2.8-3.4s2.8,1.2,2.8,3.4c0,2.3-1.2,3.4-2.8,3.4
	C58.5,183.6,57.3,182.5,57.3,180.2 M61.7,180.2c0-1.7-0.6-2.5-1.5-2.5s-1.5,0.7-1.5,2.5s0.7,2.4,1.5,2.4
	C61,182.6,61.7,182,61.7,180.2"/>
<path class="st5" d="M65.1,176.8c0-4.1,2.4-6.8,6.1-6.8s6.1,2.8,6.1,6.8c0,3.7-2,6.9-6.1,6.9C67.2,183.8,65.1,180.5,65.1,176.8
	 M75.8,176.8c0-2.4-1.3-5.4-4.5-5.4s-4.5,3-4.5,5.4c0,2.9,1.5,5.7,4.5,5.7C74.3,182.4,75.8,179.7,75.8,176.8"/>
<polyline class="st6" points="105.8,135.3 121.4,164.7 105.8,194.1 "/>
<polyline class="st6" points="191,135.3 206.6,164.7 191,194.1 "/>
<polyline class="st6" points="276.2,135.3 291.8,164.7 276.2,194.1 "/>
<polygon class="st5" points="80.4,170.3 88.6,170.3 88.6,171.7 81.9,171.7 81.9,175.8 87.7,175.8 87.7,177.1 81.9,177.1 81.9,183.5 
	80.4,183.5 "/>
<polygon class="st5" points="90.9,170.3 99.2,170.3 99.2,171.7 92.5,171.7 92.5,175.8 98.2,175.8 98.2,177.1 92.5,177.1 92.5,183.5 
	90.9,183.5 "/>
<path class="st3" d="M127.2,173.1h-2.5v-1c2.1-0.1,2.8-1.3,3-2h1.1v13.3h-1.6C127.2,183.5,127.2,173.1,127.2,173.1z"/>
<path class="st3" d="M134.4,182.4c0.2-0.3,0.6-0.9,1.2-1.6c1.1-1.4,2.8-2.7,4.2-4.1c0.9-0.9,1.4-1.9,1.4-2.9c0-1.4-1-2.3-2.4-2.3
	c-1.7,0-2.7,1.4-2.7,3.1h-1.5c0.2-2.5,1.6-4.5,4.4-4.5c2.8,0,3.9,2,3.9,3.5c0,1.6-0.5,2.7-1.9,4c-1.2,1.2-2.9,2.5-3.8,3.6
	c-0.3,0.3-0.6,0.7-0.8,0.9l6.5-0.1v1.4h-8.3L134.4,182.4L134.4,182.4z"/>
<path class="st3" d="M145.1,173.6c0-2.2,1.2-3.4,2.8-3.4s2.8,1.2,2.8,3.4c0,2.3-1.2,3.4-2.8,3.4S145.1,175.9,145.1,173.6
	 M155.6,170.3h1.3l-9.5,13.1H146L155.6,170.3z M149.5,173.6c0-1.7-0.6-2.5-1.5-2.5s-1.5,0.7-1.5,2.5s0.6,2.4,1.5,2.4
	C148.8,176.1,149.5,175.4,149.5,173.6 M152.2,180.2c0-2.2,1.2-3.4,2.9-3.4c1.6,0,2.8,1.2,2.8,3.4c0,2.3-1.2,3.4-2.8,3.4
	C153.4,183.6,152.2,182.5,152.2,180.2 M156.5,180.2c0-1.7-0.6-2.5-1.5-2.5s-1.5,0.7-1.5,2.5s0.7,2.4,1.5,2.4
	C155.9,182.6,156.5,182,156.5,180.2"/>
<path class="st3" d="M160,176.8c0-4.1,2.4-6.8,6.1-6.8c3.7,0,6.1,2.8,6.1,6.8c0,3.7-2,6.9-6.1,6.9C162,183.8,160,180.5,160,176.8
	 M170.7,176.8c0-2.4-1.3-5.4-4.5-5.4s-4.5,3-4.5,5.4c0,2.9,1.5,5.7,4.5,5.7C169.2,182.4,170.7,179.7,170.7,176.8"/>
<polygon class="st3" points="175.2,170.3 183.5,170.3 183.5,171.7 176.8,171.7 176.8,175.8 182.6,175.8 182.6,177.1 176.8,177.1 
	176.8,183.5 175.2,183.5 "/>
<polygon class="st3" points="185.8,170.3 194.1,170.3 194.1,171.7 187.4,171.7 187.4,175.8 193.1,175.8 193.1,177.1 187.4,177.1 
	187.4,183.5 185.8,183.5 "/>
<path class="st3" d="M296.4,173.5L296.4,173.5c0-0.1,0-0.1,0.1-0.1c0.9-0.2,1.7-0.4,2.5-0.7c1-0.3,2.3-0.8,3.4-0.8
	c2.3,0,3.5,1.8,3.5,4.2c0,3.5-2.4,5.7-6.3,7.1c-0.1-0.1-1.6-1-1.7-1.1c1.4-0.3,6.6-1.5,6.6-6.1c0-1.4-0.5-3-2.2-3
	c-0.9,0-2,0.4-2.7,0.8c-0.7,0.3-1.5,0.7-2.2,1L296.4,173.5z M298.7,168.4c1.2,0.3,2.5,0.4,3.8,0.4c0.6,0,1.3,0,2.1-0.1l-0.6,1.4
	c-0.3,0-0.6,0-0.9,0c-1.6,0-3.3-0.1-4.8-0.6L298.7,168.4z"/>
<path class="st3" d="M310.2,181.3C310.1,181.3,310.1,181.3,310.2,181.3c-0.1-0.1-0.1-0.1,0-0.1c0.8-1.1,1.8-2.5,2.5-3.6
	c0.6-1,1.4-2.4,2-3.5v-0.6c-0.7,0.5-2,1.2-3,1.4l-0.9-1.1v-0.1c0-0.1,0-0.1,0.1-0.1c1.4,0,3.1-0.8,4-1.2c0.1-1.3,0.2-2.5,0.2-3.3
	v-0.4c1.5,0,1.8,0.2,1.8,0.3s-0.1,0.2-0.5,0.3c-0.1,1.4-0.4,3.2-0.5,5.1c2.5-2.7,4.2-3.4,5.2-3.4c1.2,0,1.7,0.9,1.7,2.4
	c0,0.5,0,1.1-0.2,1.7c-0.2,1.2-0.5,2.4-0.5,3.6c0,0.8,0.2,1.4,1,1.4c1,0,2.4-1.1,3-1.6l0.1,1.6c-0.9,0.7-2.1,1.3-3.1,1.3
	c-1.2,0-2.1-0.7-2.1-2.5v-0.1c0-1.3,0.3-2.4,0.5-3.5c0.1-0.9,0.2-1.6,0.2-2.1c0-0.9-0.2-1.2-0.7-1.2c-0.4,0-1.7,0.1-5.1,3.9v0.2
	c-0.1,1-0.1,2.1-0.1,3.2c0,1.1,0,2.1,0.1,3.2l-1.4,0.1V182c0-1.8,0.1-3.9,0.2-5.4v-0.2c-0.9,1.7-1.9,3.5-2.9,5.1L310.2,181.3z"/>
<path class="st3" d="M341.5,179.2c-1.3,1.6-4.2,3.7-6.8,3.7c-3.8,0-4-2.9-4-5c0-2.2,0.3-5,0.3-7.5c0-0.4,0-0.8,0-1.2
	c0.4,0,1.3,0.1,1.7,0.2c0.2,0,0.3,0.1,0.3,0.2c0,0.1-0.2,0.3-0.6,0.4c-0.1,2.7-0.5,5.9-0.5,8c0,2.2,0.5,3.5,2.7,3.5
	c2.6,0,5-2.5,6.2-4L341.5,179.2z"/>
<path class="st3" d="M352.6,179c-1.1,2.1-2.1,2.7-2.9,2.7c-0.4,0-0.7-0.1-1-0.3c-2.8-1.4-2.9-4.7-2.9-7.2c0-0.8,0-1.7,0-2.5l0,0
	c0-0.1,0-0.1,0.1-0.1l0,0c0,0,1.1,0.1,1.5,0.2c0.2,0,0.3,0.1,0.3,0.2c0,0.1-0.1,0.2-0.5,0.3c0,1.1-0.1,3.1-0.1,3.5
	c0,2.1,0.5,3.7,2,4.4c0.2,0.1,0.3,0.1,0.5,0.1c0.7,0,1.2-0.9,2.1-3L352.6,179z M358.4,179.6C358.3,179.6,358.3,179.6,358.4,179.6
	c-0.1,0-0.1,0-0.1-0.1l0,0v-0.3c0-2.5-1.4-5.5-3.5-7.4l1.2-0.4c2,1.7,3.7,5.2,3.7,7.5v0.2L358.4,179.6z"/>
<path class="st3" d="M364.4,177.8c-0.5,0.2-1.1,0.4-1.9,0.7c0,0.1,0,0.2,0,0.3c0,0.2-0.1,0.4-0.2,0.4s-0.3-0.2-1-1.6
	c1.1-0.3,2.1-0.6,3-1v-4.3h-1.4c-0.2,1-0.4,2.1-0.7,2.9L361,175c1.1-2.3,1.1-5.7,1.1-6.2c1.4,0,1.5,0.2,1.5,0.3s-0.1,0.2-0.5,0.3
	c0,0.3-0.1,1-0.1,1.7h1.2v-2.2c0,0,0-0.9,0-1.4c0.2,0,1.1,0.1,1.4,0.1c0.2,0,0.3,0.1,0.3,0.2c0,0.1-0.2,0.3-0.5,0.4
	c0,0.2,0,0.8,0,0.8v2.1h1.8v1.1h-1.8v3.8c0.7-0.3,1.3-0.6,1.7-0.8v1.2c-0.5,0.3-1,0.5-1.7,0.8v6.6h-1.1L364.4,177.8L364.4,177.8z
	 M367.5,173h4.2v-2h-3.6v-1.1h3.6V169c0-0.1,0-0.9,0-1.3c1.7,0,1.8,0.2,1.8,0.3s-0.2,0.3-0.5,0.3c0,0.2,0,0.8,0,0.8v0.8h3.9v1.1H373
	v2h4.6v1.1h-10L367.5,173L367.5,173z M370.7,182.4c0.4,0,1.1,0.2,1.8,0.2c0.8,0,1.5-0.2,1.5-1v-4.3h-6.3v-1.1h6.3v-0.1
	c0,0,0-1,0-1.5c0.1,0,1,0.1,1.4,0.1c0.3,0,0.4,0.1,0.4,0.2c0,0.1-0.2,0.3-0.5,0.3c0,0.3,0,0.9,0,0.9l0,0h2.3v1.1h-2.3v2.5
	c0,0.9,0,1.8,0,1.9v0.1c0,1.6-1.5,2-2.9,2c-0.3,0-0.6,0-0.8,0L370.7,182.4z M369.1,177.9c0.1,0.1,1.7,1.2,2.9,2.5l-1,1
	c-0.9-1.4-2.5-2.5-2.7-2.7L369.1,177.9z"/>
<path class="st3" d="M379.3,183c3.5-0.9,5.5-2.6,5.9-3.1c0.7,0.5,1.2,0.8,1.2,1c0,0.1-0.1,0.1-0.2,0.1s-0.2,0-0.4-0.1
	c0,0-2.1,1.9-5.1,2.9L379.3,183z M379.7,178.3h1.8v-8.1h3.6v-1.1c0-0.1,0-0.8-0.1-1.4c0.1,0,0.9,0.1,1.4,0.1c0.3,0,0.5,0.1,0.5,0.2
	c0,0.1-0.2,0.3-0.6,0.4c0,0.4,0,0.8,0,0.8v0.9h2.5V169c0-0.1,0-0.7,0-1.4c0.1,0,0.8,0.1,1.3,0.1c0.3,0,0.5,0.1,0.5,0.2
	c0,0.1-0.2,0.3-0.6,0.4c0,0.2,0,0.4,0,0.5v0.3v0.9h3.9v8.1h1.8v1.1h-15.8v-0.9L379.7,178.3L379.7,178.3z M385.2,171.2h-2.5v2.8h2.5
	V171.2z M385.2,175.1h-2.5v3.2h2.5V175.1z M388.8,171.2h-2.5v2.8h2.5V171.2z M388.8,175.1h-2.5v3.2h2.5V175.1z M389.7,179.9
	c0.6,0.5,3.1,2,6.1,2.6l-1.3,1.1c-2.1-0.6-5-2.4-5.6-3L389.7,179.9z M392.6,171.2h-2.7v2.8h2.7V171.2z M392.6,175.1h-2.7v3.2h2.7
	V175.1z"/>
<path class="st2" d="M126.2,156.6c0.2-0.3,0.5-0.8,1-1.4c1-1.1,2.3-2.3,3.4-3.4c0.8-0.8,1.1-1.6,1.1-2.4c0-1.2-0.8-1.9-2-1.9
	c-1.4,0-2.2,1.1-2.3,2.6h-1.3c0.2-2.1,1.3-3.7,3.6-3.7s3.2,1.6,3.2,2.9c0,1.3-0.4,2.2-1.6,3.3c-1,1-2.4,2.1-3.1,3
	c-0.2,0.2-0.5,0.6-0.6,0.8l5.4-0.1v1.2h-6.9L126.2,156.6L126.2,156.6z"/>
<path class="st2" d="M139.4,146.1H151v12.2h-1v-0.9h-9.5v1h-1.1V146.1z M150,147h-9.5v9.4h9.5V147z M142.4,149h5.5v5.8h-1V154h-3.6
	v0.8h-1L142.4,149L142.4,149z M146.9,149.9h-3.6v3.2h3.6V149.9z"/>
<path class="st2" d="M155.6,146h9v12.4h-1.1v-1h-6.9v1.1h-1V146z M163.6,147h-6.9v2.3h6.9V147z M163.6,150.3h-6.9v2.5h6.9V150.3z
	 M163.6,153.8h-6.9v2.5h6.9V153.8z"/>
<path class="st3" d="M212.4,173.1h-2.5v-1c2.1-0.1,2.8-1.3,3-2h1.1v13.3h-1.6V173.1L212.4,173.1z"/>
<path class="st3" d="M218.7,182.4c0.2-0.3,0.6-0.9,1.2-1.6c1.1-1.4,2.8-2.7,4.2-4.1c0.9-0.9,1.4-1.9,1.4-2.9c0-1.4-1-2.3-2.4-2.3
	c-1.7,0-2.7,1.4-2.7,3.1h-1.5c0.2-2.5,1.6-4.5,4.4-4.5c2.8,0,3.9,2,3.9,3.5c0,1.6-0.5,2.7-1.9,4c-1.2,1.2-2.9,2.5-3.8,3.6
	c-0.3,0.3-0.6,0.7-0.8,0.9l6.5-0.1v1.4h-8.3L218.7,182.4L218.7,182.4z"/>
<path class="st3" d="M229.4,173.6c0-2.2,1.2-3.4,2.8-3.4s2.8,1.2,2.8,3.4c0,2.3-1.2,3.4-2.8,3.4C230.6,177,229.4,175.9,229.4,173.6
	 M239.9,170.3h1.3l-9.5,13.1h-1.4L239.9,170.3z M233.8,173.6c0-1.7-0.6-2.5-1.5-2.5s-1.5,0.7-1.5,2.5s0.6,2.4,1.5,2.4
	C233.1,176.1,233.8,175.4,233.8,173.6 M236.5,180.2c0-2.2,1.2-3.4,2.9-3.4c1.6,0,2.8,1.2,2.8,3.4c0,2.3-1.2,3.4-2.8,3.4
	C237.7,183.6,236.5,182.5,236.5,180.2 M240.9,180.2c0-1.7-0.6-2.5-1.5-2.5s-1.5,0.7-1.5,2.5s0.7,2.4,1.5,2.4
	C240.2,182.6,240.9,182,240.9,180.2"/>
<path class="st3" d="M244.3,176.8c0-4.1,2.4-6.8,6.1-6.8c3.7,0,6.1,2.8,6.1,6.8c0,3.7-2,6.9-6.1,6.9S244.3,180.5,244.3,176.8
	 M255,176.8c0-2.4-1.3-5.4-4.5-5.4s-4.5,3-4.5,5.4c0,2.9,1.5,5.7,4.5,5.7C253.5,182.4,255,179.7,255,176.8"/>
<polygon class="st3" points="259.6,170.3 267.8,170.3 267.8,171.7 261.1,171.7 261.1,175.8 266.9,175.8 266.9,177.1 261.1,177.1 
	261.1,183.5 259.6,183.5 "/>
<polygon class="st3" points="270.1,170.3 278.4,170.3 278.4,171.7 271.7,171.7 271.7,175.8 277.4,175.8 277.4,177.1 271.7,177.1 
	271.7,183.5 270.1,183.5 "/>
<path class="st2" d="M213.6,154.4c0.1,1.6,1.1,2.2,2.3,2.2c0.8,0,2.5-0.2,2.5-2.3c0-1.7-1.5-2.1-2.4-2.1l0,0h-1v-1.1h1h0.1
	c1,0,2-0.8,2-1.9c0-1.7-1.7-1.7-2.1-1.7c-2,0-2.1,1.6-2.1,1.9h-1.2c0-1.6,1.3-3,3.4-3s3.2,1.2,3.2,2.7c0,1.1-0.7,2.2-1.9,2.5
	c1.4,0.2,2.3,1.4,2.3,2.9c0,2.2-1.7,3.2-3.7,3.2s-3.5-1.2-3.6-3.3L213.6,154.4L213.6,154.4z"/>
<path class="st2" d="M225.9,146.1h11.6v12.2h-1.1v-0.9H227v1h-1.1V146.1z M236.4,147H227v9.4h9.5V147H236.4z M228.9,149h5.5v5.8h-1
	V154h-3.6v0.8h-1L228.9,149L228.9,149z M233.4,149.9h-3.6v3.2h3.6V149.9z"/>
<path class="st2" d="M242.1,146h9v12.4H250v-1h-6.9v1.1h-1V146L242.1,146z M250,147h-6.9v2.3h6.9V147z M250,150.3h-6.9v2.5h6.9
	V150.3z M250,153.8h-6.9v2.5h6.9V153.8z"/>
<path class="st2" d="M297.8,154.1l5.1-7.5h1.3v7.4h1.5v1.1h-1.5v2.5H303v-2.5h-5.2V154.1z M303,154v-2c0-0.2,0-3.4,0.1-4.1
	c-0.1,0.3-0.5,1-0.8,1.3l-3.3,4.9L303,154z"/>
<path class="st2" d="M310.8,146.1h11.6v12.2h-1v-0.9h-9.5v1h-1v-12.3H310.8z M321.3,147h-9.5v9.4h9.5V147z M313.7,149h5.5v5.8h-1
	V154h-3.6v0.8h-1L313.7,149L313.7,149z M318.3,149.9h-3.6v3.2h3.6V149.9z"/>
<path class="st2" d="M326.9,146h9v12.4h-1.1v-1H328v1.1h-1V146H326.9z M334.9,147H328v2.3h6.9V147z M334.9,150.3H328v2.5h6.9V150.3z
	 M334.9,153.8H328v2.5h6.9V153.8z"/>
<path class="st2" d="M341.6,145.8c1,0,1.5,0.1,1.5,0.2c0,0.1-0.1,0.2-0.4,0.3l0.1,7.7c1.8-0.8,3.4-1.7,3.9-2v1.1
	c-1.1,0.6-3.9,2.1-5.9,2.9c0,0.1,0,0.2,0,0.2c0,0.2-0.1,0.3-0.1,0.3s-0.2-0.1-0.3-0.2c-0.3-0.4-0.6-0.9-0.7-1
	c0.6-0.2,1.4-0.5,2.1-0.8L341.6,145.8z M342.2,157.6c7.3-1.7,7.7-6.3,7.8-11.7c0.1,0,1,0,1.3,0.1c0.2,0,0.3,0.1,0.3,0.2
	c0,0.1-0.1,0.3-0.5,0.3c-0.2,2.5-0.3,4.9-1.4,7c0.5,0.9,1.8,2.8,3.5,4l-1.2,0.6c-1.2-1.1-2.3-2.7-2.9-3.7c-1.1,1.6-2.9,3-5.8,3.9
	L342.2,157.6z M345.1,146.7c0.2,0.2,1.9,1.9,2.7,3.6l-0.9,0.6c-0.9-1.9-2.5-3.6-2.7-3.7L345.1,146.7z"/>
<path class="st2" d="M355.1,145.7h3.3c0,0,0.1-0.1,0.2-0.1c0,0,0,0,0.1,0c0.1,0.1,0.7,0.5,0.7,0.6s-0.1,0.1-0.3,0.2
	c-0.4,1.6-1.1,3.4-1.1,3.4c0.4,0.4,1.1,1.6,1.1,2.8c0,1-0.3,2.5-2,2.5h-0.2l-0.6-1.1c0.3,0,0.5,0.1,0.8,0.1c0.9,0,1.1-0.7,1.1-1.4
	c0-1.1-0.5-2.1-1.1-2.7c0.1-0.1,0.7-1.9,1-3.5h-2v12h-1V145.7L355.1,145.7z M358.9,155.4h2v-2h-1.1v-0.8h3.9v-0.8c0-0.1,0-0.6,0-0.9
	c1.2,0.1,1.4,0.1,1.4,0.3c0,0.1-0.1,0.2-0.4,0.3c0,0.2,0,0.5,0,0.5v0.6h2.5v0.8h-2.5v2h3.1v0.9h-3.1v2.2h-0.9v-2.2h-4.7L358.9,155.4
	L358.9,155.4z M359,151.1c1.7-0.4,3-1.1,4-1.7c-0.8-0.7-1.2-1.4-1.4-1.7c-0.4,0.5-1,0.9-1.6,1.4l-0.9-0.5c2.4-1.5,3.3-3.2,3.4-3.4
	c0,0,1.1,0.2,1.1,0.4c0,0.1-0.1,0.2-0.4,0.2H363c-0.1,0.1-0.2,0.3-0.4,0.5h2.9c0.1,0,0.1-0.1,0.2-0.1s0.7,0.5,0.7,0.6
	s0.1,0.1,0.1,0.1c0,0.1-0.1,0.1-0.3,0.2c-0.5,0.8-1.2,1.6-2,2.3c0.9,0.6,2.2,1.1,3.8,1.4l-1,0.8c-1.5-0.5-2.7-1.1-3.5-1.7
	c-1,0.8-2.2,1.4-3.7,1.9L359,151.1z M363.6,153.4h-1.9v2h1.9V153.4z M362,147c0.1,0.3,0.6,1,1.6,1.8c0.9-0.8,1.5-1.6,1.6-1.9
	L362,147L362,147z"/>
<path class="st2" d="M270.9,15.7L270.9,15.7c0-0.1,0-0.1,0-0.1l0,0c0.3,0,0.6,0,0.9,0c0.6,0,1.2-0.1,1.8-0.1
	c0.8-0.1,1.7-0.2,2.6-0.2c0-0.7-0.1-1.3-0.1-1.7c0.9,0,1.3,0,1.3,0.2c0,0.1-0.1,0.2-0.3,0.2c0,0.3,0,0.7-0.1,1.2
	c0.9-0.1,1.8-0.1,2.6-0.1c0.4,0,0.8,0,1.1,0V16c-0.8-0.1-1.7-0.2-2.6-0.2c-0.4,0-0.7,0-1.1,0c0,0.8,0,1.7,0,2.2
	c0.4,0.6,0.5,1.3,0.5,1.7c0,1.5-1.1,3-3.5,3.9c-0.4-0.3-1-0.6-1.1-0.7c0.6-0.1,3.5-0.9,3.7-3c-0.3,0.5-0.8,0.9-1.5,0.9
	c-1.1,0-1.7-0.9-1.7-1.7c0-1,0.8-1.9,1.9-1.9c0.3,0,0.7,0.1,0.9,0.2V17c0-0.3,0-0.7,0-1.1c-1,0.1-2,0.2-2.8,0.3
	c-0.8,0.1-1.6,0.3-2.4,0.3L270.9,15.7z M275.4,18.1c-1,0-1.1,0.8-1.1,1c0,0.5,0.3,1,0.9,1c0.9,0,1.1-0.9,1.1-1.7
	C276.1,18.2,275.8,18.1,275.4,18.1 M279,13c0.1,0.1,0.8,0.8,1.1,1.5l-0.7,0.4c-0.3-0.5-0.6-1.1-1.1-1.5L279,13z M280.4,12.7
	c0.2,0.1,0.8,0.7,1.2,1.4l-0.7,0.4c-0.3-0.5-0.6-1.1-1.1-1.5L280.4,12.7z"/>
<path class="st2" d="M285.5,22.4c2.7,0,4.8-0.9,4.8-2.5c0-0.4-0.1-1.5-1.8-1.5c-0.9,0-1.7,0.3-2.4,0.6c-0.7,0.3-1.3,0.7-2,0.9
	c0,0-0.5-0.6-0.6-0.7l-0.1-0.1c0,0,0-0.1,0.1-0.1c0.8-0.1,1.5-0.5,2.2-0.8c0.8-0.3,1.7-0.6,2.7-0.6c2.6,0,2.6,2.1,2.6,2.3
	c0,2.4-3.1,3.3-5.1,3.3c-0.3-0.3-0.7-0.7-0.8-0.8C285.2,22.4,285.5,22.4,285.5,22.4z"/>
<path class="st2" d="M302.6,23.1c-0.9,0.2-1.9,0.4-2.8,0.4c-0.6,0-3.9,0-3.9-2.3c0-1.4,1.2-2.2,2.6-2.8c-0.2-0.4-0.4-0.9-0.4-1.7
	c0-0.5,0.1-1,0.1-1.7v-0.3c0-0.3,0-0.6,0-1l0,0c0-0.1,0-0.1,0.1-0.1c0,0,0.7,0.1,1.1,0.2c0.1,0,0.2,0.1,0.2,0.2
	c0,0.1-0.1,0.2-0.3,0.2c-0.1,0.9-0.1,1.9-0.1,2.4c0,0.6,0.1,1.1,0.3,1.5c0.4-0.2,0.9-0.3,1.3-0.4c0.6-0.1,1.1-0.2,1.6-0.4l0,0
	c0.1,0,0.1,0,0.1,0.1v1c-2.4,0.2-5.5,1.1-5.5,2.8c0,1.4,2.1,1.5,2.8,1.5c1.1,0,2.3-0.2,3.3-0.6L302.6,23.1z"/>
<path class="st2" d="M348.7,15.6C348.7,15.5,348.7,15.5,348.7,15.6c0-0.1,0-0.1,0-0.1l0,0c0.3,0,0.6,0,0.9,0c0.6,0,1.2-0.1,1.8-0.1
	c0.8-0.1,1.7-0.2,2.6-0.2c0-0.7-0.1-1.3-0.1-1.7c0.9,0,1.3,0,1.3,0.2c0,0.1-0.1,0.2-0.3,0.2c0,0.3,0,0.7-0.1,1.2
	c0.9-0.1,1.8-0.1,2.6-0.1c0.4,0,0.8,0,1.1,0v0.9c-0.8-0.1-1.7-0.2-2.6-0.2c-0.4,0-0.7,0-1.1,0c0,0.8,0,1.7,0,2.2
	c0.4,0.6,0.5,1.3,0.5,1.7c0,1.5-1.1,3-3.5,3.9c-0.4-0.3-1-0.6-1.1-0.7c0.6-0.1,3.5-0.9,3.7-3c-0.3,0.5-0.8,0.9-1.5,0.9
	c-1.1,0-1.7-0.9-1.7-1.7c0-1,0.8-1.9,1.9-1.9c0.3,0,0.7,0.1,0.9,0.2V17c0-0.3,0-0.7,0-1.1c-1,0.1-2,0.2-2.8,0.3
	c-0.8,0.1-1.6,0.3-2.4,0.3L348.7,15.6z M353.3,18c-1,0-1.1,0.8-1.1,1c0,0.5,0.3,1,0.9,1c0.9,0,1.1-0.9,1.1-1.7
	C354,18.1,353.7,18,353.3,18 M356.9,12.9c0.1,0.1,0.8,0.8,1.1,1.5l-0.7,0.4c-0.3-0.5-0.6-1.1-1.1-1.5L356.9,12.9z M358.3,12.6
	c0.2,0.1,0.8,0.7,1.2,1.4l-0.7,0.4c-0.3-0.5-0.6-1.1-1.1-1.5L358.3,12.6z"/>
<path class="st2" d="M363.3,22.3c2.7,0,4.8-0.9,4.8-2.5c0-0.4-0.1-1.5-1.8-1.5c-0.9,0-1.7,0.3-2.4,0.6c-0.7,0.3-1.3,0.7-2,0.9
	c0,0-0.5-0.6-0.6-0.7l-0.1-0.1c0,0,0-0.1,0.1-0.1c0.8-0.1,1.5-0.5,2.2-0.8c0.8-0.3,1.7-0.6,2.7-0.6c2.6,0,2.6,2.1,2.6,2.3
	c0,2.4-3.1,3.3-5.1,3.3c-0.3-0.3-0.7-0.7-0.8-0.8C363,22.3,363.3,22.3,363.3,22.3z"/>
<path class="st2" d="M380.4,22.9c-0.9,0.2-1.9,0.4-2.8,0.4c-0.6,0-3.9,0-3.9-2.3c0-1.4,1.2-2.2,2.6-2.8c-0.2-0.4-0.4-0.9-0.4-1.7
	c0-0.5,0.1-1,0.1-1.7v-0.3c0-0.3,0-0.6,0-1l0,0c0-0.1,0-0.1,0.1-0.1c0,0,0.7,0.1,1.1,0.2c0.1,0,0.2,0.1,0.2,0.2
	c0,0.1-0.1,0.2-0.3,0.2c-0.1,0.9-0.1,1.9-0.1,2.4c0,0.6,0.1,1.1,0.3,1.5c0.4-0.2,0.9-0.3,1.3-0.4c0.6-0.1,1.1-0.2,1.6-0.4l0,0
	c0.1,0,0.1,0,0.1,0.1v1c-2.4,0.2-5.5,1.1-5.5,2.8c0,1.4,2.1,1.5,2.8,1.5c1.1,0,2.3-0.2,3.3-0.6L380.4,22.9z"/>
<path class="st5" d="M33.2,173.1h-2.5v-1c2.1-0.1,2.8-1.3,3-2h1.1v13.3h-1.6C33.2,183.5,33.2,173.1,33.2,173.1z"/>
<text transform="matrix(1 0 0 1 59.0999 152.2496)" class="st7 st8">※2</text>
<text transform="matrix(1 0 0 1 391.5996 68.2465)" class="st7 st8">※1</text>
</svg>
