<?xml version="1.0" encoding="utf-8"?>
<!-- Generator: Adobe Illustrator 24.0.0, SVG Export Plug-In . SVG Version: 6.00 Build 0)  -->
<svg version="1.1" id="レイヤー_3" xmlns="http://www.w3.org/2000/svg" xmlns:xlink="http://www.w3.org/1999/xlink" x="0px"
	 y="0px" viewBox="0 0 260 70" style="enable-background:new 0 0 260 70;" xml:space="preserve">
<style type="text/css">
	.st0{fill:#040000;stroke:#040000;stroke-width:0.15;stroke-miterlimit:10;}
</style>
<g>
	<path class="st0" d="M95.95,6.94c-0.01,0.03-0.06,0.05-0.09,0.06c-0.39,0.92-1.01,1.72-1.71,2.3c-0.11-0.09-0.31-0.22-0.44-0.29
		c0.66-0.48,1.2-1.18,1.43-1.79h-5.16V6.74h5.43l0.08-0.04L95.95,6.94z M93.14,8.25c-0.01,0.06-0.07,0.11-0.17,0.12
		c-0.21,1.7-0.79,3.32-2.28,4.18c-0.1-0.09-0.29-0.25-0.43-0.33c1.47-0.81,2-2.31,2.17-4.05L93.14,8.25z"/>
	<path class="st0" d="M98.26,6.87c0.75,0.24,1.61,0.61,2.15,0.98l-0.27,0.45c-0.52-0.37-1.37-0.75-2.1-1L98.26,6.87z M98.23,11.86
		c2.56-0.79,4.26-2.23,5.12-4.22c0.15,0.12,0.32,0.22,0.47,0.29c-0.9,1.97-2.66,3.51-5.1,4.32c-0.01,0.06-0.05,0.14-0.1,0.17
		L98.23,11.86z"/>
	<path class="st0" d="M111.55,8v0.49h-1.79c-0.02,0.04-0.06,0.08-0.13,0.09c-0.22,1.67-0.89,3.13-2.41,4
		c-0.12-0.11-0.31-0.24-0.45-0.32c1.48-0.8,2.16-2.15,2.34-3.77h-2c-0.33,0.59-0.75,1.12-1.14,1.48c-0.11-0.08-0.31-0.19-0.45-0.25
		c0.78-0.67,1.61-2.07,1.96-3.41l0.69,0.16c-0.01,0.05-0.08,0.11-0.19,0.11c-0.15,0.45-0.4,0.99-0.61,1.43H111.55z"/>
	<path class="st0" d="M113.38,9.05h6.01v0.51h-5.74c-0.04,0.07-0.14,0.12-0.23,0.14L113.38,9.05z"/>
	<path class="st0" d="M126.29,10.12c-0.73-0.4-1.74-0.86-2.53-1.17v3.6h-0.54V6.29l0.73,0.04c-0.01,0.08-0.06,0.13-0.19,0.15v2.1
		l0.11-0.15c0.84,0.31,1.96,0.81,2.71,1.2L126.29,10.12z"/>
	<path class="st0" d="M131.7,9.5v1.63c0,0.38,0.18,0.64,0.71,0.64h1.33c0.25,0,0.63-0.01,0.87-0.05c0.01,0.14,0.01,0.38,0.01,0.49
		c-0.23,0.04-0.64,0.04-0.89,0.04h-1.36c-0.88,0-1.19-0.46-1.19-1.12V9.5h-2.06V9.02h2.06V7.24h-1.54V6.77h4.64v0.48h-2.58v1.78
		h3.26V9.5H131.7z"/>
	<path class="st0" d="M142.87,11.28v0.49h-5.94v-0.49H142.87z M142.16,7.32v0.5h-4.47v-0.5H142.16z"/>
	<path class="st0" d="M150.16,7.5c-0.01,0.04-0.04,0.07-0.09,0.08c-0.27,0.89-0.63,1.71-1.06,2.38c0.31,0.18,0.66,0.4,0.93,0.6
		l-0.3,0.47c-0.26-0.2-0.63-0.44-0.93-0.63c-0.66,0.92-1.51,1.66-2.6,2.19c-0.08-0.12-0.27-0.3-0.4-0.38
		c1.05-0.49,1.89-1.22,2.55-2.07c-0.53-0.29-1.06-0.55-1.59-0.75l0.27-0.4c0.53,0.19,1.07,0.43,1.62,0.73
		c0.37-0.59,0.67-1.22,0.87-1.91H147c-0.44,0.73-1.03,1.46-1.66,1.98c-0.09-0.09-0.29-0.25-0.41-0.32c0.94-0.72,1.84-2.02,2.27-3.25
		l0.68,0.16c-0.03,0.08-0.1,0.1-0.2,0.09c-0.1,0.24-0.27,0.59-0.4,0.86h2.39l0.1-0.03L150.16,7.5z"/>
	<path class="st0" d="M152.57,9.05h6.01v0.51h-5.74c-0.04,0.07-0.14,0.12-0.23,0.14L152.57,9.05z"/>
	<path class="st0" d="M162.55,9.69L161.7,10v2.17c0,0.55-0.27,0.61-1.19,0.6c-0.01-0.12-0.09-0.33-0.15-0.47
		c0.2,0.01,0.38,0.01,0.53,0.01c0.31,0,0.35,0,0.35-0.14v-2c-0.34,0.12-0.65,0.23-0.9,0.32c0,0.06-0.04,0.1-0.09,0.12l-0.18-0.56
		c0.32-0.09,0.72-0.22,1.17-0.37V8.02h-1.09V7.56h1.09V6.08l0.6,0.04c-0.01,0.06-0.04,0.09-0.14,0.1v1.34h0.83v0.45h-0.83v1.51
		l0.79-0.26L162.55,9.69z M164.86,12.11c0.23,0.04,0.48,0.05,0.73,0.05h1.28c-0.06,0.11-0.13,0.31-0.15,0.43h-1.15
		c-1.04,0-1.79-0.2-2.28-1.11c-0.19,0.53-0.46,0.99-0.81,1.3c-0.08-0.08-0.24-0.2-0.35-0.26c0.57-0.49,0.89-1.4,1.02-2.44l0.58,0.1
		c-0.01,0.06-0.06,0.08-0.14,0.09c-0.03,0.22-0.07,0.44-0.12,0.65c0.21,0.57,0.53,0.89,0.94,1.05V9.79h-1.71V9.36h4.13v0.43h-1.94
		v0.89h1.61v0.42h-1.61V12.11z M166.36,6.34v2.47h-3.35V6.34H166.36z M165.9,7.39V6.73h-2.43v0.66H165.9z M165.9,8.43V7.76h-2.43
		v0.68H165.9z"/>
	<path class="st0" d="M168.92,8.63c-0.27,0.45-0.58,0.86-0.88,1.2c-0.05-0.12-0.17-0.34-0.25-0.45c0.69-0.75,1.38-2,1.8-3.24
		l0.58,0.19c-0.03,0.05-0.08,0.07-0.17,0.07c-0.19,0.5-0.41,1.01-0.66,1.49l0.19,0.05c-0.01,0.04-0.05,0.08-0.14,0.09v4.78h-0.47
		V8.63z M171.83,11.17c-0.02,0.04-0.08,0.07-0.16,0.06c-0.37,0.58-0.97,1.19-1.53,1.57c-0.09-0.09-0.26-0.24-0.37-0.32
		c0.54-0.35,1.13-0.94,1.48-1.53L171.83,11.17z M173.48,10.13h1.2v0.47h-4.9v-0.47h1.17V8.19H170V7.73h0.95V6.21l0.62,0.04
		c-0.01,0.05-0.05,0.09-0.14,0.1v1.38H173V6.21l0.62,0.04c-0.01,0.05-0.04,0.09-0.14,0.1v1.38h1.08v0.45h-1.08V10.13z M171.43,8.19
		v1.94H173V8.19H171.43z M174.13,12.8c-0.26-0.45-0.86-1.14-1.37-1.63l0.42-0.22c0.51,0.47,1.12,1.15,1.4,1.59L174.13,12.8z"/>
	<path class="st0" d="M178.45,9.35c-0.01,0.05-0.06,0.09-0.15,0.11c-0.16,1.4-0.46,2.67-2.17,3.33c-0.06-0.12-0.19-0.29-0.3-0.39
		c1.58-0.57,1.86-1.73,1.97-3.1L178.45,9.35z M180.33,11.97c0,0.25,0.06,0.3,0.35,0.3h1c0.31,0,0.36-0.2,0.4-1.34
		c0.11,0.09,0.31,0.18,0.44,0.22c-0.05,1.24-0.19,1.57-0.8,1.57h-1.09c-0.62,0-0.79-0.16-0.79-0.75V9.2h-3.92V8.72h6.43V9.2h-1.99
		l-0.04,0.01V11.97z M181.73,6.6v0.47h-5.17V6.6H181.73z"/>
	<path class="st0" d="M187.46,7.68c0,0.27-0.22,0.48-0.49,0.48s-0.49-0.22-0.49-0.48c0-0.27,0.22-0.49,0.49-0.49
		C187.26,7.19,187.46,7.42,187.46,7.68z M187.46,11.18c0,0.27-0.22,0.49-0.49,0.49s-0.49-0.22-0.49-0.49c0-0.27,0.22-0.48,0.49-0.48
		C187.26,10.69,187.46,10.92,187.46,11.18z"/>
	<path class="st0" d="M197.78,7.94c-0.02,0.04-0.06,0.06-0.12,0.08c-0.32,0.79-0.89,1.76-1.5,2.36c-0.11-0.08-0.29-0.19-0.43-0.26
		c0.55-0.49,0.99-1.21,1.23-1.79l-2.77,0.72v1.84c0,0.71,0.43,0.94,1.01,0.94h1.17c0.3,0,0.79-0.04,1.07-0.07
		c0,0.15,0.01,0.35,0.01,0.5c-0.29,0.03-0.79,0.05-1.07,0.05h-1.2c-0.91,0-1.51-0.42-1.51-1.41V9.17l-1.82,0.47l-0.12-0.48
		l1.94-0.48V6.47l0.69,0.04c-0.01,0.09-0.08,0.12-0.18,0.14v1.91l3.05-0.79l0.08-0.06L197.78,7.94z M196.24,6.23
		c0.3,0.28,0.69,0.73,0.9,1.06l-0.27,0.21c-0.22-0.32-0.58-0.76-0.9-1.05L196.24,6.23z M197.28,5.9c0.34,0.29,0.71,0.73,0.92,1.05
		l-0.27,0.21c-0.21-0.32-0.58-0.76-0.9-1.04L197.28,5.9z"/>
	<path class="st0" d="M204.8,7.97c-0.02,0.04-0.06,0.06-0.13,0.06c-0.46,0.58-1.08,1.2-1.74,1.71l0.12,0.03
		c-0.01,0.04-0.06,0.09-0.16,0.1v2.74h-0.51v-2.5c-0.73,0.5-1.69,1.02-2.57,1.37c-0.04-0.05-0.27-0.35-0.33-0.4
		c1.74-0.65,3.4-1.72,4.39-2.87h-3.64V7.74h4.13l0.08-0.05L204.8,7.97z M203.61,7.41c-0.63-0.33-1.61-0.66-2.37-0.87l0.24-0.42
		c0.77,0.19,1.74,0.53,2.4,0.85L203.61,7.41z M203.66,9.72c0.72,0.37,1.58,0.92,2.1,1.33l-0.37,0.39c-0.48-0.4-1.38-0.99-2.07-1.35
		L203.66,9.72z"/>
	<path class="st0" d="M213.18,8.63c-0.01,0.03-0.05,0.06-0.09,0.07c-0.59,2.17-1.79,3.23-3.95,3.83c-0.06-0.13-0.2-0.31-0.3-0.42
		c1.96-0.49,3.18-1.5,3.63-3.17h-4.77V8.45h4.98l0.07-0.04L213.18,8.63z M212.5,7.09h-4.1V6.61h4.1V7.09z"/>
	<path class="st0" d="M216.93,7.42c-0.01,0.06-0.07,0.11-0.17,0.12c-0.04,1.94-0.2,3.7-1.31,4.99c-0.12-0.09-0.29-0.19-0.43-0.27
		c1.07-1.17,1.2-2.97,1.22-4.91L216.93,7.42z M218.79,11.57c1.2-0.58,1.98-1.63,2.4-2.9c0.11,0.09,0.32,0.22,0.45,0.28
		c-0.51,1.46-1.4,2.53-2.94,3.25c-0.02,0.06-0.07,0.12-0.12,0.14l-0.38-0.48l0.08-0.11V6.48l0.67,0.04
		c-0.01,0.06-0.06,0.12-0.16,0.14V11.57z"/>
	<path class="st0" d="M224.22,10.27v-3.5l0.68,0.04c-0.01,0.07-0.06,0.12-0.17,0.13v3.33H224.22z M228.23,6.49
		c-0.01,0.07-0.06,0.11-0.17,0.12V8.9c0,1.51-0.52,2.9-2.58,3.7c-0.07-0.11-0.25-0.3-0.38-0.39c2-0.74,2.44-1.97,2.44-3.31V6.44
		L228.23,6.49z"/>
	<path class="st0" d="M237.13,8.45h-1.5v0.5c0,1.38-0.42,2.77-2.3,3.62c-0.09-0.12-0.25-0.26-0.38-0.36
		c1.83-0.79,2.17-2.07,2.17-3.25v-0.5h-2.33v1.79h-0.51V8.45h-1.41V7.96h1.41V6.4l0.69,0.04c-0.01,0.07-0.07,0.14-0.18,0.15v1.37
		h2.33V6.3l0.69,0.04c-0.01,0.06-0.06,0.12-0.18,0.14v1.48h1.5V8.45z"/>
	<path class="st0" d="M238.79,9.05h6.01v0.51h-5.74c-0.04,0.07-0.14,0.12-0.23,0.14L238.79,9.05z"/>
	<path class="st0" d="M252.65,9.38h-2.51c-0.16,1.38-0.63,2.42-2.02,3.21c-0.11-0.12-0.28-0.25-0.4-0.35
		c1.3-0.71,1.76-1.6,1.92-2.87h-2.94V8.91h2.97c0.04-0.48,0.04-0.97,0.04-1.54c-0.73,0.17-1.68,0.32-2.48,0.41
		c-0.04-0.14-0.09-0.28-0.15-0.42c2.53-0.3,4.02-0.8,4.47-0.99l0.38,0.42c-0.03,0.01-0.06,0.02-0.09,0.02c-0.03,0-0.05,0-0.08-0.01
		c-0.4,0.15-1.04,0.34-1.61,0.48l0.24,0.02c-0.01,0.06-0.06,0.11-0.15,0.12c-0.01,0.54-0.01,1.03-0.04,1.48h2.47V9.38z"/>
	<path class="st0" d="M119.47,19.91v0.4h-2.35v-0.4H119.47z M119.28,24.96h-1.46v0.35h-0.4v-2.46h1.87V24.96z M119.28,20.89v0.4
		h-1.87v-0.4H119.28z M117.42,22.27v-0.4h1.87v0.4H117.42z M119.26,18.95v0.4h-1.79v-0.4H119.26z M118.87,23.25h-1.05v1.3h1.05
		V23.25z M123.6,19v5.74c0,0.63-0.3,0.63-1.38,0.63c-0.01-0.13-0.08-0.35-0.14-0.48c0.21,0.01,0.4,0.01,0.57,0.01H123
		c0.12-0.01,0.14-0.04,0.14-0.16v-5.31h-2.82v2.17c0,1.14-0.08,2.74-0.7,3.83c-0.08-0.09-0.27-0.22-0.38-0.27
		c0.58-1.03,0.63-2.48,0.63-3.56V19H123.6z M120.66,21.4h0.86v-0.75h-0.79v-0.38h0.79v-0.68l0.53,0.04
		c-0.01,0.05-0.04,0.08-0.13,0.09v0.55h0.81v0.38h-0.81v0.75h0.92v0.38h-2.19V21.4z M122.69,24.25h-1.53v0.3h-0.37v-2.17h1.91V24.25
		z M122.31,22.76h-1.15v1.12h1.15V22.76z"/>
	<path class="st0" d="M131.56,20.08h-2.48c0.65,0.69,1.67,1.32,2.62,1.62c-0.12,0.09-0.25,0.27-0.32,0.4
		c-1.02-0.38-2.15-1.17-2.83-2.02v1.58h-0.48v-1.58c-0.68,0.88-1.79,1.67-2.8,2.07c-0.07-0.12-0.21-0.29-0.31-0.38
		c0.91-0.32,1.92-0.96,2.56-1.68h-2.41v-0.44h2.97v-0.95l0.62,0.04c-0.01,0.05-0.04,0.09-0.14,0.1v0.81h3.02V20.08z M130.34,21.9
		v2.88h1.24v0.45h-6.51v-0.45h1.24V21.9H130.34z M129.85,22.32h-3.07v0.57h3.07V22.32z M129.85,23.83v-0.58h-3.07v0.58H129.85z
		 M126.78,24.2v0.58h3.07V24.2H126.78z"/>
	<path class="st0" d="M136.42,23.16v0.44h-3.62v-0.44h0.73v-3.04h-0.63v-0.44h0.63v-0.9l0.58,0.04c-0.01,0.05-0.04,0.08-0.14,0.09
		v0.77h1.4v-0.9l0.59,0.04c-0.01,0.05-0.04,0.09-0.14,0.09v0.77h0.55v0.44h-0.55v3.04H136.42z M134.4,23.96
		c-0.02,0.04-0.07,0.06-0.15,0.06c-0.25,0.48-0.66,1.02-1.04,1.35c-0.09-0.08-0.25-0.21-0.36-0.27c0.37-0.3,0.76-0.82,0.99-1.33
		L134.4,23.96z M135.38,20.12h-1.4v0.71h1.4V20.12z M133.97,21.24v0.73h1.4v-0.73H133.97z M133.97,22.36v0.8h1.4v-0.8H133.97z
		 M139.28,19.06v5.71c0,0.58-0.27,0.63-1.35,0.61c-0.01-0.12-0.09-0.34-0.15-0.47c0.23,0.01,0.45,0.01,0.62,0.01
		c0.37,0,0.41,0,0.41-0.16v-1.88h-1.64c-0.09,0.89-0.31,1.84-0.85,2.54c-0.07-0.09-0.27-0.24-0.38-0.29
		c0.07-0.09,0.14-0.18,0.2-0.28c-0.01,0-0.32,0.19-0.4,0.23c-0.14-0.29-0.46-0.78-0.75-1.12l0.38-0.21
		c0.29,0.34,0.61,0.78,0.76,1.08c0.56-0.94,0.62-2.17,0.62-3.13v-2.65H139.28z M137.21,21.71c0,0.23-0.01,0.48-0.02,0.74h1.61v-1.27
		h-1.59V21.71z M138.81,19.51h-1.59v1.24h1.59V19.51z"/>
	<path class="st0" d="M143.64,21.49h-2.15v3.9h-0.48v-6.38h2.62V21.49z M143.18,19.39h-1.68v0.66h1.68V19.39z M141.5,21.11h1.68
		v-0.69h-1.68V21.11z M145.34,24.7h-2.27v0.38h-0.45v-3.02h2.71V24.7z M144.88,22.45h-1.81v0.72h1.81V22.45z M143.07,24.31h1.81
		v-0.76h-1.81V24.31z M147.01,19.01v5.7c0,0.64-0.28,0.67-1.53,0.67c-0.01-0.14-0.09-0.37-0.17-0.5c0.23,0.01,0.46,0.01,0.64,0.01
		c0.53,0,0.57,0,0.57-0.18V21.5h-2.2v-2.49H147.01z M146.53,19.39h-1.74v0.66h1.74V19.39z M144.79,21.12h1.74v-0.7h-1.74V21.12z"/>
	<path class="st0" d="M152.32,20.28c0,0.27-0.22,0.48-0.49,0.48s-0.49-0.22-0.49-0.48c0-0.27,0.22-0.49,0.49-0.49
		C152.12,19.8,152.32,20.03,152.32,20.28z M152.32,23.79c0,0.27-0.22,0.49-0.49,0.49s-0.49-0.22-0.49-0.49
		c0-0.27,0.22-0.48,0.49-0.48C152.12,23.3,152.32,23.53,152.32,23.79z"/>
	<path class="st0" d="M159.61,24.77h-3.19V24.4l0.53-0.55c1.28-1.3,1.93-2.08,1.93-2.96c0-0.58-0.25-1.11-1.03-1.11
		c-0.43,0-0.82,0.24-1.08,0.45l-0.2-0.42c0.33-0.3,0.82-0.53,1.4-0.53c1.09,0,1.52,0.79,1.52,1.53c0,1.02-0.71,1.88-1.83,3
		l-0.42,0.45v0.01h2.38V24.77z"/>
	<path class="st0" d="M160.96,22.09c0-1.89,0.74-2.8,1.74-2.8c1.02,0,1.65,0.96,1.65,2.73c0,1.87-0.66,2.84-1.73,2.84
		C161.65,24.86,160.96,23.89,160.96,22.09z M163.75,22.05c0-1.35-0.32-2.28-1.08-2.28c-0.64,0-1.09,0.86-1.09,2.28
		s0.4,2.32,1.07,2.32C163.45,24.37,163.75,23.33,163.75,22.05z"/>
	<path class="st0" d="M167.15,24.77v-4.83h-0.01l-0.89,0.51L166.11,20l1.12-0.63h0.51v5.39H167.15z"/>
	<path class="st0" d="M172.95,22.22c-0.3,0.38-0.71,0.6-1.24,0.6c-0.92,0-1.49-0.72-1.49-1.63c0-0.99,0.65-1.89,1.71-1.89
		c1.01,0,1.65,0.88,1.65,2.25c0,1.79-0.91,3.04-2.29,3.26c-0.25,0.04-0.48,0.06-0.64,0.05v-0.5c0.15,0.01,0.32-0.01,0.55-0.04
		c0.91-0.13,1.59-0.86,1.77-2.1H172.95z M170.83,21.15c0,0.73,0.41,1.22,1.03,1.22c0.58,0,1.12-0.45,1.12-0.88
		c0-1.04-0.38-1.74-1.09-1.74C171.25,19.75,170.83,20.34,170.83,21.15z"/>
	<path class="st0" d="M183.2,23.26v0.48h-2.69v1.65h-0.49v-1.65h-3.41v-0.48h1.21v-1.98h2.2V20.1h-1.86
		c-0.35,0.57-0.74,1.08-1.15,1.45c-0.09-0.09-0.27-0.24-0.39-0.32c0.67-0.58,1.3-1.57,1.68-2.57l0.61,0.19
		c-0.03,0.07-0.09,0.08-0.17,0.07c-0.09,0.24-0.2,0.47-0.32,0.7h4.44v0.48h-2.35v1.18h2.19v0.46h-2.19v1.52H183.2z M178.3,23.26
		h1.71v-1.52h-1.71V23.26z"/>
	<path class="st0" d="M187.81,24.77v-4.83h-0.01l-0.89,0.51L186.76,20l1.12-0.63h0.51v5.39H187.81z"/>
	<path class="st0" d="M190.83,22.09c0-1.89,0.73-2.8,1.74-2.8c1.02,0,1.65,0.96,1.65,2.73c0,1.87-0.66,2.84-1.73,2.84
		C191.51,24.86,190.83,23.89,190.83,22.09z M193.61,22.05c0-1.35-0.32-2.28-1.08-2.28c-0.64,0-1.09,0.86-1.09,2.28
		s0.4,2.32,1.07,2.32C193.31,24.37,193.61,23.33,193.61,22.05z"/>
	<path class="st0" d="M202.86,19.08v5.59c0,0.37-0.1,0.54-0.37,0.63c-0.27,0.09-0.75,0.09-1.53,0.09c-0.04-0.14-0.13-0.37-0.21-0.51
		c0.35,0.01,0.68,0.02,0.94,0.02c0.63,0,0.67,0,0.67-0.22v-1.61h-3.56c-0.19,0.84-0.56,1.69-1.33,2.33
		c-0.07-0.11-0.25-0.29-0.36-0.36c1.24-1.05,1.36-2.54,1.36-3.74v-2.22H202.86z M198.95,21.3c0,0.37-0.01,0.82-0.08,1.3h3.48v-1.3
		H198.95z M202.35,19.56h-3.4v1.28h3.4V19.56z"/>
	<path class="st0" d="M210.13,24.77h-3.19V24.4l0.53-0.55c1.28-1.3,1.93-2.08,1.93-2.96c0-0.58-0.25-1.11-1.03-1.11
		c-0.43,0-0.82,0.24-1.08,0.45l-0.2-0.42c0.33-0.3,0.82-0.53,1.4-0.53c1.09,0,1.52,0.79,1.52,1.53c0,1.02-0.71,1.88-1.83,3
		l-0.42,0.45v0.01h2.38V24.77z"/>
	<path class="st0" d="M214.25,24.77h-0.57v-1.51h-2.36v-0.38l2.3-3.5h0.62v3.42h0.73v0.46h-0.73V24.77z M211.94,22.8h1.75v-1.92
		c0-0.3,0.01-0.58,0.03-0.87h-0.03c-0.17,0.33-0.29,0.56-0.43,0.81l-1.32,1.96V22.8z"/>
	<path class="st0" d="M218.9,19.16h4.67v6.06h-0.5v-0.43h-3.67v0.48h-0.5V19.16z M223.07,19.65h-3.67v2.07h3.67V19.65z M219.39,24.3
		h3.67v-2.11h-3.67V24.3z"/>
	<path class="st0" d="M232.33,21.73c-0.45,0.81-1.12,1.25-1.87,1.25c-0.65,0-1.1-0.27-1.61-0.76c-0.4-0.38-0.72-0.61-1.25-0.61
		c-0.58,0-1.09,0.4-1.4,0.97l-0.47-0.25c0.45-0.81,1.12-1.25,1.87-1.25c0.65,0,1.1,0.27,1.61,0.76c0.4,0.38,0.73,0.61,1.25,0.61
		c0.58,0,1.09-0.4,1.4-0.97L232.33,21.73z"/>
	<path class="st0" d="M237.33,21.85c0.63,0.11,1.17,0.62,1.17,1.4c0,0.86-0.62,1.61-1.83,1.61c-0.54,0-1.03-0.17-1.27-0.35
		l0.18-0.46c0.19,0.13,0.63,0.32,1.1,0.32c0.91,0,1.2-0.63,1.2-1.13c0-0.79-0.67-1.15-1.38-1.15h-0.35v-0.45h0.35
		c0.52,0,1.19-0.32,1.19-1c0-0.47-0.28-0.87-0.93-0.87c-0.4,0-0.77,0.19-0.99,0.35l-0.18-0.44c0.26-0.2,0.76-0.4,1.28-0.4
		c0.99,0,1.43,0.63,1.43,1.28c0,0.55-0.35,1.05-0.98,1.27V21.85z"/>
	<path class="st0" d="M239.96,22.09c0-1.89,0.73-2.8,1.74-2.8c1.02,0,1.65,0.96,1.65,2.73c0,1.87-0.66,2.84-1.73,2.84
		C240.65,24.86,239.96,23.89,239.96,22.09z M242.75,22.05c0-1.35-0.32-2.28-1.08-2.28c-0.64,0-1.09,0.86-1.09,2.28
		s0.4,2.32,1.07,2.32C242.45,24.37,242.75,23.33,242.75,22.05z"/>
	<path class="st0" d="M247.38,19.16h4.67v6.06h-0.5v-0.43h-3.67v0.48h-0.5V19.16z M251.55,19.65h-3.67v2.07h3.67V19.65z
		 M247.88,24.3h3.67v-2.11h-3.67V24.3z"/>
	<path class="st0" d="M146.77,32.52v0.4h-2.35v-0.4H146.77z M146.57,37.57h-1.46v0.35h-0.4v-2.46h1.87V37.57z M146.58,33.5v0.4
		h-1.87v-0.4H146.58z M144.72,34.87v-0.4h1.87v0.4H144.72z M146.56,31.56v0.4h-1.79v-0.4H146.56z M146.16,35.86h-1.05v1.3h1.05
		V35.86z M150.9,31.61v5.74c0,0.63-0.3,0.63-1.38,0.63c-0.01-0.13-0.08-0.35-0.14-0.48c0.21,0.01,0.4,0.01,0.57,0.01h0.35
		c0.12-0.01,0.14-0.04,0.14-0.16v-5.31h-2.82v2.17c0,1.14-0.08,2.74-0.7,3.83c-0.08-0.09-0.27-0.22-0.38-0.27
		c0.58-1.03,0.63-2.48,0.63-3.56v-2.6H150.9z M147.96,34.01h0.86v-0.75h-0.79v-0.38h0.79v-0.68l0.53,0.04
		c-0.01,0.05-0.04,0.08-0.13,0.09v0.55h0.81v0.38h-0.81v0.75h0.92v0.38h-2.19V34.01z M149.99,36.86h-1.53v0.3h-0.38v-2.18h1.91
		V36.86z M149.61,35.37h-1.15v1.12h1.15V35.37z"/>
	<path class="st0" d="M158.86,32.68h-2.49c0.65,0.69,1.67,1.32,2.62,1.62c-0.12,0.09-0.25,0.27-0.32,0.4
		c-1.02-0.38-2.15-1.17-2.83-2.02v1.58h-0.48v-1.58c-0.68,0.88-1.79,1.67-2.8,2.07c-0.07-0.12-0.21-0.29-0.31-0.38
		c0.92-0.32,1.92-0.96,2.56-1.68h-2.41v-0.44h2.97v-0.95l0.62,0.04c-0.01,0.05-0.04,0.09-0.14,0.1v0.81h3.02V32.68z M157.64,34.51
		v2.88h1.24v0.45h-6.51v-0.45h1.24v-2.88H157.64z M157.15,34.92h-3.07v0.57h3.07V34.92z M157.15,36.44v-0.58h-3.07v0.58H157.15z
		 M154.08,36.81v0.58h3.07v-0.58H154.08z"/>
	<path class="st0" d="M166.72,33.04h-3.71c-0.03,0.4-0.07,0.83-0.12,1.25h2.57l0.11-0.01l0.29,0.05c-0.01,0.05-0.01,0.11-0.03,0.15
		c-0.15,2.17-0.29,2.98-0.58,3.26c-0.19,0.21-0.39,0.25-0.84,0.25c-0.26,0-0.62-0.01-0.98-0.04c-0.01-0.14-0.08-0.34-0.17-0.48
		c0.53,0.05,1.05,0.05,1.23,0.05c0.17,0,0.27-0.01,0.35-0.08c0.22-0.2,0.37-0.93,0.5-2.69h-2.51c-0.25,1.28-0.81,2.54-2.33,3.26
		c-0.07-0.12-0.22-0.29-0.35-0.39c2.04-0.92,2.26-2.87,2.35-4.58h-2.28v-0.47h2.98v-1.3l0.64,0.04c-0.01,0.05-0.05,0.09-0.14,0.1
		v1.15h3.04V33.04z"/>
	<path class="st0" d="M168.19,33.36c0.5,0.16,1.14,0.44,1.47,0.67l-0.26,0.42c-0.32-0.24-0.95-0.54-1.46-0.71L168.19,33.36z
		 M168.2,37.58c0.38-0.57,0.92-1.53,1.33-2.36c0.29,0.24,0.32,0.27,0.36,0.3c-0.37,0.78-0.85,1.68-1.2,2.23
		c0.02,0.04,0.04,0.07,0.04,0.1c0,0.04-0.01,0.06-0.04,0.09L168.2,37.58z M168.59,31.35c0.5,0.19,1.13,0.5,1.45,0.76l-0.28,0.4
		c-0.31-0.26-0.93-0.6-1.44-0.8L168.59,31.35z M174.63,34.39v0.47h-2.8l0.26,0.09c-0.02,0.04-0.08,0.07-0.17,0.08
		c-0.22,0.61-0.59,1.44-0.91,2.08c0.76-0.04,1.64-0.09,2.51-0.14c-0.25-0.37-0.55-0.76-0.83-1.08l0.41-0.22
		c0.57,0.63,1.19,1.49,1.46,2.07l-0.45,0.26c-0.07-0.18-0.19-0.39-0.32-0.61c-1.33,0.11-2.71,0.2-3.59,0.26
		c-0.01,0.06-0.06,0.09-0.11,0.1l-0.2-0.58l0.6-0.03c0.33-0.64,0.71-1.57,0.94-2.28h-1.54v-0.47h2.07v-1.42h-1.72v-0.46h1.72V31.3
		l0.66,0.04c-0.01,0.07-0.07,0.12-0.17,0.14v1.03h1.76v0.46h-1.76v1.42H174.63z"/>
	<path class="st0" d="M179.62,32.89c0,0.27-0.22,0.48-0.49,0.48c-0.27,0-0.49-0.22-0.49-0.48c0-0.27,0.22-0.49,0.49-0.49
		C179.42,32.4,179.62,32.63,179.62,32.89z M179.62,36.39c0,0.27-0.22,0.49-0.49,0.49c-0.27,0-0.49-0.22-0.49-0.49
		c0-0.27,0.22-0.48,0.49-0.48C179.42,35.91,179.62,36.14,179.62,36.39z"/>
	<path class="st0" d="M189.74,31.96c-0.03,0.04-0.07,0.06-0.14,0.06c-0.02,0-0.04,0-0.07-0.01c-0.55,0.56-1.35,1.22-2.05,1.72
		c0.06,0.02,0.14,0.07,0.17,0.08c-0.01,0.04-0.08,0.09-0.16,0.09v3.87h-0.53v-3.7c-0.76,0.54-1.76,1.12-2.74,1.61
		c-0.07-0.12-0.2-0.3-0.3-0.4c1.97-0.91,4.12-2.45,5.28-3.72L189.74,31.96z"/>
	<path class="st0" d="M192.32,32.09c0.75,0.24,1.61,0.61,2.15,0.98l-0.27,0.45c-0.52-0.37-1.37-0.75-2.1-1L192.32,32.09z
		 M192.29,37.08c2.56-0.79,4.26-2.23,5.12-4.22c0.15,0.12,0.32,0.22,0.47,0.3c-0.9,1.97-2.66,3.51-5.1,4.32
		c-0.01,0.06-0.05,0.14-0.1,0.17L192.29,37.08z"/>
	<path class="st0" d="M205.03,32.72c-0.01,0.04-0.04,0.07-0.09,0.08c-0.27,0.89-0.63,1.71-1.06,2.38c0.31,0.18,0.66,0.4,0.93,0.6
		l-0.3,0.48c-0.26-0.2-0.63-0.44-0.93-0.63c-0.66,0.92-1.51,1.66-2.6,2.19c-0.08-0.12-0.27-0.29-0.4-0.38
		c1.05-0.49,1.89-1.22,2.55-2.07c-0.53-0.29-1.06-0.55-1.59-0.75l0.27-0.4c0.53,0.19,1.07,0.43,1.62,0.73
		c0.37-0.59,0.67-1.22,0.87-1.91h-2.44c-0.44,0.73-1.03,1.46-1.66,1.98c-0.09-0.09-0.29-0.25-0.41-0.32
		c0.94-0.72,1.84-2.02,2.27-3.25l0.68,0.16c-0.03,0.08-0.1,0.1-0.2,0.09c-0.1,0.24-0.27,0.59-0.4,0.86h2.39l0.1-0.03L205.03,32.72z"
		/>
	<path class="st0" d="M207.44,34.26h6.01v0.51h-5.74c-0.04,0.07-0.14,0.12-0.23,0.14L207.44,34.26z"/>
	<path class="st0" d="M220.48,33.19c-0.02,0.04-0.06,0.06-0.13,0.06c-0.46,0.58-1.08,1.2-1.74,1.71l0.12,0.03
		c-0.01,0.04-0.06,0.09-0.16,0.1v2.74h-0.51v-2.5c-0.74,0.5-1.69,1.02-2.57,1.37c-0.04-0.05-0.27-0.35-0.33-0.4
		c1.74-0.65,3.4-1.72,4.39-2.87h-3.64v-0.47h4.13l0.08-0.05L220.48,33.19z M219.29,32.63c-0.63-0.33-1.61-0.66-2.37-0.87l0.24-0.42
		c0.77,0.19,1.74,0.53,2.4,0.85L219.29,32.63z M219.34,34.94c0.72,0.37,1.58,0.91,2.1,1.33l-0.37,0.39
		c-0.48-0.4-1.38-0.99-2.07-1.35L219.34,34.94z"/>
	<path class="st0" d="M224.19,33.43c0.22,0.44,0.45,1.13,0.54,1.55l-0.4,0.11c-0.09-0.42-0.31-1.07-0.53-1.53L224.19,33.43z
		 M228.49,33.48c-0.01,0.06-0.09,0.08-0.15,0.07c-0.56,2.1-1.62,3.39-3.36,4.1c-0.06-0.09-0.19-0.25-0.28-0.33
		c1.72-0.68,2.71-1.86,3.23-4.01L228.49,33.48z M225.94,33.09c0.15,0.48,0.29,1.17,0.34,1.64l-0.42,0.08
		c-0.04-0.46-0.18-1.12-0.34-1.62L225.94,33.09z"/>
	<path class="st0" d="M236.03,35.33c-0.73-0.4-1.74-0.87-2.53-1.17v3.6h-0.54V31.5l0.73,0.04c-0.01,0.08-0.06,0.13-0.19,0.15v2.1
		l0.11-0.15c0.84,0.31,1.96,0.81,2.71,1.2L236.03,35.33z"/>
	<path class="st0" d="M240.83,32.52v0.4h-2.35v-0.4H240.83z M240.64,37.57h-1.46v0.35h-0.4v-2.46h1.87V37.57z M240.64,33.5v0.4
		h-1.87v-0.4H240.64z M238.78,34.87v-0.4h1.87v0.4H238.78z M240.62,31.56v0.4h-1.79v-0.4H240.62z M240.23,35.86h-1.05v1.3h1.05
		V35.86z M244.97,31.61v5.74c0,0.63-0.3,0.63-1.38,0.63c-0.01-0.13-0.08-0.35-0.14-0.48c0.21,0.01,0.4,0.01,0.57,0.01h0.35
		c0.12-0.01,0.14-0.04,0.14-0.16v-5.31h-2.82v2.17c0,1.14-0.08,2.74-0.7,3.83c-0.08-0.09-0.27-0.22-0.38-0.27
		c0.58-1.03,0.63-2.48,0.63-3.56v-2.6H244.97z M242.02,34.01h0.86v-0.75h-0.79v-0.38h0.79v-0.68l0.53,0.04
		c-0.01,0.05-0.04,0.08-0.13,0.09v0.55h0.81v0.38h-0.81v0.75h0.92v0.38h-2.19V34.01z M244.05,36.86h-1.53v0.3h-0.37v-2.18h1.91
		V36.86z M243.67,35.37h-1.15v1.12h1.15V35.37z"/>
	<path class="st0" d="M252.92,32.68h-2.49c0.65,0.69,1.67,1.32,2.62,1.62c-0.12,0.09-0.25,0.27-0.32,0.4
		c-1.02-0.38-2.15-1.17-2.83-2.02v1.58h-0.48v-1.58c-0.68,0.88-1.79,1.67-2.8,2.07c-0.07-0.12-0.21-0.29-0.31-0.38
		c0.92-0.32,1.92-0.96,2.56-1.68h-2.41v-0.44h2.97v-0.95l0.62,0.04c-0.01,0.05-0.04,0.09-0.14,0.1v0.81h3.02V32.68z M251.7,34.51
		v2.88h1.24v0.45h-6.51v-0.45h1.24v-2.88H251.7z M251.21,34.92h-3.07v0.57h3.07V34.92z M251.21,36.44v-0.58h-3.07v0.58H251.21z
		 M248.14,36.81v0.58h3.07v-0.58H248.14z"/>
	<path class="st0" d="M16.38,45.13v0.4h-2.35v-0.4H16.38z M16.18,50.18h-1.46v0.35h-0.4v-2.46h1.87V50.18z M16.19,46.11v0.4h-1.87
		v-0.4H16.19z M14.33,47.48v-0.4h1.87v0.4H14.33z M16.17,44.17v0.4h-1.79v-0.4H16.17z M15.77,48.47h-1.05v1.3h1.05V48.47z
		 M20.51,44.22v5.74c0,0.63-0.3,0.63-1.38,0.63c-0.01-0.13-0.08-0.35-0.14-0.48c0.21,0.01,0.4,0.01,0.57,0.01h0.35
		c0.12-0.01,0.14-0.04,0.14-0.16v-5.31h-2.82v2.17c0,1.14-0.08,2.74-0.7,3.83c-0.08-0.09-0.27-0.22-0.38-0.27
		c0.58-1.03,0.63-2.48,0.63-3.56v-2.6H20.51z M17.57,46.62h0.86v-0.75h-0.79v-0.38h0.79V44.8l0.53,0.04
		c-0.01,0.05-0.04,0.08-0.13,0.09v0.55h0.81v0.38h-0.81v0.75h0.92V47h-2.19V46.62z M19.6,49.47h-1.53v0.3h-0.37V47.6h1.91V49.47z
		 M19.22,47.98h-1.15v1.12h1.15V47.98z"/>
	<path class="st0" d="M28.47,45.29h-2.48c0.65,0.69,1.67,1.32,2.62,1.62c-0.12,0.09-0.25,0.27-0.32,0.4
		c-1.02-0.38-2.15-1.17-2.83-2.02v1.58h-0.48v-1.58c-0.68,0.88-1.79,1.67-2.8,2.07c-0.07-0.12-0.21-0.29-0.31-0.38
		c0.91-0.32,1.92-0.96,2.56-1.69H22v-0.44h2.97V43.9l0.62,0.04c-0.01,0.05-0.04,0.09-0.14,0.1v0.81h3.02V45.29z M27.25,47.11V50
		h1.24v0.45h-6.51V50h1.24v-2.88H27.25z M26.76,47.53h-3.07v0.57h3.07V47.53z M26.76,49.04v-0.58h-3.07v0.58H26.76z M23.69,49.42V50
		h3.07v-0.58H23.69z"/>
	<path class="st0" d="M31.12,46.52c0.17,0.27,0.63,1.07,0.74,1.27l-0.26,0.36c-0.09-0.23-0.3-0.69-0.48-1.05v3.48h-0.43v-3.46
		c-0.22,0.8-0.49,1.58-0.79,2.06c-0.05-0.12-0.17-0.29-0.24-0.4c0.39-0.62,0.8-1.82,0.98-2.84H29.8v-0.45h0.89V43.9l0.57,0.04
		c-0.01,0.05-0.04,0.09-0.14,0.1v1.47h0.68v0.45h-0.68V46.52z M33.29,47.84c0.32,0.47,0.66,1.09,0.8,1.48l-0.38,0.2
		c-0.04-0.1-0.09-0.22-0.14-0.35c-0.63,0.25-1.27,0.48-1.69,0.64c-0.01,0.06-0.04,0.09-0.08,0.12l-0.22-0.5l0.48-0.14v-5.08h1.71
		v3.1h-1.28v1.84c0.3-0.09,0.6-0.2,0.92-0.31c-0.14-0.28-0.31-0.58-0.47-0.82L33.29,47.84z M33.35,44.61h-0.86v0.92h0.86V44.61z
		 M32.48,46.87h0.86v-0.94h-0.86V46.87z M35.48,49.87c0,0.27,0.04,0.3,0.17,0.3h0.22c0.17,0,0.23-0.07,0.25-0.24
		c0.01-0.12,0.01-0.38,0.02-0.73c0.09,0.07,0.23,0.14,0.35,0.18c-0.02,0.87-0.04,1.15-0.59,1.15h-0.33c-0.52,0-0.52-0.3-0.52-0.73
		V48.8c-0.39,0.72-0.94,1.34-1.75,1.8c-0.06-0.09-0.19-0.25-0.28-0.33c1.22-0.66,1.82-1.71,2.15-2.95h-1.2v-0.42h0.4v-2.3h-0.33
		v-0.42h2.33v0.42h-0.4c-0.05,0.79-0.12,1.56-0.27,2.3h0.74v0.42h-0.84c-0.04,0.18-0.09,0.35-0.14,0.52l0.17,0.01
		c-0.01,0.04-0.05,0.08-0.14,0.09V49.87z M34.75,46.91h0.5c0.15-0.73,0.22-1.5,0.27-2.3h-0.77V46.91z"/>
	<path class="st0" d="M44.22,48.34h-1.47c-0.22,0.48-0.54,0.87-0.97,1.19c0.86,0.22,1.63,0.45,2.21,0.68l-0.29,0.4
		c-0.63-0.26-1.48-0.53-2.43-0.77c-0.82,0.42-1.94,0.65-3.4,0.76c-0.04-0.14-0.12-0.32-0.19-0.43c1.2-0.06,2.15-0.22,2.9-0.49
		c-0.47-0.11-0.94-0.21-1.43-0.3l-0.17,0.22l-0.45-0.17c0.23-0.29,0.52-0.68,0.8-1.08h-1.74v-0.42h2.03
		c0.17-0.25,0.34-0.5,0.48-0.73h-1.89v-1.87h1.62v-0.66h-2.19v-0.44h6.53v0.44h-2.23v0.66h1.67v1.87h-3.23l0.35,0.09
		c-0.02,0.05-0.07,0.07-0.17,0.07c-0.12,0.17-0.24,0.37-0.37,0.57h4.05V48.34z M38.67,45.74v1.04h1.16v-1.04H38.67z M39.89,48.34
		c-0.16,0.23-0.32,0.46-0.48,0.68c0.6,0.11,1.21,0.23,1.79,0.37c0.45-0.27,0.78-0.61,1.02-1.04H39.89z M40.29,44.67v0.66h1.18v-0.66
		H40.29z M40.29,46.78h1.18v-1.04h-1.18V46.78z M43.13,45.74h-1.19v1.04h1.19V45.74z"/>
	<path class="st0" d="M49.23,45.5c0,0.27-0.22,0.48-0.49,0.48s-0.49-0.22-0.49-0.48c0-0.27,0.22-0.49,0.49-0.49
		C49.03,45.01,49.23,45.24,49.23,45.5z M49.23,49c0,0.27-0.22,0.49-0.49,0.49s-0.49-0.22-0.49-0.49c0-0.27,0.22-0.48,0.49-0.48
		C49.03,48.52,49.23,48.75,49.23,49z"/>
	<path class="st0" d="M58.52,44.85c-0.01,0.04-0.05,0.06-0.09,0.08c-0.39,0.91-0.85,1.71-1.44,2.48c0.79,0.63,1.97,1.7,2.64,2.44
		l-0.44,0.38c-0.63-0.73-1.79-1.83-2.53-2.42c-0.63,0.77-1.73,1.82-2.77,2.42c-0.08-0.11-0.25-0.29-0.37-0.39
		c1.99-1.1,3.57-3.14,4.22-4.7H54.2v-0.49h3.82l0.09-0.04L58.52,44.85z"/>
	<path class="st0" d="M64.69,48.07l0.26,2.26l-0.52,0.06l-0.25-2.25l-2.7,0.35l-0.06-0.48l2.71-0.35l-0.19-1.62l-2.26,0.29
		l-0.06-0.48l2.27-0.29l-0.16-1.43l0.71-0.03c0,0.07-0.06,0.13-0.17,0.16l0.13,1.22l2.19-0.29l0.06,0.49l-2.19,0.28l0.19,1.61
		l2.71-0.34l0.06,0.48L64.69,48.07z"/>
	<path class="st0" d="M69.77,44.69c0.75,0.24,1.61,0.61,2.15,0.98l-0.27,0.45c-0.52-0.37-1.37-0.75-2.1-1L69.77,44.69z M69.74,49.69
		c2.56-0.79,4.26-2.23,5.12-4.22c0.15,0.12,0.32,0.22,0.47,0.29c-0.9,1.97-2.66,3.51-5.1,4.32c-0.01,0.06-0.05,0.14-0.1,0.17
		L69.74,49.69z"/>
	<path class="st0" d="M83.06,45.83v0.49h-1.79c-0.02,0.04-0.06,0.08-0.13,0.09c-0.22,1.67-0.89,3.13-2.41,4
		c-0.12-0.11-0.31-0.24-0.45-0.32c1.48-0.8,2.16-2.15,2.34-3.77h-2c-0.33,0.59-0.75,1.12-1.14,1.48c-0.11-0.08-0.31-0.19-0.45-0.25
		c0.78-0.67,1.61-2.07,1.96-3.41l0.69,0.16c-0.01,0.05-0.08,0.11-0.19,0.11c-0.15,0.45-0.4,0.99-0.61,1.43H83.06z"/>
	<path class="st0" d="M90.97,44.77c-0.01,0.03-0.06,0.05-0.09,0.06c-0.39,0.92-1.01,1.72-1.71,2.3c-0.11-0.09-0.31-0.22-0.44-0.29
		c0.66-0.48,1.2-1.18,1.43-1.79h-5.16v-0.49h5.43l0.08-0.04L90.97,44.77z M88.17,46.08c-0.01,0.06-0.07,0.11-0.17,0.12
		c-0.21,1.7-0.79,3.32-2.28,4.18c-0.1-0.09-0.29-0.25-0.43-0.33c1.47-0.81,2-2.31,2.17-4.05L88.17,46.08z"/>
	<path class="st0" d="M95.85,49.99v-4.83h-0.01l-0.89,0.51l-0.14-0.45l1.12-0.63h0.51v5.39H95.85z"/>
	<path class="st0" d="M98.87,47.31c0-1.89,0.73-2.8,1.74-2.8c1.02,0,1.65,0.96,1.65,2.73c0,1.87-0.66,2.84-1.73,2.84
		C99.55,50.08,98.87,49.11,98.87,47.31z M101.65,47.27c0-1.35-0.32-2.28-1.08-2.28c-0.64,0-1.09,0.86-1.09,2.28s0.4,2.32,1.07,2.32
		C101.35,49.58,101.65,48.55,101.65,47.27z"/>
	<path class="st0" d="M111.82,44.72v0.45h-1.74l0.38,0.09c-0.02,0.04-0.07,0.06-0.16,0.06c-0.1,0.23-0.25,0.54-0.4,0.79h1.53V50
		c0,0.61-0.29,0.62-1.53,0.62c-0.03-0.14-0.1-0.35-0.17-0.48c0.29,0.01,0.56,0.01,0.76,0.01c0.44,0,0.48,0,0.48-0.17v-3.44h-1.53
		v0.64c0,0.13,0.03,0.15,0.23,0.15h0.71c0.15,0,0.19-0.04,0.2-0.35c0.09,0.07,0.26,0.13,0.38,0.15c-0.04,0.46-0.17,0.58-0.53,0.58
		h-0.81c-0.5,0-0.62-0.1-0.62-0.53v-0.65h-0.96c-0.09,0.79-0.39,1.27-1.5,1.53c-0.04-0.11-0.15-0.27-0.24-0.35
		c0.91-0.19,1.2-0.53,1.3-1.19h-1.35v4.05h-0.47v-4.49h1.47c-0.08-0.25-0.22-0.59-0.37-0.85l0.45-0.1c0.17,0.27,0.35,0.65,0.41,0.89
		l-0.24,0.07h1.87c0.14-0.27,0.32-0.66,0.42-0.95h-4.44v-0.45h2.95v-0.81l0.63,0.04c-0.01,0.05-0.04,0.09-0.14,0.09v0.68H111.82z
		 M109.99,49.87h-2.33v0.44h-0.44v-2.22h2.77V49.87z M109.55,48.48h-1.88v1h1.88V48.48z"/>
	<path class="st0" d="M113.41,50.59v-3.13h2.61v3.07h-0.48v-0.29h-1.67v0.36H113.41z M115.54,47.93h-1.67v1.84h1.67V47.93z
		 M118.3,44.16v2.54h-3.73v-2.54H118.3z M117.81,46.24v-1.61h-2.77v1.61H117.81z M116.8,47.46h2.7v3.08h-0.48v-0.31h-1.75v0.36
		h-0.47V47.46z M117.26,49.76h1.75v-1.84h-1.75V49.76z"/>
	<path class="st0" d="M127.26,46.99c-0.01,0.01-0.03,0.01-0.04,0.01c-0.04,0-0.08-0.02-0.11-0.04c-0.55,0.18-1.35,0.47-1.94,0.73
		c0.01,0.17,0.02,0.35,0.02,0.56c0,0.23-0.01,0.49-0.02,0.77l-0.53,0.03c0.02-0.26,0.04-0.59,0.04-0.87c0-0.11,0-0.21-0.01-0.29
		c-0.81,0.4-1.48,0.88-1.48,1.31c0,0.42,0.5,0.62,1.49,0.62c0.7,0,1.35-0.01,1.81-0.07l0.01,0.48c-0.42,0.04-1.07,0.06-1.81,0.06
		c-1.38,0-2-0.33-2-1.07c0-0.63,0.84-1.25,1.92-1.79c-0.04-0.45-0.25-0.68-0.53-0.68c-0.53,0-1.07,0.3-1.72,1.02
		c-0.2,0.22-0.48,0.5-0.79,0.79l-0.35-0.35c0.72-0.63,1.4-1.24,1.81-2.66l-0.4,0.01h-1.2V45.1c0.44,0.01,0.95,0.01,1.25,0.01
		l0.49-0.01c0.08-0.33,0.14-0.64,0.19-1.03l0.71,0.09c-0.01,0.07-0.07,0.12-0.18,0.13c-0.05,0.29-0.12,0.54-0.18,0.8
		c0.49-0.01,1.54-0.12,2.48-0.42l0.09,0.48c-0.9,0.28-1.99,0.38-2.7,0.4c-0.17,0.54-0.35,0.97-0.52,1.22h0.01
		c0.32-0.28,0.79-0.47,1.16-0.47c0.49,0,0.8,0.35,0.89,0.94c0.6-0.27,1.37-0.57,1.94-0.79L127.26,46.99z"/>
	<path class="st0" d="M129.46,46.36c0.39,0.41,0.81,0.89,1.18,1.35c0.22-0.58,0.38-1.22,0.48-1.94l0.6,0.12
		c-0.01,0.06-0.06,0.09-0.16,0.09c-0.14,0.8-0.33,1.52-0.6,2.15c0.35,0.47,0.64,0.91,0.83,1.27l-0.39,0.33
		c-0.15-0.32-0.39-0.7-0.67-1.11c-0.41,0.79-0.96,1.42-1.7,1.88c-0.06-0.11-0.21-0.27-0.3-0.37c0.75-0.44,1.3-1.09,1.7-1.93
		c-0.41-0.55-0.88-1.11-1.32-1.58L129.46,46.36z M132.26,45.16v0.45h-3.49v-0.45h1.52v-1.24l0.6,0.04c-0.01,0.05-0.04,0.09-0.14,0.1
		v1.1H132.26z M135.43,45.7v0.46h-0.89v3.76c0,0.66-0.37,0.68-1.5,0.68c-0.02-0.14-0.09-0.36-0.17-0.5
		c0.24,0.01,0.45,0.01,0.63,0.01c0.53,0,0.55,0,0.55-0.17v-3.77h-2.04V45.7h2.04V43.9l0.63,0.04c-0.01,0.06-0.05,0.09-0.14,0.1v1.66
		H135.43z M132.55,46.96c0.35,0.5,0.71,1.18,0.82,1.62l-0.42,0.22c-0.12-0.45-0.45-1.14-0.8-1.66L132.55,46.96z"/>
	<path class="st0" d="M140.5,47.04c0.14,0.42,0.32,0.81,0.53,1.16c0.55-0.3,1.2-0.74,1.6-1.07l0.45,0.35
		c-0.03,0.04-0.09,0.04-0.15,0.04c-0.43,0.3-1.13,0.72-1.68,0.99c0.5,0.68,1.17,1.2,2.02,1.47c-0.11,0.09-0.24,0.27-0.31,0.4
		c-1.46-0.54-2.4-1.71-2.89-3.31c-0.22,0.14-0.48,0.27-0.76,0.39c0.99,0.62,1.41,1.46,1.41,2.1c0,0.61-0.38,1.06-1.12,1.06
		c-0.17,0-0.38,0-0.62-0.01c-0.01-0.13-0.06-0.32-0.14-0.44c0.25,0.02,0.51,0.03,0.67,0.03c0.17,0,0.75,0,0.75-0.68
		c0-0.18-0.05-0.38-0.14-0.59c-0.82,0.66-2.08,1.25-3.1,1.55c-0.06-0.11-0.19-0.28-0.29-0.38c1.1-0.27,2.45-0.88,3.19-1.51
		c-0.09-0.13-0.19-0.26-0.33-0.39c-0.66,0.45-1.68,0.87-2.47,1.07c-0.06-0.11-0.19-0.27-0.29-0.36c0.83-0.17,1.86-0.55,2.49-0.95
		c-0.13-0.11-0.27-0.21-0.44-0.3c-0.6,0.23-1.25,0.42-1.83,0.56c-0.05-0.09-0.17-0.26-0.25-0.35c0.83-0.18,1.81-0.47,2.55-0.83
		h-1.89v-1.26c-0.14,0.11-0.3,0.21-0.46,0.3c-0.07-0.11-0.22-0.26-0.33-0.33c0.96-0.53,1.69-1.27,2.07-1.87l0.6,0.11
		c-0.01,0.05-0.06,0.09-0.15,0.09c-0.08,0.11-0.17,0.22-0.26,0.33h1.69l0.08-0.03l0.37,0.24c-0.01,0.04-0.06,0.05-0.09,0.06
		c-0.13,0.22-0.32,0.47-0.53,0.7h2.04v1.66H140.5z M137.92,45.75v0.9h1.76v-0.9H137.92z M139.87,45.37
		c0.16-0.17,0.32-0.38,0.45-0.58h-1.72c-0.18,0.19-0.38,0.39-0.61,0.58H139.87z M142.01,46.65v-0.9h-1.86v0.9H142.01z"/>
	<path class="st0" d="M146.07,44.44c-0.02,0.08-0.09,0.12-0.24,0.12c-0.25,1.17-0.38,2.46-0.38,3.24c0,0.54,0.02,1.09,0.09,1.43
		c0.14-0.35,0.45-1.11,0.55-1.36l0.3,0.32c-0.3,0.73-0.51,1.14-0.61,1.46c-0.04,0.12-0.06,0.24-0.06,0.34
		c0,0.08,0.01,0.15,0.04,0.22l-0.51,0.09c-0.23-0.68-0.32-1.52-0.32-2.48c0-0.94,0.15-2.26,0.38-3.51L146.07,44.44z M150.66,49.71
		c-0.26,0.01-0.53,0.02-0.79,0.02c-0.51,0-0.99-0.03-1.34-0.08c-0.89-0.13-1.3-0.62-1.3-1.2c0-0.5,0.27-0.91,0.68-1.39l0.47,0.2
		c-0.36,0.38-0.61,0.72-0.61,1.13c0,0.84,1.22,0.84,1.97,0.84c0.3,0,0.63-0.01,0.93-0.04L150.66,49.71z M147.32,45.31
		c0.93-0.02,2.18-0.11,3.14-0.27l0.04,0.5c-0.89,0.15-2.34,0.25-3.17,0.27L147.32,45.31z"/>
	<path class="st0" d="M154.63,44.22c-0.01,0.09-0.08,0.14-0.22,0.16c-0.06,0.83-0.13,2.74-0.13,3.81c0,1.07,0.53,1.59,1.44,1.59
		c0.88,0,1.77-0.44,2.59-1.37c0.07,0.12,0.24,0.35,0.32,0.42c-0.84,0.96-1.87,1.46-2.92,1.46c-1.31,0-1.98-0.76-1.98-2.12
		c0-0.91,0.06-3.14,0.12-4.03L154.63,44.22z"/>
	<path class="st0" d="M164.56,45.49c-0.61,0.22-1.43,0.35-2.21,0.41c-0.3,1.65-0.74,3.29-1.32,4.5l-0.52-0.19
		c0.59-1.16,1.02-2.65,1.3-4.29c-0.14,0.01-1.11,0.01-1.33,0.01l-0.01-0.49c0.12,0.01,0.27,0.01,0.43,0.01c0.06,0,0.79,0,0.97-0.01
		c0.07-0.46,0.14-0.96,0.19-1.4l0.74,0.07c-0.01,0.08-0.11,0.14-0.21,0.14c-0.04,0.32-0.12,0.71-0.18,1.15
		c0.71-0.07,1.42-0.19,2.02-0.4L164.56,45.49z M166.47,50.28c-0.22,0.01-0.44,0.01-0.66,0.01c-0.68,0-1.32-0.05-1.71-0.16
		c-0.51-0.14-0.81-0.52-0.8-0.99c0.01-0.32,0.14-0.68,0.45-1.04l0.43,0.19c-0.25,0.3-0.37,0.58-0.37,0.8c0,0.57,0.55,0.71,1.86,0.71
		c0.27,0,0.54-0.01,0.81-0.03V50.28z M163.66,46.81c0.74-0.24,1.76-0.39,2.61-0.37v0.49c-0.81-0.02-1.76,0.09-2.49,0.32
		L163.66,46.81z"/>
	<path class="st0" d="M174.42,46.27h-1.51v0.5c0,1.38-0.42,2.77-2.3,3.62c-0.09-0.12-0.25-0.26-0.37-0.36
		c1.83-0.79,2.17-2.07,2.17-3.25v-0.5h-2.33v1.79h-0.51v-1.79h-1.41v-0.49h1.41v-1.56l0.69,0.04c-0.01,0.07-0.07,0.14-0.18,0.15
		v1.37h2.33v-1.66l0.69,0.04c-0.01,0.06-0.07,0.12-0.18,0.14v1.48h1.51V46.27z"/>
	<path class="st0" d="M181.9,44.57c-0.03,0.04-0.07,0.06-0.14,0.06c-0.02,0-0.04,0-0.07-0.01c-0.55,0.56-1.35,1.22-2.05,1.72
		c0.06,0.02,0.14,0.07,0.17,0.08c-0.01,0.04-0.08,0.09-0.16,0.09v3.87h-0.53v-3.7c-0.76,0.54-1.76,1.12-2.74,1.61
		c-0.07-0.12-0.2-0.29-0.3-0.4c1.97-0.91,4.12-2.45,5.28-3.72L181.9,44.57z"/>
	<path class="st0" d="M189,47.94c-0.73-0.4-1.74-0.86-2.53-1.17v3.6h-0.54v-6.26l0.73,0.04c-0.01,0.08-0.06,0.13-0.19,0.15v2.1
		l0.11-0.15c0.84,0.31,1.96,0.81,2.71,1.2L189,47.94z"/>
	<path class="st0" d="M192.93,46.65v2.96c0.63-0.13,1.31-0.27,1.97-0.42l0.04,0.44c-1.15,0.29-2.38,0.57-3.16,0.74
		c-0.01,0.06-0.05,0.09-0.1,0.11l-0.23-0.58c0.29-0.05,0.63-0.12,0.99-0.19v-5.77l0.64,0.04c-0.01,0.05-0.05,0.08-0.14,0.09v2.1
		h1.67v0.47H192.93z M195.67,49.52c0,0.4,0.07,0.47,0.42,0.47h1.2c0.36,0,0.4-0.27,0.45-1.34c0.12,0.09,0.32,0.18,0.45,0.22
		c-0.06,1.18-0.2,1.58-0.88,1.58h-1.27c-0.69,0-0.88-0.19-0.88-0.95v-5.56l0.63,0.04c-0.01,0.05-0.04,0.08-0.14,0.09v2.54
		c0.7-0.33,1.43-0.74,1.87-1.1l0.43,0.43c-0.02,0.02-0.07,0.04-0.15,0.02c-0.52,0.36-1.37,0.78-2.15,1.12V49.52z"/>
	<path class="st0" d="M202.47,49.3h-1.35v1.31h-0.45V49.3h-1.38v-0.44h1.38v-0.62h-1.09v-2.53h1.09v-0.56h-1.3v-0.43h1.3v-0.81
		l0.58,0.04c-0.01,0.05-0.05,0.08-0.14,0.09v0.68h1.27v0.43h-1.27v0.56h1.13v2.53h-1.13v0.62h1.35V49.3z M199.96,46.1v0.7h0.75v-0.7
		H199.96z M199.96,47.16v0.71h0.75v-0.71H199.96z M201.85,46.8v-0.7h-0.78v0.7H201.85z M201.85,47.87v-0.71h-0.78v0.71H201.85z
		 M203.46,46.96c0.17,0.61,0.42,1.17,0.73,1.66c0.33-0.48,0.56-1.04,0.71-1.68l0.57,0.11c-0.01,0.05-0.07,0.09-0.16,0.09
		c-0.17,0.71-0.45,1.33-0.83,1.87c0.43,0.55,0.97,0.97,1.61,1.22c-0.1,0.09-0.25,0.27-0.32,0.4c-0.63-0.28-1.15-0.71-1.58-1.25
		c-0.45,0.5-1.02,0.92-1.71,1.24c-0.07-0.1-0.22-0.28-0.32-0.36c0.71-0.32,1.3-0.73,1.75-1.26c-0.37-0.56-0.66-1.22-0.87-1.94
		L203.46,46.96z M203.89,45.7c-0.02,0.05-0.08,0.07-0.15,0.06c-0.25,0.55-0.64,1.14-1.04,1.51c-0.09-0.07-0.25-0.19-0.36-0.26
		c0.38-0.35,0.76-0.92,0.99-1.49L203.89,45.7z M206.01,44.88v0.45h-3.52v-0.45h1.48V43.9l0.62,0.04c-0.01,0.05-0.04,0.09-0.14,0.1
		v0.84H206.01z M205.66,47.26c-0.17-0.42-0.59-1.07-0.97-1.55l0.39-0.19c0.38,0.48,0.81,1.11,0.99,1.52L205.66,47.26z"/>
	<path class="st0" d="M213.26,44.57c-0.03,0.04-0.07,0.06-0.14,0.06c-0.02,0-0.04,0-0.07-0.01c-0.55,0.56-1.35,1.22-2.05,1.72
		c0.06,0.02,0.14,0.07,0.17,0.08c-0.01,0.04-0.08,0.09-0.16,0.09v3.87h-0.53v-3.7c-0.76,0.54-1.76,1.12-2.74,1.61
		c-0.07-0.12-0.2-0.29-0.3-0.4c1.97-0.91,4.12-2.45,5.28-3.72L213.26,44.57z"/>
	<path class="st0" d="M216.65,45.65c0.68,0.29,1.39,0.66,2.04,1.04c0.46-0.69,0.94-1.6,1.3-2.51l0.71,0.29
		c-0.03,0.06-0.13,0.1-0.26,0.09c-0.33,0.76-0.8,1.67-1.28,2.41c0.55,0.35,1.13,0.73,1.57,1.11l-0.35,0.45
		c-0.4-0.35-0.94-0.74-1.53-1.12c-0.74,1.06-1.82,2.13-3.05,2.95c-0.09-0.11-0.29-0.28-0.41-0.36c1.2-0.78,2.3-1.85,3.02-2.84
		c-0.66-0.39-1.35-0.76-2.03-1.06L216.65,45.65z"/>
	<path class="st0" d="M223.12,46.87h6.01v0.51h-5.74c-0.04,0.07-0.14,0.12-0.23,0.14L223.12,46.87z"/>
	<path class="st0" d="M231.24,46.21c0.65,0.14,1.46,0.42,1.94,0.65l-0.22,0.45c-0.48-0.23-1.3-0.52-1.94-0.66L231.24,46.21z
		 M231.67,49.73c2.31-0.78,3.95-2.05,4.9-4.19c0.11,0.09,0.32,0.25,0.44,0.32c-0.97,2.12-2.67,3.48-4.85,4.25
		c0.02,0.07-0.02,0.15-0.08,0.18L231.67,49.73z M232.03,44.42c0.65,0.17,1.44,0.46,1.93,0.71l-0.24,0.44
		c-0.51-0.26-1.26-0.55-1.91-0.73L232.03,44.42z M235.41,44.18c0.29,0.25,0.71,0.7,0.93,1.04l-0.28,0.21
		c-0.2-0.31-0.62-0.79-0.92-1.05L235.41,44.18z M236.41,43.74c0.29,0.25,0.71,0.71,0.94,1.04l-0.28,0.21
		c-0.22-0.32-0.62-0.78-0.91-1.04L236.41,43.74z"/>
	<path class="st0" d="M240.83,45.13v0.4h-2.35v-0.4H240.83z M240.64,50.18h-1.46v0.35h-0.4v-2.46h1.87V50.18z M240.64,46.11v0.4
		h-1.87v-0.4H240.64z M238.78,47.48v-0.4h1.87v0.4H238.78z M240.62,44.17v0.4h-1.79v-0.4H240.62z M240.23,48.47h-1.05v1.3h1.05
		V48.47z M244.96,44.22v5.74c0,0.63-0.3,0.63-1.38,0.63c-0.01-0.13-0.08-0.35-0.14-0.48c0.21,0.01,0.4,0.01,0.57,0.01h0.35
		c0.12-0.01,0.14-0.04,0.14-0.16v-5.31h-2.82v2.17c0,1.14-0.08,2.74-0.7,3.83c-0.08-0.09-0.27-0.22-0.38-0.27
		c0.58-1.03,0.63-2.48,0.63-3.56v-2.6H244.96z M242.02,46.62h0.86v-0.75h-0.79v-0.38h0.79V44.8l0.53,0.04
		c-0.01,0.05-0.04,0.08-0.13,0.09v0.55h0.81v0.38h-0.81v0.75h0.92V47h-2.19V46.62z M244.05,49.47h-1.53v0.3h-0.38V47.6h1.91V49.47z
		 M243.67,47.98h-1.15v1.12h1.15V47.98z"/>
	<path class="st0" d="M252.92,45.29h-2.48c0.65,0.69,1.67,1.32,2.62,1.62c-0.12,0.09-0.25,0.27-0.32,0.4
		c-1.02-0.38-2.15-1.17-2.83-2.02v1.58h-0.48v-1.58c-0.68,0.88-1.79,1.67-2.8,2.07c-0.07-0.12-0.21-0.29-0.31-0.38
		c0.91-0.32,1.92-0.96,2.56-1.69h-2.41v-0.44h2.97V43.9l0.62,0.04c-0.01,0.05-0.04,0.09-0.14,0.1v0.81h3.02V45.29z M251.7,47.11V50
		h1.24v0.45h-6.51V50h1.24v-2.88H251.7z M251.21,47.53h-3.07v0.57h3.07V47.53z M251.21,49.04v-0.58h-3.07v0.58H251.21z
		 M248.14,49.42V50h3.07v-0.58H248.14z"/>
	<path class="st0" d="M90.78,57.74v0.4h-2.35v-0.4H90.78z M90.59,62.78h-1.46v0.35h-0.4v-2.46h1.87V62.78z M90.59,58.71v0.4h-1.87
		v-0.4H90.59z M88.73,60.09v-0.4h1.87v0.4H88.73z M90.57,56.78v0.4h-1.79v-0.4H90.57z M90.18,61.08h-1.05v1.3h1.05V61.08z
		 M94.92,56.83v5.74c0,0.63-0.3,0.63-1.38,0.63c-0.01-0.13-0.08-0.35-0.14-0.48c0.21,0.01,0.4,0.01,0.57,0.01h0.35
		c0.12-0.01,0.14-0.04,0.14-0.16v-5.31h-2.82v2.17c0,1.14-0.08,2.74-0.7,3.83c-0.08-0.09-0.27-0.22-0.38-0.27
		c0.58-1.03,0.63-2.48,0.63-3.56v-2.6H94.92z M91.97,59.23h0.86v-0.75h-0.79V58.1h0.79v-0.68l0.53,0.04
		c-0.01,0.05-0.04,0.08-0.13,0.09v0.55h0.81v0.38h-0.81v0.75h0.92v0.38h-2.19V59.23z M94,62.08h-1.53v0.3h-0.38v-2.17H94V62.08z
		 M93.62,60.59h-1.15v1.12h1.15V60.59z"/>
	<path class="st0" d="M102.87,57.9h-2.48c0.65,0.69,1.67,1.32,2.62,1.62c-0.12,0.09-0.25,0.27-0.32,0.4
		c-1.02-0.38-2.15-1.17-2.83-2.02v1.58h-0.48V57.9c-0.68,0.88-1.79,1.67-2.8,2.07c-0.07-0.12-0.21-0.29-0.31-0.38
		c0.91-0.32,1.92-0.96,2.56-1.68H96.4v-0.44h2.97v-0.95l0.62,0.04c-0.01,0.05-0.04,0.09-0.14,0.1v0.81h3.02V57.9z M101.65,59.72
		v2.88h1.24v0.45h-6.51V62.6h1.24v-2.88H101.65z M101.16,60.14h-3.07v0.57h3.07V60.14z M101.16,61.65v-0.58h-3.07v0.58H101.16z
		 M98.09,62.03v0.58h3.07v-0.58H98.09z"/>
	<path class="st0" d="M104.82,58.97c0.39,0.41,0.81,0.89,1.18,1.35c0.22-0.58,0.37-1.22,0.48-1.94l0.6,0.12
		c-0.01,0.06-0.06,0.09-0.16,0.09c-0.14,0.8-0.33,1.52-0.6,2.15c0.35,0.47,0.64,0.91,0.83,1.27l-0.39,0.33
		c-0.15-0.32-0.39-0.7-0.67-1.11c-0.41,0.79-0.97,1.42-1.7,1.88c-0.06-0.11-0.21-0.27-0.3-0.37c0.75-0.44,1.3-1.09,1.7-1.93
		c-0.41-0.55-0.88-1.11-1.32-1.58L104.82,58.97z M107.63,57.76v0.45h-3.49v-0.45h1.52v-1.24l0.6,0.04c-0.01,0.05-0.04,0.09-0.14,0.1
		v1.1H107.63z M110.8,58.3v0.46h-0.89v3.76c0,0.66-0.37,0.68-1.5,0.68c-0.02-0.14-0.09-0.36-0.17-0.5c0.24,0.01,0.45,0.01,0.63,0.01
		c0.53,0,0.55,0,0.55-0.17v-3.77h-2.04V58.3h2.04v-1.79l0.63,0.04c-0.01,0.06-0.05,0.09-0.14,0.1v1.66H110.8z M107.91,59.57
		c0.35,0.5,0.71,1.18,0.82,1.62l-0.42,0.22c-0.12-0.45-0.45-1.15-0.8-1.66L107.91,59.57z"/>
	<path class="st0" d="M115.87,59.64c0.14,0.42,0.32,0.81,0.53,1.16c0.55-0.3,1.2-0.74,1.6-1.07l0.45,0.35
		c-0.03,0.04-0.09,0.04-0.15,0.04c-0.43,0.3-1.13,0.72-1.69,0.99c0.5,0.68,1.17,1.2,2.02,1.47c-0.11,0.09-0.24,0.27-0.31,0.4
		c-1.46-0.54-2.4-1.71-2.89-3.31c-0.22,0.14-0.48,0.27-0.76,0.39c0.99,0.62,1.41,1.46,1.41,2.1c0,0.61-0.38,1.06-1.12,1.06
		c-0.17,0-0.38,0-0.62-0.01c-0.01-0.13-0.06-0.32-0.14-0.44c0.25,0.02,0.51,0.03,0.67,0.03c0.17,0,0.75,0,0.75-0.68
		c0-0.18-0.05-0.38-0.14-0.59c-0.82,0.66-2.08,1.25-3.1,1.55c-0.06-0.11-0.19-0.28-0.29-0.38c1.1-0.27,2.45-0.88,3.19-1.51
		c-0.09-0.13-0.19-0.26-0.33-0.39c-0.66,0.45-1.68,0.87-2.47,1.07c-0.06-0.11-0.19-0.27-0.29-0.36c0.83-0.17,1.86-0.55,2.48-0.95
		c-0.13-0.11-0.27-0.21-0.44-0.3c-0.6,0.23-1.25,0.42-1.83,0.56c-0.05-0.09-0.17-0.26-0.25-0.35c0.83-0.18,1.81-0.47,2.55-0.83
		h-1.89v-1.26c-0.14,0.11-0.3,0.21-0.46,0.3c-0.07-0.11-0.22-0.26-0.33-0.33c0.96-0.53,1.69-1.27,2.07-1.87l0.6,0.11
		c-0.01,0.05-0.06,0.09-0.15,0.09c-0.08,0.11-0.17,0.22-0.26,0.33h1.69l0.08-0.03l0.37,0.24c-0.01,0.04-0.06,0.05-0.09,0.06
		c-0.13,0.22-0.32,0.47-0.53,0.7h2.04v1.66H115.87z M113.29,58.36v0.9h1.76v-0.9H113.29z M115.23,57.98
		c0.16-0.17,0.32-0.38,0.45-0.58h-1.72c-0.18,0.19-0.38,0.39-0.61,0.58H115.23z M117.38,59.26v-0.9h-1.86v0.9H117.38z"/>
	<path class="st0" d="M123.63,58.11c0,0.27-0.22,0.48-0.49,0.48s-0.49-0.22-0.49-0.48c0-0.27,0.22-0.49,0.49-0.49
		C123.43,57.62,123.63,57.85,123.63,58.11z M123.63,61.61c0,0.27-0.22,0.49-0.49,0.49s-0.49-0.22-0.49-0.49
		c0-0.27,0.22-0.48,0.49-0.48C123.43,61.13,123.63,61.36,123.63,61.61z"/>
	<path class="st0" d="M131.4,56.53c-0.01,0.06-0.07,0.09-0.14,0.11c0.7,0.95,2,2.04,3.11,2.61c-0.12,0.12-0.24,0.28-0.32,0.42
		c-1.13-0.66-2.42-1.76-3.09-2.69c-0.59,0.89-1.78,2-3.02,2.74c-0.06-0.11-0.2-0.28-0.3-0.38c1.26-0.71,2.51-1.89,3.07-2.85
		L131.4,56.53z M131.21,61.29v1.26h2.9V63h-6.23v-0.45h2.82v-1.26h-2.22v-0.44h2.22v-1.2h-1.9v-0.44h4.39v0.44h-1.98v1.2h2.25v0.44
		H131.21z"/>
	<path class="st0" d="M135.8,56.86h6.06v6.36h-0.5v-0.35h-5.08v0.35h-0.47V56.86z M136.28,62.42h5.08v-5.09h-5.08V62.42z
		 M139.02,61.28h1.87v0.43h-4.05v-0.43h1.74v-1.33h-1.41v-0.41h1.41v-1.13h-1.62v-0.42h3.78v0.42h-1.71v1.13h1.53v0.41h-1.53V61.28z
		 M140.26,61.15c-0.15-0.23-0.47-0.59-0.74-0.84l0.32-0.17c0.28,0.24,0.6,0.58,0.76,0.81L140.26,61.15z"/>
	<path class="st0" d="M147.08,57.83c-0.03,0.06-0.09,0.12-0.18,0.12c-0.26,2.24-1.01,4.19-2.2,4.19c-0.61,0-1.15-0.61-1.15-1.74
		c0-1.73,1.35-3.18,3.24-3.18c2.08,0,2.98,1.32,2.98,2.72c0,1.71-0.99,2.54-2.74,2.95c-0.06-0.12-0.19-0.31-0.3-0.44
		c1.66-0.32,2.51-1.12,2.51-2.48c0-1.19-0.76-2.27-2.45-2.27c-0.07,0-0.15,0.01-0.22,0.01L147.08,57.83z M146.39,57.74
		c-1.46,0.18-2.36,1.38-2.36,2.64c0,0.77,0.33,1.25,0.68,1.25C145.58,61.63,146.21,59.71,146.39,57.74z"/>
	<path class="st0" d="M156.24,62.6h-3.19v-0.37l0.53-0.55c1.28-1.3,1.93-2.08,1.93-2.96c0-0.58-0.25-1.11-1.03-1.11
		c-0.43,0-0.82,0.24-1.08,0.45l-0.2-0.42c0.33-0.3,0.82-0.53,1.4-0.53c1.09,0,1.52,0.79,1.52,1.53c0,1.02-0.71,1.88-1.83,3
		l-0.42,0.45v0.01h2.38V62.6z"/>
	<path class="st0" d="M157.59,59.92c0-1.89,0.74-2.8,1.74-2.8c1.02,0,1.65,0.96,1.65,2.73c0,1.87-0.66,2.84-1.73,2.84
		C158.28,62.68,157.59,61.72,157.59,59.92z M160.38,59.87c0-1.35-0.32-2.28-1.08-2.28c-0.64,0-1.09,0.86-1.09,2.28
		s0.4,2.32,1.07,2.32C160.08,62.19,160.38,61.16,160.38,59.87z"/>
	<path class="st0" d="M165.09,59.05c-0.31,0.47-0.63,0.89-0.97,1.25c-0.06-0.12-0.19-0.35-0.27-0.46c0.75-0.75,1.51-2.01,1.97-3.27
		l0.59,0.2c-0.03,0.06-0.09,0.08-0.17,0.06c-0.21,0.52-0.45,1.03-0.73,1.52l0.21,0.06c-0.01,0.05-0.05,0.09-0.14,0.09v4.7h-0.49
		V59.05z M170.66,58.97l-2.33,0.26c0.3,1.93,0.91,3.48,1.63,3.49c0.23,0,0.33-0.4,0.38-1.36c0.11,0.1,0.28,0.22,0.42,0.27
		c-0.11,1.23-0.3,1.59-0.83,1.59c-1.06-0.01-1.76-1.76-2.08-3.93l-1.84,0.2l-0.05-0.46l1.83-0.2c-0.09-0.73-0.14-1.5-0.15-2.25
		l0.66,0.03c0,0.07-0.05,0.1-0.15,0.12c0,0.69,0.04,1.39,0.13,2.06l2.34-0.26L170.66,58.97z M169.12,56.66
		c0.45,0.33,1,0.81,1.28,1.13l-0.38,0.27c-0.26-0.32-0.8-0.82-1.26-1.17L169.12,56.66z"/>
	<path class="st0" d="M178.45,59.56c-0.45,0.81-1.12,1.25-1.87,1.25c-0.65,0-1.1-0.27-1.61-0.76c-0.4-0.38-0.72-0.61-1.25-0.61
		c-0.58,0-1.09,0.4-1.4,0.97l-0.47-0.25c0.45-0.81,1.12-1.25,1.87-1.25c0.65,0,1.1,0.27,1.61,0.76c0.4,0.38,0.73,0.61,1.25,0.61
		c0.58,0,1.09-0.4,1.4-0.97L178.45,59.56z"/>
	<path class="st0" d="M184.54,57.2v0.5h-1.94l-0.22,1.53c0.12-0.01,0.23-0.03,0.42-0.03c0.96,0,1.82,0.57,1.82,1.66
		c0,1.07-0.79,1.83-1.86,1.83c-0.54,0-0.99-0.16-1.24-0.32l0.17-0.47c0.2,0.14,0.6,0.3,1.07,0.3c0.68,0,1.26-0.5,1.25-1.27
		c0-0.74-0.47-1.26-1.48-1.26c-0.29,0-0.51,0.02-0.69,0.05l0.34-2.51H184.54z"/>
	<path class="st0" d="M186.08,59.92c0-1.89,0.73-2.8,1.74-2.8c1.02,0,1.65,0.96,1.65,2.73c0,1.87-0.66,2.84-1.73,2.84
		C186.76,62.68,186.08,61.72,186.08,59.92z M188.87,59.87c0-1.35-0.32-2.28-1.08-2.28c-0.64,0-1.09,0.86-1.09,2.28
		s0.4,2.32,1.07,2.32C188.56,62.19,188.87,61.16,188.87,59.87z"/>
	<path class="st0" d="M193.58,59.05c-0.31,0.47-0.63,0.89-0.97,1.25c-0.06-0.12-0.19-0.35-0.27-0.46c0.75-0.75,1.51-2.01,1.97-3.27
		l0.59,0.2c-0.03,0.06-0.09,0.08-0.17,0.06c-0.21,0.52-0.45,1.03-0.73,1.52l0.21,0.06c-0.01,0.05-0.05,0.09-0.14,0.09v4.7h-0.49
		V59.05z M199.15,58.97l-2.33,0.26c0.3,1.93,0.91,3.48,1.63,3.49c0.23,0,0.33-0.4,0.38-1.36c0.11,0.1,0.28,0.22,0.42,0.27
		c-0.11,1.23-0.3,1.59-0.83,1.59c-1.06-0.01-1.76-1.76-2.08-3.93l-1.84,0.2l-0.05-0.46l1.83-0.2c-0.09-0.73-0.14-1.5-0.15-2.25
		l0.66,0.03c0,0.07-0.05,0.1-0.15,0.12c0,0.69,0.04,1.39,0.13,2.06l2.34-0.26L199.15,58.97z M197.6,56.66
		c0.45,0.33,1,0.81,1.28,1.13l-0.38,0.27c-0.26-0.32-0.8-0.82-1.26-1.17L197.6,56.66z"/>
	<path class="st0" d="M204.05,57.83c-0.03,0.06-0.09,0.12-0.18,0.12c-0.26,2.24-1.01,4.19-2.2,4.19c-0.6,0-1.15-0.61-1.15-1.74
		c0-1.73,1.35-3.18,3.24-3.18c2.08,0,2.98,1.32,2.98,2.72c0,1.71-0.99,2.54-2.74,2.95c-0.06-0.12-0.19-0.31-0.3-0.44
		c1.66-0.32,2.51-1.12,2.51-2.48c0-1.19-0.76-2.27-2.45-2.27c-0.07,0-0.15,0.01-0.22,0.01L204.05,57.83z M203.36,57.74
		c-1.46,0.18-2.36,1.38-2.36,2.64c0,0.77,0.33,1.25,0.68,1.25C202.55,61.63,203.18,59.71,203.36,57.74z"/>
	<path class="st0" d="M213.96,60.57l0.29,0.06c-0.01,0.04-0.02,0.1-0.04,0.14c-0.14,1.44-0.28,2.02-0.52,2.25
		c-0.19,0.18-0.4,0.19-0.74,0.19c-0.25,0-0.6-0.01-0.96-0.03c-0.01-0.14-0.07-0.32-0.16-0.45c0.49,0.04,0.97,0.05,1.14,0.05
		c0.17,0,0.24-0.01,0.32-0.07c0.17-0.14,0.29-0.61,0.4-1.69h-2.38c-0.35,0.99-1.07,1.78-2.91,2.2c-0.04-0.12-0.17-0.32-0.26-0.42
		c1.6-0.33,2.3-0.95,2.64-1.77h-2.46v-0.45h2.6c0.06-0.24,0.11-0.49,0.14-0.75h-2.12v-2.92h5.02v2.92h-2.25
		c-0.02,0.04-0.07,0.06-0.14,0.07c-0.04,0.23-0.08,0.46-0.14,0.68h2.39L213.96,60.57z M209.45,57.33v0.83h1.76v-0.83H209.45z
		 M209.45,58.56v0.84h1.76v-0.84H209.45z M213.48,58.16v-0.83h-1.79v0.83H213.48z M213.48,59.4v-0.84h-1.79v0.84H213.48z"/>
	<path class="st0" d="M222.61,58.76h-1.16c-0.25,1.16-0.62,2.06-1.24,2.75c0.88,0.42,1.68,0.88,2.22,1.28l-0.36,0.45
		c-0.53-0.42-1.35-0.9-2.25-1.35c-0.79,0.67-1.89,1.09-3.48,1.33c-0.04-0.14-0.16-0.34-0.25-0.46c1.44-0.2,2.47-0.55,3.21-1.12
		c-0.59-0.27-1.2-0.53-1.78-0.73l-0.17,0.37l-0.48-0.18c0.3-0.61,0.68-1.46,1.04-2.33h-1.87v-0.48h2.07
		c0.25-0.62,0.5-1.23,0.69-1.76l0.64,0.12c-0.01,0.05-0.07,0.08-0.17,0.08c-0.18,0.47-0.4,1.01-0.62,1.56h3.96V58.76z M218.45,58.76
		c-0.25,0.6-0.5,1.19-0.73,1.71c0.64,0.22,1.33,0.5,2,0.81c0.6-0.63,0.96-1.45,1.2-2.52H218.45z"/>
	<path class="st0" d="M227.73,62.6v-4.83h-0.01l-0.89,0.51l-0.14-0.45l1.12-0.63h0.51v5.39H227.73z"/>
	<path class="st0" d="M230.75,59.92c0-1.89,0.73-2.8,1.74-2.8c1.02,0,1.65,0.96,1.65,2.73c0,1.87-0.66,2.84-1.73,2.84
		C231.44,62.68,230.75,61.72,230.75,59.92z M233.54,59.87c0-1.35-0.32-2.28-1.08-2.28c-0.64,0-1.09,0.86-1.09,2.28
		s0.4,2.32,1.07,2.32C233.24,62.19,233.54,61.16,233.54,59.87z"/>
	<path class="st0" d="M238.42,57.2v0.5h-1.94l-0.22,1.53c0.12-0.01,0.23-0.03,0.42-0.03c0.96,0,1.82,0.57,1.82,1.66
		c0,1.07-0.79,1.83-1.86,1.83c-0.54,0-0.99-0.16-1.24-0.32l0.17-0.47c0.2,0.14,0.6,0.3,1.07,0.3c0.68,0,1.26-0.5,1.25-1.27
		c0-0.74-0.47-1.26-1.48-1.26c-0.29,0-0.51,0.02-0.69,0.05l0.34-2.51H238.42z"/>
	<path class="st0" d="M240.58,59.74c0.24-0.36,0.68-0.66,1.26-0.66c0.92,0,1.53,0.68,1.53,1.72c0,0.99-0.61,1.89-1.66,1.89
		c-1.05,0-1.76-0.87-1.76-2.27c0-1.45,0.68-2.96,2.43-3.25c0.2-0.03,0.38-0.05,0.5-0.05l0.01,0.5c-1.5,0-2.21,1.09-2.33,2.12H240.58
		z M242.76,60.84c0-0.83-0.45-1.31-1.09-1.31c-0.63,0-1.12,0.62-1.12,1.02c0.01,0.99,0.42,1.66,1.17,1.66
		C242.35,62.21,242.76,61.65,242.76,60.84z"/>
	<path class="st0" d="M252.5,60.13v3.09H252v-0.3h-3.1v0.29h-0.47v-2.38c-0.61,0.37-1.23,0.65-1.86,0.85
		c-0.05-0.12-0.18-0.33-0.27-0.42c0.93-0.27,1.9-0.76,2.74-1.43c-0.29-0.32-0.76-0.73-1.17-1.02l0.36-0.3
		c0.41,0.27,0.89,0.66,1.19,0.99c0.58-0.52,1.07-1.13,1.41-1.81h-2.29c-0.48,0.55-1.09,1.1-1.85,1.56
		c-0.07-0.12-0.23-0.29-0.35-0.37c1.17-0.67,2.02-1.61,2.44-2.39l0.65,0.11c-0.01,0.06-0.07,0.09-0.16,0.09
		c-0.11,0.18-0.24,0.37-0.38,0.55h2.22l0.09-0.03l0.35,0.19c-0.02,0.03-0.06,0.05-0.09,0.06c-0.43,1.05-1.17,1.95-2.03,2.66H252.5z
		 M248.89,62.47h3.1v-1.89h-3.1V62.47z"/>
</g>
</svg>
