<?xml version="1.0" encoding="utf-8"?>
<!-- Generator: Adobe Illustrator 23.0.4, SVG Export Plug-In . SVG Version: 6.00 Build 0)  -->
<svg version="1.1" id="レイヤー_1" xmlns="http://www.w3.org/2000/svg" xmlns:xlink="http://www.w3.org/1999/xlink" x="0px"
	 y="0px" viewBox="0 0 600 315.6" style="enable-background:new 0 0 600 315.6;" xml:space="preserve">
<style type="text/css">
	.st0{fill:#FFFFFF;}
	.st1{clip-path:url(#SVGID_2_);}
	.st2{fill:none;stroke:url(#SVGID_3_);stroke-width:3;stroke-miterlimit:10;}
	.st3{fill:none;stroke:url(#SVGID_4_);stroke-width:3;stroke-miterlimit:10;}
	.st4{fill:none;stroke:url(#SVGID_5_);stroke-width:3;stroke-miterlimit:10;}
	.st5{fill:none;stroke:url(#SVGID_6_);stroke-width:3;stroke-miterlimit:10;}
	.st6{fill:none;stroke:url(#SVGID_7_);stroke-width:3;stroke-miterlimit:10;}
	.st7{fill:none;stroke:url(#SVGID_8_);stroke-width:3;stroke-miterlimit:10;}
	.st8{fill:none;stroke:url(#SVGID_9_);stroke-width:3;stroke-miterlimit:10;}
	.st9{fill:none;stroke:url(#SVGID_10_);stroke-width:3;stroke-miterlimit:10;}
	.st10{fill:none;stroke:url(#SVGID_11_);stroke-width:3;stroke-miterlimit:10;}
	.st11{fill:none;stroke:url(#SVGID_12_);stroke-width:3;stroke-miterlimit:10;}
	.st12{fill:none;stroke:url(#SVGID_13_);stroke-width:3;stroke-miterlimit:10;}
	.st13{fill:none;stroke:url(#SVGID_14_);stroke-width:3;stroke-miterlimit:10;}
	.st14{fill:none;stroke:url(#SVGID_15_);stroke-width:3;stroke-miterlimit:10;}
	.st15{fill:none;stroke:url(#SVGID_16_);stroke-width:3;stroke-miterlimit:10;}
	.st16{fill:none;stroke:url(#SVGID_17_);stroke-width:3;stroke-miterlimit:10;}
	.st17{fill:none;stroke:url(#SVGID_18_);stroke-width:3;stroke-miterlimit:10;}
	.st18{fill:none;stroke:url(#SVGID_19_);stroke-width:3;stroke-miterlimit:10;}
	.st19{fill:none;stroke:url(#SVGID_20_);stroke-width:3;stroke-miterlimit:10;}
	.st20{fill:none;stroke:url(#SVGID_21_);stroke-width:3;stroke-miterlimit:10;}
	.st21{fill:none;stroke:url(#SVGID_22_);stroke-width:3;stroke-miterlimit:10;}
	.st22{fill:none;stroke:url(#SVGID_23_);stroke-width:3;stroke-miterlimit:10;}
	.st23{fill:none;stroke:url(#SVGID_24_);stroke-width:3;stroke-miterlimit:10;}
	.st24{fill:none;stroke:url(#SVGID_25_);stroke-width:3;stroke-miterlimit:10;}
	.st25{fill:none;stroke:url(#SVGID_26_);stroke-width:3;stroke-miterlimit:10;}
	.st26{fill:none;stroke:url(#SVGID_27_);stroke-width:3;stroke-miterlimit:10;}
	.st27{fill:none;stroke:url(#SVGID_28_);stroke-width:3;stroke-miterlimit:10;}
	.st28{fill:none;stroke:url(#SVGID_29_);stroke-width:3;stroke-miterlimit:10;}
	.st29{fill:none;stroke:url(#SVGID_30_);stroke-width:3;stroke-miterlimit:10;}
	.st30{fill:none;stroke:url(#SVGID_31_);stroke-width:3;stroke-miterlimit:10;}
	.st31{fill:none;stroke:url(#SVGID_32_);stroke-width:3;stroke-miterlimit:10;}
	.st32{fill:none;stroke:url(#SVGID_33_);stroke-width:3;stroke-miterlimit:10;}
	.st33{fill:none;stroke:url(#SVGID_34_);stroke-width:3;stroke-miterlimit:10;}
	.st34{fill:none;stroke:url(#SVGID_35_);stroke-width:3;stroke-miterlimit:10;}
	.st35{fill:none;stroke:url(#SVGID_36_);stroke-width:3;stroke-miterlimit:10;}
	.st36{fill:none;stroke:url(#SVGID_37_);stroke-width:3;stroke-miterlimit:10;}
	.st37{fill:none;stroke:url(#SVGID_38_);stroke-width:3;stroke-miterlimit:10;}
	.st38{fill:none;stroke:url(#SVGID_39_);stroke-width:3;stroke-miterlimit:10;}
	.st39{fill:none;stroke:url(#SVGID_40_);stroke-width:3;stroke-miterlimit:10;}
	.st40{fill:none;stroke:url(#SVGID_41_);stroke-width:3;stroke-miterlimit:10;}
	.st41{fill:none;stroke:url(#SVGID_42_);stroke-width:3;stroke-miterlimit:10;}
	.st42{fill:none;stroke:url(#SVGID_43_);stroke-width:3;stroke-miterlimit:10;}
	.st43{fill:none;stroke:url(#SVGID_44_);stroke-width:3;stroke-miterlimit:10;}
	.st44{fill:none;stroke:url(#SVGID_45_);stroke-width:3;stroke-miterlimit:10;}
	.st45{fill:none;stroke:url(#SVGID_46_);stroke-width:3;stroke-miterlimit:10;}
	.st46{fill:none;stroke:url(#SVGID_47_);stroke-width:3;stroke-miterlimit:10;}
	.st47{fill:none;stroke:url(#SVGID_48_);stroke-width:3;stroke-miterlimit:10;}
	.st48{fill:none;stroke:url(#SVGID_49_);stroke-width:3;stroke-miterlimit:10;}
	.st49{fill:none;stroke:url(#SVGID_50_);stroke-width:3;stroke-miterlimit:10;}
	.st50{fill:none;stroke:url(#SVGID_51_);stroke-width:3;stroke-miterlimit:10;}
	.st51{fill:none;stroke:url(#SVGID_52_);stroke-width:3;stroke-miterlimit:10;}
	.st52{fill:none;stroke:url(#SVGID_53_);stroke-width:3;stroke-miterlimit:10;}
	.st53{fill:none;stroke:url(#SVGID_54_);stroke-width:3;stroke-miterlimit:10;}
	.st54{fill:none;stroke:url(#SVGID_55_);stroke-width:3;stroke-miterlimit:10;}
	.st55{fill:none;stroke:url(#SVGID_56_);stroke-width:3;stroke-miterlimit:10;}
	.st56{fill:none;stroke:url(#SVGID_57_);stroke-width:3;stroke-miterlimit:10;}
	.st57{fill:none;stroke:url(#SVGID_58_);stroke-width:3;stroke-miterlimit:10;}
	.st58{fill:none;stroke:url(#SVGID_59_);stroke-width:3;stroke-miterlimit:10;}
	.st59{fill:none;stroke:url(#SVGID_60_);stroke-width:3;stroke-miterlimit:10;}
	.st60{fill:none;stroke:url(#SVGID_61_);stroke-width:3;stroke-miterlimit:10;}
	.st61{fill:none;stroke:url(#SVGID_62_);stroke-width:3;stroke-miterlimit:10;}
	.st62{fill:none;stroke:url(#SVGID_63_);stroke-width:3;stroke-miterlimit:10;}
	.st63{fill:none;stroke:url(#SVGID_64_);stroke-width:3;stroke-miterlimit:10;}
	.st64{fill:none;stroke:url(#SVGID_65_);stroke-width:3;stroke-miterlimit:10;}
	.st65{fill:none;stroke:url(#SVGID_66_);stroke-width:3;stroke-miterlimit:10;}
	.st66{fill:none;stroke:url(#SVGID_67_);stroke-width:3;stroke-miterlimit:10;}
	.st67{fill:none;stroke:url(#SVGID_68_);stroke-width:3;stroke-miterlimit:10;}
	.st68{fill:none;stroke:url(#SVGID_69_);stroke-width:3;stroke-miterlimit:10;}
	.st69{fill:#F1D7DA;}
	.st70{fill:#FCF69D;}
	.st71{fill:#E5C9C2;}
	.st72{fill:#E4F6F7;}
	.st73{fill:none;stroke:#8E8E8E;stroke-width:0.91;stroke-miterlimit:10;}
	.st74{fill:none;stroke:#FB9CA5;stroke-width:3;stroke-miterlimit:10;}
	.st75{fill:none;stroke:#87BBFC;stroke-width:3;stroke-miterlimit:10;}
	.st76{fill:url(#SVGID_70_);}
	.st77{fill:none;stroke:#FB9CA5;stroke-width:2.06;stroke-miterlimit:10;}
	.st78{fill:none;stroke:#87BBFC;stroke-width:2.06;stroke-miterlimit:10;}
</style>
<title>Graph</title>
<g>
	<g id="guide">
		<rect x="0.3" y="0" class="st0" width="600" height="315.6"/>
		<g>
			<defs>
				<polygon id="SVGID_1_" points="430.8,223.9 430.8,193.2 299.3,193.2 299.3,95.8 167.9,95.8 167.9,159.8 36.4,159.8 36.4,247.2 
					562.2,247.2 562.2,223.9 				"/>
			</defs>
			<clipPath id="SVGID_2_">
				<use xlink:href="#SVGID_1_"  style="overflow:visible;"/>
			</clipPath>
			<g class="st1">
				
					<linearGradient id="SVGID_3_" gradientUnits="userSpaceOnUse" x1="-105.1552" y1="119.8106" x2="105.5361" y2="119.8106" gradientTransform="matrix(1 0 0 -1 0 317.2756)">
					<stop  offset="0" style="stop-color:#D4F3FF"/>
					<stop  offset="1" style="stop-color:#B687FA"/>
				</linearGradient>
				<line class="st2" x1="-104.1" y1="301.8" x2="104.5" y2="93.2"/>
				
					<linearGradient id="SVGID_4_" gradientUnits="userSpaceOnUse" x1="-95.9452" y1="119.8106" x2="114.7561" y2="119.8106" gradientTransform="matrix(1 0 0 -1 0 317.2756)">
					<stop  offset="0" style="stop-color:#D4F3FF"/>
					<stop  offset="1" style="stop-color:#B687FA"/>
				</linearGradient>
				<line class="st3" x1="-94.9" y1="301.8" x2="113.7" y2="93.2"/>
				
					<linearGradient id="SVGID_5_" gradientUnits="userSpaceOnUse" x1="-86.7352" y1="119.8106" x2="123.9661" y2="119.8106" gradientTransform="matrix(1 0 0 -1 0 317.2756)">
					<stop  offset="0" style="stop-color:#D4F3FF"/>
					<stop  offset="1" style="stop-color:#B687FA"/>
				</linearGradient>
				<line class="st4" x1="-85.7" y1="301.8" x2="122.9" y2="93.2"/>
				
					<linearGradient id="SVGID_6_" gradientUnits="userSpaceOnUse" x1="-77.5152" y1="119.8106" x2="133.1761" y2="119.8106" gradientTransform="matrix(1 0 0 -1 0 317.2756)">
					<stop  offset="0" style="stop-color:#D4F3FF"/>
					<stop  offset="1" style="stop-color:#B687FA"/>
				</linearGradient>
				<line class="st5" x1="-76.5" y1="301.8" x2="132.1" y2="93.2"/>
				
					<linearGradient id="SVGID_7_" gradientUnits="userSpaceOnUse" x1="-68.3052" y1="119.8106" x2="142.3861" y2="119.8106" gradientTransform="matrix(1 0 0 -1 0 317.2756)">
					<stop  offset="0" style="stop-color:#D4F3FF"/>
					<stop  offset="1" style="stop-color:#B687FA"/>
				</linearGradient>
				<line class="st6" x1="-67.2" y1="301.8" x2="141.3" y2="93.2"/>
				
					<linearGradient id="SVGID_8_" gradientUnits="userSpaceOnUse" x1="-59.0952" y1="119.8106" x2="151.5961" y2="119.8106" gradientTransform="matrix(1 0 0 -1 0 317.2756)">
					<stop  offset="0" style="stop-color:#D4F3FF"/>
					<stop  offset="1" style="stop-color:#B687FA"/>
				</linearGradient>
				<line class="st7" x1="-58" y1="301.8" x2="150.5" y2="93.2"/>
				
					<linearGradient id="SVGID_9_" gradientUnits="userSpaceOnUse" x1="-49.8852" y1="119.8106" x2="160.8161" y2="119.8106" gradientTransform="matrix(1 0 0 -1 0 317.2756)">
					<stop  offset="0" style="stop-color:#D4F3FF"/>
					<stop  offset="1" style="stop-color:#B687FA"/>
				</linearGradient>
				<line class="st8" x1="-48.8" y1="301.8" x2="159.8" y2="93.2"/>
				
					<linearGradient id="SVGID_10_" gradientUnits="userSpaceOnUse" x1="-40.6652" y1="119.8106" x2="170.0261" y2="119.8106" gradientTransform="matrix(1 0 0 -1 0 317.2756)">
					<stop  offset="0" style="stop-color:#D4F3FF"/>
					<stop  offset="1" style="stop-color:#B687FA"/>
				</linearGradient>
				<line class="st9" x1="-39.6" y1="301.8" x2="169" y2="93.2"/>
				
					<linearGradient id="SVGID_11_" gradientUnits="userSpaceOnUse" x1="-31.4552" y1="119.8106" x2="179.2361" y2="119.8106" gradientTransform="matrix(1 0 0 -1 0 317.2756)">
					<stop  offset="0" style="stop-color:#D4F3FF"/>
					<stop  offset="1" style="stop-color:#B687FA"/>
				</linearGradient>
				<line class="st10" x1="-30.4" y1="301.8" x2="178.2" y2="93.2"/>
				
					<linearGradient id="SVGID_12_" gradientUnits="userSpaceOnUse" x1="-22.2452" y1="119.8106" x2="188.4461" y2="119.8106" gradientTransform="matrix(1 0 0 -1 0 317.2756)">
					<stop  offset="0" style="stop-color:#D4F3FF"/>
					<stop  offset="1" style="stop-color:#B687FA"/>
				</linearGradient>
				<line class="st11" x1="-21.2" y1="301.8" x2="187.4" y2="93.2"/>
				
					<linearGradient id="SVGID_13_" gradientUnits="userSpaceOnUse" x1="-13.0352" y1="119.8106" x2="197.6561" y2="119.8106" gradientTransform="matrix(1 0 0 -1 0 317.2756)">
					<stop  offset="0" style="stop-color:#D4F3FF"/>
					<stop  offset="1" style="stop-color:#B687FA"/>
				</linearGradient>
				<line class="st12" x1="-12" y1="301.8" x2="196.6" y2="93.2"/>
				
					<linearGradient id="SVGID_14_" gradientUnits="userSpaceOnUse" x1="-3.8252" y1="119.8106" x2="206.8761" y2="119.8106" gradientTransform="matrix(1 0 0 -1 0 317.2756)">
					<stop  offset="0" style="stop-color:#D4F3FF"/>
					<stop  offset="1" style="stop-color:#B687FA"/>
				</linearGradient>
				<line class="st13" x1="-2.8" y1="301.8" x2="205.8" y2="93.2"/>
				
					<linearGradient id="SVGID_15_" gradientUnits="userSpaceOnUse" x1="5.3948" y1="119.8106" x2="216.0861" y2="119.8106" gradientTransform="matrix(1 0 0 -1 0 317.2756)">
					<stop  offset="0" style="stop-color:#D4F3FF"/>
					<stop  offset="1" style="stop-color:#B687FA"/>
				</linearGradient>
				<line class="st14" x1="6.5" y1="301.8" x2="215" y2="93.2"/>
				
					<linearGradient id="SVGID_16_" gradientUnits="userSpaceOnUse" x1="14.6048" y1="119.8106" x2="225.2961" y2="119.8106" gradientTransform="matrix(1 0 0 -1 0 317.2756)">
					<stop  offset="0" style="stop-color:#D4F3FF"/>
					<stop  offset="1" style="stop-color:#B687FA"/>
				</linearGradient>
				<line class="st15" x1="15.7" y1="301.8" x2="224.2" y2="93.2"/>
				
					<linearGradient id="SVGID_17_" gradientUnits="userSpaceOnUse" x1="23.8148" y1="119.8106" x2="234.5061" y2="119.8106" gradientTransform="matrix(1 0 0 -1 0 317.2756)">
					<stop  offset="0" style="stop-color:#D4F3FF"/>
					<stop  offset="1" style="stop-color:#B687FA"/>
				</linearGradient>
				<line class="st16" x1="24.9" y1="301.8" x2="233.4" y2="93.2"/>
				
					<linearGradient id="SVGID_18_" gradientUnits="userSpaceOnUse" x1="33.0248" y1="119.8106" x2="243.7261" y2="119.8106" gradientTransform="matrix(1 0 0 -1 0 317.2756)">
					<stop  offset="0" style="stop-color:#D4F3FF"/>
					<stop  offset="1" style="stop-color:#B687FA"/>
				</linearGradient>
				<line class="st17" x1="34.1" y1="301.8" x2="242.7" y2="93.2"/>
				
					<linearGradient id="SVGID_19_" gradientUnits="userSpaceOnUse" x1="42.2348" y1="119.8106" x2="252.9361" y2="119.8106" gradientTransform="matrix(1 0 0 -1 0 317.2756)">
					<stop  offset="0" style="stop-color:#D4F3FF"/>
					<stop  offset="1" style="stop-color:#B687FA"/>
				</linearGradient>
				<line class="st18" x1="43.3" y1="301.8" x2="251.9" y2="93.2"/>
				
					<linearGradient id="SVGID_20_" gradientUnits="userSpaceOnUse" x1="51.4548" y1="119.8106" x2="262.1461" y2="119.8106" gradientTransform="matrix(1 0 0 -1 0 317.2756)">
					<stop  offset="0" style="stop-color:#D4F3FF"/>
					<stop  offset="1" style="stop-color:#B687FA"/>
				</linearGradient>
				<line class="st19" x1="52.5" y1="301.8" x2="261.1" y2="93.2"/>
				
					<linearGradient id="SVGID_21_" gradientUnits="userSpaceOnUse" x1="60.6648" y1="119.8106" x2="271.3561" y2="119.8106" gradientTransform="matrix(1 0 0 -1 0 317.2756)">
					<stop  offset="0" style="stop-color:#D4F3FF"/>
					<stop  offset="1" style="stop-color:#B687FA"/>
				</linearGradient>
				<line class="st20" x1="61.7" y1="301.8" x2="270.3" y2="93.2"/>
				
					<linearGradient id="SVGID_22_" gradientUnits="userSpaceOnUse" x1="69.8748" y1="119.8106" x2="280.5661" y2="119.8106" gradientTransform="matrix(1 0 0 -1 0 317.2756)">
					<stop  offset="0" style="stop-color:#D4F3FF"/>
					<stop  offset="1" style="stop-color:#B687FA"/>
				</linearGradient>
				<line class="st21" x1="70.9" y1="301.8" x2="279.5" y2="93.2"/>
				
					<linearGradient id="SVGID_23_" gradientUnits="userSpaceOnUse" x1="79.0848" y1="119.8106" x2="289.7861" y2="119.8106" gradientTransform="matrix(1 0 0 -1 0 317.2756)">
					<stop  offset="0" style="stop-color:#D4F3FF"/>
					<stop  offset="1" style="stop-color:#B687FA"/>
				</linearGradient>
				<line class="st22" x1="80.1" y1="301.8" x2="288.7" y2="93.2"/>
				
					<linearGradient id="SVGID_24_" gradientUnits="userSpaceOnUse" x1="88.2948" y1="119.8106" x2="298.9961" y2="119.8106" gradientTransform="matrix(1 0 0 -1 0 317.2756)">
					<stop  offset="0" style="stop-color:#D4F3FF"/>
					<stop  offset="1" style="stop-color:#B687FA"/>
				</linearGradient>
				<line class="st23" x1="89.4" y1="301.8" x2="297.9" y2="93.2"/>
				
					<linearGradient id="SVGID_25_" gradientUnits="userSpaceOnUse" x1="97.5148" y1="119.8106" x2="308.2061" y2="119.8106" gradientTransform="matrix(1 0 0 -1 0 317.2756)">
					<stop  offset="0" style="stop-color:#D4F3FF"/>
					<stop  offset="1" style="stop-color:#B687FA"/>
				</linearGradient>
				<line class="st24" x1="98.6" y1="301.8" x2="307.1" y2="93.2"/>
				
					<linearGradient id="SVGID_26_" gradientUnits="userSpaceOnUse" x1="106.7248" y1="119.8106" x2="317.4161" y2="119.8106" gradientTransform="matrix(1 0 0 -1 0 317.2756)">
					<stop  offset="0" style="stop-color:#D4F3FF"/>
					<stop  offset="1" style="stop-color:#B687FA"/>
				</linearGradient>
				<line class="st25" x1="107.8" y1="301.8" x2="316.4" y2="93.2"/>
				
					<linearGradient id="SVGID_27_" gradientUnits="userSpaceOnUse" x1="115.9348" y1="119.8106" x2="326.6261" y2="119.8106" gradientTransform="matrix(1 0 0 -1 0 317.2756)">
					<stop  offset="0" style="stop-color:#D4F3FF"/>
					<stop  offset="1" style="stop-color:#B687FA"/>
				</linearGradient>
				<line class="st26" x1="117" y1="301.8" x2="325.6" y2="93.2"/>
				
					<linearGradient id="SVGID_28_" gradientUnits="userSpaceOnUse" x1="125.1448" y1="119.8106" x2="335.8461" y2="119.8106" gradientTransform="matrix(1 0 0 -1 0 317.2756)">
					<stop  offset="0" style="stop-color:#D4F3FF"/>
					<stop  offset="1" style="stop-color:#B687FA"/>
				</linearGradient>
				<line class="st27" x1="126.2" y1="301.8" x2="334.8" y2="93.2"/>
				
					<linearGradient id="SVGID_29_" gradientUnits="userSpaceOnUse" x1="134.3548" y1="119.8106" x2="345.0561" y2="119.8106" gradientTransform="matrix(1 0 0 -1 0 317.2756)">
					<stop  offset="0" style="stop-color:#D4F3FF"/>
					<stop  offset="1" style="stop-color:#B687FA"/>
				</linearGradient>
				<line class="st28" x1="135.4" y1="301.8" x2="344" y2="93.2"/>
				
					<linearGradient id="SVGID_30_" gradientUnits="userSpaceOnUse" x1="143.5748" y1="119.8106" x2="354.2661" y2="119.8106" gradientTransform="matrix(1 0 0 -1 0 317.2756)">
					<stop  offset="0" style="stop-color:#D4F3FF"/>
					<stop  offset="1" style="stop-color:#B687FA"/>
				</linearGradient>
				<line class="st29" x1="144.6" y1="301.8" x2="353.2" y2="93.2"/>
				
					<linearGradient id="SVGID_31_" gradientUnits="userSpaceOnUse" x1="152.7848" y1="119.8106" x2="363.4761" y2="119.8106" gradientTransform="matrix(1 0 0 -1 0 317.2756)">
					<stop  offset="0" style="stop-color:#D4F3FF"/>
					<stop  offset="1" style="stop-color:#B687FA"/>
				</linearGradient>
				<line class="st30" x1="153.8" y1="301.8" x2="362.4" y2="93.2"/>
				
					<linearGradient id="SVGID_32_" gradientUnits="userSpaceOnUse" x1="161.9948" y1="119.8106" x2="372.6861" y2="119.8106" gradientTransform="matrix(1 0 0 -1 0 317.2756)">
					<stop  offset="0" style="stop-color:#D4F3FF"/>
					<stop  offset="1" style="stop-color:#B687FA"/>
				</linearGradient>
				<line class="st31" x1="163.1" y1="301.8" x2="371.6" y2="93.2"/>
				
					<linearGradient id="SVGID_33_" gradientUnits="userSpaceOnUse" x1="171.2048" y1="119.8106" x2="381.9061" y2="119.8106" gradientTransform="matrix(1 0 0 -1 0 317.2756)">
					<stop  offset="0" style="stop-color:#D4F3FF"/>
					<stop  offset="1" style="stop-color:#B687FA"/>
				</linearGradient>
				<line class="st32" x1="172.3" y1="301.8" x2="380.8" y2="93.2"/>
				
					<linearGradient id="SVGID_34_" gradientUnits="userSpaceOnUse" x1="180.4148" y1="119.8106" x2="391.1161" y2="119.8106" gradientTransform="matrix(1 0 0 -1 0 317.2756)">
					<stop  offset="0" style="stop-color:#D4F3FF"/>
					<stop  offset="1" style="stop-color:#B687FA"/>
				</linearGradient>
				<line class="st33" x1="181.5" y1="301.8" x2="390.1" y2="93.2"/>
				
					<linearGradient id="SVGID_35_" gradientUnits="userSpaceOnUse" x1="189.6348" y1="119.8106" x2="400.3261" y2="119.8106" gradientTransform="matrix(1 0 0 -1 0 317.2756)">
					<stop  offset="0" style="stop-color:#D4F3FF"/>
					<stop  offset="1" style="stop-color:#B687FA"/>
				</linearGradient>
				<line class="st34" x1="190.7" y1="301.8" x2="399.3" y2="93.2"/>
				
					<linearGradient id="SVGID_36_" gradientUnits="userSpaceOnUse" x1="198.8448" y1="119.8106" x2="409.5361" y2="119.8106" gradientTransform="matrix(1 0 0 -1 0 317.2756)">
					<stop  offset="0" style="stop-color:#D4F3FF"/>
					<stop  offset="1" style="stop-color:#B687FA"/>
				</linearGradient>
				<line class="st35" x1="199.9" y1="301.8" x2="408.5" y2="93.2"/>
				
					<linearGradient id="SVGID_37_" gradientUnits="userSpaceOnUse" x1="208.0548" y1="119.8106" x2="418.7462" y2="119.8106" gradientTransform="matrix(1 0 0 -1 0 317.2756)">
					<stop  offset="0" style="stop-color:#D4F3FF"/>
					<stop  offset="1" style="stop-color:#B687FA"/>
				</linearGradient>
				<line class="st36" x1="209.1" y1="301.8" x2="417.7" y2="93.2"/>
				
					<linearGradient id="SVGID_38_" gradientUnits="userSpaceOnUse" x1="217.2648" y1="119.8106" x2="427.9661" y2="119.8106" gradientTransform="matrix(1 0 0 -1 0 317.2756)">
					<stop  offset="0" style="stop-color:#D4F3FF"/>
					<stop  offset="1" style="stop-color:#B687FA"/>
				</linearGradient>
				<line class="st37" x1="218.3" y1="301.8" x2="426.9" y2="93.2"/>
				
					<linearGradient id="SVGID_39_" gradientUnits="userSpaceOnUse" x1="226.4748" y1="119.8106" x2="437.1761" y2="119.8106" gradientTransform="matrix(1 0 0 -1 0 317.2756)">
					<stop  offset="0" style="stop-color:#D4F3FF"/>
					<stop  offset="1" style="stop-color:#B687FA"/>
				</linearGradient>
				<line class="st38" x1="227.5" y1="301.8" x2="436.1" y2="93.2"/>
				
					<linearGradient id="SVGID_40_" gradientUnits="userSpaceOnUse" x1="235.6948" y1="119.8106" x2="446.3861" y2="119.8106" gradientTransform="matrix(1 0 0 -1 0 317.2756)">
					<stop  offset="0" style="stop-color:#D4F3FF"/>
					<stop  offset="1" style="stop-color:#B687FA"/>
				</linearGradient>
				<line class="st39" x1="236.8" y1="301.8" x2="445.3" y2="93.2"/>
				
					<linearGradient id="SVGID_41_" gradientUnits="userSpaceOnUse" x1="244.9048" y1="119.8106" x2="455.5961" y2="119.8106" gradientTransform="matrix(1 0 0 -1 0 317.2756)">
					<stop  offset="0" style="stop-color:#D4F3FF"/>
					<stop  offset="1" style="stop-color:#B687FA"/>
				</linearGradient>
				<line class="st40" x1="246" y1="301.8" x2="454.5" y2="93.2"/>
				
					<linearGradient id="SVGID_42_" gradientUnits="userSpaceOnUse" x1="254.1148" y1="119.8106" x2="464.8062" y2="119.8106" gradientTransform="matrix(1 0 0 -1 0 317.2756)">
					<stop  offset="0" style="stop-color:#D4F3FF"/>
					<stop  offset="1" style="stop-color:#B687FA"/>
				</linearGradient>
				<line class="st41" x1="255.2" y1="301.8" x2="463.7" y2="93.2"/>
				
					<linearGradient id="SVGID_43_" gradientUnits="userSpaceOnUse" x1="263.3248" y1="119.8106" x2="474.0261" y2="119.8106" gradientTransform="matrix(1 0 0 -1 0 317.2756)">
					<stop  offset="0" style="stop-color:#D4F3FF"/>
					<stop  offset="1" style="stop-color:#B687FA"/>
				</linearGradient>
				<line class="st42" x1="264.4" y1="301.8" x2="473" y2="93.2"/>
				
					<linearGradient id="SVGID_44_" gradientUnits="userSpaceOnUse" x1="272.5348" y1="119.8106" x2="483.2361" y2="119.8106" gradientTransform="matrix(1 0 0 -1 0 317.2756)">
					<stop  offset="0" style="stop-color:#D4F3FF"/>
					<stop  offset="1" style="stop-color:#B687FA"/>
				</linearGradient>
				<line class="st43" x1="273.6" y1="301.8" x2="482.2" y2="93.2"/>
				
					<linearGradient id="SVGID_45_" gradientUnits="userSpaceOnUse" x1="281.7548" y1="119.8106" x2="492.4461" y2="119.8106" gradientTransform="matrix(1 0 0 -1 0 317.2756)">
					<stop  offset="0" style="stop-color:#D4F3FF"/>
					<stop  offset="1" style="stop-color:#B687FA"/>
				</linearGradient>
				<line class="st44" x1="282.8" y1="301.8" x2="491.4" y2="93.2"/>
				
					<linearGradient id="SVGID_46_" gradientUnits="userSpaceOnUse" x1="290.9648" y1="119.8106" x2="501.6561" y2="119.8106" gradientTransform="matrix(1 0 0 -1 0 317.2756)">
					<stop  offset="0" style="stop-color:#D4F3FF"/>
					<stop  offset="1" style="stop-color:#B687FA"/>
				</linearGradient>
				<line class="st45" x1="292" y1="301.8" x2="500.6" y2="93.2"/>
				
					<linearGradient id="SVGID_47_" gradientUnits="userSpaceOnUse" x1="300.1748" y1="119.8106" x2="510.8661" y2="119.8106" gradientTransform="matrix(1 0 0 -1 0 317.2756)">
					<stop  offset="0" style="stop-color:#D4F3FF"/>
					<stop  offset="1" style="stop-color:#B687FA"/>
				</linearGradient>
				<line class="st46" x1="301.2" y1="301.8" x2="509.8" y2="93.2"/>
				
					<linearGradient id="SVGID_48_" gradientUnits="userSpaceOnUse" x1="309.3848" y1="119.8106" x2="520.0861" y2="119.8106" gradientTransform="matrix(1 0 0 -1 0 317.2756)">
					<stop  offset="0" style="stop-color:#D4F3FF"/>
					<stop  offset="1" style="stop-color:#B687FA"/>
				</linearGradient>
				<line class="st47" x1="310.4" y1="301.8" x2="519" y2="93.2"/>
				
					<linearGradient id="SVGID_49_" gradientUnits="userSpaceOnUse" x1="318.6048" y1="119.8106" x2="529.2961" y2="119.8106" gradientTransform="matrix(1 0 0 -1 0 317.2756)">
					<stop  offset="0" style="stop-color:#D4F3FF"/>
					<stop  offset="1" style="stop-color:#B687FA"/>
				</linearGradient>
				<line class="st48" x1="319.7" y1="301.8" x2="528.2" y2="93.2"/>
				
					<linearGradient id="SVGID_50_" gradientUnits="userSpaceOnUse" x1="327.8148" y1="119.8106" x2="538.5061" y2="119.8106" gradientTransform="matrix(1 0 0 -1 0 317.2756)">
					<stop  offset="0" style="stop-color:#D4F3FF"/>
					<stop  offset="1" style="stop-color:#B687FA"/>
				</linearGradient>
				<line class="st49" x1="328.9" y1="301.8" x2="537.4" y2="93.2"/>
				
					<linearGradient id="SVGID_51_" gradientUnits="userSpaceOnUse" x1="337.0248" y1="119.8106" x2="547.7161" y2="119.8106" gradientTransform="matrix(1 0 0 -1 0 317.2756)">
					<stop  offset="0" style="stop-color:#D4F3FF"/>
					<stop  offset="1" style="stop-color:#B687FA"/>
				</linearGradient>
				<line class="st50" x1="338.1" y1="301.8" x2="546.7" y2="93.2"/>
				
					<linearGradient id="SVGID_52_" gradientUnits="userSpaceOnUse" x1="346.2348" y1="119.8106" x2="556.9261" y2="119.8106" gradientTransform="matrix(1 0 0 -1 0 317.2756)">
					<stop  offset="0" style="stop-color:#D4F3FF"/>
					<stop  offset="1" style="stop-color:#B687FA"/>
				</linearGradient>
				<line class="st51" x1="347.3" y1="301.8" x2="555.9" y2="93.2"/>
				
					<linearGradient id="SVGID_53_" gradientUnits="userSpaceOnUse" x1="355.4448" y1="119.8106" x2="566.1461" y2="119.8106" gradientTransform="matrix(1 0 0 -1 0 317.2756)">
					<stop  offset="0" style="stop-color:#D4F3FF"/>
					<stop  offset="1" style="stop-color:#B687FA"/>
				</linearGradient>
				<line class="st52" x1="356.5" y1="301.8" x2="565.1" y2="93.2"/>
				
					<linearGradient id="SVGID_54_" gradientUnits="userSpaceOnUse" x1="364.6648" y1="119.8106" x2="575.3561" y2="119.8106" gradientTransform="matrix(1 0 0 -1 0 317.2756)">
					<stop  offset="0" style="stop-color:#D4F3FF"/>
					<stop  offset="1" style="stop-color:#B687FA"/>
				</linearGradient>
				<line class="st53" x1="365.7" y1="301.8" x2="574.3" y2="93.2"/>
				
					<linearGradient id="SVGID_55_" gradientUnits="userSpaceOnUse" x1="373.8748" y1="119.8106" x2="584.5661" y2="119.8106" gradientTransform="matrix(1 0 0 -1 0 317.2756)">
					<stop  offset="0" style="stop-color:#D4F3FF"/>
					<stop  offset="1" style="stop-color:#B687FA"/>
				</linearGradient>
				<line class="st54" x1="374.9" y1="301.8" x2="583.5" y2="93.2"/>
				
					<linearGradient id="SVGID_56_" gradientUnits="userSpaceOnUse" x1="383.0848" y1="119.8106" x2="593.7761" y2="119.8106" gradientTransform="matrix(1 0 0 -1 0 317.2756)">
					<stop  offset="0" style="stop-color:#D4F3FF"/>
					<stop  offset="1" style="stop-color:#B687FA"/>
				</linearGradient>
				<line class="st55" x1="384.1" y1="301.8" x2="592.7" y2="93.2"/>
				
					<linearGradient id="SVGID_57_" gradientUnits="userSpaceOnUse" x1="392.2948" y1="119.8106" x2="602.9962" y2="119.8106" gradientTransform="matrix(1 0 0 -1 0 317.2756)">
					<stop  offset="0" style="stop-color:#D4F3FF"/>
					<stop  offset="1" style="stop-color:#B687FA"/>
				</linearGradient>
				<line class="st56" x1="393.4" y1="301.8" x2="601.9" y2="93.2"/>
				
					<linearGradient id="SVGID_58_" gradientUnits="userSpaceOnUse" x1="401.5048" y1="119.8106" x2="612.2061" y2="119.8106" gradientTransform="matrix(1 0 0 -1 0 317.2756)">
					<stop  offset="0" style="stop-color:#D4F3FF"/>
					<stop  offset="1" style="stop-color:#B687FA"/>
				</linearGradient>
				<line class="st57" x1="402.6" y1="301.8" x2="611.1" y2="93.2"/>
				
					<linearGradient id="SVGID_59_" gradientUnits="userSpaceOnUse" x1="410.7248" y1="119.8106" x2="621.4161" y2="119.8106" gradientTransform="matrix(1 0 0 -1 0 317.2756)">
					<stop  offset="0" style="stop-color:#D4F3FF"/>
					<stop  offset="1" style="stop-color:#B687FA"/>
				</linearGradient>
				<line class="st58" x1="411.8" y1="301.8" x2="620.4" y2="93.2"/>
				
					<linearGradient id="SVGID_60_" gradientUnits="userSpaceOnUse" x1="419.9348" y1="119.8106" x2="630.6261" y2="119.8106" gradientTransform="matrix(1 0 0 -1 0 317.2756)">
					<stop  offset="0" style="stop-color:#D4F3FF"/>
					<stop  offset="1" style="stop-color:#B687FA"/>
				</linearGradient>
				<line class="st59" x1="421" y1="301.8" x2="629.6" y2="93.2"/>
				
					<linearGradient id="SVGID_61_" gradientUnits="userSpaceOnUse" x1="429.1448" y1="119.8106" x2="639.8361" y2="119.8106" gradientTransform="matrix(1 0 0 -1 0 317.2756)">
					<stop  offset="0" style="stop-color:#D4F3FF"/>
					<stop  offset="1" style="stop-color:#B687FA"/>
				</linearGradient>
				<line class="st60" x1="430.2" y1="301.8" x2="638.8" y2="93.2"/>
				
					<linearGradient id="SVGID_62_" gradientUnits="userSpaceOnUse" x1="438.3548" y1="119.8106" x2="649.0562" y2="119.8106" gradientTransform="matrix(1 0 0 -1 0 317.2756)">
					<stop  offset="0" style="stop-color:#D4F3FF"/>
					<stop  offset="1" style="stop-color:#B687FA"/>
				</linearGradient>
				<line class="st61" x1="439.4" y1="301.8" x2="648" y2="93.2"/>
				
					<linearGradient id="SVGID_63_" gradientUnits="userSpaceOnUse" x1="447.5648" y1="119.8106" x2="658.2661" y2="119.8106" gradientTransform="matrix(1 0 0 -1 0 317.2756)">
					<stop  offset="0" style="stop-color:#D4F3FF"/>
					<stop  offset="1" style="stop-color:#B687FA"/>
				</linearGradient>
				<line class="st62" x1="448.6" y1="301.8" x2="657.2" y2="93.2"/>
				
					<linearGradient id="SVGID_64_" gradientUnits="userSpaceOnUse" x1="456.7848" y1="119.8106" x2="667.4761" y2="119.8106" gradientTransform="matrix(1 0 0 -1 0 317.2756)">
					<stop  offset="0" style="stop-color:#D4F3FF"/>
					<stop  offset="1" style="stop-color:#B687FA"/>
				</linearGradient>
				<line class="st63" x1="457.8" y1="301.8" x2="666.4" y2="93.2"/>
				
					<linearGradient id="SVGID_65_" gradientUnits="userSpaceOnUse" x1="465.9948" y1="119.8106" x2="676.6862" y2="119.8106" gradientTransform="matrix(1 0 0 -1 0 317.2756)">
					<stop  offset="0" style="stop-color:#D4F3FF"/>
					<stop  offset="1" style="stop-color:#B687FA"/>
				</linearGradient>
				<line class="st64" x1="467.1" y1="301.8" x2="675.6" y2="93.2"/>
				
					<linearGradient id="SVGID_66_" gradientUnits="userSpaceOnUse" x1="475.2048" y1="119.8106" x2="685.8961" y2="119.8106" gradientTransform="matrix(1 0 0 -1 0 317.2756)">
					<stop  offset="0" style="stop-color:#D4F3FF"/>
					<stop  offset="1" style="stop-color:#B687FA"/>
				</linearGradient>
				<line class="st65" x1="476.3" y1="301.8" x2="684.8" y2="93.2"/>
				
					<linearGradient id="SVGID_67_" gradientUnits="userSpaceOnUse" x1="484.4148" y1="119.8106" x2="695.1161" y2="119.8106" gradientTransform="matrix(1 0 0 -1 0 317.2756)">
					<stop  offset="0" style="stop-color:#D4F3FF"/>
					<stop  offset="1" style="stop-color:#B687FA"/>
				</linearGradient>
				<line class="st66" x1="485.5" y1="301.8" x2="694.1" y2="93.2"/>
				
					<linearGradient id="SVGID_68_" gradientUnits="userSpaceOnUse" x1="493.6248" y1="119.8106" x2="704.3261" y2="119.8106" gradientTransform="matrix(1 0 0 -1 0 317.2756)">
					<stop  offset="0" style="stop-color:#D4F3FF"/>
					<stop  offset="1" style="stop-color:#B687FA"/>
				</linearGradient>
				<line class="st67" x1="494.7" y1="301.8" x2="703.3" y2="93.2"/>
				
					<linearGradient id="SVGID_69_" gradientUnits="userSpaceOnUse" x1="502.8448" y1="119.8106" x2="713.5361" y2="119.8106" gradientTransform="matrix(1 0 0 -1 0 317.2756)">
					<stop  offset="0" style="stop-color:#D4F3FF"/>
					<stop  offset="1" style="stop-color:#B687FA"/>
				</linearGradient>
				<line class="st68" x1="503.9" y1="301.8" x2="712.5" y2="93.2"/>
			</g>
		</g>
		<circle class="st69" cx="102.2" cy="52.6" r="28.8"/>
		<path d="M96.8,52.8c-1,1-2.1,1.9-3.4,2.5L92,54.6c2.1-0.8,3.9-2.2,5.2-4h-4.4v-1.1h5c0.3-0.6,0.6-1.2,0.9-1.8h-4.5v-1h4.9
			c0.2-0.5,0.3-1.1,0.5-1.6h-5.8V44h6c0.1-0.7,0.2-1.3,0.2-1.9l1.6,0.2c0.2,0,0.4,0.2,0.4,0.3s-0.2,0.3-0.6,0.3
			c-0.1,0.3-0.1,0.7-0.2,1.1h7.6v1.1h-7.9c-0.1,0.5-0.3,1-0.5,1.6h7.8v1h-4.9c0.3,0.6,0.6,1.2,1,1.8h5.5v1.1h-4.6
			c1.4,1.7,3.3,2.9,5.5,3.5l-1.5,1c-1.3-0.6-2.5-1.3-3.5-2.3l0.1,7.5h-1.2v-0.9h-6.4v1h-1.2L96.8,52.8z M105.3,52.4
			c-0.6-0.6-1.1-1.2-1.6-1.9h-5.1c-0.4,0.7-0.9,1.3-1.4,1.9H105.3z M104.4,58.2v-2H98v2H104.4z M104.4,55.2v-1.8h-6.3v1.8
			L104.4,55.2z M103.1,49.5c-0.4-0.6-0.7-1.2-0.9-1.8h-2c-0.2,0.6-0.5,1.2-0.8,1.8H103.1z"/>
		<circle class="st70" cx="233.6" cy="52.6" r="28.8"/>
		<path d="M223.8,59.1c2.8,0,5.7-0.5,8.3-1.6c-0.8-0.5-1.5-1.2-2.1-2c-1.4,0.9-2.9,1.7-4.5,2.3l-1.3-1c2.9-0.8,5.5-2.2,7.7-4.2h-3.1
			v0.9h-1.2v-8.4h4c0.2-0.4,0.5-0.8,0.7-1.2h-7.8v-1.1h17.3V44h-8.1c-0.2,0.3-0.4,0.8-0.7,1.2h5.9v8.1h-1.2v-0.6h-4
			c-0.4,0.4-0.9,0.8-1.5,1.3h5.1c0.1,0,0.2-0.1,0.3-0.1c0,0,0.1,0,0.1,0c0.1,0,0.9,0.6,0.9,0.8s-0.2,0.2-0.4,0.2
			c-1,1-2.1,1.9-3.3,2.6c2,0.7,4.1,1,6.2,1c0.5,0,1,0,1.5,0l-1.3,1.4c-2.6,0-5.2-0.5-7.6-1.6c-2.6,1.2-5.4,1.9-8.3,2L223.8,59.1z
			 M237.6,47.4v-1.1h-8.8v1.1H237.6z M237.6,49.5v-1.1h-8.8v1.1H237.6z M237.6,51.7v-1.2h-8.8v1.2L237.6,51.7z M231,55.1
			c0.6,0.8,1.4,1.5,2.4,1.9c1-0.5,2-1.2,2.8-2L231,55.1z"/>
		<circle class="st71" cx="365" cy="52.6" r="28.8"/>
		<path d="M358.8,56.5c0-1.4,0.1-4.6,0.2-6.2c-0.6,2-1.5,3.8-2.7,5.5l-1.4-0.4c1.7-2,3-4.4,3.8-6.9h-2.9v-1.2h3.1v-2.8
			c-1.2,0.2-2.2,0.4-2.4,0.4l-0.8-1c2-0.2,3.9-0.6,5.8-1.3c0.2,0.2,1.1,0.9,1.1,1.2c0,0.1-0.1,0.2-0.2,0.2c-0.2,0-0.4-0.1-0.5-0.2
			c-0.6,0.2-1.2,0.4-1.8,0.5v3.1h2.7v1.2h-2.6c0.7,1.6,1.7,3.1,2.9,4.4l-1.2,0.5c-0.7-1.2-1.3-2.5-1.9-3.8c0,1.3,0.1,5.5,0.1,6.8
			c0,0,0,2.8,0,3.6h-1.3V56.5z M360.9,59c5.3-2.9,6-8.3,6-12.9c0-1.7-0.1-3.2-0.1-3.6c1.6,0,1.9,0.2,1.9,0.3s-0.2,0.3-0.6,0.3
			c0,0.3,0,1.4,0,2.7v0.7c0.1,1.2,0.2,2.4,0.5,3.6c1.3-1.4,2.4-2.8,3.5-4.4c0,0,1.5,0.9,1.5,1.2c0,0.1-0.1,0.2-0.4,0.2
			c-0.1,0-0.2,0-0.3,0c-1.1,1.4-2.2,2.6-3.4,3.9l-0.7-0.4c0.7,3.3,2.6,6.1,5.3,8.1l-1.6,0.9c-2.4-2-3.9-5.3-4.7-8.7
			c-0.5,3.5-2.3,6.7-5.2,8.9L360.9,59z M363.1,52c0.4-1.3,0.6-2.6,0.6-4c0-0.7,0-1.3-0.1-2c1.9,0,1.9,0.3,1.9,0.3s-0.2,0.3-0.6,0.4
			V47c0.1,1.7,0,3.4-0.4,5H363.1z"/>
		<circle class="st72" cx="496.4" cy="50.6" r="28.8"/>
		<path d="M487,51.6c3.1-0.6,6-1.9,8.5-3.9c-1-0.9-1.7-2-2.3-3.2c-1.1,1.3-2.3,2.4-3.7,3.4l-1.5-0.7c2.8-1.6,5-4,6.4-6.8
			c0.1,0,1.7,0.4,1.7,0.8c0,0.1-0.2,0.2-0.5,0.2c-0.1,0-0.1,0-0.2,0c-0.2,0.3-0.3,0.6-0.5,0.9h5c0.1,0,0.2-0.1,0.3-0.1
			c0.4,0.2,0.7,0.4,1,0.7c0.1,0,0.1,0.1,0.1,0.2c0,0.1-0.2,0.2-0.4,0.3c-1,1.7-2.2,3.2-3.6,4.5c2.4,1.8,5.2,3,8.2,3.3l-1.5,1.4
			c-2.8-0.6-5.4-1.9-7.7-3.8c-2.3,2-5.1,3.4-8,4.2L487,51.6z M491.9,54.6c3,0.5,6,1.4,8.8,2.4l-0.9,1.4c-2.9-1.2-5.8-2.1-8.9-2.6
			L491.9,54.6z M494,51.2c2,0.5,4,1.2,5.9,2.1l-0.9,1.2c-1.9-1-3.8-1.7-5.9-2.2L494,51.2z M494,43.4c0.6,1.3,1.4,2.5,2.4,3.5
			c1.1-1.1,2.1-2.3,2.9-3.5L494,43.4L494,43.4z"/>
		<line class="st73" x1="36.4" y1="83.7" x2="36.4" y2="247.2"/>
		<line class="st73" x1="167.9" y1="83.7" x2="167.9" y2="247.2"/>
		<line class="st73" x1="299.3" y1="83.7" x2="299.3" y2="247.2"/>
		<line class="st73" x1="430.8" y1="83.7" x2="430.8" y2="247.2"/>
		<line class="st73" x1="562.2" y1="83.7" x2="562.2" y2="247.2"/>
		<line class="st73" x1="36.4" y1="247.2" x2="562.2" y2="247.2"/>
		<line class="st73" x1="36.4" y1="214.8" x2="562.2" y2="214.8"/>
		<line class="st73" x1="36.4" y1="182.4" x2="562.2" y2="182.4"/>
		<line class="st73" x1="36.4" y1="149.9" x2="562.2" y2="149.9"/>
		<line class="st73" x1="36.4" y1="117.5" x2="562.2" y2="117.5"/>
		<path class="st74" d="M36.4,203.9c66.4,0,103.8-70.8,197.3-70.8s191,101.5,328.5,101.5"/>
		<path class="st75" d="M36.4,202.5c66.4,0,103.8-52.5,197.3-52.5s191,75.3,328.5,75.3"/>
		
			<linearGradient id="SVGID_70_" gradientUnits="userSpaceOnUse" x1="179.8755" y1="34.8006" x2="244.6355" y2="34.8006" gradientTransform="matrix(1 0 0 -1 0 317.2756)">
			<stop  offset="0" style="stop-color:#E9E6FD"/>
			<stop  offset="1" style="stop-color:#C5BCFC"/>
		</linearGradient>
		<rect x="179.9" y="275.2" class="st76" width="64.8" height="14.5"/>
		<line class="st77" x1="309.5" y1="282.5" x2="374.3" y2="282.5"/>
		<line class="st78" x1="439.2" y1="282.5" x2="503.9" y2="282.5"/>
		<path d="M263,274.5h1.8v8.9c0,1.7,0.2,4.4,4,4.4c3.1,0,4-1.8,4-4.4v-8.9h1.7v9.1c0,3.2-1.3,5.7-5.7,5.7c-5.5,0-5.7-4-5.7-5.7
			L263,274.5z"/>
		<path d="M278.3,274.5h1.9l4.1,11c0.1,0.4,0.5,1.3,0.6,1.8c0.2-0.5,0.5-1.4,0.6-1.8l4.2-11h1.9l-5.8,14.6H284L278.3,274.5z"/>
		<path d="M393,277.2c1.1,0.6,2.2,1.2,3.3,2l-0.9,1.2c-1-0.9-2.1-1.6-3.3-2.2L393,277.2z M396.6,283.3c-0.8,1.8-1.7,3.6-2.7,5.4
			c0.1,0.1,0.2,0.3,0.2,0.5c0,0.1-0.1,0.2-0.2,0.2c-0.6-0.2-1.2-0.5-1.7-0.8c1.5-2,2.6-4.2,3.4-6.5L396.6,283.3z M394.2,272.8
			c1.1,0.6,2.1,1.3,3,2.1l-0.9,1.1c-0.9-0.9-1.9-1.7-3-2.3L394.2,272.8z M395.9,288.2h1.8v-5.9h11.1v5.9h1.4v1.1h-14.3L395.9,288.2z
			 M398.6,273.3h9.3v7.9h-1.2v-0.9h-6.9v1h-1.2V273.3z M401,288.2v-4.8h-2v4.8H401z M406.7,276.2v-1.8h-6.9v1.8H406.7z M406.7,279.2
			v-1.9h-6.9v1.9H406.7z M404.3,288.2v-4.8h-2.1v4.8H404.3z M407.6,288.2v-4.8h-2.1v4.8H407.6z"/>
		<path d="M413.8,289.4c2.3-2.6,2.6-6.3,2.6-8.6v-0.5c0-0.9-0.1-5.8-0.2-6.2h6.7v-0.5c0-0.3,0-0.8-0.1-1.3c2,0,2,0.3,2,0.4
			s-0.2,0.3-0.6,0.4c0,0.4-0.1,0.8-0.1,1.1h7.1v1.2h-13.6v2h3.3v-0.1c0,0,0-0.7,0-1.5c0.6,0,1.8,0.1,1.8,0.4c0,0.1-0.2,0.3-0.6,0.3
			c0,0.3,0,0.6,0,0.8h3.8v-0.1c0,0,0-0.7-0.1-1.5c0.7,0,1.8,0.1,1.8,0.4c0,0.1-0.2,0.3-0.6,0.3c0,0.3,0,0.7,0,0.8h4.1v1.1h-4.1v3.2
			h-1.2V281h-3.8v0.6h-1.2v-3.2h-3.4c0,0.9,0,1.8,0,2.1v0.2c0,2.7-0.4,6.4-2.5,9.1L413.8,289.4z M416.4,289.1c2.4-0.2,4.8-0.8,6.9-2
			c-1.2-1-2.1-2.1-2.8-3.4h-1.8v-1.1h9.1c0.1,0,0.2-0.2,0.4-0.2h0.1c0.4,0.2,0.9,0.7,0.9,0.8s-0.2,0.2-0.4,0.2
			c-0.9,1.3-2,2.6-3.2,3.6c2.1,1,4.3,1.5,6.6,1.5l-1.3,1.4c-2.3-0.2-4.5-0.9-6.4-2.1c-2,1.3-4.3,2.1-6.7,2.4L416.4,289.1z
			 M421.8,283.7c0.6,1.1,1.5,2,2.5,2.7c1-0.7,1.9-1.7,2.6-2.7H421.8z M426.1,279.9v-1.5h-3.8v1.5H426.1z"/>
		<path d="M522.6,277.2c1.1,0.5,2.2,1.2,3.3,1.9l-0.8,1.2c-1-0.9-2.1-1.6-3.3-2.1L522.6,277.2z M526.1,283.4
			c-0.7,1.8-1.6,3.6-2.6,5.3c0.1,0.1,0.2,0.3,0.2,0.5c0,0.1-0.1,0.2-0.2,0.2c0,0,0,0,0,0c-0.1,0-0.4-0.1-1.7-0.9
			c1.4-2,2.5-4.1,3.3-6.4L526.1,283.4z M523.9,272.7c1.1,0.6,2,1.3,2.9,2.1l-1,1.1c-0.8-0.9-1.8-1.7-2.9-2.3L523.9,272.7z
			 M525.8,288.2h5v-6c0,0,0-0.9-0.1-1.4l1.4,0.1c0.2,0,0.4,0.1,0.4,0.3s-0.2,0.3-0.5,0.3c0,0.2,0,0.8,0,0.8v6h1.7v-6c0,0,0-1,0-1.4
			l1.4,0.1c0.2,0,0.4,0.1,0.4,0.3s-0.2,0.3-0.5,0.3c0,0.2,0,0.8,0,0.8v6h4.6v1.1h-13.8L525.8,288.2z M528.7,287.3
			c-0.3-1.6-0.9-3.1-1.6-4.5l1.1-0.3c0.8,1.4,1.3,2.9,1.8,4.5L528.7,287.3z M527.9,273.1H538v7.9h-1.2v-0.8h-7.7v1h-1.2L527.9,273.1
			z M536.8,276v-1.8h-7.7v1.8H536.8z M536.8,279v-1.9h-7.7v1.9H536.8z M535.8,286.8c0.8-1.4,1.4-3,1.8-4.6c0.1,0,1,0.4,1.2,0.5
			s0.4,0.3,0.4,0.4s-0.1,0.2-0.5,0.2h-0.2c-0.5,1.3-1,2.6-1.7,3.8L535.8,286.8z"/>
		<path d="M543.5,289.4c2.3-2.6,2.6-6.3,2.6-8.6v-0.5c0-0.9-0.1-5.8-0.2-6.2h6.7v-0.5c0-0.3,0-0.8-0.1-1.3c2,0,2,0.3,2,0.4
			s-0.2,0.3-0.6,0.4c0,0.4-0.1,0.8-0.1,1.1h7.1v1.2h-13.7v2h3.3v-0.1c0,0,0-0.7,0-1.5c0.6,0,1.8,0.1,1.8,0.4c0,0.1-0.2,0.3-0.6,0.3
			c0,0.3,0,0.6,0,0.8h3.8v-0.1c0,0,0-0.7-0.1-1.5c0.7,0,1.8,0.1,1.8,0.4c0,0.1-0.2,0.3-0.6,0.3c0,0.3,0,0.7,0,0.8h4.1v1.1H557v3.2
			h-1.2V281H552v0.6h-1.2v-3.2h-3.3c0,0.9,0,1.8,0,2.1v0.2c0,2.7-0.4,6.4-2.4,9.1L543.5,289.4z M546.1,289.1c2.4-0.2,4.8-0.8,6.9-2
			c-1.2-1-2.1-2.1-2.8-3.4h-1.8v-1.1h9.1c0.1,0,0.2-0.2,0.4-0.2c0,0,0.1,0,0.1,0c0.4,0.2,0.9,0.7,0.9,0.8s-0.2,0.2-0.4,0.2
			c-0.9,1.3-2,2.6-3.2,3.6c2.1,1,4.3,1.5,6.6,1.5l-1.3,1.3c-2.3-0.2-4.5-0.9-6.4-2.1c-2,1.3-4.3,2.1-6.7,2.4L546.1,289.1z
			 M551.5,283.7c0.6,1.1,1.5,2,2.5,2.7c1-0.7,1.9-1.7,2.6-2.7H551.5z M555.8,279.9v-1.5H552v1.5H555.8z"/>
	</g>
</g>
</svg>
