<?xml version="1.0" encoding="utf-8"?>
<!-- Generator: Adobe Illustrator 24.3.0, SVG Export Plug-In . SVG Version: 6.00 Build 0)  -->
<svg version="1.1" id="レイヤー_1" xmlns="http://www.w3.org/2000/svg" xmlns:xlink="http://www.w3.org/1999/xlink" x="0px"
	 y="0px" viewBox="0 0 410 410" style="enable-background:new 0 0 410 410;" xml:space="preserve">
<style type="text/css">
	.st0{enable-background:new    ;}
</style>
<g class="st0">
	<path d="M13.2,54.8V21.4H5.4v-3.6c4.7,0,8-2.2,9.7-5.2h3.3v42.2H13.2z"/>
	<path d="M38.4,33.7c0-12.7,4.9-22,15.5-22s15.6,9.3,15.6,22c0,13.2-4.9,22-15.6,22S38.4,47.2,38.4,33.7z M64.3,33.7
		c0-10.4-3.6-17.2-10.4-17.2s-10.3,6.6-10.3,17.2c0,10.8,3.6,17.2,10.3,17.2C60.6,51,64.3,44.6,64.3,33.7z"/>
	<path d="M99.3,31.8c-1.8,10.7-6.6,20.4-18.1,27.4c0,0-0.9-2.1-2.8-4.1c7.8-3.9,13.3-11.3,15.6-19.9c1.5-5.5,1.8-12.7,1.9-18.6
		c-5.7,0.1-11.4,0.2-16.3,0.3v-4.7c7.8,0.2,17.3,0.4,26.8,0.4c8.5,0,17.1-0.1,24.4-0.4v4.7c-7.6-0.2-16.4-0.4-25.1-0.4
		c-1.7,0-3.5,0-5.2,0c-0.1,3.6-0.2,7.4-0.7,11.1h23c-0.5,9.6-1.5,18.9-2.5,24.1c-1.2,5.9-3.1,7.3-10.2,7.3c-1.6,0-3.4-0.1-5.6-0.2
		c0,0-0.2-2.4-1.3-4.8c3,0.3,5.2,0.5,6.9,0.5c4.2,0,5.1-1,5.6-3.4c1.1-5.3,2-13.2,2.3-19.3C118,31.8,99.3,31.8,99.3,31.8z"/>
	<path d="M164.4,7.5c4.7,0.4,5.6,0.6,5.6,1.1c0,0.2-0.1,0.5-0.4,1.1c-0.4,0.8-0.7,1.4-0.7,2.3c0.2,23.8,10.8,37.3,24.9,43
		c-2,2-3.1,4.4-3.1,4.4c-10.6-5.6-20-14.5-23.7-30.2c-1.7,9.4-5.7,19.6-23.4,30.2c0,0-1.2-2.5-3.1-4.3c21.6-9.3,23.6-28.4,23.6-40.1
		c0-2.8-0.2-4.9-0.4-5.7c-0.1-0.6-0.2-1-0.2-1.2c0-0.3,0.1-0.4,0.5-0.4h0.4L164.4,7.5L164.4,7.5z"/>
	<path d="M229.2,50.2c12.1,0,18.2-8.2,18.2-16.5c0-7.5-5-15-15.1-16.2c-2.3,16.7-9.9,36.7-17.7,36.7c-4.3,0-9.8-6.8-9.8-16.3
		c0-11.6,8.1-24.6,24.4-24.6c14.7,0,23,9.6,23,20.7c0,9.9-6.9,20-20.6,21.4c-0.5-1.6-1.5-3.5-2.9-5.2H229.2z M209.2,37.6
		c0,6.2,2.8,11.1,5.4,11.1c1.1,0,2.3-0.8,3.3-2.4c4.4-6.8,8.5-18.6,9.8-29.2C215.6,18,209.2,28.2,209.2,37.6z"/>
</g>
<g class="st0">
	<path d="M22.4,113.6H14c-0.4,7.9-1.7,14.3-4.4,21c0,0-1.6-2.4-3.4-3.7c3-6.5,3.9-13.2,3.9-25.1V85.1h16.5v42.6
		c0,5.1-1.5,6.5-7.6,6.5c-0.9,0-1.8,0-2.8-0.1c0,0-0.2-2.3-1.2-4.2c1.7,0.1,3,0.2,4,0.2c3,0,3.4-0.7,3.4-2.8V113.6z M22.4,100.7
		h-8.2c0,0,0,7.9-0.1,9.2h8.2v-9.2H22.4z M22.4,88.8h-8.2v8.3h8.2V88.8z M46.8,89.2h-8.3v14.3c0,11.7-0.2,22.7-7.9,31
		c0,0-1.3-2.3-3.1-3.9c6.2-6.1,6.6-15.8,6.6-24.9V85.1h17.2v41.3c0,1.7,0.4,1.9,1.5,1.9c1.7,0,2.2-0.2,2.5-9.5
		c2,1.4,4.2,2.3,4.2,2.3c-0.8,9.6-1.7,11.5-6.8,11.5c-3.3,0-5.9-0.6-5.9-6V89.2z"/>
	<path d="M116.2,106.7c-1.8-0.1-5.6-0.2-10.4-0.2c-2.7,0-5.6,0-8.6,0.1c-0.2,12.5-3.9,21.6-14.9,27.9c-1.3-1.1-3.5-2.9-5.1-3.9
		C89,126,92,116.7,92,108.1v-1.5c-9.3,0.2-18.7,0.5-21.8,0.8l-0.1-5.2c1.8,0.1,5.7,0.2,10.6,0.2c12.4,0,30.9-0.4,35.4-0.8
		L116.2,106.7z M106.7,94.1c-1.8-0.2-5.6-0.3-9.8-0.3c-7.1,0-15.6,0.2-18.7,0.7l-0.1-5.2c1.7,0.2,5,0.2,8.8,0.2
		c7.3,0,16.6-0.3,19.7-0.7L106.7,94.1z M113.7,99.2c-1.4-2-3.2-4-4.8-5.7l2.6-1.8c1.7,1.6,3.6,3.6,5,5.5L113.7,99.2z M118.2,96.3
		c-1.4-1.9-3.1-4-4.9-5.6l2.6-1.9c1.6,1.5,3.7,3.5,5.1,5.3L118.2,96.3z"/>
	<path d="M174.8,110.8c-1.8-0.2-7.4-0.2-14-0.2c-11.9,0-27.1,0.2-30.5,0.5v-5.6c2,0.2,8.2,0.3,15.5,0.3c11.6,0,25.7-0.2,28.9-0.6
		L174.8,110.8z"/>
	<path d="M204.1,104.5c3.6,2,7.1,4.1,10.5,6.6c3.7-4.6,6.3-9.4,7.7-13.7c-4.6,0.1-12.1,0.2-19.4,0.5c-3.6,4.3-7.8,8.7-13,12.9
		c-1.3-1.2-3-2.5-4.5-3.4c8-4.8,15.4-13.2,18.8-20.7c0.6-1.2,0.1-2.2,0.7-2.2c0.1,0,0.2,0,0.3,0.1c0.9,0.3,6.1,1.8,6.1,2.5
		c0,0.2-0.2,0.5-0.8,0.9c-0.7,0.5-0.9,0.8-1.8,2.1c-0.7,1.1-1.4,2.1-2.3,3.3c5.5-0.1,10.5-0.2,16.4-0.5c1.2-0.1,1.3-0.7,1.7-0.7
		c0.5,0,5.2,3.6,5.2,4.1c0,0.7-1.5,1-2.6,3.4c-6.5,14-17.4,26.8-36,33.7c-1.1-1.4-2.8-3.2-4.1-4.3c9.7-2.4,17.8-7.8,24-14.2
		c-3-2.7-6.7-5.4-10.7-7.7L204.1,104.5z"/>
	<path d="M240.2,127.5c4.2-5.7,8.2-14.8,10.8-23.8c-5.5,1-6.9,1.2-7.9,1.8c-0.3,0.2-0.5,0.4-0.7,0.4c-0.6,0-2-5.2-2-5.6
		c0-0.2,0.1-0.2,0.2-0.2c0.2,0,0.7,0.2,1.2,0.2h0.6c2.5,0,4.9-0.4,9.6-0.8c0.9-4.1,1.5-8,1.6-11.6c0-0.5-0.2-0.9-0.2-1.1
		c0-0.1,0.1-0.2,0.2-0.2h0.2c6,0.7,6.3,0.8,6.3,1.1c0,0.2-0.1,0.4-0.4,0.6c-0.5,0.5-0.7,0.8-0.9,1.7c-0.7,2.8-1.5,5.9-2.3,8.9
		c5.9-0.5,5.9-0.5,6-0.5c7.8,0,7.9,5.6,7.9,10.4c0,4.7-0.7,10.4-1.5,13.7c-1.4,5.7-3.7,7.2-12.3,7.2c-0.2-1.7-0.7-3.6-1.5-5.5
		c1.4,0.2,2.8,0.4,4,0.4c2.4,0,4.4-0.7,5-2.9c0.9-3.1,1.8-10.2,1.8-13.9c0-4.6-0.9-5.5-3.7-5.5c-0.4,0-0.8,0.1-1.2,0.1
		c-2,0.1-3.8,0.3-5.6,0.6c-2.6,9.3-5.9,18.7-10.3,27L240.2,127.5z M284.7,112.1c-2.2-5.5-5.9-10.7-10.4-14.7l3.9-2.5
		c4.4,3.7,8.9,9.3,11.6,14.5L284.7,112.1z"/>
	<path d="M316.1,132.6c-0.4-1.8-1.3-4-2.3-6c2.4,0.5,4.7,0.8,6.9,0.8c8.9,0,15-4.2,15-9.4c0-2.5-1.8-7.1-8.8-7.1
		c-7.5,0-17.5,6.2-19.4,9.8l-5.6-2c1.1-3.8,2.1-16.8,2.1-21.1V97c-0.1-0.8-0.2-1.3-0.2-1.6c0-0.2,0.1-0.4,0.4-0.4
		c0.4,0,5.5,0.4,5.5,1c0,0.2-0.1,0.4-0.2,0.7c-0.7,1.4-1.4,5.6-2.3,17.8c4.6-3.7,11.7-7.8,19.8-7.8c11.6,0,13.7,7.6,13.7,11.4
		c0,8.5-9.1,14.4-24.1,14.4h-0.5V132.6z M322.5,95c-3.7-2.4-11-5.8-15-6.9l2.2-3.9c4.2,1.2,11.1,4,15.2,6.3L322.5,95z"/>
</g>
<g class="st0">
	<path d="M239.3,73.4l-6.9,6.9l-0.8-0.9l6.9-6.9l-6.9-7l0.8-0.9l7,7l7-7l0.8,0.9l-6.9,6.9l6.9,6.9l-0.8,0.9L239.3,73.4z M233.5,73.8
		c-0.8,0-1.5-0.7-1.5-1.5s0.7-1.5,1.5-1.5s1.5,0.7,1.5,1.5S234.3,73.8,233.5,73.8z M239.3,68.3c-0.8,0-1.5-0.7-1.5-1.5
		s0.7-1.5,1.5-1.5s1.5,0.7,1.5,1.5C240.8,67.6,240.1,68.3,239.3,68.3z M239.3,79.7c-0.8,0-1.5-0.7-1.5-1.5s0.7-1.5,1.5-1.5
		s1.5,0.7,1.5,1.5C240.8,79.1,240.1,79.7,239.3,79.7z M245.2,73.8c-0.8,0-1.5-0.7-1.5-1.5s0.7-1.5,1.5-1.5s1.5,0.7,1.5,1.5
		C246.7,73.1,246,73.8,245.2,73.8z"/>
	<path d="M256,80.1V68.2h-2.8v-1.3c1.7,0,2.8-0.8,3.4-1.9h1.2v15H256V80.1z"/>
</g>
<g class="st0">
	<path d="M49.4,188.9c-3.1-3-6.7-6.7-9.1-10c0.7,2.4,1,5,1,7.8c0,11.1-5.6,23.8-17.4,23.8c-3.7,0-15.8-1.7-15.8-15.3
		c0-7.4,3.9-16.1,10-22.6c-3.3,0.8-6.8,1.7-9.5,2.3c-0.7,0.2-1.2,0.4-2.1,0.7c-0.3,0.2-0.5,0.2-0.7,0.2c-0.7,0-0.9-5.5-0.9-6
		c0-0.2,0.1-0.2,0.2-0.2c0.2,0,0.6,0.2,1.1,0.2c0.4,0.1,0.8,0.1,1.4,0.1c3.6,0,10.1-0.8,12.9-1.8c1.2-0.5,1.5-0.9,1.8-0.9
		c0.6,0,4,3.7,4,4s-1,0.4-2.1,1.1c-5.5,3.9-11.6,14.3-11.6,22.5c0,9.6,8.2,11,11.2,11c8.5,0,13-9.6,13-20.1c0-6.1-1.5-12.5-4.7-17.5
		l5.1-1.5c1.5,6.5,9.8,13.9,15,17.5L49.4,188.9z M48.5,175.1c-3,0-5.5-2.4-5.5-5.5c0-3,2.4-5.5,5.5-5.5c3,0,5.5,2.4,5.5,5.5
		C53.9,172.6,51.5,175.1,48.5,175.1z M48.5,166.7c-1.6,0-2.9,1.3-2.9,2.9c0,1.6,1.3,2.9,2.9,2.9c1.6,0,2.9-1.3,2.9-2.9
		S50.1,166.7,48.5,166.7z"/>
	<path d="M73.4,201.2c0.6,0,1.2,0.1,1.8,0.1c13,0,23.6-5.1,23.6-12.6c0-4.1-2.3-8.1-11.4-8.1c-8.8,0-20.1,3.8-22,5.3
		c-0.5,0.4-0.8,0.7-1.1,0.7c-0.7,0-2.2-4.3-2.4-5c-0.1-0.1-0.1-0.2-0.1-0.3c0-0.5,0.9-0.1,2.3-0.5c6.3-1.5,15.6-4.1,23.5-4.1
		c13.9,0,15.5,8.5,15.5,12.3c0,8.9-10.2,15.9-27.6,16.9C75.1,204.6,74.2,202.5,73.4,201.2z"/>
	<path d="M115.8,207.8c3.1-5.5,7.7-19.1,10.4-30.6c-2.7,0.1-5.4,0.2-8.5,0.2l-0.4-4.7c2,0.2,4.4,0.4,7.1,0.4c0.9,0,1.8-0.1,2.7-0.1
		c0.8-3.7,1.2-6.7,1.4-9.2v-0.1c0-0.4-0.2-0.8-0.2-1.1c0-0.2,0.1-0.3,0.4-0.3h0.2c1.2,0.1,3.5,0.5,5,0.9c0.5,0.1,0.7,0.3,0.7,0.5
		s-0.1,0.4-0.4,0.6c-0.5,0.5-0.6,0.8-2.4,8.4c4-0.4,7.9-1.2,11.1-2.5l-0.2,4.9c-4.1,0.9-8,1.5-12,1.9c-3,11.6-6.3,22.9-9.7,33.1
		L115.8,207.8z M160.8,207.6c-4.8,0.7-9.1,1.1-12.7,1.1c-9.2,0-13.7-2.5-13.7-8c0-1.1,0.2-2.4,0.6-3.7l4,0.6
		c-0.2,0.8-0.4,1.5-0.4,2.1c0,3.7,3.9,4.5,7.9,4.5c3.9,0,9.3-0.6,13.7-2.2L160.8,207.6z M156.9,186.1c-1.8-0.2-4-0.4-6.3-0.4
		c-4,0-8.4,0.4-11.8,1.1l-0.3-4.6c5.7-0.6,12.6-0.9,18.2-0.9L156.9,186.1z"/>
	<path d="M175.9,196.4c-1.5-3.6-2-8.7-2-13.7c0-6.5,0.7-13.2,1.1-16.9v-0.3c0-0.4-0.1-0.7-0.1-0.8s0.1-0.2,0.2-0.2
		c0.1,0,0.2,0,0.3,0.1c5.7,1.4,5.8,1.7,5.8,2c0,0.2-0.1,0.4-0.4,0.5c-0.7,0.5-1,1.1-1.2,2.3c-0.8,3.4-1.5,8.2-1.5,12.5
		c0,1.8,0.1,3.5,0.4,5l4.4-7.9l2.4,1.7c-3.6,7-4.3,10.8-4.5,14.9L175.9,196.4z M198.6,188.6c0.1-0.9,0.1-2.2,0.1-3.6
		c0-6.1-0.7-15.3-1.3-18.5c-0.2-0.8-0.6-1.4-0.6-1.7c0-0.1,0.1-0.2,0.4-0.2c6.6,0,6.7,0.6,6.7,0.9c0,0.2-0.1,0.4-0.2,0.7
		c-0.5,1.2-0.5,1.7-0.5,4.7c0,4,0.4,9,0.4,13.8c0,5.4,0,22.2-19.4,28.2c-0.9-1.7-2.5-3.4-4-4.8C191,206.3,197.7,198.9,198.6,188.6z"
		/>
	<path d="M219.4,199.7c3.9-4.4,8.9-15.1,12.1-24.5c-2.3,0.2-4.6,0.3-6.8,0.3c-1.1,0-2.1,0-3.1-0.1l-0.4-4.8c1.7,0.3,3.7,0.5,6,0.5
		c1.7,0,3.6-0.1,5.6-0.3c0.7-2.7,1.2-5,1.4-7.1v-1c0-0.4,0.1-0.5,0.3-0.5h0.1c5.2,1,5.7,1.2,5.7,1.7c0,0.2-0.2,0.5-0.5,0.8
		c-0.7,0.7-0.9,1.2-2.2,5.6c2.7-0.5,5.3-1.1,7.8-1.8l-0.5,4.8c-3,0.7-5.9,1.1-8.8,1.5c-3.2,9.5-7.5,19.8-11.8,27.9L219.4,199.7z
		 M261.9,207.7c-2.7-2.4-5.4-4.1-7.9-5.3v0.4c0,5.3-5.2,7.8-10.7,7.8c-5.7,0-11.6-2.8-11.6-7.9c0-1.2,0.4-7.6,10.1-7.6
		c2,0,4.2,0.3,6.6,0.9c-0.5-2.9-1.2-6-1.2-8.9c0-6.9,4-9.5,8-9.5c0.2,0,0.4,0.1,0.6,0.1c-1.9-0.9-6.2-2.5-8.6-3.1l2.7-3.3
		c4.7,1.5,10.4,3.9,15.8,6.6L263,182c-2-1.2-3.8-1.8-5.4-1.8c-0.9,0-6.1,0.3-6.1,6.8c0,3.1,1,6.8,1.8,10.5c3.4,1.4,7.8,3.6,11.6,5.8
		L261.9,207.7z M249,200.4c-3-0.9-5.5-1.4-7.5-1.4c-3.2,0-5.1,1.1-5.3,2.9c0,0.2-0.1,0.3-0.1,0.5c0,2.4,3.5,3.9,6.9,3.9
		c3,0,5.9-1.2,6-4.2L249,200.4L249,200.4z"/>
</g>
<g class="st0">
	<path d="M47.3,285.6c-4.3-5-11.1-11.2-17.2-16.1c-5.4,6.2-12.1,12-20.5,17.4c-1.2-1.1-3.3-3-4.6-3.9c15.3-7.3,27.1-21.2,31.4-32.1
		c-7.2,0.1-19.2,0.5-24.1,1.2l-0.2-5.7c2.1,0.2,5.6,0.4,9.6,0.4c5.2,0,11.2-0.2,15.6-0.5c1.1-0.1,1.2-0.7,1.6-0.7s5.2,3.1,5.2,3.7
		c0,0.5-1.2,0.9-2.1,2.5c-2.4,4.7-5.4,9.5-9,14.2c6.3,4.6,13.7,10.5,18.7,15.6L47.3,285.6z"/>
	<path d="M84.3,288.7c-0.3-3.4-1.5-11.8-2.9-20.9c-9.3,1-18.6,2.1-21.6,2.8l-0.8-5c3,0,12.1-0.8,21.6-1.8c-0.4-2.5-0.9-5.3-1.4-8
		c-6.7,0.8-13.1,1.7-15.6,2.2l-0.8-4.9c2.5-0.1,8.8-0.6,15.7-1.3c-0.9-4.8-1.7-8.6-2.3-10.1c-0.2-0.5-0.5-0.8-0.5-1.1
		c0-0.2,0.1-0.2,6.3-0.8h0.2c0.4,0,0.7,0.1,0.7,0.5c0,0.2-0.1,0.5-0.2,0.8c-0.4,0.7-0.5,1.2-0.5,2.1c0.1,1.2,0.4,4.1,1,8
		c7.2-0.8,14-1.7,16.5-2.1l0.7,4.9H100c-2.7,0-9.2,0.6-16.2,1.4c0.4,2.4,0.8,5.2,1.3,7.9c8.5-0.9,17.1-1.9,19.9-2.5l0.6,5h-0.3
		c-2.9,0-10.8,0.8-19.5,1.6c1.5,8.8,3.2,17.4,4.1,20.7L84.3,288.7z"/>
	<path d="M125.7,284.6c-1.7,0.8-2.3,1.1-3,1.8c-0.6,0.5-0.9,0.8-1.2,0.8c-0.6,0-4.1-5.7-4.1-6.2c0-0.4,0.9-0.2,2.5-0.6
		c13.4-3.7,30.5-14.6,39-24.7c0.7,1.2,2,2.8,2.9,4.1C152.7,269.8,137.9,279.4,125.7,284.6z M129.4,256.5c-3.1-3.2-8.1-7.3-11.4-9.3
		l3.7-3.4c3.4,2.1,8.1,5.5,11.4,8.6L129.4,256.5z"/>
	<path d="M219.6,257.3c-2.5-0.2-8.2-0.2-14.4-0.2c-1.9,13.8-8.5,24.4-19.5,31c-1.2-1.2-3.2-2.6-4.7-3.6
		c10.7-4.4,17.8-15.6,19.3-27.3c-6.1,0.1-12.3,0.2-16,0.4c-2.3,3.5-4.8,6.8-7.9,10.1c-1.4-1-3.2-2.1-4.7-3
		c6.5-4.6,13.5-16.5,14.6-22.6c0.2-1.4-0.1-2,0.5-2c0.1,0,0.3,0,0.5,0.1c5.9,1.5,6.2,1.6,6.2,2.1c0,0.2-0.2,0.5-0.7,0.8
		c-0.8,0.5-1.1,0.8-1.8,2.3c-1.2,2.7-2.5,5.2-3.8,7.6c9.5,0,27.4-0.4,32.5-1L219.6,257.3z"/>
	<path d="M231.7,245.7c1.8,0.2,5.9,0.3,10.8,0.3c10.7,0,25.1-0.4,28.1-0.6c1.2-0.1,1.1-0.7,1.6-0.7c0.6,0,5.3,2.9,5.3,3.4
		c0,0.4-1,0.8-1.9,2.3c-3.9,6.5-8,12.7-15.9,17.8c-1.2-1.1-2.8-2.6-4.1-3.7c7.5-3.6,11.8-9.5,14.4-14.7c-9.2,0.2-32.1,0.6-38.2,1.5
		L231.7,245.7z M250.3,255c5.9,0.5,6,0.8,6,1c0,0.2-0.1,0.5-0.4,0.9c-0.4,0.7-0.5,1.1-0.7,2.1c-1.4,11.7-4.4,22.8-17.8,29.8
		c-1-1.1-3-2.8-4.3-3.8c12.6-4.4,17-17.3,17-26.4c0-0.8-0.1-1.5-0.1-2.2c-0.1-0.5-0.4-1-0.4-1.2s0.1-0.2,0.4-0.2H250.3z"/>
</g>
<g>
	<path d="M30.3,356.2c0.1-3.5,0.1-6.1,0.1-8.3c-5.5,2.3-9.7,5.1-9.7,8.6c0,2.5,2,5,11.1,5c5,0,10.8-0.9,15-2.4
		c-0.2,1.3-0.4,2.7-0.4,3.9c0,0.7,0.1,1.4,0.1,2.1c-4.2,0.3-9.2,0.8-14,0.8c-6.2,0-16.6-0.9-16.6-9.5c0-6,6.5-9.9,14.4-13.2
		c-0.2-2.5-1-5.5-4.8-5.5c-5.8,0-10.8,6.3-15.3,15l-5-3.5c6.5-7.1,11-14.4,13.9-21.2c-2.4,0.1-6.8,0.3-10.8,0.4L7.7,323
		c1.6,0.4,4.1,0.5,7.1,0.5c1.9,0,3.9-0.1,6.1-0.2c0.7-2.2,1.2-4.4,1.6-6.5c0-0.2,0.1-0.3,0.1-0.4c0-0.4-0.1-0.7-0.1-0.9
		c0-0.2,0.1-0.2,0.3-0.2H23c6,0.7,6.1,1.2,6.1,1.4c0,0.2-0.1,0.4-0.4,0.7c-0.5,0.5-0.7,0.9-1.1,2c-0.4,1.2-0.9,2.4-1.3,3.5
		c6.1-0.6,11.9-1.6,14.4-2.9l-0.1,5.5c-4,0.9-9.4,1.6-16.1,2.1c-1.3,3-2.6,5.8-4.3,8.7c1.7-1.5,4.8-2.4,7.3-2.4
		c6.1,0,7.2,5.7,7.5,7.4c4.3-1.9,8.5-3.8,12.3-6c0.8-0.4,1.1-0.9,1.3-0.9c0.1,0,0.2,0.1,0.2,0.2c0.9,1.1,2.5,3.9,3.2,5.1
		c0.1,0.2,0.1,0.3,0.1,0.4c0,0.3-0.3,0.5-1,0.6c-1.3,0.1-2.9,0.4-15.8,5.3c0.1,2.6,0.2,6,0.2,9.9L30.3,356.2z"/>
	<path d="M115.1,357.1c-4.2-0.1-8.4-0.2-12.6-0.2v4.7c0,4.9-2.3,6.9-9.6,6.9c-1,0-2-0.1-3.2-0.1c0,0-0.4-2.2-1.7-4.5
		c2.2,0.2,4,0.2,5.4,0.2c3.8,0,4.5-0.7,4.5-2.5v-4.7c-2.7,0-5.3-0.1-8.1-0.1c-9.6,0-19,0.2-28.1,0.4v-4.5c8.8,0.2,17.9,0.4,27.1,0.4
		c3,0,6.1-0.1,9.1-0.1v-2.7c-4.4-0.1-9.3-0.1-14.2-0.3c-6.3-0.2-9.6-2.9-12.2-6c-2.2,2.2-4.9,4.2-6.4,5.2c-0.7,0.5-0.8,0.7-1.2,1.4
		c-0.4,0.6-0.6,0.9-1,0.9c-0.7,0-2.8-4-2.8-4.2c0-0.3,0.5-0.4,1-0.6c2.5-1,6.1-3.3,8.9-6.1v-8.1h-1c-1.4,0-4.1,0-6.6,0.2v-4.3
		c2.5,0.2,7,0.2,9.7,0.2h2.3v13.3c4.2,4.7,6.8,4.7,20.2,4.7c7.4,0,14.4-0.2,21.7-0.7c-1.4,2.1-1.8,4.5-1.8,4.5h-12v2.7
		c4.2-0.1,8.4-0.2,12.6-0.3L115.1,357.1L115.1,357.1z M71.8,324.9c-2.6-2.7-5.6-5.2-8.8-7.2l2.9-2.9c3.2,1.8,5.9,3.8,8.9,6.5
		L71.8,324.9z M82.4,366.5c-3.2-2.7-6.5-4.7-10.5-6.6l2.9-2.9c3.7,1.7,7.3,3.7,11,6.4L82.4,366.5z M80.6,343.8v-19h9.8
		c0.7-0.8,1.2-1.6,1.7-2.4c-5.1,0-11.4,0.1-15.9,0.2v-3.8c3.4,0.1,7.8,0.2,11.5,0.3c-1.1-1.2-2.4-2.3-3.8-3.4l3.6-1.6
		c1.6,1.5,3,3,4.3,5h5.9c1.1-1.2,1.9-2.7,2.2-3.7c0.4-1.1,0.2-1.4,0.5-1.4c0.1,0,0.2,0,0.4,0.1c1.3,0.4,2.5,0.7,3.8,1.2
		c0.3,0.1,0.5,0.3,0.5,0.5s-0.2,0.5-0.6,0.7c-0.6,0.3-0.9,0.7-1.2,1c-0.5,0.5-0.9,1-1.6,1.5c3.9-0.1,9-0.2,12.6-0.3v3.8
		c-6-0.2-11.9-0.2-18.2-0.2c-0.5,0.9-1.1,1.7-1.7,2.4h15.3v19L80.6,343.8L80.6,343.8z M105.8,327.9H84.6v2.3h21.2V327.9z
		 M105.8,332.7H84.6v2.5h21.2V332.7z M105.8,337.8H84.6v2.7h21.2V337.8z"/>
	<path d="M153,368.7c-6.1-8.7-13.8-16.1-20.8-21c-2.5-1.8-3.9-4.1-3.9-6.4c0-2.2,1.2-4.5,3.8-6.5c7.3-5.7,14.9-13.1,17-17.4
		c0.4-0.9,0.5-1.6,0.9-1.6c0.1,0,0.2,0.1,0.4,0.2c1.2,0.9,5.1,4.5,5.1,5.4c0,0.1-0.1,0.2-0.1,0.3c-0.1,0.1-0.2,0.2-0.6,0.2
		c-0.9,0.2-1.2,0.3-2.1,1.2c-6.9,6.5-11.9,10.1-17.7,15.4c-1.2,1.1-1.7,2-1.7,2.9c0,1,0.6,1.8,1.8,2.6c6.8,5.1,16.1,12.7,22.8,20.2
		L153,368.7z"/>
</g>
<g>
	<path d="M16.5,396.2l-4.4,4.4l-0.6-0.6l4.4-4.4l-4.4-4.5l0.6-0.6l4.5,4.5l4.5-4.5l0.6,0.6l-4.4,4.4l4.4,4.4l-0.6,0.6L16.5,396.2z
		 M12.8,396.4c-0.6,0-1-0.5-1-1c0-0.6,0.5-1,1-1s1,0.5,1,1S13.3,396.4,12.8,396.4z M16.5,392.9c-0.6,0-1-0.5-1-1c0-0.6,0.5-1,1-1
		c0.6,0,1,0.5,1,1C17.5,392.5,17.1,392.9,16.5,392.9z M16.5,400.2c-0.6,0-1-0.5-1-1s0.5-1,1-1c0.6,0,1,0.5,1,1
		C17.5,399.8,17.1,400.2,16.5,400.2z M20.3,396.4c-0.6,0-1-0.5-1-1c0-0.6,0.5-1,1-1c0.6,0,1,0.5,1,1
		C21.3,396.1,20.9,396.4,20.3,396.4z"/>
	<path d="M28.2,400.5v-7.7h-2V392l0,0c1.2,0,2.1-0.6,2.5-1.2h0.8v9.6h-1.2L28.2,400.5L28.2,400.5z"/>
	<path d="M47.9,400.5v-0.7c0-1.8,1.2-3.4,3.2-4.2c1.5-0.6,2.3-1.5,2.3-2.3c0-1-0.8-1.7-2-1.7c-1.1,0-2,0.9-2.1,2.3H48
		c0.1-2.1,1.6-3.3,3.3-3.3c2,0,3.2,1.1,3.2,2.7c0,1.4-0.9,2.4-2.9,3.3c-1.4,0.6-2.4,1.6-2.5,2.8h5.4v1L47.9,400.5L47.9,400.5z"/>
	<path d="M56.1,395.6c0-2.9,1.1-5,3.5-5s3.6,2.1,3.6,5c0,3-1.1,5-3.6,5S56.1,398.8,56.1,395.6z M62,395.6c0-2.4-0.8-3.9-2.4-3.9
		c-1.6,0-2.4,1.5-2.4,3.9c0,2.5,0.8,3.9,2.4,3.9C61.2,399.6,62,398.1,62,395.6z"/>
	<path d="M64.7,400.5v-0.7c0-1.8,1.2-3.4,3.2-4.2c1.5-0.6,2.3-1.5,2.3-2.3c0-1-0.8-1.7-2-1.7c-1.1,0-2,0.9-2.1,2.3H65
		c0.1-2.1,1.6-3.3,3.3-3.3c2,0,3.2,1.1,3.2,2.7c0,1.4-0.9,2.4-2.9,3.3c-1.4,0.6-2.4,1.6-2.5,2.8h5.4v1L64.7,400.5L64.7,400.5z"/>
	<path d="M72.9,395.6c0-2.9,1.1-5,3.5-5s3.6,2.1,3.6,5c0,3-1.1,5-3.6,5S72.9,398.8,72.9,395.6z M78.8,395.6c0-2.4-0.8-3.9-2.4-3.9
		s-2.4,1.5-2.4,3.9c0,2.5,0.8,3.9,2.4,3.9S78.8,398.1,78.8,395.6z"/>
	<path d="M93.4,398.1c-1.6,0-4.4-0.1-4.8-0.1c0,1.4,0,2.6,0,3.5h-1.1c0-0.8,0-2,0.1-3.5c-2.3,0-4.3,0-6.3,0.1V397
		c0.9,0,1.6,0,2.5,0.1v-3.3h3.7v-1.7h-2.8c-0.6,1-1.4,1.9-2.4,2.7c0,0-0.1-0.5-0.7-0.9c1.5-0.9,2.6-2.8,2.8-3.9c0-0.2,0-0.3,0.1-0.3
		s1.2,0.2,1.2,0.3c0,0.1-0.1,0.1-0.2,0.2c-0.2,0.2-0.3,0.7-0.5,0.9c1.9,0,6,0,7.7,0v1c-0.9,0-2.7,0-4.3,0v1.7c1.2,0,2.6,0,3.4,0v1
		c-0.9,0-2.1,0-3.4,0c0,0.7,0,1.6,0,2.4c1.7,0,3.4,0,4.8-0.1v1L93.4,398.1L93.4,398.1z M87.5,397.1c0-0.8,0-1.7,0-2.4
		c-1.6,0-2.8,0-2.8,0v2.4c0.7,0,1.4,0,1.9,0H87.5z"/>
	<path d="M96.1,398.2c0.3,1,1,1.5,2,1.5c1.1,0,2.5-1,2.5-3.7c-0.5,0.9-1.5,1.4-2.6,1.4c-1.7,0-3.3-1-3.3-3.2c0-2.3,1.6-3.4,3.4-3.4
		c2,0,3.6,1.2,3.6,4.7c0,3.7-1.7,5.3-3.6,5.3c-1.7,0-2.7-0.9-3.3-2.5H96v-0.1H96.1z M98.1,391.7c-1,0-2.3,0.7-2.3,2.4
		c0,1.5,1.2,2.1,2.3,2.1c1.2,0,2.3-0.8,2.4-2C100.3,392.5,99.3,391.7,98.1,391.7z"/>
	<path d="M111.9,397.1h-5.3c-0.2,1.6-0.9,3-2.5,4.5c0,0-0.3-0.6-0.8-0.9c2-1.5,2.4-3.3,2.4-6.2v-4.2h7.3v9.5c0,1.4-0.6,1.7-2.3,1.7
		c-0.3,0-0.7,0-1,0c0,0-0.1-0.6-0.3-1.1c0.6,0,1,0.1,1.4,0.1c1,0,1.2-0.2,1.2-0.8L111.9,397.1L111.9,397.1z M111.9,394h-5.2v0.5
		c0,0.6,0,1.1,0,1.7h5.3V394H111.9z M111.9,391.2h-5.2v1.8h5.2V391.2z"/>
	<path d="M121.6,397.8c-1.5,0.7-2.8,1.4-3.7,1.6c-0.1,0-0.3,0.1-0.5,0.3c-0.1,0.1-0.2,0.2-0.2,0.2c-0.2,0-0.5-1.1-0.5-1.2
		s0-0.1,0.2-0.1c0.3,0,1-0.2,1.7-0.5v-3.3c-0.6,0-1,0-1.6,0v-1c0.6,0,1,0.1,1.6,0.1v-2.5c-0.6,0-1.2,0-1.7,0v-1
		c0.7,0,1.5,0.1,2.3,0.1s1.6,0,2.3-0.1v1c-0.6,0-1.1,0-1.8,0v2.4c0.6,0,1,0,1.6-0.1v1c-0.6,0-1,0-1.6,0v2.9c0.7-0.2,1.4-0.6,1.9-0.9
		L121.6,397.8L121.6,397.8z M125,397.3h-1c-0.3,2.6-1.7,3.4-3.8,4.2c0,0-0.1-0.6-0.6-0.9c1.9-0.6,3.2-1.2,3.4-3.3h-1.4v-7.1h5.9v7.1
		h-1.6v2.7c0,0.3,0.3,0.5,0.9,0.5c0.8,0,0.9,0,1.1-1.6c0.5,0.3,0.9,0.5,0.9,0.5c-0.3,1.8-0.7,2-2,2c-1.1,0-1.8-0.1-1.8-1.2V397.3
		L125,397.3z M126.7,391.1h-3.9v1.1h3.9V391.1z M126.7,393h-3.9v1.2h3.9V393z M126.7,395h-3.9v1.4h3.9V395z"/>
	<path d="M132.6,401.5c0.1-2.3,0.1-4.2,0.1-5.4c-0.6,0.7-1.2,1.2-1.9,1.8c0,0-0.1-0.7-0.6-1.1c1.8-1.2,3-2.9,3.8-4.4
		c-1,0-2,0-3.2,0.1v-1.1c1.2,0,2.4,0.1,3.6,0.1c0.2-0.5,0.3-0.9,0.5-1.4c0-0.2,0-0.5,0.1-0.5c0.2,0,0.9,0.1,1.1,0.2
		c0.1,0,0.1,0.1,0.1,0.1s0,0.1-0.1,0.2c-0.1,0.2-0.2,0.5-0.3,0.5c-0.1,0.2-0.2,0.5-0.3,0.7c2,0,3.9,0,6.2-0.1v1.1
		c-1.9,0-3.7-0.1-5.5-0.1c-0.3,0-0.7,0-1,0c-0.5,0.8-0.9,1.7-1.6,2.6c0,1.1,0,3.7,0.1,6.5h-1.1L132.6,401.5L132.6,401.5z
		 M142.4,400.8c-1.1,0-2.4,0-3.6,0c-1.6,0-3.2,0-4.6,0v-1c1,0.1,2.1,0.1,3.3,0.1c0-1.2,0-2.4,0-3.5c-1,0-2,0-2.9,0.1v-1
		c0.9,0.1,1.9,0.1,2.9,0.1c0-1.1,0-1.9-0.1-2.3c0-0.1-0.1-0.2-0.1-0.3c0,0,0-0.1,0.1-0.1l0,0c1.2,0.1,1.4,0.2,1.4,0.2
		c0,0.1-0.1,0.1-0.1,0.2c-0.1,0.2-0.1,0.6-0.1,2c1,0,2,0,2.9-0.1v1c-0.9,0-1.9-0.1-2.9-0.1c0,1,0,2.1,0,3.5c1.2,0,2.6,0,3.8-0.1
		L142.4,400.8L142.4,400.8L142.4,400.8z"/>
	<path d="M147,401.2c-0.9-1-1.9-2.1-2.9-2.9l0.7-0.7c1,0.8,2.3,1.9,3.2,2.7L147,401.2z"/>
	<path d="M156.6,401.2c-0.1-0.8-0.3-2.7-0.7-4.7c-2.1,0.2-4.3,0.5-5,0.7l-0.2-1.1c0.7,0,2.8-0.2,5-0.5c-0.1-0.6-0.2-1.2-0.3-1.8
		c-1.6,0.2-3,0.3-3.6,0.5l-0.2-1.1c0.6,0,2-0.1,3.6-0.3c-0.2-1.1-0.3-1.9-0.6-2.3c0-0.1-0.1-0.2-0.1-0.2s0,0,1.5-0.2l0,0
		c0.1,0,0.1,0,0.1,0.1c0,0,0,0.1,0,0.2c-0.1,0.1-0.1,0.2-0.1,0.5c0,0.2,0.1,0.9,0.2,1.8c1.7-0.2,3.2-0.3,3.7-0.5l0.1,1.1h-0.1
		c-0.7,0-2.1,0.1-3.7,0.3c0.1,0.6,0.2,1.1,0.3,1.8c1.9-0.2,3.9-0.5,4.5-0.6l0.1,1.1H161c-0.7,0-2.5,0.2-4.4,0.3
		c0.3,2,0.7,3.9,0.9,4.7L156.6,401.2z"/>
	<path d="M171,397.9c-0.6-0.6-1.4-1.1-2.1-1.7c-1.5,1.7-3.2,3.3-5.2,4.4c-0.2-0.2-0.7-0.7-1-0.8c1.8-0.8,3.7-2.5,5.3-4.3
		c-0.9-0.7-1.8-1.2-2.7-1.7l0.8-0.7c0.8,0.5,1.7,1,2.6,1.6c1-1.2,1.7-2.6,2.1-3.7c0.1-0.2,0-0.3,0.1-0.3s1.4,0.7,1.4,0.8
		c0,0.1-0.1,0.1-0.2,0.2c-0.2,0.1-0.2,0.2-0.3,0.5c-0.7,1-1.4,2.1-2.1,3.2c0.8,0.6,1.6,1.1,2.3,1.7L171,397.9z"/>
	<path d="M177,396.5c-0.6,0-0.9-0.5-0.9-0.9c0-0.6,0.5-1,0.9-1c0.6,0,0.9,0.5,0.9,1S177.4,396.5,177,396.5z"/>
	<path d="M193.1,396.7c-1.9,0.2-3.9,0.3-6,0.6v2.1c0,0.5,0.1,0.7,2.3,0.7c0.6,0,1,0,1.6-0.1c0.7-0.1,1-0.2,1.2-2.6
		c0.5,0.3,1,0.6,1,0.6c-0.3,2.4-0.8,2.9-1.8,3c-0.6,0-1.2,0-1.9,0s-1.4,0-1.9,0c-1,0-1.5-0.6-1.5-1.4v-2.3c-1.7,0.2-3.3,0.3-4.7,0.6
		l-0.1-1c1.6-0.1,3.3-0.2,4.8-0.5v-2c-1.4,0.1-2.6,0.3-4.1,0.5l-0.1-1c1.5-0.1,2.8-0.2,4.2-0.3v-1.8c-1.1,0.2-2.4,0.3-3.6,0.6
		c0,0-0.1-0.5-0.5-0.9c4.4-0.3,7.4-1.2,8.1-1.7c0,0,0.1-0.1,0.2-0.1c0.1,0,1,0.7,1,0.8s-0.1,0.1-0.2,0.1H191c-0.1,0-0.1,0-0.3,0
		c-1,0.3-2.4,0.7-3.6,1v1.8c1.6-0.2,3-0.3,4.7-0.7l0.1,1c-1.7,0.1-3.3,0.3-4.8,0.5v2c2-0.2,3.9-0.5,5.9-0.8L193.1,396.7z"/>
	<path d="M198,393.9c0-0.1,0-0.2,0-0.2s0-0.1,0.1-0.1l0,0c1.1,0.1,1.2,0.2,1.2,0.3c0,0.1,0,0.1-0.1,0.2s-0.2,0.2-0.2,0.6
		c-0.6,3.6-2,5.3-3.8,6.8c0,0-0.2-0.6-0.7-1c1.4-0.9,2-1.9,2.7-3c0.3-0.8,0.9-2.6,0.9-3.4L198,393.9L198,393.9L198,393.9z
		 M205,393.8c0-0.6,0-1.1,0-1.4v-0.2h-8.9v0.2c0,0.2,0,0.8,0,1.4h-1.2c0-0.5,0-1.4,0-1.9v-0.7h4.8c0-0.5,0-0.9-0.1-1.1
		c0-0.2-0.1-0.3-0.1-0.3s0-0.1,0.1-0.1l0,0c1.4,0.1,1.4,0.2,1.4,0.2s0,0.1-0.1,0.2s-0.1,0.2-0.1,0.5c0,0.1,0,0.6,0,0.6h5.1v0.3
		c0,0.6,0,1.6,0,2.3H205L205,393.8z M202.9,393.6c0.1,3.2,1.5,5.5,3.8,6.8c-0.3,0.5-0.6,1.1-0.6,1.1c-2.7-1.8-3.8-3.9-4.3-7.7
		L202.9,393.6z"/>
	<path d="M214.1,399.4c2.8,0,4.2-1.9,4.2-3.7c0-1.7-1.1-3.4-3.5-3.7c-0.6,3.8-2.3,8.3-4.1,8.3c-1,0-2.3-1.6-2.3-3.7
		c0-2.7,1.8-5.6,5.5-5.6c3.4,0,5.3,2.1,5.3,4.7c0,2.3-1.6,4.5-4.7,4.8c-0.1-0.3-0.3-0.8-0.7-1.2h0.2v0.1H214.1z M209.5,396.5
		c0,1.4,0.7,2.6,1.2,2.6c0.2,0,0.6-0.2,0.8-0.6c1-1.6,1.9-4.3,2.3-6.6C211,392.1,209.5,394.4,209.5,396.5z"/>
	<path d="M223.4,401.5c0-0.9,0.1-3.5,0.1-4.6c-0.5,0.2-0.8,0.3-1,0.5s-0.3,0.1-0.5,0.3c-0.1,0.1-0.2,0.2-0.2,0.2s-0.1,0-0.1-0.1
		c-0.2-0.5-0.3-1-0.3-1c0-0.1,0.1-0.1,0.2-0.1c0.3,0,1.1-0.3,2-0.7c0-0.5,0-0.9,0-1.4s0-0.9,0-1.4h-0.9c-0.1,0.7-0.3,1.5-0.7,2.1
		c0,0-0.3-0.5-0.7-0.8c0.5-1.1,0.7-2.4,0.8-3.4v-0.3c0-0.1,0-0.1,0.1-0.1l0,0c1,0.2,1,0.3,1,0.3s0,0.1-0.1,0.2
		c-0.1,0.2-0.2,0.3-0.2,0.5s0,0.3-0.1,0.6h0.8c0-1.2,0-2-0.1-2.3c0-0.1-0.1-0.2-0.1-0.3c0,0,0-0.1,0.1-0.1l0,0
		c1.1,0.1,1.2,0.1,1.2,0.2s0,0.1-0.1,0.2s-0.1,0.3-0.1,0.6s0,0.8,0,1.6c0.6,0,1.1,0,1.6,0v0.9c-0.5,0-1,0-1.6,0c0,0.2,0,0.6,0,0.8
		c0,0.6,0,1,0,1.5c0.7-0.3,1.1-0.6,1.6-0.8v1c-0.6,0.3-1,0.6-1.6,0.8c0,1.7,0,3.5,0.1,5.1L223.4,401.5L223.4,401.5z M233.1,394.5
		c-1.4,0-2.6-0.1-3.8-0.1s-2.5,0-3.7,0.1v-1c0.6,0,1,0,1.6,0c0.5,0,1,0,1.5,0c0-0.5,0-1,0-1.5c-0.8,0-1.7,0-2.5,0.1v-1
		c0.9,0,1.7,0.1,2.5,0.1c0-0.6,0-1-0.1-1.2c0-0.2-0.1-0.3-0.1-0.3s0-0.1,0.1-0.1l0,0c1.1,0.1,1.2,0.2,1.2,0.2s0,0.1-0.1,0.2
		c-0.1,0.2-0.1,0.3-0.1,0.7c0,0.1,0,0.3,0,0.5c0.9,0,1.8,0,2.8-0.1v1c-1,0-1.9-0.1-2.8-0.1c0,0.5,0,1,0,1.5c1.1,0,2.3,0,3.5-0.1v1.2
		h0V394.5z M233.3,396.9c-0.7,0-1.4,0-1.9,0v3.2c0,1.1-0.5,1.5-1.9,1.5c-0.2,0-0.6,0-0.8,0c0,0,0-0.6-0.3-1c0.5,0,0.8,0.1,1.1,0.1
		c0.8,0,0.9-0.2,0.9-0.7c0-0.3,0-0.8,0-1.4s0-1.1,0-1.6c-0.5,0-0.8,0-1.2,0c-1.1,0-2.3,0-3.4,0.1v-1c1.4,0,2.6,0.1,3.8,0.1
		c0.2,0,0.6,0,0.8,0c0-0.5,0-0.8,0-0.9c0-0.2-0.1-0.3-0.1-0.3s0-0.1,0.1-0.1l0,0c1.1,0.1,1.1,0.1,1.1,0.2c0,0,0,0.1-0.1,0.2
		c-0.1,0.2-0.1,0.3-0.1,0.6v0.1c0.7,0,1.2,0,1.9-0.1L233.3,396.9L233.3,396.9L233.3,396.9z M228,399.6c-0.6-0.8-1-1.5-1.7-2l0.7-0.6
		c0.7,0.6,1.1,1.1,1.8,1.9L228,399.6z"/>
	<path d="M236.8,389.6c0.2,0,0.6,0.1,0.9,0.2c0.1,0,0.1,0.1,0.1,0.1s0,0.1-0.1,0.2s-0.2,0.2-0.2,0.3c-0.6,1.1-1.2,2.1-2.3,3.2
		c0,0-0.1-0.5-0.5-0.9c1-0.9,1.8-2.3,1.9-2.8C236.6,389.8,236.5,389.6,236.8,389.6L236.8,389.6z M236,401.5c0-1.6,0-3.9,0-5.4
		c-0.3,0.5-0.7,0.8-1,1.2c0,0-0.1-0.6-0.5-0.9c1.2-1.2,2-3,2.1-3.7c0-0.2,0-0.3,0.1-0.3c0,0,0,0,0.1,0c0.3,0.1,0.6,0.1,0.9,0.2
		c0.1,0,0.1,0.1,0.1,0.1s0,0.1-0.1,0.2s-0.2,0.2-0.2,0.3c-0.2,0.6-0.5,1-0.7,1.5v1.6c0,1.6,0,3.8,0,5.3H236V401.5z M242.8,399.6
		c-1.6,0.5-3,0.8-4.1,1c-0.1,0-0.3,0.1-0.5,0.2c-0.1,0.1-0.2,0.1-0.2,0.1c-0.1,0-0.3-0.7-0.3-1.1v-0.1c0-0.1,0.1-0.1,0.2-0.1
		c0.3,0,1-0.1,1.9-0.2v-1.7c-0.6,0-1.1,0-1.7,0v-0.9c0.3,0,0.6,0,0.8,0s0.6,0,0.8,0v-1.2c-0.6,0-1.2,0-1.8,0v-1
		c0.8,0,1.6,0.1,2.3,0.1s1.6,0,2.4-0.1l-0.1-0.1c1-1.7,1.2-3.8,1.2-4.5l0,0c0-0.1,0-0.2,0-0.3s0-0.1,0.1-0.1l0,0c1,0.1,1,0.2,1,0.3
		s0,0.1-0.1,0.2c-0.1,0.2-0.1,0.3-0.2,0.5c-0.1,0.6-0.2,1-0.3,1.6c0.7,0,1.8,0,2.6,0v0.9c-0.2,0-0.3,0-0.6,0c-0.2,2.4-0.6,3.9-1,5.2
		c0.3,0.9,0.9,1.6,1.7,2.4c-0.3,0.3-0.6,0.9-0.6,0.9c-0.7-0.8-1.2-1.7-1.7-2.5c-0.6,0.9-1.2,1.6-2.1,2.5c0,0-0.1-0.5-0.6-0.8
		c1-0.8,1.7-1.6,2.3-2.6c-0.3-1-0.7-2.3-0.8-3.6c-0.1,0.3-0.3,0.7-0.5,0.9c0,0-0.1-0.3-0.3-0.7v0.9c-0.7,0-1.4,0-1.9,0v1.2
		c0.6,0,1.1,0,1.8-0.1v0.9c-0.7,0-1.2,0-1.8,0v1.5c0.7-0.1,1.5-0.3,2.1-0.6L242.8,399.6L242.8,399.6z M238,393.8c0-0.3,0-0.8,0-1.4
		c0-0.7,0-1.5-0.1-1.7c0-0.1-0.1-0.2-0.1-0.3s0-0.1,0.1-0.1l0,0c0.9,0.1,1,0.1,1,0.2c0,0,0,0.1-0.1,0.2s-0.1,0.2-0.1,0.5v1.7h0.9
		c0-0.8,0-2.6-0.1-3c0-0.1-0.1-0.2-0.1-0.3c0,0,0-0.1,0.1-0.1l0,0c0.3,0,0.7,0.1,1,0.1c0.1,0,0.1,0,0.1,0.1c0,0,0,0.1-0.1,0.2
		c-0.1,0.2-0.1,0.8-0.1,2.9h1c0-0.3,0-1.9-0.1-2.3c0-0.1-0.1-0.2-0.1-0.3s0-0.1,0.1-0.1l0,0c0.8,0.1,1,0.1,1,0.2c0,0,0,0.1-0.1,0.2
		c-0.1,0.2-0.1,0.3-0.1,1.7c0,0.5,0,1,0,1.2H238V393.8z M244,393c0.2,1.7,0.3,3,0.7,4.1c0.3-1,0.6-2.4,0.7-4.1c-0.2,0-0.6,0-0.8,0
		H244z"/>
	<path d="M254.1,398.8c0-0.8,0-1.4,0-1.8c-1.2,0.5-2.1,1.1-2.1,1.9c0,0.6,0.5,1.1,2.4,1.1c1.1,0,2.4-0.2,3.3-0.6
		c0,0.3-0.1,0.6-0.1,0.9c0,0.1,0,0.3,0,0.5c-0.9,0.1-2,0.2-3,0.2c-1.4,0-3.6-0.2-3.6-2c0-1.4,1.5-2.1,3.2-2.8c0-0.6-0.2-1.2-1-1.2
		c-1.2,0-2.4,1.4-3.4,3.3l-1.1-0.8c1.4-1.6,2.4-3.2,3-4.6c-0.6,0-1.5,0.1-2.4,0.1l-0.1-1.1c0.3,0.1,0.9,0.1,1.6,0.1
		c0.5,0,0.9,0,1.4,0c0.1-0.5,0.2-1,0.3-1.4v-0.1c0-0.1,0-0.1,0-0.2s0,0,0.1,0l0,0c1.4,0.1,1.4,0.2,1.4,0.3s0,0.1-0.1,0.1
		c-0.1,0.1-0.1,0.2-0.2,0.5c-0.1,0.2-0.2,0.6-0.3,0.8c1.4-0.1,2.6-0.3,3.2-0.7v1.2c-0.9,0.2-2,0.3-3.5,0.5c-0.3,0.7-0.6,1.2-0.9,1.9
		c0.3-0.3,1-0.6,1.6-0.6c1.4,0,1.6,1.2,1.7,1.6c0.9-0.5,1.8-0.8,2.7-1.4c0.2-0.1,0.2-0.2,0.3-0.2l0,0c0.2,0.2,0.6,0.9,0.7,1.1v0.1
		c0,0.1-0.1,0.1-0.2,0.1c-0.3,0-0.7,0.1-3.5,1.1c0,0.6,0,1.4,0,2.1H254.1z"/>
	<path d="M264.1,390.2c1.1,0.2,1.1,0.3,1.1,0.5s0,0.1-0.1,0.2c-0.2,0.2-0.3,0.3-0.3,0.5c-0.9,1.9-2,3.3-3.6,4.7c0,0-0.1-0.6-0.6-1
		c1.7-1.1,3.2-3.4,3.4-4.3C264,390.4,263.9,390.2,264.1,390.2L264.1,390.2z M270.2,394.9c-0.1,1.9-0.3,3.9-0.6,5.2
		c-0.2,1.1-0.7,1.5-2,1.5c-0.3,0-0.7,0-1.1,0c0,0,0-0.6-0.3-1.1c0.6,0,1,0.1,1.4,0.1c0.9,0,1-0.2,1.1-0.8c0.1-0.8,0.3-2.7,0.5-3.8
		c0,0-1.4,0-3,0c-0.7,2.8-1.7,4.3-4.8,5.6c0,0-0.1-0.6-0.6-1c2.7-0.8,3.9-2.4,4.4-4.6c-0.8,0-1.6,0-2.3,0v-1c1.7,0,4.1,0,5.6,0h1.7
		V394.9z M268.6,390.2c0.8,1.7,2,3.6,4.2,4.5c-0.3,0.5-0.6,1.1-0.6,1.1c-2.4-1.4-3.5-3-4.5-5.3L268.6,390.2z"/>
	<path d="M276.5,401.5c0-2,0.1-4.5,0.1-6.6c-0.6,1.5-1.1,2.6-1.9,3.8c0,0-0.2-0.7-0.6-1.1c0.9-1.1,1.7-2.6,2.4-4.5c-0.7,0-1.4,0-2,0
		v-1c0.8,0,1.5,0.1,2.1,0.1c0-1.1,0-1.9-0.1-2.1c0-0.1-0.1-0.2-0.1-0.3c0,0,0-0.1,0.1-0.1l0,0c1.2,0.1,1.2,0.2,1.2,0.2
		s0,0.1-0.1,0.2c-0.1,0.2-0.1,0.3-0.1,2c0.7,0,1.4,0,2-0.1v1c-0.7,0-1.4,0-2,0c0.6,1.1,1.1,2,1.9,2.8c-0.3,0.3-0.6,0.9-0.6,0.9
		c-0.6-0.8-1-1.5-1.4-2.3c0,2.1,0,4.7,0.1,7h-1.1v0.1H276.5z M283.1,401.5c0.1-1.8,0.1-4.4,0.1-6v-1.1c-0.9,0-1.7,0-2.4,0
		c0,3-0.3,5-1.8,7.1c0,0-0.3-0.6-0.8-0.8c1.2-1.7,1.6-3.3,1.6-6.3v-3.7c2-0.1,3.6-0.5,4.5-0.7c0.1,0,0.1-0.1,0.1-0.1s1,0.6,1,0.7
		s-0.1,0.1-0.2,0.1c-0.2,0-0.3,0-0.5,0c-1.1,0.3-2.5,0.6-4.2,0.7v2.1c1.2,0,3.8,0,5.3,0v1c-0.6,0-1.4,0-2,0v1.1c0,1.6,0,4.2,0.1,6
		H283L283.1,401.5L283.1,401.5z"/>
	<path d="M289.1,398.7c0-1.5,0.1-4.1,0.1-6.1c0-0.7,0-1.4,0-1.8c0-0.1-0.1-0.2-0.1-0.2s0,0,0.1,0l0,0c0.2,0,1,0,1.2,0
		c0.1,0,0.1,0,0.1,0.1c0,0,0,0.1-0.1,0.2s-0.1,0.2-0.1,0.5c-0.2,2.6-0.2,5.2-0.2,7.3c0,1,0.6,1.5,1.6,1.5c1.8,0,3.8-1.6,4.6-3
		c0.1,0.5,0.3,1.1,0.6,1.4c-2.1,2.4-4.3,2.7-5.3,2.7C290.1,401.1,289.1,400.3,289.1,398.7L289.1,398.7z"/>
	<path d="M298.6,400.5c0.7-1.2,1.8-4.4,2.4-7c-0.6,0-1.2,0-1.9,0l-0.1-1.1c0.5,0,1,0.1,1.6,0.1c0.2,0,0.5,0,0.7,0
		c0.2-0.8,0.3-1.6,0.3-2.1l0,0c0-0.1,0-0.2,0-0.2s0-0.1,0.1-0.1l0,0c0.2,0,0.8,0.1,1.1,0.2c0.1,0,0.1,0.1,0.1,0.1s0,0.1-0.1,0.1
		c-0.1,0.1-0.1,0.2-0.6,1.9c0.9-0.1,1.8-0.3,2.6-0.6v1.1c-0.9,0.2-1.8,0.3-2.7,0.5c-0.7,2.6-1.5,5.2-2.3,7.5L298.6,400.5z
		 M308.9,400.3c-1.1,0.1-2,0.2-2.9,0.2c-2.1,0-3.2-0.6-3.2-1.8c0-0.2,0-0.6,0.1-0.9l0.9,0.1c0,0.2-0.1,0.3-0.1,0.5
		c0,0.9,0.9,1,1.8,1s2.1-0.1,3.2-0.5L308.9,400.3z M308,395.5c-0.5,0-0.9-0.1-1.5-0.1c-0.9,0-1.9,0.1-2.7,0.2l-0.1-1
		c1.4-0.1,2.8-0.2,4.2-0.2L308,395.5z"/>
	<path d="M320.4,401.5c0-0.2,0-0.6,0-0.8c0,0-5.9,0-8.7,0.1v-1.1c2.7,0.1,8.7,0.1,8.7,0.1c0-0.6,0-1.2,0-1.9c0,0-5.5,0-8.1,0.1v-1
		c2.5,0.1,8.1,0.1,8.1,0.1v-1.7h-1.7c-1.8,0-4.6,0-7,0.1v-1.1c1.2,0,2.8,0,4.4,0c0-0.6,0-1.4,0-1.9c0-1.1,0-2-0.1-2.4
		c0-0.2-0.1-0.3-0.1-0.3s0-0.1,0.1-0.1l0,0c1.2,0.1,1.2,0.2,1.2,0.2c0,0.1,0,0.1-0.1,0.2c-0.1,0.2-0.1,0.2-0.1,0.5v3.7h4.3v1.1
		c0,1.7,0,4.7,0,6.1L320.4,401.5L320.4,401.5z M313.9,393.9c-0.6-1.2-1.2-2-2-3l0.9-0.5c0.9,1,1.6,1.8,2.1,3L313.9,393.9z
		 M320.5,390.7c0-0.2,0-0.3,0.1-0.3c0,0,0,0,0.1,0c0.3,0,1.1,0.1,1.1,0.3c0,0,0,0.1-0.1,0.2s-0.2,0.2-0.3,0.3
		c-0.3,0.9-1,1.8-1.8,2.7c0,0-0.3-0.3-0.9-0.6C319.7,392.3,320.4,391.1,320.5,390.7z"/>
	<path d="M326.5,401.5c0-1.6,0-4.1,0-5.4c-0.6,0.6-1.2,1.2-1.9,1.7c0,0-0.1-0.6-0.5-1c1.6-1.1,2.8-2.5,3.7-4.2h-0.5
		c-0.7,0-1.9,0-2.9,0v-1c0.6,0,1.4,0,1.9,0v-0.5c0-0.6,0-1,0-1.2s-0.1-0.3-0.1-0.3s0-0.1,0.1-0.1l0,0c1.1,0.1,1.1,0.2,1.1,0.2
		c0,0.1,0,0.1-0.1,0.2c-0.1,0.2-0.1,0.3-0.1,0.9c0,0.2,0,0.5,0,0.7h0.6c0.1,0,0.2,0,0.3-0.1h0.1c0.1,0,0.9,0.5,0.9,0.7
		c0,0.1-0.2,0.2-0.3,0.5c-0.5,0.8-0.9,1.5-1.5,2.3c0.7,0.7,1.5,1.2,2.4,1.8c-0.3,0.3-0.6,0.9-0.6,0.9c-0.7-0.5-1.2-1.1-1.8-1.7
		c0,1.6,0,4.1,0,5.5h-0.9L326.5,401.5L326.5,401.5z M336.4,401c-1.4,0-2.7,0-4.1,0c-1.2,0-2.5,0-3.6,0v-1.1c0.6,0,1,0,1.6,0
		s1.1,0,1.7,0c0-1.6,0-3.7,0-5.6c-0.9,0-1.8,0-2.6,0.1v-1.1c0.9,0,1.8,0.1,2.6,0.1c0-1.8,0-3.2-0.1-3.4c0-0.1-0.1-0.2-0.1-0.3
		c0,0,0-0.1,0.1-0.1l0,0c1.2,0.1,1.4,0.2,1.4,0.2s0,0.1-0.1,0.2c-0.1,0.2-0.1,0.5-0.1,3.3c1,0,1.9,0,2.9-0.1v1.1
		c-1,0-1.9-0.1-2.9-0.1v5.6c1.1,0,2.3,0,3.4-0.1L336.4,401L336.4,401z"/>
	<path d="M348.7,395.2c-0.5,0-1.2,0-2.4,0c-0.6,0-1.2,0-1.9,0c0,2.8-0.9,5-3.4,6.3c-0.3-0.2-0.8-0.7-1.1-0.9c2.7-1,3.4-3.2,3.4-5.2
		V395c-2.1,0-4.3,0.1-5,0.2V394c0.5,0,1.4,0,2.4,0c2.8,0,7.1-0.1,8.1-0.2L348.7,395.2z M346.5,392.2c-0.5,0-1.2-0.1-2.3-0.1
		c-1.6,0-3.6,0-4.3,0.1v-1.1c0.3,0,1.1,0,2,0c1.7,0,3.8-0.1,4.5-0.1L346.5,392.2L346.5,392.2z M348.1,393.5
		c-0.3-0.5-0.7-0.9-1.1-1.4l0.6-0.5c0.3,0.3,0.8,0.8,1.1,1.2L348.1,393.5z M349.1,392.8c-0.3-0.5-0.7-0.9-1.1-1.2l0.6-0.5
		c0.3,0.3,0.8,0.8,1.1,1.2L349.1,392.8z"/>
	<path d="M361.3,396.1c-0.5,0-1.7,0-3.2,0c-2.7,0-6.2,0-7,0.1V395c0.5,0,1.9,0.1,3.5,0.1c2.6,0,5.9,0,6.6-0.1v1.1H361.3z"/>
	<path d="M367.4,394.6c0.8,0.5,1.6,0.9,2.4,1.5c0.8-1,1.5-2.1,1.8-3.2c-1,0-2.7,0-4.4,0.1c-0.8,1-1.8,2-2.9,2.9
		c-0.3-0.2-0.7-0.6-1-0.8c1.8-1.1,3.5-3,4.3-4.7c0.1-0.3,0-0.5,0.1-0.5c0,0,0,0,0.1,0c0.2,0.1,1.4,0.5,1.4,0.6c0,0,0,0.1-0.2,0.2
		c-0.1,0.1-0.2,0.2-0.5,0.5c-0.1,0.2-0.3,0.5-0.6,0.8c1.2,0,2.4,0,3.7-0.1c0.3,0,0.3-0.1,0.3-0.1c0.1,0,1.2,0.8,1.2,0.9
		s-0.3,0.2-0.6,0.8c-1.5,3.2-3.9,6.1-8.2,7.7c-0.2-0.3-0.7-0.7-0.9-1c2.3-0.6,4.1-1.8,5.5-3.3c-0.7-0.7-1.6-1.2-2.5-1.8L367.4,394.6
		z"/>
</g>
</svg>
