<?xml version="1.0" encoding="utf-8"?>
<!-- Generator: Adobe Illustrator 24.3.0, SVG Export Plug-In . SVG Version: 6.00 Build 0)  -->
<svg version="1.1" id="レイヤー_2_1_" xmlns="http://www.w3.org/2000/svg" xmlns:xlink="http://www.w3.org/1999/xlink" x="0px"
	 y="0px" viewBox="0 0 500 170" style="enable-background:new 0 0 500 170;" xml:space="preserve">
<style type="text/css">
	.st0{fill:#181818;}
	.st1{enable-background:new    ;}
</style>
<g>
	<g>
		<g>
			<g>
				<path class="st0" d="M88.6,104.6c-4.7-0.2-9.5-0.8-14.1-1.8c-22.2-5-40.8-20.2-49.8-40.5l2.2-1C35.6,81,53.6,95.6,75,100.5
					c4.5,1,9.1,1.6,13.7,1.8L88.6,104.6z"/>
			</g>
			<path class="st0" d="M25.5,126.9C25.5,126.9,25.5,126.9,25.5,126.9l-0.1-2.4c0,0,0.1,0,0.1,0c6.9,0,13.9-0.7,20.7-2.1
				c15.7-3.2,30.1-10.1,41.7-19.9l1.5,1.8c-11.9,10-26.7,17.1-42.8,20.4C39.7,126.1,32.6,126.9,25.5,126.9z"/>
			<path class="st0" d="M78.8,126.9c-7.1,0-14.2-0.7-21.2-2.2c-16.1-3.3-30.9-10.4-42.8-20.4l1.5-1.8c11.6,9.8,26,16.6,41.7,19.9
				c6.8,1.4,13.8,2.1,20.7,2.1c0,0,0.1,0,0.1,0L78.8,126.9C78.9,126.9,78.9,126.9,78.8,126.9z"/>
			<g>
				<path class="st0" d="M15.7,104.6l-0.1-2.4c4.6-0.2,9.2-0.7,13.7-1.8C50.8,95.6,68.8,81,77.5,61.4l2.2,1
					c-9,20.3-27.6,35.4-49.8,40.4C25.2,103.8,20.4,104.4,15.7,104.6z"/>
			</g>
			<path class="st0" d="M52.2,139c-21.7,0-38-17.7-38-41.2c0-17.2,9.8-35.6,19.4-53.4C41.2,30,48.5,16.5,50.8,3.7
				c0.3-1.4,2.5-1.4,2.8,0l0,0c2.4,12.7,9.6,26.3,17.3,40.6c9.5,17.8,19.4,36.2,19.4,53.4C90.2,121.2,73.8,139,52.2,139z M52.2,8.4
				c-3.1,11.8-9.6,24.1-16.6,37.1C26.2,63,16.5,81.2,16.5,97.7c0,22.2,15.3,38.9,35.7,38.9s35.7-16.7,35.7-38.9
				c0-16.6-9.7-34.7-19.1-52.2C61.8,32.5,55.2,20.2,52.2,8.4z"/>
		</g>
		<path class="st0" d="M128.5,39c-2.9,0-5.3,2.4-5.3,5.3s2.4,5.3,5.3,5.3c2.9,0,5.3-2.4,5.3-5.3C133.8,41.3,131.4,39,128.5,39z
			 M128.5,59.1c-2.3,0-4.2,1.9-4.2,4.2v49.6c0,2.3,1.9,4.2,4.2,4.2c2.3,0,4.2-1.9,4.2-4.2V63.3C132.7,61,130.8,59.1,128.5,59.1z
			 M309.9,59.5c-2-1-4.5-0.2-5.5,1.9l-17.2,35l-18.3-35.1c-1-2-3.5-2.8-5.6-1.8c-2,1-2.8,3.5-1.8,5.6l21.1,40.4l-11.9,24.2
			c-1,2-0.2,4.5,1.9,5.5c2,1,4.5,0.2,5.5-1.9L311.8,65C312.8,63,311.9,60.5,309.9,59.5z M458,59.3c-16.1,0-29.2,12.9-29.2,28.9
			S441.9,117,458,117c9.6,0,18.8-3.2,25.8-12.2c1.4-1.9,1.2-4.6-0.6-5.9s-4.5-0.9-5.9,0.9c-5.3,6.9-11.6,9.7-19,9.7
			c-10.5,0-19.2-7.5-21.1-17.5h46.1c2.1,0,3.8-1.6,3.8-3.7c0-0.1,0-0.1,0-0.1C487.2,72.2,474.1,59.3,458,59.3z M437.2,84.5
			c1.8-10.1,10.5-17.7,21.1-17.7c10.6,0,18.9,7.7,20.6,17.7C478.9,84.5,437.2,84.5,437.2,84.5z M223.7,59.3
			c-8.8-1.3-16.8,2.6-21.4,9.1c-4.6-6.5-12.6-10.4-21.4-9.1c-11.1,1.6-19,11.6-19,22.8v30.7c0,2.3,1.9,4.2,4.2,4.2
			c2.3,0,4.2-1.9,4.2-4.2V81.9c0-6.7,4.5-12.8,11-14.2c8.9-1.8,16.8,5,16.8,13.6v31.5c0,2.3,1.9,4.2,4.2,4.2c2.3,0,4.2-1.9,4.2-4.2
			V81.9c0-6.7,4.5-12.8,11-14.2c8.9-1.8,16.8,5,16.8,13.6v31.5c0,2.3,1.9,4.2,4.2,4.2c2.3,0,4.2-1.9,4.2-4.2V82.1
			C242.8,70.9,234.8,60.9,223.7,59.3z M390.2,59.3c-8.8-1.3-16.8,2.6-21.4,9.1c-4.6-6.5-12.6-10.4-21.4-9.1
			c-11.1,1.6-19,11.6-19,22.8v30.7c0,2.3,1.9,4.2,4.2,4.2c2.3,0,4.2-1.9,4.2-4.2V81.9c0-6.7,4.5-12.8,11-14.2
			c8.9-1.8,16.8,5,16.8,13.6v31.5c0,2.3,1.9,4.2,4.2,4.2c2.3,0,4.2-1.9,4.2-4.2V81.9c0-6.7,4.5-12.8,11-14.2
			c8.9-1.8,16.8,5,16.8,13.6v31.5c0,2.3,1.9,4.2,4.2,4.2c2.3,0,4.2-1.9,4.2-4.2V82.1C409.3,70.9,401.3,60.9,390.2,59.3z"/>
	</g>
</g>
<g>
	<path d="M199.4,18.7V7.4h-2.7V6.2c1.5,0,2.7-0.8,3.3-1.7h1.1v14.3L199.4,18.7L199.4,18.7z"/>
	<path d="M209.4,11.6c0-4.3,1.6-7.5,5.3-7.5s5.3,3.2,5.3,7.5c0,4.5-1.6,7.5-5.3,7.5C211,19,209.4,16.2,209.4,11.6z M218.1,11.6
		c0-3.5-1.2-5.8-3.5-5.8s-3.4,2.3-3.4,5.8c0,3.6,1.2,5.8,3.4,5.8S218.1,15.3,218.1,11.6z"/>
	<path d="M231.3,11c-0.6,3.6-2.1,7-6.1,9.3c0,0-0.3-0.8-1-1.4c2.7-1.4,4.5-3.9,5.3-6.8c0.4-1.8,0.6-4.3,0.6-6.3
		c-1.9,0-3.9,0.1-5.6,0.1V4.3c2.7,0.1,5.8,0.2,9,0.2c2.9,0,5.7,0,8.3-0.2v1.6c-2.6-0.1-5.6-0.1-8.5-0.1c-0.5,0-1.2,0-1.7,0
		c0,1.2-0.1,2.6-0.2,3.8h7.8c-0.2,3.3-0.5,6.3-0.9,8.2c-0.3,2-1.1,2.5-3.4,2.5c-0.5,0-1.2,0-1.9-0.1c0,0-0.1-0.9-0.4-1.6
		c1,0.1,1.7,0.2,2.4,0.2c1.5,0,1.7-0.3,1.9-1.2c0.3-1.8,0.6-4.5,0.8-6.5L231.3,11L231.3,11z"/>
	<path d="M254.8,2.7c1.5,0.2,1.9,0.2,1.9,0.3c0,0.1,0,0.2-0.2,0.3c-0.2,0.3-0.2,0.4-0.2,0.8c0.1,8,3.6,12.6,8.5,14.6
		c-0.6,0.6-1,1.5-1,1.5c-3.5-1.9-6.8-4.9-8-10.2c-0.5,3.2-1.9,6.7-7.9,10.2c0,0-0.3-0.9-1.1-1.5c7.3-3.2,8-9.6,8-13.5
		c0-0.9-0.1-1.6-0.1-1.9c0-0.2-0.1-0.3-0.1-0.4S254.6,2.7,254.8,2.7L254.8,2.7z"/>
	<path d="M278.1,17.2c4.1,0,6.2-2.8,6.2-5.6c0-2.6-1.7-5.2-5.2-5.5c-0.9,5.7-3.3,12.3-6,12.3c-1.5,0-3.3-2.3-3.3-5.6
		c0-4,2.7-8.3,8.3-8.3c5,0,7.7,3.3,7.7,7c0,3.3-2.4,6.8-7,7.3c-0.2-0.5-0.5-1.2-1-1.7h0.3V17.2L278.1,17.2z M271.3,12.9
		c0,2.1,0.9,3.8,1.8,3.8c0.3,0,0.8-0.3,1.1-0.9c1.5-2.3,2.8-6.3,3.3-9.9C273.6,6.2,271.3,9.7,271.3,12.9z"/>
	<path d="M296.4,13.2h-2.8c-0.2,2.7-0.5,4.8-1.5,7.1c0,0-0.5-0.9-1.2-1.3c1-2.1,1.4-4.5,1.4-8.5V3.6h5.6V18c0,1.7-0.5,2.1-2.6,2.1
		c-0.3,0-0.6,0-1,0c0,0-0.1-0.9-0.3-1.5c0.5,0,1,0.1,1.4,0.1c1,0,1.2-0.2,1.2-0.9v-4.6H296.4z M296.4,8.8h-2.7c0,0,0,2.7,0,3.1h2.8
		L296.4,8.8C296.5,8.8,296.4,8.8,296.4,8.8z M296.4,4.8h-2.7v2.8h2.7V4.8z M304.8,4.8H302v4.8c0,4-0.1,7.6-2.7,10.5
		c0,0-0.4-0.8-1.1-1.3c2.1-2.1,2.1-5.4,2.1-8.4V3.6h5.8v14c0,0.5,0.2,0.6,0.4,0.6c0.5,0,0.8-0.1,0.9-3.2c0.6,0.4,1.5,0.9,1.5,0.9
		c-0.3,3.3-0.5,4-2.3,4c-1.1,0-2-0.2-2-2L304.8,4.8L304.8,4.8z"/>
	<path d="M329.6,10.9c-0.6,0-1.9-0.1-3.5-0.1c-0.9,0-1.9,0-2.9,0c-0.1,4.2-1.4,7.3-5,9.4c-0.4-0.3-1.2-1-1.7-1.3c4-1.5,5-4.7,5-7.6
		v-0.4c-3.2,0.1-6.3,0.2-7.4,0.3V9.5c0.6,0,1.9,0.1,3.5,0.1c4.2,0,10.5-0.1,11.9-0.3L329.6,10.9z M326.4,6.6
		c-0.6-0.1-1.9-0.1-3.3-0.1c-2.4,0-5.3,0.1-6.3,0.2V4.8c0.5,0.1,1.6,0.1,3,0.1c2.5,0,5.7-0.1,6.7-0.3v2H326.4z M328.7,8.3
		c-0.4-0.6-1.1-1.4-1.6-1.9l0.9-0.6c0.5,0.5,1.2,1.2,1.7,1.8L328.7,8.3z M330.2,7.2c-0.4-0.6-1-1.4-1.6-1.9l0.9-0.6
		c0.5,0.5,1.3,1.2,1.7,1.8L330.2,7.2z"/>
	<path d="M350.9,12.1c-0.6-0.1-2.6-0.1-4.7-0.1c-4,0-9.2,0.1-10.3,0.2v-1.9c0.6,0.1,2.8,0.1,5.3,0.1c4,0,8.7-0.1,9.8-0.2L350.9,12.1
		L350.9,12.1z"/>
	<path d="M362.2,10.1c1.2,0.6,2.4,1.4,3.5,2.3c1.3-1.5,2.1-3.2,2.7-4.6c-1.5,0-4.1,0.1-6.5,0.2c-1.2,1.5-2.7,2.9-4.4,4.4
		c-0.4-0.3-1-0.9-1.5-1.2c2.7-1.6,5.2-4.5,6.3-7c0.2-0.4,0-0.8,0.2-0.8h0.1c0.3,0.1,2.1,0.6,2.1,0.9c0,0.1-0.1,0.2-0.3,0.3
		c-0.3,0.2-0.3,0.3-0.6,0.8c-0.3,0.3-0.4,0.8-0.8,1.1c1.8,0,3.5-0.1,5.6-0.2c0.4,0,0.4-0.2,0.5-0.2c0.2,0,1.7,1.2,1.7,1.4
		s-0.4,0.3-0.9,1.2c-2.1,4.7-5.9,9-12.2,11.4c-0.3-0.4-0.9-1.1-1.4-1.5c3.3-0.9,6-2.7,8.2-4.8c-1-0.9-2.3-1.8-3.6-2.7L362.2,10.1z"
		/>
</g>
<g>
	<path d="M197.6,38c-1.1-1-2.3-2.3-3.1-3.3c0.2,0.9,0.3,1.6,0.3,2.7c0,3.8-1.9,8-5.9,8c-1.3,0-5.4-0.5-5.4-5.2
		c0-2.6,1.3-5.5,3.3-7.6c-1.1,0.3-2.3,0.5-3.2,0.9c-0.3,0.1-0.4,0.1-0.8,0.3c-0.1,0.1-0.2,0.1-0.3,0.1c-0.2,0-0.3-1.8-0.3-2
		c0-0.1,0-0.1,0.1-0.1s0.2,0.1,0.3,0.1s0.3,0,0.4,0c1.2,0,3.3-0.3,4.4-0.6c0.4-0.2,0.5-0.3,0.6-0.3c0.2,0,1.4,1.3,1.4,1.4
		c0,0.1-0.3,0.2-0.8,0.3c-1.8,1.4-4,4.8-4,7.6c0,3.3,2.7,3.8,3.9,3.8c2.8,0,4.4-3.3,4.4-6.9c0-2.1-0.5-4.2-1.6-5.9l1.7-0.5
		c0.5,2.1,3.3,4.7,5.2,5.9L197.6,38z M197.4,33.3c-1,0-1.8-0.9-1.8-1.8c0-1,0.9-1.8,1.8-1.8s1.8,0.9,1.8,1.8
		C199.2,32.5,198.3,33.3,197.4,33.3z M197.4,30.5c-0.5,0-1,0.4-1,1s0.4,1,1,1s1-0.4,1-1C198.3,30.8,197.9,30.5,197.4,30.5z"/>
	<path d="M208,42.2c0.2,0,0.3,0,0.6,0c4.4,0,8-1.7,8-4.3c0-1.4-0.9-2.7-3.9-2.7s-6.9,1.3-7.5,1.8c-0.2,0.1-0.3,0.2-0.3,0.2
		c-0.3,0-0.8-1.5-0.9-1.6v-0.1c0-0.2,0.3,0,0.9-0.2c2.1-0.4,5.3-1.4,7.9-1.4c4.6,0,5.3,2.9,5.3,4.2c0,3-3.4,5.4-9.3,5.7
		C208.5,43.3,208.3,42.5,208,42.2z"/>
	<path d="M223.7,44.3c1.1-1.8,2.7-6.4,3.5-10.4c-0.9,0-1.8,0.1-2.8,0.1l-0.2-1.6c0.6,0.1,1.5,0.2,2.4,0.2c0.3,0,0.6,0,0.9,0
		c0.3-1.3,0.4-2.3,0.4-3.1l0,0c0-0.2-0.1-0.3-0.1-0.3c0-0.1,0-0.1,0.1-0.1h0.1c0.3,0,1.2,0.2,1.6,0.3c0.2,0,0.3,0.1,0.3,0.2
		c0,0.1,0,0.1-0.1,0.2c-0.2,0.2-0.2,0.3-0.9,2.8c1.4-0.2,2.7-0.4,3.8-0.9l-0.1,1.6c-1.4,0.3-2.7,0.5-4,0.6c-1,4-2.1,7.7-3.3,11.2
		L223.7,44.3z M239,44.3c-1.6,0.3-3.1,0.3-4.3,0.3c-3.1,0-4.6-0.9-4.6-2.7c0-0.3,0.1-0.9,0.2-1.3l1.4,0.2c-0.1,0.3-0.1,0.5-0.1,0.8
		c0,1.3,1.4,1.5,2.7,1.5s3.2-0.2,4.6-0.8L239,44.3z M237.6,36.9c-0.6-0.1-1.4-0.1-2.1-0.1c-1.4,0-2.8,0.1-4,0.3l-0.1-1.5
		c1.9-0.2,4.3-0.3,6.2-0.3L237.6,36.9L237.6,36.9z"/>
	<path d="M245.5,40.5c-0.5-1.2-0.6-2.9-0.6-4.6c0-2.1,0.3-4.5,0.3-5.7v-0.1c0-0.1,0-0.2,0-0.3s0-0.1,0.1-0.1h0.1
		c1.9,0.4,2,0.5,2,0.6s0,0.1-0.1,0.2c-0.2,0.2-0.3,0.3-0.4,0.8c-0.3,1.2-0.4,2.7-0.4,4.2c0,0.6,0,1.2,0.2,1.6l1.5-2.7l0.9,0.5
		c-1.2,2.4-1.5,3.6-1.5,5L245.5,40.5z M253.1,37.9c0-0.3,0-0.8,0-1.2c0-2.1-0.2-5.2-0.4-6.3c-0.1-0.3-0.2-0.4-0.2-0.5
		c0,0,0-0.1,0.2-0.1c2.1,0,2.3,0.2,2.3,0.3s0,0.2-0.1,0.3c-0.2,0.3-0.2,0.5-0.2,1.6c0,1.4,0.1,3,0.1,4.6c0,1.8,0,7.5-6.5,9.6
		c-0.3-0.5-0.9-1.2-1.4-1.6C250.6,43.9,252.9,41.3,253.1,37.9z"/>
	<path d="M262.4,41.6c1.3-1.5,3-5.2,4.1-8.3c-0.9,0.1-1.5,0.1-2.3,0.1c-0.3,0-0.8,0-1.1,0l-0.1-1.6c0.5,0.1,1.3,0.2,2,0.2
		c0.5,0,1.2,0,1.9-0.1c0.3-0.9,0.3-1.7,0.4-2.4v-0.3c0-0.1,0-0.2,0.1-0.2l0,0c1.7,0.3,1.9,0.3,1.9,0.5c0,0.1-0.1,0.2-0.2,0.3
		c-0.2,0.2-0.3,0.4-0.8,1.9c0.9-0.2,1.8-0.3,2.7-0.6l-0.2,1.6c-1,0.2-2,0.3-3,0.5c-1.1,3.2-2.6,6.7-4,9.4L262.4,41.6z M276.8,44.3
		c-0.9-0.9-1.8-1.4-2.7-1.8v0.2c0,1.8-1.7,2.7-3.6,2.7s-4-0.9-4-2.7c0-0.4,0.2-2.6,3.3-2.6c0.6,0,1.5,0.1,2.3,0.3
		c-0.2-1-0.4-2-0.4-3c0-2.4,1.4-3.2,2.7-3.2c0.1,0,0.2,0,0.2,0c-0.6-0.3-2.1-0.9-2.9-1.1l0.9-1.1c1.5,0.5,3.5,1.3,5.4,2.3l-0.9,1.5
		c-0.6-0.4-1.3-0.6-1.8-0.6c-0.3,0-2.1,0.1-2.1,2.3c0,1,0.3,2.3,0.6,3.5c1.2,0.4,2.7,1.2,4,2L276.8,44.3z M272.4,41.9
		c-1-0.3-1.8-0.4-2.6-0.4c-1.1,0-1.7,0.3-1.8,1c0,0.1,0,0.1,0,0.2c0,0.9,1.2,1.4,2.4,1.4c1,0,2-0.4,2-1.5V41.9L272.4,41.9z"/>
	<path d="M298.3,44.4c-1.5-1.7-3.8-3.9-5.8-5.5c-1.8,2.1-4.1,4.1-7,5.8c-0.3-0.3-1.1-1-1.5-1.4c5.2-2.5,9.2-7.2,10.6-10.8
		c-2.5,0-6.4,0.2-8.2,0.4l-0.1-1.9c0.8,0.1,1.9,0.1,3.3,0.1c1.7,0,3.9-0.1,5.3-0.2c0.3,0,0.3-0.2,0.5-0.2s1.7,1.1,1.7,1.3
		s-0.4,0.3-0.8,0.9c-0.9,1.6-1.8,3.2-3,4.8c2.1,1.5,4.6,3.5,6.3,5.3L298.3,44.4z"/>
	<path d="M313.3,45.5c-0.1-1.2-0.4-4-1-7.1c-3.2,0.3-6.3,0.8-7.3,0.9l-0.3-1.7c1,0,4.1-0.3,7.3-0.6c-0.1-0.9-0.3-1.8-0.4-2.7
		c-2.3,0.3-4.5,0.5-5.3,0.8l-0.3-1.6c0.9,0,3-0.2,5.3-0.4c-0.3-1.6-0.5-2.9-0.8-3.3c-0.1-0.2-0.2-0.3-0.2-0.3c0-0.1,0-0.1,2.1-0.3
		h0.1c0.2,0,0.2,0,0.2,0.2c0,0.1,0,0.2-0.1,0.3c-0.2,0.3-0.2,0.3-0.2,0.8c0,0.3,0.2,1.4,0.3,2.7c2.5-0.3,4.7-0.5,5.6-0.8l0.2,1.6
		h0.1c-0.9,0-3.1,0.2-5.5,0.4c0.2,0.9,0.3,1.7,0.4,2.7c2.9-0.3,5.8-0.6,6.8-0.9l0.2,1.7h-0.1c-1,0-3.6,0.3-6.5,0.5
		c0.5,3,1.1,5.8,1.4,7L313.3,45.5z"/>
	<path d="M329.9,44.1c-0.5,0.3-0.8,0.3-1,0.6c-0.2,0.2-0.3,0.3-0.3,0.3c-0.2,0-1.4-1.9-1.4-2.1s0.3-0.1,0.9-0.2
		c4.5-1.3,10.3-4.9,13.2-8.4c0.3,0.3,0.6,1,1,1.4C339,39.2,334,42.3,329.9,44.1z M331.2,34.6c-1-1.1-2.7-2.5-3.9-3.2l1.3-1.2
		c1.2,0.8,2.7,1.8,3.9,2.9L331.2,34.6z"/>
	<path d="M364.3,34.9c-0.9-0.1-2.7-0.1-4.8-0.1c-0.6,4.6-2.9,8.2-6.5,10.5c-0.4-0.3-1.1-0.9-1.6-1.2c3.6-1.5,6-5.3,6.5-9.2
		c-2.1,0-4.2,0.1-5.4,0.1c-0.8,1.2-1.6,2.3-2.7,3.4c-0.4-0.3-1.1-0.8-1.6-1c2.1-1.5,4.5-5.6,4.9-7.6c0.1-0.4,0-0.6,0.2-0.6
		c0,0,0.1,0,0.2,0c2,0.5,2.1,0.5,2.1,0.8c0,0.1-0.1,0.2-0.3,0.3c-0.3,0.2-0.3,0.3-0.6,0.8c-0.4,0.9-0.9,1.7-1.3,2.6
		c3.2,0,9.3-0.1,11.1-0.3L364.3,34.9z"/>
	<path d="M370.8,30.9c0.6,0.1,2,0.1,3.6,0.1c3.6,0,8.5-0.2,9.4-0.2c0.3,0,0.3-0.3,0.5-0.3s1.8,1,1.8,1.2s-0.3,0.3-0.6,0.8
		c-1.3,2.1-2.7,4.3-5.4,6c-0.3-0.3-1-0.9-1.4-1.3c2.6-1.2,4-3.2,4.8-5c-3.1,0.1-10.8,0.2-13,0.5L370.8,30.9z M377.3,34.1
		c2,0.2,2,0.3,2,0.3s0,0.2-0.1,0.3S379,35,379,35.5c-0.4,4-1.5,7.6-6,10.1c-0.3-0.3-1-0.9-1.5-1.3c4.3-1.5,5.7-5.8,5.7-8.9
		c0-0.3,0-0.5,0-0.8s-0.1-0.3-0.1-0.4C376.9,34.1,377,34.1,377.3,34.1L377.3,34.1z"/>
</g>
<g class="st1">
	<path d="M417.8,3.5l3.6,3.6l3.6-3.6l0.3,0.3l-3.6,3.6l3.6,3.6l-0.3,0.3l-3.6-3.6l-3.6,3.6l-0.3-0.3l3.6-3.6l-3.6-3.6L417.8,3.5z
		 M418.3,8.4c-0.4,0-0.9-0.3-0.9-0.9c0-0.5,0.3-0.9,0.9-0.9s0.9,0.3,0.9,0.9S418.8,8.4,418.3,8.4z M420.7,4.5c0-0.4,0.3-0.9,0.9-0.9
		s0.9,0.3,0.9,0.9c0,0.4-0.3,0.9-0.9,0.9C421,5.3,420.7,4.8,420.7,4.5z M422.3,10.7c0,0.4-0.3,0.9-0.9,0.9s-0.9-0.3-0.9-0.9
		s0.3-0.9,0.9-0.9C422,9.8,422.3,10.3,422.3,10.7z M424.6,6.7c0.4,0,0.9,0.3,0.9,0.9c0,0.4-0.3,0.9-0.9,0.9c-0.5,0-0.9-0.3-0.9-0.9
		C423.7,7.1,424.1,6.7,424.6,6.7z"/>
	<path d="M431,11.7h-1V5.5c-0.3,0.2-0.5,0.4-0.9,0.6s-0.8,0.3-1,0.4V5.7c0.5-0.3,1-0.5,1.4-0.9c0.3-0.3,0.8-0.8,0.9-1h0.6V11.7
		L431,11.7z"/>
</g>
<g class="st1">
	<path d="M398.4,41.9c0-1.1,0-2,0-2.7c-1.8,0.7-3.1,1.7-3.1,2.8c0,0.8,0.6,1.6,3.6,1.6c1.6,0,3.5-0.3,4.8-0.8
		c-0.1,0.4-0.1,0.9-0.1,1.3c0,0.2,0,0.5,0,0.7c-1.4,0.1-3,0.3-4.5,0.3c-2,0-5.3-0.3-5.3-3.1c0-1.9,2.1-3.2,4.6-4.2
		c-0.1-0.8-0.3-1.8-1.5-1.8c-1.9,0-3.5,2-4.9,4.8l-1.6-1.1c2.1-2.3,3.5-4.6,4.5-6.8c-0.8,0-2.2,0.1-3.5,0.1l-0.2-1.7
		c0.5,0.1,1.3,0.2,2.3,0.2c0.6,0,1.3,0,2-0.1c0.2-0.7,0.4-1.4,0.5-2.1c0-0.1,0-0.1,0-0.1c0-0.1,0-0.2,0-0.3c0-0.1,0-0.1,0.1-0.1h0.1
		c1.9,0.2,2,0.4,2,0.4c0,0.1,0,0.1-0.1,0.2c-0.2,0.2-0.2,0.3-0.4,0.7c-0.1,0.4-0.3,0.8-0.4,1.1c2-0.2,3.8-0.5,4.6-0.9l0,1.8
		c-1.3,0.3-3,0.5-5.2,0.7c-0.4,1-0.8,1.9-1.4,2.8c0.6-0.5,1.5-0.8,2.3-0.8c2,0,2.3,1.8,2.4,2.4c1.4-0.6,2.7-1.2,4-1.9
		c0.3-0.1,0.3-0.3,0.4-0.3c0,0,0.1,0,0.1,0.1c0.3,0.4,0.8,1.3,1,1.6c0,0.1,0,0.1,0,0.1c0,0.1-0.1,0.2-0.3,0.2
		c-0.4,0-0.9,0.1-5.1,1.7c0,0.8,0.1,1.9,0.1,3.2L398.4,41.9z"/>
</g>
<g class="st1">
	<path d="M427.7,42.2c-1.3,0-2.7-0.1-4.1-0.1v1.5c0,1.6-0.7,2.2-3.1,2.2c-0.3,0-0.7,0-1,0c0,0-0.1-0.7-0.5-1.5
		c0.7,0.1,1.3,0.1,1.7,0.1c1.2,0,1.5-0.2,1.5-0.8v-1.5c-0.9,0-1.7,0-2.6,0c-3.1,0-6.1,0.1-9.1,0.1v-1.4c2.8,0.1,5.8,0.1,8.7,0.1
		c1,0,2,0,2.9,0V40c-1.4,0-3,0-4.6-0.1c-2-0.1-3.1-0.9-3.9-1.9c-0.7,0.7-1.6,1.3-2.1,1.7c-0.2,0.2-0.3,0.2-0.4,0.4
		c-0.1,0.2-0.2,0.3-0.3,0.3c-0.2,0-0.9-1.3-0.9-1.4c0-0.1,0.2-0.1,0.3-0.2c0.8-0.3,2-1.1,2.9-2v-2.6h-0.4c-0.5,0-1.3,0-2.1,0.1v-1.4
		c0.8,0.1,2.3,0.1,3.1,0.1h0.7v4.3c1.4,1.5,2.2,1.5,6.5,1.5c2.4,0,4.6-0.1,7-0.2c-0.5,0.7-0.6,1.4-0.6,1.4h-3.9v0.9
		c1.4,0,2.7-0.1,4.1-0.1V42.2z M413.8,31.8c-0.8-0.9-1.8-1.7-2.8-2.3l0.9-0.9c1,0.6,1.9,1.2,2.9,2.1L413.8,31.8z M417.2,45.2
		c-1-0.9-2.1-1.5-3.4-2.1l0.9-0.9c1.2,0.5,2.4,1.2,3.6,2.1L417.2,45.2z M416.6,37.9v-6.1h3.2c0.2-0.3,0.4-0.5,0.5-0.8
		c-1.7,0-3.7,0-5.1,0.1v-1.2c1.1,0,2.5,0.1,3.7,0.1c-0.3-0.4-0.8-0.7-1.2-1.1l1.2-0.5c0.5,0.5,1,1,1.4,1.6h1.9
		c0.4-0.4,0.6-0.9,0.7-1.2c0.1-0.3,0.1-0.4,0.2-0.4c0,0,0.1,0,0.1,0c0.4,0.1,0.8,0.2,1.2,0.4c0.1,0,0.2,0.1,0.2,0.2
		c0,0.1-0.1,0.2-0.2,0.2c-0.2,0.1-0.3,0.2-0.4,0.3c-0.2,0.2-0.3,0.3-0.5,0.5c1.3,0,2.9-0.1,4.1-0.1V31c-1.9-0.1-3.8-0.1-5.9-0.1
		c-0.2,0.3-0.3,0.5-0.5,0.8h4.9v6.1H416.6z M424.7,32.7h-6.8v0.7h6.8V32.7z M424.7,34.3h-6.8v0.8h6.8V34.3z M424.7,35.9h-6.8v0.9
		h6.8V35.9z"/>
</g>
<g class="st1">
	<path d="M440.8,45.9c-2-2.8-4.4-5.2-6.7-6.8c-0.8-0.6-1.3-1.3-1.3-2.1c0-0.7,0.4-1.5,1.2-2.1c2.4-1.8,4.8-4.2,5.5-5.6
		c0.1-0.3,0.2-0.5,0.3-0.5c0,0,0.1,0,0.1,0.1c0.4,0.3,1.7,1.4,1.7,1.7c0,0,0,0.1,0,0.1c0,0-0.1,0.1-0.2,0.1
		c-0.3,0.1-0.4,0.1-0.7,0.4c-2.2,2.1-3.8,3.3-5.7,5c-0.4,0.4-0.6,0.7-0.6,0.9c0,0.3,0.2,0.6,0.6,0.8c2.2,1.6,5.2,4.1,7.3,6.5
		L440.8,45.9z"/>
</g>
<g class="st1">
	<path d="M377,17.9c1.4-1.9,2.8-5,3.6-8c-1.9,0.3-2.3,0.4-2.7,0.6c-0.1,0.1-0.2,0.1-0.2,0.1c-0.2,0-0.7-1.8-0.7-1.9
		c0-0.1,0-0.1,0.1-0.1s0.2,0.1,0.4,0.1h0.2c0.8,0,1.7-0.1,3.2-0.3c0.3-1.4,0.5-2.7,0.5-3.9c0-0.2-0.1-0.3-0.1-0.4c0,0,0-0.1,0.1-0.1
		h0.1c2,0.2,2.1,0.3,2.1,0.4s0,0.1-0.1,0.2c-0.2,0.2-0.2,0.3-0.3,0.6c-0.2,1-0.5,2-0.8,3c2-0.2,2-0.2,2-0.2c2.6,0,2.7,1.9,2.7,3.5
		s-0.2,3.5-0.5,4.6c-0.5,1.9-1.3,2.4-4.2,2.4c-0.1-0.6-0.2-1.2-0.5-1.8c0.5,0.1,0.9,0.1,1.4,0.1c0.8,0,1.5-0.2,1.7-1
		c0.3-1,0.6-3.4,0.6-4.7c0-1.6-0.3-1.9-1.3-1.9c-0.1,0-0.3,0-0.4,0c-0.7,0-1.3,0.1-1.9,0.2c-0.9,3.1-2,6.3-3.5,9.1L377,17.9z
		 M392,12.7c-0.7-1.8-2-3.6-3.5-5l1.3-0.9c1.5,1.3,3,3.1,3.9,4.9L392,12.7z"/>
	<path d="M401.6,19.6c-0.1-0.6-0.4-1.3-0.8-2c0.8,0.2,1.6,0.3,2.3,0.3c3,0,5.1-1.4,5.1-3.2c0-0.8-0.6-2.4-3-2.4
		c-2.5,0-5.9,2.1-6.6,3.3l-1.9-0.7c0.4-1.3,0.7-5.7,0.7-7.1V7.6c0-0.3-0.1-0.4-0.1-0.5s0-0.1,0.1-0.1s1.9,0.1,1.9,0.3
		c0,0.1,0,0.1-0.1,0.2c-0.2,0.5-0.5,1.9-0.8,6c1.6-1.2,3.9-2.6,6.7-2.6c3.9,0,4.6,2.6,4.6,3.9C409.7,17.7,406.6,19.7,401.6,19.6
		L401.6,19.6L401.6,19.6z M403.8,7c-1.2-0.8-3.7-2-5.1-2.3l0.7-1.3c1.4,0.4,3.7,1.4,5.1,2.1L403.8,7z"/>
</g>
<g>
	<path d="M130.5,158.6l-3.9,3.9l-0.5-0.5l3.9-3.9l-3.9-4l0.5-0.5l4,4l4-4l0.5,0.5l-3.9,3.9l3.9,3.9l-0.5,0.5L130.5,158.6z
		 M127.2,158.9c-0.5,0-0.9-0.4-0.9-0.9s0.4-0.9,0.9-0.9c0.5,0,0.9,0.4,0.9,0.9S127.6,158.9,127.2,158.9z M130.5,155.7
		c-0.5,0-0.9-0.4-0.9-0.9s0.4-0.9,0.9-0.9c0.5,0,0.9,0.4,0.9,0.9C131.4,155.3,131,155.7,130.5,155.7z M130.5,162.3
		c-0.5,0-0.9-0.4-0.9-0.9s0.4-0.9,0.9-0.9c0.5,0,0.9,0.4,0.9,0.9C131.4,161.9,131,162.3,130.5,162.3z M133.8,158.9
		c-0.5,0-0.9-0.4-0.9-0.9s0.4-0.9,0.9-0.9c0.5,0,0.9,0.4,0.9,0.9C134.7,158.5,134.3,158.9,133.8,158.9z"/>
	<path d="M140.8,162.5v-6.8H139V155h0c1.1,0,1.9-0.5,2.2-1.1h0.7v8.5H140.8z"/>
	<path d="M158.4,162.5v-0.6c0-1.6,1.1-3,2.8-3.7c1.3-0.5,2-1.3,2-2c0-0.9-0.7-1.5-1.8-1.5c-1,0-1.8,0.8-1.9,2h-1
		c0.1-1.9,1.4-2.9,2.9-2.9c1.8,0,2.8,1,2.8,2.4c0,1.2-0.8,2.1-2.6,2.9c-1.2,0.5-2.1,1.4-2.2,2.5h4.8v0.9H158.4z"/>
	<path d="M165.6,158.2c0-2.6,1-4.4,3.1-4.4s3.2,1.9,3.2,4.4c0,2.7-1,4.4-3.2,4.4S165.6,160.9,165.6,158.2z M170.9,158.2
		c0-2.1-0.7-3.5-2.1-3.5c-1.4,0-2.1,1.3-2.1,3.5c0,2.2,0.7,3.5,2.1,3.5C170.1,161.7,170.9,160.4,170.9,158.2z"/>
	<path d="M173.3,162.5v-0.6c0-1.6,1.1-3,2.8-3.7c1.3-0.5,2-1.3,2-2c0-0.9-0.7-1.5-1.8-1.5c-1,0-1.8,0.8-1.9,2h-1
		c0.1-1.9,1.4-2.9,2.9-2.9c1.8,0,2.8,1,2.8,2.4c0,1.2-0.8,2.1-2.6,2.9c-1.2,0.5-2.1,1.4-2.2,2.5h4.8v0.9H173.3z"/>
	<path d="M180.5,158.2c0-2.6,1-4.4,3.1-4.4s3.2,1.9,3.2,4.4c0,2.7-1,4.4-3.2,4.4S180.5,160.9,180.5,158.2z M185.7,158.2
		c0-2.1-0.7-3.5-2.1-3.5c-1.4,0-2.1,1.3-2.1,3.5c0,2.2,0.7,3.5,2.1,3.5C185,161.7,185.7,160.4,185.7,158.2z"/>
	<path d="M198.8,160.4c-1.4,0-3.9-0.1-4.3-0.1c0,1.2,0,2.3,0,3.1h-1c0-0.7,0-1.8,0.1-3.1c-2,0-3.8,0-5.6,0.1v-1c0.8,0,1.4,0,2.2,0.1
		v-2.9h3.3v-1.5H191c-0.5,0.9-1.2,1.7-2.1,2.4c0,0-0.1-0.4-0.6-0.8c1.3-0.8,2.3-2.5,2.5-3.5c0-0.2,0-0.3,0.1-0.3
		c0.1,0,1.1,0.2,1.1,0.3c0,0.1-0.1,0.1-0.2,0.2c-0.2,0.2-0.3,0.6-0.4,0.8c1.7,0,5.3,0,6.8,0v0.9c-0.8,0-2.4,0-3.8,0v1.5
		c1.1,0,2.3,0,3,0v0.9c-0.8,0-1.9,0-3,0c0,0.6,0,1.4,0,2.1c1.5,0,3,0,4.3-0.1V160.4z M193.5,159.5c0-0.7,0-1.5,0-2.1
		c-1.4,0-2.5,0-2.5,0v2.1c0.6,0,1.2,0,1.7,0H193.5z"/>
	<path d="M201.1,160.5c0.3,0.9,0.9,1.3,1.8,1.3c1,0,2.2-0.9,2.2-3.3c-0.4,0.8-1.3,1.2-2.3,1.2c-1.5,0-2.9-0.9-2.9-2.8c0-2,1.4-3,3-3
		c1.8,0,3.2,1.1,3.2,4.2c0,3.3-1.5,4.7-3.2,4.7c-1.5,0-2.4-0.8-2.9-2.2H201.1z M202.9,154.7c-0.9,0-2,0.6-2,2.1c0,1.3,1.1,1.9,2,1.9
		c1.1,0,2-0.7,2.1-1.8C204.9,155.4,204,154.7,202.9,154.7z"/>
	<path d="M215.2,159.4h-4.7c-0.2,1.4-0.8,2.7-2.2,4c0,0-0.3-0.5-0.7-0.8c1.8-1.3,2.1-2.9,2.1-5.5v-3.7h6.5v8.4c0,1.2-0.5,1.5-2,1.5
		c-0.3,0-0.6,0-0.9,0c0,0-0.1-0.5-0.3-1c0.5,0,0.9,0.1,1.2,0.1c0.9,0,1.1-0.2,1.1-0.7V159.4z M215.2,156.7h-4.6v0.4c0,0.5,0,1,0,1.5
		h4.7V156.7z M215.2,154.3h-4.6v1.6h4.6V154.3z"/>
	<path d="M223.7,160c-1.3,0.6-2.5,1.2-3.3,1.4c-0.1,0-0.3,0.1-0.4,0.3c-0.1,0.1-0.2,0.2-0.2,0.2c-0.2,0-0.4-1-0.4-1.1
		c0-0.1,0-0.1,0.2-0.1c0.3,0,0.9-0.2,1.5-0.4v-2.9c-0.5,0-0.9,0-1.4,0v-0.9c0.5,0,0.9,0.1,1.4,0.1v-2.2c-0.5,0-1.1,0-1.5,0v-0.9
		c0.6,0,1.3,0.1,2,0.1c0.7,0,1.4,0,2-0.1v0.9c-0.5,0-1,0-1.6,0v2.1c0.5,0,0.9,0,1.4-0.1v0.9c-0.5,0-0.9,0-1.4,0v2.6
		c0.6-0.2,1.2-0.5,1.7-0.8V160z M226.9,159.6H226c-0.3,2.3-1.5,3-3.4,3.7c0,0-0.1-0.5-0.5-0.8c1.7-0.5,2.8-1.1,3-2.9H224v-6.3h5.2
		v6.3h-1.4v2.4c0,0.3,0.3,0.4,0.8,0.4c0.7,0,0.8,0,1-1.4c0.4,0.3,0.8,0.4,0.8,0.4c-0.3,1.6-0.6,1.8-1.8,1.8c-1,0-1.6-0.1-1.6-1.1
		V159.6z M228.3,154.1h-3.5v1h3.5V154.1z M228.3,155.8h-3.5v1.1h3.5V155.8z M228.3,157.6h-3.5v1.2h3.5V157.6z"/>
	<path d="M233.5,163.4c0.1-2,0.1-3.7,0.1-4.8c-0.5,0.6-1.1,1.1-1.7,1.6c0,0-0.1-0.6-0.5-1c1.6-1.1,2.7-2.6,3.4-3.9
		c-0.9,0-1.8,0-2.8,0.1v-1c1.1,0,2.1,0.1,3.2,0.1c0.2-0.4,0.3-0.8,0.4-1.2c0-0.2,0-0.4,0.1-0.4c0.2,0,0.8,0.1,1,0.2
		c0.1,0,0.1,0.1,0.1,0.1s0,0.1-0.1,0.2c-0.1,0.2-0.2,0.4-0.3,0.4c-0.1,0.2-0.2,0.4-0.3,0.6c1.8,0,3.5,0,5.5-0.1v1
		c-1.7,0-3.3-0.1-4.9-0.1c-0.3,0-0.6,0-0.9,0c-0.4,0.7-0.8,1.5-1.4,2.3c0,1,0,3.3,0.1,5.8H233.5z M242.2,162.8c-1,0-2.1,0-3.2,0
		c-1.4,0-2.8,0-4.1,0v-0.9c0.9,0.1,1.9,0.1,2.9,0.1c0-1.1,0-2.1,0-3.1c-0.9,0-1.8,0-2.6,0.1v-0.9c0.8,0.1,1.7,0.1,2.6,0.1
		c0-1,0-1.7-0.1-2c0-0.1-0.1-0.2-0.1-0.3c0,0,0-0.1,0.1-0.1h0c1.1,0.1,1.2,0.2,1.2,0.2c0,0.1-0.1,0.1-0.1,0.2
		c-0.1,0.2-0.1,0.5-0.1,1.8c0.9,0,1.8,0,2.6-0.1v0.9c-0.8,0-1.7-0.1-2.6-0.1c0,0.9,0,1.9,0,3.1c1.1,0,2.3,0,3.4-0.1V162.8z"/>
	<path d="M246.3,163.1c-0.8-0.9-1.7-1.9-2.6-2.6l0.6-0.6c0.9,0.7,2,1.7,2.8,2.4L246.3,163.1z"/>
	<path d="M254.9,163.1c-0.1-0.7-0.3-2.4-0.6-4.2c-1.9,0.2-3.8,0.4-4.4,0.6l-0.2-1c0.6,0,2.5-0.2,4.4-0.4c-0.1-0.5-0.2-1.1-0.3-1.6
		c-1.4,0.2-2.7,0.3-3.2,0.4l-0.2-1c0.5,0,1.8-0.1,3.2-0.3c-0.2-1-0.3-1.7-0.5-2c0-0.1-0.1-0.2-0.1-0.2c0,0,0,0,1.3-0.2h0
		c0.1,0,0.1,0,0.1,0.1c0,0,0,0.1,0,0.2c-0.1,0.1-0.1,0.2-0.1,0.4c0,0.2,0.1,0.8,0.2,1.6c1.5-0.2,2.8-0.3,3.3-0.4l0.1,1h-0.1
		c-0.6,0-1.9,0.1-3.3,0.3c0.1,0.5,0.2,1,0.3,1.6c1.7-0.2,3.5-0.4,4-0.5l0.1,1h-0.1c-0.6,0-2.2,0.2-3.9,0.3c0.3,1.8,0.6,3.5,0.8,4.2
		L254.9,163.1z"/>
	<path d="M267.7,160.2c-0.5-0.5-1.2-1-1.9-1.5c-1.3,1.5-2.8,2.9-4.6,3.9c-0.2-0.2-0.6-0.6-0.9-0.7c1.6-0.7,3.3-2.2,4.7-3.8
		c-0.8-0.6-1.6-1.1-2.4-1.5l0.7-0.6c0.7,0.4,1.5,0.9,2.3,1.4c0.9-1.1,1.5-2.3,1.9-3.3c0.1-0.2,0-0.3,0.1-0.3c0.1,0,1.2,0.6,1.2,0.7
		c0,0.1-0.1,0.1-0.2,0.2c-0.2,0.1-0.2,0.2-0.3,0.4c-0.6,0.9-1.2,1.9-1.9,2.8c0.7,0.5,1.4,1,2,1.5L267.7,160.2z"/>
	<path d="M272.9,158.9c-0.5,0-0.8-0.4-0.8-0.8c0-0.5,0.4-0.9,0.8-0.9c0.5,0,0.8,0.4,0.8,0.9C273.8,158.6,273.4,158.9,272.9,158.9z"
		/>
	<path d="M287.2,159.1c-1.7,0.2-3.5,0.3-5.3,0.5v1.9c0,0.4,0.1,0.6,2,0.6c0.5,0,0.9,0,1.4-0.1c0.6-0.1,0.9-0.2,1.1-2.3
		c0.4,0.3,0.9,0.5,0.9,0.5c-0.3,2.1-0.7,2.6-1.6,2.7c-0.5,0-1.1,0-1.7,0c-0.6,0-1.2,0-1.7,0c-0.9,0-1.3-0.5-1.3-1.2v-2
		c-1.5,0.2-2.9,0.3-4.2,0.5l-0.1-0.9c1.4-0.1,2.9-0.2,4.3-0.4v-1.8c-1.2,0.1-2.3,0.3-3.6,0.4l-0.1-0.9c1.3-0.1,2.5-0.2,3.7-0.3v-1.6
		c-1,0.2-2.1,0.3-3.2,0.5c0,0-0.1-0.4-0.4-0.8c3.9-0.3,6.6-1.1,7.2-1.5c0,0,0.1-0.1,0.2-0.1c0.1,0,0.9,0.6,0.9,0.7
		c0,0.1-0.1,0.1-0.2,0.1h-0.1c-0.1,0-0.1,0-0.3,0c-0.9,0.3-2.1,0.6-3.2,0.9v1.6c1.4-0.2,2.7-0.3,4.2-0.6l0.1,0.9
		c-1.5,0.1-2.9,0.3-4.3,0.4v1.8c1.8-0.2,3.5-0.4,5.2-0.7L287.2,159.1z"/>
	<path d="M291.6,156.7c0-0.1,0-0.2,0-0.2s0-0.1,0.1-0.1h0c1,0.1,1.1,0.2,1.1,0.3c0,0.1,0,0.1-0.1,0.2c-0.1,0.1-0.2,0.2-0.2,0.5
		c-0.5,3.2-1.8,4.7-3.4,6c0,0-0.2-0.5-0.6-0.9c1.2-0.8,1.8-1.7,2.4-2.7c0.3-0.7,0.8-2.3,0.8-3V156.7z M297.8,156.5c0-0.5,0-1,0-1.2
		v-0.2H290v0.2c0,0.2,0,0.7,0,1.2H289c0-0.4,0-1.2,0-1.7v-0.6h4.3c0-0.4,0-0.8-0.1-1c0-0.2-0.1-0.3-0.1-0.3c0,0,0-0.1,0.1-0.1h0
		c1.2,0.1,1.2,0.2,1.2,0.2c0,0,0,0.1-0.1,0.2c-0.1,0.1-0.1,0.2-0.1,0.4c0,0.1,0,0.5,0,0.5h4.5v0.3c0,0.5,0,1.4,0,2H297.8z
		 M295.9,156.3c0.1,2.8,1.3,4.9,3.4,6c-0.3,0.4-0.5,1-0.5,1c-2.4-1.6-3.4-3.5-3.8-6.8L295.9,156.3z"/>
	<path d="M305.9,161.5c2.5,0,3.7-1.7,3.7-3.3c0-1.5-1-3-3.1-3.3c-0.5,3.4-2,7.4-3.6,7.4c-0.9,0-2-1.4-2-3.3c0-2.4,1.6-5,4.9-5
		c3,0,4.7,1.9,4.7,4.2c0,2-1.4,4-4.2,4.3c-0.1-0.3-0.3-0.7-0.6-1.1H305.9z M301.9,159c0,1.2,0.6,2.3,1.1,2.3c0.2,0,0.5-0.2,0.7-0.5
		c0.9-1.4,1.7-3.8,2-5.9C303.1,155,301.9,157.1,301.9,159z"/>
	<path d="M314.1,163.4c0-0.8,0.1-3.1,0.1-4.1c-0.4,0.2-0.7,0.3-0.9,0.4c-0.2,0.1-0.3,0.1-0.4,0.3c-0.1,0.1-0.2,0.2-0.2,0.2
		c0,0-0.1,0-0.1-0.1c-0.2-0.4-0.3-0.9-0.3-0.9c0-0.1,0.1-0.1,0.2-0.1c0.3,0,1-0.3,1.8-0.6c0-0.4,0-0.8,0-1.2c0-0.4,0-0.8,0-1.2h-0.8
		c-0.1,0.6-0.3,1.3-0.6,1.9c0,0-0.3-0.4-0.6-0.7c0.4-1,0.6-2.1,0.7-3v-0.3c0-0.1,0-0.1,0.1-0.1h0c0.9,0.2,0.9,0.3,0.9,0.3
		s0,0.1-0.1,0.2c-0.1,0.2-0.2,0.3-0.2,0.4c0,0.2,0,0.3-0.1,0.5h0.7c0-1.1,0-1.8-0.1-2c0-0.1-0.1-0.2-0.1-0.3c0,0,0-0.1,0.1-0.1h0
		c1,0.1,1.1,0.1,1.1,0.2c0,0.1,0,0.1-0.1,0.2c-0.1,0.1-0.1,0.3-0.1,0.5c0,0.2,0,0.7,0,1.4c0.5,0,1,0,1.4,0v0.8c-0.4,0-0.9,0-1.4,0
		c0,0.2,0,0.5,0,0.7c0,0.5,0,0.9,0,1.3c0.6-0.3,1-0.5,1.4-0.7v0.9c-0.5,0.3-0.9,0.5-1.4,0.7c0,1.5,0,3.1,0.1,4.5H314.1z
		 M322.8,157.2c-1.2,0-2.3-0.1-3.4-0.1c-1.1,0-2.2,0-3.3,0.1v-0.9c0.5,0,0.9,0,1.4,0c0.4,0,0.9,0,1.3,0c0-0.4,0-0.9,0-1.3
		c-0.7,0-1.5,0-2.2,0.1v-0.9c0.8,0,1.5,0.1,2.2,0.1c0-0.5,0-0.9-0.1-1.1c0-0.2-0.1-0.3-0.1-0.3c0,0,0-0.1,0.1-0.1h0
		c1,0.1,1.1,0.2,1.1,0.2s0,0.1-0.1,0.2c-0.1,0.2-0.1,0.3-0.1,0.6c0,0.1,0,0.3,0,0.4c0.8,0,1.6,0,2.5-0.1v0.9c-0.9,0-1.7-0.1-2.5-0.1
		c0,0.4,0,0.9,0,1.3c1,0,2,0,3.1-0.1V157.2z M323,159.3c-0.6,0-1.2,0-1.7,0v2.8c0,1-0.4,1.3-1.7,1.3c-0.2,0-0.5,0-0.7,0
		c0,0,0-0.5-0.3-0.9c0.4,0,0.7,0.1,1,0.1c0.7,0,0.8-0.2,0.8-0.6c0-0.3,0-0.7,0-1.2c0-0.5,0-1,0-1.4c-0.4,0-0.7,0-1.1,0
		c-1,0-2,0-3,0.1v-0.9c1.2,0,2.3,0.1,3.4,0.1c0.2,0,0.5,0,0.7,0c0-0.4,0-0.7,0-0.8c0-0.2-0.1-0.3-0.1-0.3c0,0,0-0.1,0.1-0.1h0
		c1,0.1,1,0.1,1,0.2c0,0,0,0.1-0.1,0.2c-0.1,0.2-0.1,0.3-0.1,0.5v0.1c0.6,0,1.1,0,1.7-0.1V159.3z M318.3,161.6
		c-0.5-0.7-0.9-1.3-1.5-1.8l0.6-0.5c0.6,0.5,1,1,1.6,1.7L318.3,161.6z"/>
	<path d="M326,152.9c0.2,0,0.5,0.1,0.8,0.2c0.1,0,0.1,0.1,0.1,0.1c0,0,0,0.1-0.1,0.2c-0.1,0.1-0.2,0.2-0.2,0.3c-0.5,1-1.1,1.9-2,2.8
		c0,0-0.1-0.4-0.4-0.8c0.9-0.8,1.6-2,1.7-2.5C325.9,152.9,325.9,152.9,326,152.9L326,152.9z M325.4,163.4c0-1.4,0-3.5,0-4.8
		c-0.3,0.4-0.6,0.7-0.9,1.1c0,0-0.1-0.5-0.4-0.8c1.1-1.1,1.8-2.7,1.9-3.3c0-0.2,0-0.3,0.1-0.3c0,0,0,0,0.1,0
		c0.3,0.1,0.5,0.1,0.8,0.2c0.1,0,0.1,0.1,0.1,0.1s0,0.1-0.1,0.2c-0.1,0.1-0.2,0.2-0.2,0.3c-0.2,0.5-0.4,0.9-0.6,1.3v1.4
		c0,1.4,0,3.4,0,4.7H325.4z M331.4,161.6c-1.4,0.4-2.7,0.7-3.6,0.9c-0.1,0-0.3,0.1-0.4,0.2c-0.1,0.1-0.2,0.1-0.2,0.1
		c-0.1,0-0.3-0.6-0.3-1c0,0,0-0.1,0-0.1c0-0.1,0.1-0.1,0.2-0.1c0.3,0,0.9-0.1,1.7-0.2V160c-0.5,0-1,0-1.5,0v-0.8c0.3,0,0.5,0,0.7,0
		c0.2,0,0.5,0,0.7,0v-1.1c-0.5,0-1.1,0-1.6,0v-0.9c0.7,0,1.4,0.1,2,0.1s1.4,0,2.1-0.1c0,0-0.1-0.1-0.1-0.1c0.9-1.5,1.1-3.4,1.1-4v0
		c0-0.1,0-0.2,0-0.3s0-0.1,0.1-0.1h0c0.9,0.1,0.9,0.2,0.9,0.3s0,0.1-0.1,0.2c-0.1,0.2-0.1,0.3-0.2,0.4c-0.1,0.5-0.2,0.9-0.3,1.4
		c0.6,0,1.6,0,2.3,0v0.8c-0.2,0-0.3,0-0.5,0c-0.2,2.1-0.5,3.5-0.9,4.6c0.3,0.8,0.8,1.4,1.5,2.1c-0.3,0.3-0.5,0.8-0.5,0.8
		c-0.6-0.7-1.1-1.5-1.5-2.2c-0.5,0.8-1.1,1.4-1.9,2.2c0,0-0.1-0.4-0.5-0.7c0.9-0.7,1.5-1.4,2-2.3c-0.3-0.9-0.6-2-0.7-3.2
		c-0.1,0.3-0.3,0.6-0.4,0.8c0,0-0.1-0.3-0.3-0.6v0.8c-0.6,0-1.2,0-1.7,0v1.1c0.5,0,1,0,1.6-0.1v0.8c-0.6,0-1.1,0-1.6,0v1.3
		c0.6-0.1,1.3-0.3,1.9-0.5V161.6z M327.2,156.5c0-0.3,0-0.7,0-1.2c0-0.6,0-1.3-0.1-1.5c0-0.1-0.1-0.2-0.1-0.3s0-0.1,0.1-0.1h0
		c0.8,0.1,0.9,0.1,0.9,0.2c0,0,0,0.1-0.1,0.2c-0.1,0.1-0.1,0.2-0.1,0.4v1.5h0.8c0-0.7,0-2.3-0.1-2.7c0-0.1-0.1-0.2-0.1-0.3
		c0,0,0-0.1,0.1-0.1h0c0.3,0,0.6,0.1,0.9,0.1c0.1,0,0.1,0,0.1,0.1c0,0,0,0.1-0.1,0.2c-0.1,0.2-0.1,0.7-0.1,2.6h0.9
		c0-0.3,0-1.7-0.1-2c0-0.1-0.1-0.2-0.1-0.3s0-0.1,0.1-0.1h0c0.7,0.1,0.9,0.1,0.9,0.2c0,0,0,0.1-0.1,0.2c-0.1,0.2-0.1,0.3-0.1,1.5
		c0,0.4,0,0.9,0,1.1H327.2z M332.5,155.8c0.2,1.5,0.3,2.7,0.6,3.6c0.3-0.9,0.5-2.1,0.6-3.6c-0.2,0-0.5,0-0.7,0H332.5z"/>
	<path d="M341.4,161c0-0.7,0-1.2,0-1.6c-1.1,0.4-1.9,1-1.9,1.7c0,0.5,0.4,1,2.1,1c1,0,2.1-0.2,2.9-0.5c0,0.3-0.1,0.5-0.1,0.8
		c0,0.1,0,0.3,0,0.4c-0.8,0.1-1.8,0.2-2.7,0.2c-1.2,0-3.2-0.2-3.2-1.8c0-1.2,1.3-1.9,2.8-2.5c0-0.5-0.2-1.1-0.9-1.1
		c-1.1,0-2.1,1.2-3,2.9l-1-0.7c1.2-1.4,2.1-2.8,2.7-4.1c-0.5,0-1.3,0.1-2.1,0.1l-0.1-1c0.3,0.1,0.8,0.1,1.4,0.1c0.4,0,0.8,0,1.2,0
		c0.1-0.4,0.2-0.9,0.3-1.2c0,0,0-0.1,0-0.1c0-0.1,0-0.1,0-0.2s0,0,0.1,0h0c1.2,0.1,1.2,0.2,1.2,0.3s0,0.1-0.1,0.1
		c-0.1,0.1-0.1,0.2-0.2,0.4c-0.1,0.2-0.2,0.5-0.3,0.7c1.2-0.1,2.3-0.3,2.8-0.6l0,1.1c-0.8,0.2-1.8,0.3-3.1,0.4
		c-0.3,0.6-0.5,1.1-0.8,1.7c0.3-0.3,0.9-0.5,1.4-0.5c1.2,0,1.4,1.1,1.5,1.4c0.8-0.4,1.6-0.7,2.4-1.2c0.2-0.1,0.2-0.2,0.3-0.2
		c0,0,0,0,0,0c0.2,0.2,0.5,0.8,0.6,1c0,0,0,0.1,0,0.1c0,0.1-0.1,0.1-0.2,0.1c-0.3,0-0.6,0.1-3.1,1c0,0.5,0,1.2,0,1.9L341.4,161z"/>
	<path d="M350.3,153.4c1,0.2,1,0.3,1,0.4c0,0.1,0,0.1-0.1,0.2c-0.2,0.2-0.3,0.3-0.3,0.4c-0.8,1.7-1.8,2.9-3.2,4.2
		c0,0-0.1-0.5-0.5-0.9c1.5-1,2.8-3,3-3.8C350.2,153.5,350.2,153.4,350.3,153.4L350.3,153.4z M355.8,157.5c-0.1,1.7-0.3,3.5-0.5,4.6
		c-0.2,1-0.6,1.3-1.8,1.3c-0.3,0-0.6,0-1,0c0,0,0-0.5-0.3-1c0.5,0,0.9,0.1,1.2,0.1c0.8,0,0.9-0.2,1-0.7c0.1-0.7,0.3-2.4,0.4-3.4
		c0,0-1.2,0-2.7,0c-0.6,2.5-1.5,3.8-4.3,5c0,0-0.1-0.5-0.5-0.9c2.4-0.7,3.5-2.1,3.9-4.1c-0.7,0-1.4,0-2,0v-0.9c1.5,0,3.6,0,5,0
		H355.8z M354.3,153.4c0.7,1.5,1.8,3.2,3.7,4c-0.3,0.4-0.5,1-0.5,1c-2.1-1.2-3.1-2.7-4-4.7L354.3,153.4z"/>
	<path d="M361.3,163.4c0-1.8,0.1-4,0.1-5.9c-0.5,1.3-1,2.3-1.7,3.4c0,0-0.2-0.6-0.5-1c0.8-1,1.5-2.3,2.1-4c-0.6,0-1.2,0-1.8,0V155
		c0.7,0,1.3,0.1,1.9,0.1c0-1,0-1.7-0.1-1.9c0-0.1-0.1-0.2-0.1-0.3c0,0,0-0.1,0.1-0.1h0c1.1,0.1,1.1,0.2,1.1,0.2s0,0.1-0.1,0.2
		c-0.1,0.2-0.1,0.3-0.1,1.8c0.6,0,1.2,0,1.8-0.1v0.9c-0.6,0-1.2,0-1.8,0c0.5,1,1,1.8,1.7,2.5c-0.3,0.3-0.5,0.8-0.5,0.8
		c-0.5-0.7-0.9-1.3-1.2-2c0,1.9,0,4.2,0.1,6.2H361.3z M367.3,163.4c0.1-1.6,0.1-3.9,0.1-5.3v-1c-0.8,0-1.5,0-2.1,0
		c0,2.7-0.3,4.4-1.6,6.3c0,0-0.3-0.5-0.7-0.7c1.1-1.5,1.4-2.9,1.4-5.6v-3.3c1.8-0.1,3.2-0.4,4-0.6c0.1,0,0.1-0.1,0.1-0.1
		c0,0,0.9,0.5,0.9,0.6c0,0.1-0.1,0.1-0.2,0.1c-0.2,0-0.3,0-0.4,0c-1,0.3-2.2,0.5-3.7,0.6v1.9c1.1,0,3.4,0,4.7,0v0.9
		c-0.5,0-1.2,0-1.8,0v1c0,1.4,0,3.7,0.1,5.3H367.3z"/>
	<path d="M372.5,160.9c0-1.3,0.1-3.6,0.1-5.4c0-0.6,0-1.2,0-1.6c0-0.1-0.1-0.2-0.1-0.2c0,0,0,0,0.1,0h0c0.2,0,0.9,0,1.1,0
		c0.1,0,0.1,0,0.1,0.1c0,0,0,0.1-0.1,0.2c-0.1,0.1-0.1,0.2-0.1,0.4c-0.2,2.3-0.2,4.6-0.2,6.5c0,0.9,0.5,1.3,1.4,1.3
		c1.6,0,3.4-1.4,4.1-2.7c0.1,0.4,0.3,1,0.5,1.2c-1.9,2.1-3.8,2.4-4.7,2.4C373.5,163.1,372.5,162.4,372.5,160.9L372.5,160.9z"/>
	<path d="M381,162.4c0.6-1.1,1.6-3.9,2.1-6.2c-0.5,0-1.1,0-1.7,0l-0.1-1c0.4,0,0.9,0.1,1.4,0.1c0.2,0,0.4,0,0.6,0
		c0.2-0.7,0.3-1.4,0.3-1.9v0c0-0.1,0-0.2,0-0.2c0,0,0-0.1,0.1-0.1h0c0.2,0,0.7,0.1,1,0.2c0.1,0,0.1,0.1,0.1,0.1c0,0,0,0.1-0.1,0.1
		c-0.1,0.1-0.1,0.2-0.5,1.7c0.8-0.1,1.6-0.3,2.3-0.5l0,1c-0.8,0.2-1.6,0.3-2.4,0.4c-0.6,2.3-1.3,4.6-2,6.7L381,162.4z M390.1,162.4
		c-1,0.1-1.8,0.2-2.6,0.2c-1.9,0-2.8-0.5-2.8-1.6c0-0.2,0-0.5,0.1-0.8l0.8,0.1c0,0.2-0.1,0.3-0.1,0.4c0,0.8,0.8,0.9,1.6,0.9
		c0.8,0,1.9-0.1,2.8-0.4L390.1,162.4z M389.3,158c-0.4,0-0.8-0.1-1.3-0.1c-0.8,0-1.7,0.1-2.4,0.2l-0.1-0.9c1.2-0.1,2.5-0.2,3.7-0.2
		L389.3,158z"/>
	<path d="M400.4,163.4c0-0.2,0-0.5,0-0.7c0,0-5.2,0-7.7,0.1v-1c2.4,0.1,7.7,0.1,7.7,0.1c0-0.5,0-1.1,0-1.7c0,0-4.9,0-7.2,0.1v-0.9
		c2.2,0.1,7.2,0.1,7.2,0.1v-1.5h-1.5c-1.6,0-4.1,0-6.2,0.1v-1c1.1,0,2.5,0,3.9,0c0-0.5,0-1.2,0-1.7c0-1,0-1.8-0.1-2.1
		c0-0.2-0.1-0.3-0.1-0.3c0,0,0-0.1,0.1-0.1h0c1.1,0.1,1.1,0.2,1.1,0.2c0,0.1,0,0.1-0.1,0.2c-0.1,0.2-0.1,0.2-0.1,0.4v3.3h3.8v1
		c0,1.5,0,4.2,0,5.4H400.4z M394.6,156.7c-0.5-1.1-1.1-1.8-1.8-2.7l0.8-0.4c0.8,0.9,1.4,1.6,1.9,2.7L394.6,156.7z M400.4,153.8
		c0-0.2,0-0.3,0.1-0.3c0,0,0,0,0.1,0c0.3,0,1,0.1,1,0.3c0,0,0,0.1-0.1,0.2c-0.1,0.1-0.2,0.2-0.3,0.3c-0.3,0.8-0.9,1.6-1.6,2.4
		c0,0-0.3-0.3-0.8-0.5C399.7,155.2,400.3,154.2,400.4,153.8z"/>
	<path d="M405.8,163.4c0-1.4,0-3.6,0-4.8c-0.5,0.5-1.1,1.1-1.7,1.5c0,0-0.1-0.5-0.4-0.9c1.4-1,2.5-2.2,3.3-3.7h-0.4
		c-0.6,0-1.7,0-2.6,0v-0.9c0.5,0,1.2,0,1.7,0v-0.4c0-0.5,0-0.9,0-1.1c0-0.2-0.1-0.3-0.1-0.3c0,0,0-0.1,0.1-0.1h0c1,0.1,1,0.2,1,0.2
		c0,0.1,0,0.1-0.1,0.2c-0.1,0.2-0.1,0.3-0.1,0.8c0,0.2,0,0.4,0,0.6h0.5c0.1,0,0.2,0,0.3-0.1c0,0,0.1,0,0.1,0c0.1,0,0.8,0.4,0.8,0.6
		c0,0.1-0.2,0.2-0.3,0.4c-0.4,0.7-0.8,1.3-1.3,2c0.6,0.6,1.3,1.1,2.1,1.6c-0.3,0.3-0.5,0.8-0.5,0.8c-0.6-0.4-1.1-1-1.6-1.5
		c0,1.4,0,3.6,0,4.9H405.8z M414.5,162.9c-1.2,0-2.4,0-3.6,0c-1.1,0-2.2,0-3.2,0v-1c0.5,0,0.9,0,1.4,0c0.5,0,1,0,1.5,0
		c0-1.4,0-3.3,0-5c-0.8,0-1.6,0-2.3,0.1v-1c0.8,0,1.6,0.1,2.3,0.1c0-1.6,0-2.8-0.1-3c0-0.1-0.1-0.2-0.1-0.3c0,0,0-0.1,0.1-0.1h0
		c1.1,0.1,1.2,0.2,1.2,0.2s0,0.1-0.1,0.2c-0.1,0.2-0.1,0.4-0.1,2.9c0.9,0,1.7,0,2.6-0.1v1c-0.9,0-1.7-0.1-2.6-0.1v5c1,0,2,0,3-0.1
		V162.9z"/>
	<path d="M425.4,157.7c-0.4,0-1.1,0-2.1,0c-0.5,0-1.1,0-1.7,0c0,2.5-0.8,4.4-3,5.6c-0.3-0.2-0.7-0.6-1-0.8c2.4-0.9,3-2.8,3-4.6v-0.3
		c-1.9,0-3.8,0.1-4.4,0.2l0-1.1c0.4,0,1.2,0,2.1,0c2.5,0,6.3-0.1,7.2-0.2L425.4,157.7z M423.5,155.2c-0.4,0-1.1-0.1-2-0.1
		c-1.4,0-3.2,0-3.8,0.1l0-1c0.3,0,1,0,1.8,0c1.5,0,3.4-0.1,4-0.1L423.5,155.2z M424.9,156.2c-0.3-0.4-0.6-0.8-1-1.2l0.5-0.4
		c0.3,0.3,0.7,0.7,1,1.1L424.9,156.2z M425.8,155.6c-0.3-0.4-0.6-0.8-1-1.1l0.5-0.4c0.3,0.3,0.7,0.7,1,1.1L425.8,155.6z"/>
	<path d="M436.7,158.6c-0.4,0-1.5,0-2.8,0c-2.4,0-5.5,0-6.2,0.1v-1.1c0.4,0,1.7,0.1,3.1,0.1c2.3,0,5.2,0,5.9-0.1L436.7,158.6z"/>
	<path d="M442,157.3c0.7,0.4,1.4,0.8,2.1,1.3c0.7-0.9,1.3-1.9,1.6-2.8c-0.9,0-2.4,0-3.9,0.1c-0.7,0.9-1.6,1.8-2.6,2.6
		c-0.3-0.2-0.6-0.5-0.9-0.7c1.6-1,3.1-2.7,3.8-4.2c0.1-0.3,0-0.4,0.1-0.4c0,0,0,0,0.1,0c0.2,0.1,1.2,0.4,1.2,0.5c0,0,0,0.1-0.2,0.2
		c-0.1,0.1-0.2,0.2-0.4,0.4c-0.1,0.2-0.3,0.4-0.5,0.7c1.1,0,2.1,0,3.3-0.1c0.3,0,0.3-0.1,0.3-0.1c0.1,0,1.1,0.7,1.1,0.8
		c0,0.1-0.3,0.2-0.5,0.7c-1.3,2.8-3.5,5.4-7.3,6.8c-0.2-0.3-0.6-0.6-0.8-0.9c2-0.5,3.6-1.6,4.9-2.9c-0.6-0.6-1.4-1.1-2.2-1.6
		L442,157.3z"/>
</g>
</svg>
