<?xml version="1.0" encoding="utf-8"?>
<!-- Generator: Adobe Illustrator 24.3.0, SVG Export Plug-In . SVG Version: 6.00 Build 0)  -->
<svg version="1.1" id="レイヤー_2_1_" xmlns="http://www.w3.org/2000/svg" xmlns:xlink="http://www.w3.org/1999/xlink" x="0px"
	 y="0px" viewBox="0 0 500 230" style="enable-background:new 0 0 500 230;" xml:space="preserve">
<style type="text/css">
	.st0{fill:#181818;}
	.st1{enable-background:new    ;}
</style>
<g>
	<g>
		<g>
			<g>
				<path class="st0" d="M102.4,113.9c-4.3-0.2-8.7-0.8-12.9-1.6C69.3,107.8,52.4,94,44.1,75.5l2.1-0.8
					c7.9,17.8,24.4,31.1,43.9,35.6c4.1,0.9,8.3,1.5,12.4,1.6L102.4,113.9z"/>
			</g>
			<path class="st0" d="M45,134.3L45,134.3l-0.1-2.1H45c6.3,0,12.7-0.6,18.9-1.9c14.3-2.9,27.5-9.2,38-18.1l1.4,1.6
				c-10.8,9.1-24.4,15.6-39,18.6C57.8,133.6,51.4,134.3,45,134.3z"/>
			<path class="st0" d="M93.5,134.3c-6.4,0-13-0.6-19.3-2c-14.7-3-28.1-9.4-39-18.6l1.4-1.6c10.5,8.9,23.7,15.1,38,18.1
				c6.2,1.3,12.6,1.9,18.9,1.9h0.1L93.5,134.3C93.6,134.3,93.6,134.3,93.5,134.3z"/>
			<g>
				<path class="st0" d="M36.1,113.9l-0.1-2.1c4.2-0.2,8.4-0.6,12.4-1.6c19.6-4.5,36-17.8,43.9-35.6l2,0.9
					c-8.2,18.5-25.1,32.3-45.4,36.9C44.6,113.3,40.2,113.8,36.1,113.9z"/>
			</g>
			<path class="st0" d="M69.2,145.4c-19.7,0-34.7-16.1-34.7-37.6c0-15.7,8.9-32.4,17.7-48.6c7-13.1,13.5-25.4,15.7-37.1
				c0.3-1.3,2.3-1.3,2.6,0l0,0c2.1,11.6,8.7,23.9,15.8,37C95,75.3,104,92,104,107.7C103.9,129.1,89,145.4,69.2,145.4z M69.2,26.3
				c-2.8,10.7-8.7,22-15.1,33.8c-8.6,16-17.4,32.5-17.4,47.5c0,20.2,14,35.4,32.5,35.4s32.5-15.2,32.5-35.4
				c0-15.1-8.8-31.7-17.4-47.5C78,48.2,72,37.1,69.2,26.3z"/>
		</g>
		<path class="st0" d="M138.8,54.3c-2.7,0-4.8,2.1-4.8,4.8s2.1,4.8,4.8,4.8s4.8-2.1,4.8-4.8C143.6,56.3,141.4,54.3,138.8,54.3z
			 M138.8,72.5c-2.1,0-3.9,1.7-3.9,3.9v45.2c0,2.1,1.7,3.9,3.9,3.9c2.1,0,3.9-1.7,3.9-3.9V76.4C142.6,74.1,140.9,72.5,138.8,72.5z
			 M304,72.9c-1.8-0.9-4.1-0.2-5,1.7l-15.7,31.9l-16.6-32c-0.9-1.8-3.2-2.6-5.2-1.6c-1.8,1-2.6,3.2-1.6,5.2l19.2,36.8l-10.8,22
			c-0.9,1.8-0.2,4.1,1.7,5c1.8,0.9,4.1,0.2,5-1.7L305.8,78C306.7,76,305.9,73.8,304,72.9z M438.9,72.7c-14.7,0-26.6,11.8-26.6,26.3
			s11.9,26.3,26.6,26.3c8.7,0,17.2-2.8,23.5-11.2c1.3-1.7,1.1-4.2-0.5-5.4c-1.6-1.2-4.1-0.9-5.4,0.9c-4.8,6.3-10.5,8.8-17.3,8.8
			c-9.6,0-17.5-6.9-19.2-16h42c1.9,0,3.4-1.5,3.4-3.3c0-0.1,0-0.1,0-0.1C465.6,84.4,453.6,72.7,438.9,72.7z M420.1,95.7
			c1.6-9.2,9.6-16.1,19.2-16.1c9.7,0,17.2,7,18.8,16.1C458,95.7,420.1,95.7,420.1,95.7z M225.5,72.7c-8-1.2-15.3,2.4-19.5,8.3
			c-4.2-5.9-11.5-9.4-19.5-8.3c-10.1,1.5-17.3,10.5-17.3,20.8v28c0,2.1,1.7,3.9,3.9,3.9s3.9-1.7,3.9-3.9V93.3c0-6.1,4.1-11.7,10-13
			c8.2-1.6,15.3,4.5,15.3,12.3v28.7c0,2.1,1.7,3.9,3.9,3.9c2.1,0,3.9-1.7,3.9-3.9v-28c0-6.1,4.1-11.7,10-13
			c8.2-1.6,15.3,4.5,15.3,12.3v28.7c0,2.1,1.7,3.9,3.9,3.9c2.1,0,3.9-1.7,3.9-3.9V93.4C242.9,83.2,235.7,74.1,225.5,72.7z
			 M377.2,72.7c-8-1.2-15.3,2.4-19.5,8.3c-4.2-5.9-11.5-9.4-19.5-8.3c-10.1,1.5-17.3,10.5-17.3,20.8v28c0,2.1,1.7,3.9,3.9,3.9
			s3.9-1.7,3.9-3.9V93.3c0-6.1,4.1-11.7,10-13c8.2-1.6,15.3,4.5,15.3,12.3v28.7c0,2.1,1.7,3.9,3.9,3.9s3.9-1.7,3.9-3.9v-28
			c0-6.1,4.1-11.7,10-13c8.2-1.6,15.3,4.5,15.3,12.3v28.7c0,2.1,1.7,3.9,3.9,3.9s3.9-1.7,3.9-3.9V93.4
			C394.6,83.2,387.3,74.1,377.2,72.7z"/>
	</g>
</g>
<g>
	<path d="M195.3,21.1V9.8h-2.7V8.6c1.5,0,2.7-0.8,3.3-1.7h1.1v14.3L195.3,21.1L195.3,21.1z"/>
	<path d="M205.3,14c0-4.3,1.6-7.5,5.3-7.5s5.3,3.2,5.3,7.5c0,4.5-1.6,7.5-5.3,7.5C206.9,21.4,205.3,18.6,205.3,14z M214,14
		c0-3.5-1.2-5.8-3.5-5.8s-3.4,2.3-3.4,5.8c0,3.6,1.2,5.8,3.4,5.8S214,17.7,214,14z"/>
	<path d="M227.2,13.4c-0.6,3.6-2.1,7-6.1,9.3c0,0-0.3-0.8-1-1.4c2.7-1.4,4.5-3.9,5.3-6.8c0.4-1.8,0.6-4.3,0.6-6.3
		c-1.9,0-3.9,0.1-5.6,0.1V6.7c2.7,0.1,5.8,0.2,9,0.2c2.9,0,5.7,0,8.3-0.2v1.6c-2.6-0.1-5.6-0.1-8.5-0.1c-0.5,0-1.2,0-1.7,0
		c0,1.2-0.1,2.6-0.2,3.8h7.8c-0.2,3.3-0.5,6.3-0.9,8.2c-0.3,2-1.1,2.5-3.4,2.5c-0.5,0-1.2,0-1.9-0.1c0,0-0.1-0.9-0.4-1.6
		c1,0.1,1.7,0.2,2.4,0.2c1.5,0,1.7-0.3,1.9-1.2c0.3-1.8,0.6-4.5,0.8-6.5L227.2,13.4L227.2,13.4z"/>
	<path d="M250.7,5.1c1.5,0.2,1.9,0.2,1.9,0.3c0,0.1,0,0.2-0.2,0.3c-0.2,0.3-0.2,0.4-0.2,0.8c0.1,8,3.6,12.6,8.5,14.6
		c-0.6,0.6-1,1.5-1,1.5c-3.5-1.9-6.8-4.9-8-10.2c-0.5,3.2-1.9,6.7-7.9,10.2c0,0-0.3-0.9-1.1-1.5c7.3-3.2,8-9.6,8-13.5
		c0-0.9-0.1-1.6-0.1-1.9c0-0.2-0.1-0.3-0.1-0.4S250.5,5.1,250.7,5.1L250.7,5.1z"/>
	<path d="M274,19.6c4.1,0,6.2-2.8,6.2-5.6c0-2.6-1.7-5.2-5.2-5.5c-0.9,5.7-3.3,12.3-6,12.3c-1.5,0-3.3-2.3-3.3-5.6
		c0-4,2.7-8.3,8.3-8.3c5,0,7.7,3.3,7.7,7c0,3.3-2.4,6.8-7,7.3c-0.2-0.5-0.5-1.2-1-1.7h0.3V19.6L274,19.6z M267.2,15.3
		c0,2.1,0.9,3.8,1.8,3.8c0.3,0,0.8-0.3,1.1-0.9c1.5-2.3,2.8-6.3,3.3-9.9C269.5,8.6,267.2,12.1,267.2,15.3z"/>
	<path d="M292.3,15.6h-2.8c-0.2,2.7-0.5,4.8-1.5,7.1c0,0-0.5-0.9-1.2-1.3c1-2.1,1.4-4.5,1.4-8.5V6h5.6v14.4c0,1.7-0.5,2.1-2.6,2.1
		c-0.3,0-0.6,0-1,0c0,0-0.1-0.9-0.3-1.5c0.5,0,1,0.1,1.4,0.1c1,0,1.2-0.2,1.2-0.9v-4.6H292.3z M292.3,11.2h-2.7c0,0,0,2.7,0,3.1h2.8
		L292.3,11.2C292.4,11.2,292.3,11.2,292.3,11.2z M292.3,7.2h-2.7V10h2.7V7.2z M300.7,7.2h-2.8V12c0,4-0.1,7.6-2.7,10.5
		c0,0-0.4-0.8-1.1-1.3c2.1-2.1,2.1-5.4,2.1-8.4V6h5.8v14c0,0.5,0.2,0.6,0.4,0.6c0.5,0,0.8-0.1,0.9-3.2c0.6,0.4,1.5,0.9,1.5,0.9
		c-0.3,3.3-0.5,4-2.3,4c-1.1,0-2-0.2-2-2L300.7,7.2L300.7,7.2z"/>
	<path d="M325.5,13.3c-0.6,0-1.9-0.1-3.5-0.1c-0.9,0-1.9,0-2.9,0c-0.1,4.2-1.4,7.3-5,9.4c-0.4-0.3-1.2-1-1.7-1.3c4-1.5,5-4.7,5-7.6
		v-0.4c-3.2,0.1-6.3,0.2-7.4,0.3v-1.7c0.6,0,1.9,0.1,3.5,0.1c4.2,0,10.5-0.1,11.9-0.3L325.5,13.3z M322.3,9
		c-0.6-0.1-1.9-0.1-3.3-0.1c-2.4,0-5.3,0.1-6.3,0.2V7.2c0.5,0.1,1.6,0.1,3,0.1c2.5,0,5.7-0.1,6.7-0.3v2H322.3z M324.6,10.7
		c-0.4-0.6-1.1-1.4-1.6-1.9l0.9-0.6c0.5,0.5,1.2,1.2,1.7,1.8L324.6,10.7z M326.1,9.6c-0.4-0.6-1-1.4-1.6-1.9l0.9-0.6
		c0.5,0.5,1.3,1.2,1.7,1.8L326.1,9.6z"/>
	<path d="M346.8,14.5c-0.6-0.1-2.6-0.1-4.7-0.1c-4,0-9.2,0.1-10.3,0.2v-1.9c0.6,0.1,2.8,0.1,5.3,0.1c4,0,8.7-0.1,9.8-0.2L346.8,14.5
		L346.8,14.5z"/>
	<path d="M358.1,12.5c1.2,0.6,2.4,1.4,3.5,2.3c1.3-1.5,2.1-3.2,2.7-4.6c-1.5,0-4.1,0.1-6.5,0.2c-1.2,1.5-2.7,2.9-4.4,4.4
		c-0.4-0.3-1-0.9-1.5-1.2c2.7-1.6,5.2-4.5,6.3-7c0.2-0.4,0-0.8,0.2-0.8h0.1c0.3,0.1,2.1,0.6,2.1,0.9c0,0.1-0.1,0.2-0.3,0.3
		c-0.3,0.2-0.3,0.3-0.6,0.8c-0.3,0.3-0.4,0.8-0.8,1.1c1.8,0,3.5-0.1,5.6-0.2c0.4,0,0.4-0.2,0.5-0.2c0.2,0,1.7,1.2,1.7,1.4
		s-0.4,0.3-0.9,1.2c-2.1,4.7-5.9,9-12.2,11.4c-0.3-0.4-0.9-1.1-1.4-1.5c3.3-0.9,6-2.7,8.2-4.8c-1-0.9-2.3-1.8-3.6-2.7L358.1,12.5z"
		/>
</g>
<g>
	<path d="M193.5,40.4c-1.1-1-2.3-2.3-3.1-3.3c0.2,0.9,0.3,1.6,0.3,2.7c0,3.8-1.9,8-5.9,8c-1.3,0-5.4-0.5-5.4-5.2
		c0-2.6,1.3-5.5,3.3-7.6c-1.1,0.3-2.3,0.5-3.2,0.9c-0.3,0.1-0.4,0.1-0.8,0.3c-0.1,0.1-0.2,0.1-0.3,0.1c-0.2,0-0.3-1.8-0.3-2
		c0-0.1,0-0.1,0.1-0.1s0.2,0.1,0.3,0.1s0.3,0,0.4,0c1.2,0,3.3-0.3,4.4-0.6c0.4-0.2,0.5-0.3,0.6-0.3c0.2,0,1.4,1.3,1.4,1.4
		c0,0.1-0.3,0.2-0.8,0.3c-1.8,1.4-4,4.8-4,7.6c0,3.3,2.7,3.8,3.9,3.8c2.8,0,4.4-3.3,4.4-6.9c0-2.1-0.5-4.2-1.6-5.9l1.7-0.5
		c0.5,2.1,3.3,4.7,5.2,5.9L193.5,40.4z M193.3,35.7c-1,0-1.8-0.9-1.8-1.8c0-1,0.9-1.8,1.8-1.8s1.8,0.9,1.8,1.8
		C195.1,34.9,194.2,35.7,193.3,35.7z M193.3,32.9c-0.5,0-1,0.4-1,1s0.4,1,1,1s1-0.4,1-1C194.2,33.2,193.8,32.9,193.3,32.9z"/>
	<path d="M203.9,44.6c0.2,0,0.3,0,0.6,0c4.4,0,8-1.7,8-4.3c0-1.4-0.9-2.7-3.9-2.7s-6.9,1.3-7.5,1.8c-0.2,0.1-0.3,0.2-0.3,0.2
		c-0.3,0-0.8-1.5-0.9-1.6v-0.1c0-0.2,0.3,0,0.9-0.2c2.1-0.4,5.3-1.4,7.9-1.4c4.6,0,5.3,2.9,5.3,4.2c0,3-3.4,5.4-9.3,5.7
		C204.4,45.7,204.2,44.9,203.9,44.6z"/>
	<path d="M219.6,46.7c1.1-1.8,2.7-6.4,3.5-10.4c-0.9,0-1.8,0.1-2.8,0.1l-0.2-1.6c0.6,0.1,1.5,0.2,2.4,0.2c0.3,0,0.6,0,0.9,0
		c0.3-1.3,0.4-2.3,0.4-3.1l0,0c0-0.2-0.1-0.3-0.1-0.3c0-0.1,0-0.1,0.1-0.1h0.1c0.3,0,1.2,0.2,1.6,0.3c0.2,0,0.3,0.1,0.3,0.2
		c0,0.1,0,0.1-0.1,0.2c-0.2,0.2-0.2,0.3-0.9,2.8c1.4-0.2,2.7-0.4,3.8-0.9l-0.1,1.6c-1.4,0.3-2.7,0.5-4,0.6c-1,4-2.1,7.7-3.3,11.2
		L219.6,46.7z M234.9,46.7c-1.6,0.3-3.1,0.3-4.3,0.3c-3.1,0-4.6-0.9-4.6-2.7c0-0.3,0.1-0.9,0.2-1.3l1.4,0.2
		c-0.1,0.3-0.1,0.5-0.1,0.8c0,1.3,1.4,1.5,2.7,1.5s3.2-0.2,4.6-0.8L234.9,46.7z M233.5,39.3c-0.6-0.1-1.4-0.1-2.1-0.1
		c-1.4,0-2.8,0.1-4,0.3l-0.1-1.5c1.9-0.2,4.3-0.3,6.2-0.3L233.5,39.3L233.5,39.3z"/>
	<path d="M241.4,42.9c-0.5-1.2-0.6-2.9-0.6-4.6c0-2.1,0.3-4.5,0.3-5.7v-0.1c0-0.1,0-0.2,0-0.3s0-0.1,0.1-0.1h0.1
		c1.9,0.4,2,0.5,2,0.6s0,0.1-0.1,0.2c-0.2,0.2-0.3,0.3-0.4,0.8c-0.3,1.2-0.4,2.7-0.4,4.2c0,0.6,0,1.2,0.2,1.6l1.5-2.7l0.9,0.5
		c-1.2,2.4-1.5,3.6-1.5,5L241.4,42.9z M249,40.3c0-0.3,0-0.8,0-1.2c0-2.1-0.2-5.2-0.4-6.3c-0.1-0.3-0.2-0.4-0.2-0.5
		c0,0,0-0.1,0.2-0.1c2.1,0,2.3,0.2,2.3,0.3s0,0.2-0.1,0.3c-0.2,0.3-0.2,0.5-0.2,1.6c0,1.4,0.1,3,0.1,4.6c0,1.8,0,7.5-6.5,9.6
		c-0.3-0.5-0.9-1.2-1.4-1.6C246.5,46.3,248.8,43.7,249,40.3z"/>
	<path d="M258.3,44c1.3-1.5,3-5.2,4.1-8.3c-0.9,0.1-1.5,0.1-2.3,0.1c-0.3,0-0.8,0-1.1,0l-0.1-1.6c0.5,0.1,1.3,0.2,2,0.2
		c0.5,0,1.2,0,1.9-0.1c0.3-0.9,0.3-1.7,0.4-2.4v-0.3c0-0.1,0-0.2,0.1-0.2l0,0c1.7,0.3,1.9,0.3,1.9,0.5c0,0.1-0.1,0.2-0.2,0.3
		c-0.2,0.2-0.3,0.4-0.8,1.9c0.9-0.2,1.8-0.3,2.7-0.6l-0.2,1.6c-1,0.2-2,0.3-3,0.5c-1.1,3.2-2.6,6.7-4,9.4L258.3,44z M272.7,46.7
		c-0.9-0.9-1.8-1.4-2.7-1.8v0.2c0,1.8-1.7,2.7-3.6,2.7s-4-0.9-4-2.7c0-0.4,0.2-2.6,3.3-2.6c0.6,0,1.5,0.1,2.3,0.3
		c-0.2-1-0.4-2-0.4-3c0-2.4,1.4-3.2,2.7-3.2c0.1,0,0.2,0,0.2,0c-0.6-0.3-2.1-0.9-2.9-1.1l0.9-1.1c1.5,0.5,3.5,1.3,5.4,2.3l-0.9,1.5
		c-0.6-0.4-1.3-0.6-1.8-0.6c-0.3,0-2.1,0.1-2.1,2.3c0,1,0.3,2.3,0.6,3.5c1.2,0.4,2.7,1.2,4,2L272.7,46.7z M268.3,44.3
		c-1-0.3-1.8-0.4-2.6-0.4c-1.1,0-1.7,0.3-1.8,1c0,0.1,0,0.1,0,0.2c0,0.9,1.2,1.4,2.4,1.4c1,0,2-0.4,2-1.5V44.3L268.3,44.3z"/>
	<path d="M294.2,46.8c-1.5-1.7-3.8-3.9-5.8-5.5c-1.8,2.1-4.1,4.1-7,5.8c-0.3-0.3-1.1-1-1.5-1.4c5.2-2.5,9.2-7.2,10.6-10.8
		c-2.5,0-6.4,0.2-8.2,0.4l-0.1-1.9c0.8,0.1,1.9,0.1,3.3,0.1c1.7,0,3.9-0.1,5.3-0.2c0.3,0,0.3-0.2,0.5-0.2s1.7,1.1,1.7,1.3
		s-0.4,0.3-0.8,0.9c-0.9,1.6-1.8,3.2-3,4.8c2.1,1.5,4.6,3.5,6.3,5.3L294.2,46.8z"/>
	<path d="M309.2,47.9c-0.1-1.2-0.4-4-1-7.1c-3.2,0.3-6.3,0.8-7.3,0.9l-0.3-1.7c1,0,4.1-0.3,7.3-0.6c-0.1-0.9-0.3-1.8-0.4-2.7
		c-2.3,0.3-4.5,0.5-5.3,0.8l-0.3-1.6c0.9,0,3-0.2,5.3-0.4c-0.3-1.6-0.5-2.9-0.8-3.3c-0.1-0.2-0.2-0.3-0.2-0.3c0-0.1,0-0.1,2.1-0.3
		h0.1c0.2,0,0.2,0,0.2,0.2c0,0.1,0,0.2-0.1,0.3c-0.2,0.3-0.2,0.3-0.2,0.8c0,0.3,0.2,1.4,0.3,2.7c2.5-0.3,4.7-0.5,5.6-0.8l0.2,1.6
		h0.1c-0.9,0-3.1,0.2-5.5,0.4c0.2,0.9,0.3,1.7,0.4,2.7c2.9-0.3,5.8-0.6,6.8-0.9l0.2,1.7h-0.1c-1,0-3.6,0.3-6.5,0.5
		c0.5,3,1.1,5.8,1.4,7L309.2,47.9z"/>
	<path d="M325.8,46.5c-0.5,0.3-0.8,0.3-1,0.6c-0.2,0.2-0.3,0.3-0.3,0.3c-0.2,0-1.4-1.9-1.4-2.1s0.3-0.1,0.9-0.2
		c4.5-1.3,10.3-4.9,13.2-8.4c0.3,0.3,0.6,1,1,1.4C334.9,41.6,329.9,44.7,325.8,46.5z M327.1,37c-1-1.1-2.7-2.5-3.9-3.2l1.3-1.2
		c1.2,0.8,2.7,1.8,3.9,2.9L327.1,37z"/>
	<path d="M360.2,37.3c-0.9-0.1-2.7-0.1-4.8-0.1c-0.6,4.6-2.9,8.2-6.5,10.5c-0.4-0.3-1.1-0.9-1.6-1.2c3.6-1.5,6-5.3,6.5-9.2
		c-2.1,0-4.2,0.1-5.4,0.1c-0.8,1.2-1.6,2.3-2.7,3.4c-0.4-0.3-1.1-0.8-1.6-1c2.1-1.5,4.5-5.6,4.9-7.6c0.1-0.4,0-0.6,0.2-0.6
		c0,0,0.1,0,0.2,0c2,0.5,2.1,0.5,2.1,0.8c0,0.1-0.1,0.2-0.3,0.3c-0.3,0.2-0.3,0.3-0.6,0.8c-0.4,0.9-0.9,1.7-1.3,2.6
		c3.2,0,9.3-0.1,11.1-0.3L360.2,37.3z"/>
	<path d="M366.7,33.3c0.6,0.1,2,0.1,3.6,0.1c3.6,0,8.5-0.2,9.4-0.2c0.3,0,0.3-0.3,0.5-0.3s1.8,1,1.8,1.2s-0.3,0.3-0.6,0.8
		c-1.3,2.1-2.7,4.3-5.4,6c-0.3-0.3-1-0.9-1.4-1.3c2.6-1.2,4-3.2,4.8-5c-3.1,0.1-10.8,0.2-13,0.5L366.7,33.3z M373.2,36.5
		c2,0.2,2,0.3,2,0.3s0,0.2-0.1,0.3s-0.2,0.3-0.2,0.8c-0.4,4-1.5,7.6-6,10.1c-0.3-0.3-1-0.9-1.5-1.3c4.3-1.5,5.7-5.8,5.7-8.9
		c0-0.3,0-0.5,0-0.8s-0.1-0.3-0.1-0.4C372.8,36.5,372.9,36.5,373.2,36.5L373.2,36.5z"/>
</g>
<g class="st1">
	<path d="M413.7,5.9l3.6,3.6l3.6-3.6l0.3,0.3l-3.6,3.6l3.6,3.6l-0.3,0.3l-3.6-3.6l-3.6,3.6l-0.3-0.3l3.6-3.6l-3.6-3.6L413.7,5.9z
		 M414.2,10.8c-0.4,0-0.9-0.3-0.9-0.9c0-0.5,0.3-0.9,0.9-0.9s0.9,0.3,0.9,0.9S414.7,10.8,414.2,10.8z M416.6,6.9
		c0-0.4,0.3-0.9,0.9-0.9s0.9,0.3,0.9,0.9c0,0.4-0.3,0.9-0.9,0.9C416.9,7.7,416.6,7.2,416.6,6.9z M418.2,13.1c0,0.4-0.3,0.9-0.9,0.9
		s-0.9-0.3-0.9-0.9s0.3-0.9,0.9-0.9C417.9,12.2,418.2,12.7,418.2,13.1z M420.5,9.1c0.4,0,0.9,0.3,0.9,0.9c0,0.4-0.3,0.9-0.9,0.9
		c-0.5,0-0.9-0.3-0.9-0.9C419.6,9.5,420,9.1,420.5,9.1z"/>
	<path d="M426.9,14.1h-1V7.9c-0.3,0.2-0.5,0.4-0.9,0.6s-0.8,0.3-1,0.4V8.1c0.5-0.3,1-0.5,1.4-0.9c0.3-0.3,0.8-0.8,0.9-1h0.6V14.1
		L426.9,14.1z"/>
</g>
<g class="st1">
	<path d="M394.3,44.3c0-1.1,0-2,0-2.7c-1.8,0.7-3.1,1.7-3.1,2.8c0,0.8,0.6,1.6,3.6,1.6c1.6,0,3.5-0.3,4.8-0.8
		c-0.1,0.4-0.1,0.9-0.1,1.3c0,0.2,0,0.5,0,0.7c-1.4,0.1-3,0.3-4.5,0.3c-2,0-5.3-0.3-5.3-3.1c0-1.9,2.1-3.2,4.6-4.2
		c-0.1-0.8-0.3-1.8-1.5-1.8c-1.9,0-3.5,2-4.9,4.8l-1.6-1.1c2.1-2.3,3.5-4.6,4.5-6.8c-0.8,0-2.2,0.1-3.5,0.1l-0.2-1.7
		c0.5,0.1,1.3,0.2,2.3,0.2c0.6,0,1.3,0,2-0.1c0.2-0.7,0.4-1.4,0.5-2.1c0-0.1,0-0.1,0-0.1c0-0.1,0-0.2,0-0.3c0-0.1,0-0.1,0.1-0.1h0.1
		c1.9,0.2,2,0.4,2,0.4c0,0.1,0,0.1-0.1,0.2c-0.2,0.2-0.2,0.3-0.4,0.7c-0.1,0.4-0.3,0.8-0.4,1.1c2-0.2,3.8-0.5,4.6-0.9v1.8
		c-1.3,0.3-3,0.5-5.2,0.7c-0.4,1-0.8,1.9-1.4,2.8c0.6-0.5,1.5-0.8,2.3-0.8c2,0,2.3,1.8,2.4,2.4c1.4-0.6,2.7-1.2,4-1.9
		c0.3-0.1,0.3-0.3,0.4-0.3c0,0,0.1,0,0.1,0.1c0.3,0.4,0.8,1.3,1,1.6c0,0.1,0,0.1,0,0.1c0,0.1-0.1,0.2-0.3,0.2
		c-0.4,0-0.9,0.1-5.1,1.7c0,0.8,0.1,1.9,0.1,3.2L394.3,44.3z"/>
</g>
<g class="st1">
	<path d="M423.7,44.6c-1.3,0-2.7-0.1-4.1-0.1V46c0,1.6-0.7,2.2-3.1,2.2c-0.3,0-0.7,0-1,0c0,0-0.1-0.7-0.5-1.5
		c0.7,0.1,1.3,0.1,1.7,0.1c1.2,0,1.5-0.2,1.5-0.8v-1.5c-0.9,0-1.7,0-2.6,0c-3.1,0-6.1,0.1-9.1,0.1v-1.4c2.8,0.1,5.8,0.1,8.7,0.1
		c1,0,2,0,2.9,0v-0.9c-1.4,0-3,0-4.6-0.1c-2-0.1-3.1-0.9-3.9-1.9c-0.7,0.7-1.6,1.3-2.1,1.7c-0.2,0.2-0.3,0.2-0.4,0.4
		s-0.2,0.3-0.3,0.3c-0.2,0-0.9-1.3-0.9-1.4c0-0.1,0.2-0.1,0.3-0.2c0.8-0.3,2-1.1,2.9-2v-2.6h-0.4c-0.5,0-1.3,0-2.1,0.1v-1.4
		c0.8,0.1,2.3,0.1,3.1,0.1h0.7v4.3c1.4,1.5,2.2,1.5,6.5,1.5c2.4,0,4.6-0.1,7-0.2c-0.5,0.7-0.6,1.4-0.6,1.4h-3.9v0.9
		c1.4,0,2.7-0.1,4.1-0.1v1.4C423.5,44.6,423.7,44.6,423.7,44.6z M409.7,34.2c-0.8-0.9-1.8-1.7-2.8-2.3l0.9-0.9
		c1,0.6,1.9,1.2,2.9,2.1L409.7,34.2z M413.1,47.6c-1-0.9-2.1-1.5-3.4-2.1l0.9-0.9c1.2,0.5,2.4,1.2,3.6,2.1L413.1,47.6z M412.6,40.3
		v-6.1h3.2c0.2-0.3,0.4-0.5,0.5-0.8c-1.7,0-3.7,0-5.1,0.1v-1.2c1.1,0,2.5,0.1,3.7,0.1c-0.3-0.4-0.8-0.7-1.2-1.1l1.2-0.5
		c0.5,0.5,1,1,1.4,1.6h1.9c0.4-0.4,0.6-0.9,0.7-1.2c0.1-0.3,0.1-0.4,0.2-0.4h0.1c0.4,0.1,0.8,0.2,1.2,0.4c0.1,0,0.2,0.1,0.2,0.2
		s-0.1,0.2-0.2,0.2c-0.2,0.1-0.3,0.2-0.4,0.3c-0.2,0.2-0.3,0.3-0.5,0.5c1.3,0,2.9-0.1,4.1-0.1v1.2c-1.9-0.1-3.8-0.1-5.9-0.1
		c-0.2,0.3-0.3,0.5-0.5,0.8h4.9v6.1H412.6z M420.7,35.1h-6.8v0.7h6.8V35.1z M420.7,36.7h-6.8v0.8h6.8V36.7z M420.7,38.3h-6.8v0.9
		h6.8V38.3z"/>
</g>
<g class="st1">
	<path d="M436.7,48.3c-2-2.8-4.4-5.2-6.7-6.8c-0.8-0.6-1.3-1.3-1.3-2.1c0-0.7,0.4-1.5,1.2-2.1c2.4-1.8,4.8-4.2,5.5-5.6
		c0.1-0.3,0.2-0.5,0.3-0.5c0,0,0.1,0,0.1,0.1c0.4,0.3,1.7,1.4,1.7,1.7v0.1c0,0-0.1,0.1-0.2,0.1c-0.3,0.1-0.4,0.1-0.7,0.4
		c-2.2,2.1-3.8,3.3-5.7,5c-0.4,0.4-0.6,0.7-0.6,0.9c0,0.3,0.2,0.6,0.6,0.8c2.2,1.6,5.2,4.1,7.3,6.5L436.7,48.3z"/>
</g>
<g class="st1">
	<path d="M372.9,20.3c1.4-1.9,2.8-5,3.6-8c-1.9,0.3-2.3,0.4-2.7,0.6c-0.1,0.1-0.2,0.1-0.2,0.1c-0.2,0-0.7-1.8-0.7-1.9
		c0-0.1,0-0.1,0.1-0.1s0.2,0.1,0.4,0.1h0.2c0.8,0,1.7-0.1,3.2-0.3c0.3-1.4,0.5-2.7,0.5-3.9c0-0.2-0.1-0.3-0.1-0.4c0,0,0-0.1,0.1-0.1
		h0.1c2,0.2,2.1,0.3,2.1,0.4s0,0.1-0.1,0.2c-0.2,0.2-0.2,0.3-0.3,0.6c-0.2,1-0.5,2-0.8,3c2-0.2,2-0.2,2-0.2c2.6,0,2.7,1.9,2.7,3.5
		s-0.2,3.5-0.5,4.6c-0.5,1.9-1.3,2.4-4.2,2.4c-0.1-0.6-0.2-1.2-0.5-1.8c0.5,0.1,0.9,0.1,1.4,0.1c0.8,0,1.5-0.2,1.7-1
		c0.3-1,0.6-3.4,0.6-4.7c0-1.6-0.3-1.9-1.3-1.9c-0.1,0-0.3,0-0.4,0c-0.7,0-1.3,0.1-1.9,0.2c-0.9,3.1-2,6.3-3.5,9.1L372.9,20.3z
		 M387.9,15.1c-0.7-1.8-2-3.6-3.5-5l1.3-0.9c1.5,1.3,3,3.1,3.9,4.9L387.9,15.1z"/>
	<path d="M397.5,22c-0.1-0.6-0.4-1.3-0.8-2c0.8,0.2,1.6,0.3,2.3,0.3c3,0,5.1-1.4,5.1-3.2c0-0.8-0.6-2.4-3-2.4
		c-2.5,0-5.9,2.1-6.6,3.3l-1.9-0.7c0.4-1.3,0.7-5.7,0.7-7.1V10c0-0.3-0.1-0.4-0.1-0.5s0-0.1,0.1-0.1s1.9,0.1,1.9,0.3
		c0,0.1,0,0.1-0.1,0.2c-0.2,0.5-0.5,1.9-0.8,6c1.6-1.2,3.9-2.6,6.7-2.6c3.9,0,4.6,2.6,4.6,3.9C405.6,20.1,402.5,22.1,397.5,22
		L397.5,22L397.5,22z M399.7,9.4c-1.2-0.8-3.7-2-5.1-2.3l0.7-1.3c1.4,0.4,3.7,1.4,5.1,2.1L399.7,9.4z"/>
</g>
<g>
	<path d="M172.1,217.4l-3.4,3.4l-0.4-0.4l3.4-3.4l-3.4-3.5l0.4-0.4l3.5,3.5l3.5-3.5l0.4,0.4l-3.4,3.4l3.4,3.4l-0.4,0.4L172.1,217.4z
		 M169.2,217.6c-0.4,0-0.8-0.4-0.8-0.8c0-0.4,0.4-0.8,0.8-0.8s0.8,0.4,0.8,0.8C170,217.3,169.6,217.6,169.2,217.6z M172.1,214.8
		c-0.4,0-0.8-0.4-0.8-0.8c0-0.4,0.4-0.8,0.8-0.8c0.4,0,0.8,0.4,0.8,0.8C172.9,214.5,172.5,214.8,172.1,214.8z M172.1,220.6
		c-0.4,0-0.8-0.4-0.8-0.8c0-0.4,0.4-0.8,0.8-0.8c0.4,0,0.8,0.4,0.8,0.8S172.5,220.6,172.1,220.6z M175.1,217.6
		c-0.4,0-0.8-0.4-0.8-0.8c0-0.4,0.4-0.8,0.8-0.8c0.4,0,0.8,0.4,0.8,0.8C175.9,217.3,175.5,217.6,175.1,217.6z"/>
	<path d="M181.2,220.8v-6h-1.6v-0.6l0,0c1,0,1.7-0.4,1.9-1h0.6v7.5L181.2,220.8L181.2,220.8z"/>
	<path d="M196.6,220.8v-0.5c0-1.4,1-2.6,2.5-3.3c1.1-0.4,1.8-1.1,1.8-1.8c0-0.8-0.6-1.3-1.6-1.3c-0.9,0-1.6,0.7-1.7,1.8h-0.9
		c0.1-1.7,1.2-2.6,2.6-2.6c1.6,0,2.5,0.9,2.5,2.1c0,1.1-0.7,1.8-2.3,2.6c-1.1,0.4-1.8,1.2-1.9,2.2h4.2v0.8H196.6L196.6,220.8z"/>
	<path d="M203.1,217c0-2.3,0.9-3.9,2.7-3.9s2.8,1.7,2.8,3.9c0,2.4-0.9,3.9-2.8,3.9S203.1,219.4,203.1,217z M207.7,217
		c0-1.8-0.6-3.1-1.8-3.1s-1.8,1.1-1.8,3.1c0,1.9,0.6,3.1,1.8,3.1S207.7,219,207.7,217z"/>
	<path d="M209.8,220.8v-0.5c0-1.4,1-2.6,2.5-3.3c1.1-0.4,1.8-1.1,1.8-1.8c0-0.8-0.6-1.3-1.6-1.3c-0.9,0-1.6,0.7-1.7,1.8h-0.9
		c0.1-1.7,1.2-2.6,2.6-2.6c1.6,0,2.5,0.9,2.5,2.1c0,1.1-0.7,1.8-2.3,2.6c-1.1,0.4-1.8,1.2-1.9,2.2h4.2v0.8H209.8L209.8,220.8z"/>
	<path d="M216.1,217c0-2.3,0.9-3.9,2.7-3.9s2.8,1.7,2.8,3.9c0,2.4-0.9,3.9-2.8,3.9S216.1,219.4,216.1,217z M220.8,217
		c0-1.8-0.6-3.1-1.8-3.1s-1.8,1.1-1.8,3.1c0,1.9,0.6,3.1,1.8,3.1C220.1,220.1,220.8,219,220.8,217z"/>
	<path d="M232.2,219c-1.2,0-3.4-0.1-3.8-0.1c0,1.1,0,2,0,2.7h-0.9c0-0.6,0-1.6,0.1-2.7c-1.8,0-3.3,0-4.9,0.1v-0.9
		c0.7,0,1.2,0,1.9,0.1v-2.6h2.9v-1.3h-2.2c-0.4,0.8-1.1,1.5-1.8,2.1c0,0-0.1-0.4-0.5-0.7c1.1-0.7,2-2.2,2.2-3.1c0-0.2,0-0.3,0.1-0.3
		s1,0.2,1,0.3s-0.1,0.1-0.2,0.2c-0.2,0.2-0.3,0.5-0.4,0.7c1.5,0,4.7,0,6,0v0.8c-0.7,0-2.1,0-3.3,0v1.3c1,0,2,0,2.6,0v0.8
		c-0.7,0-1.7,0-2.6,0c0,0.5,0,1.2,0,1.8c1.3,0,2.6,0,3.8-0.1L232.2,219L232.2,219z M227.6,218.2c0-0.6,0-1.3,0-1.8
		c-1.2,0-2.2,0-2.2,0v1.8c0.5,0,1.1,0,1.5,0H227.6z"/>
	<path d="M234.3,219.1c0.3,0.8,0.8,1.1,1.6,1.1c0.9,0,1.9-0.8,1.9-2.9c-0.4,0.7-1.1,1.1-2,1.1c-1.3,0-2.6-0.8-2.6-2.5
		c0-1.8,1.2-2.6,2.6-2.6c1.6,0,2.8,1,2.8,3.7c0,2.9-1.3,4.1-2.8,4.1c-1.3,0-2.1-0.7-2.6-1.9L234.3,219.1L234.3,219.1z M235.8,213.9
		c-0.8,0-1.8,0.5-1.8,1.8c0,1.1,1,1.7,1.8,1.7c1,0,1.8-0.6,1.8-1.6C237.6,214.6,236.8,213.9,235.8,213.9z"/>
	<path d="M246.7,218.1h-4.1c-0.2,1.2-0.7,2.4-1.9,3.5c0,0-0.3-0.4-0.6-0.7c1.6-1.1,1.8-2.6,1.8-4.8v-3.3h5.7v7.4
		c0,1.1-0.4,1.3-1.8,1.3c-0.3,0-0.5,0-0.8,0c0,0-0.1-0.4-0.3-0.9c0.4,0,0.8,0.1,1.1,0.1c0.8,0,1-0.2,1-0.6L246.7,218.1L246.7,218.1z
		 M246.7,215.7h-4.1v0.4c0,0.4,0,0.9,0,1.3h4.1V215.7L246.7,215.7z M246.7,213.6h-4.1v1.4h4.1V213.6z"/>
	<path d="M254.2,218.6c-1.1,0.5-2.2,1.1-2.9,1.2c-0.1,0-0.3,0.1-0.4,0.3c-0.1,0.1-0.2,0.2-0.2,0.2c-0.2,0-0.4-0.9-0.4-1
		s0-0.1,0.2-0.1c0.3,0,0.8-0.2,1.3-0.4v-2.6c-0.4,0-0.8,0-1.2,0v-0.8c0.4,0,0.8,0.1,1.2,0.1v-1.8c-0.4,0-1,0-1.3,0v-0.8
		c0.5,0,1.1,0.1,1.8,0.1s1.2,0,1.8-0.1v0.8c-0.4,0-0.9,0-1.4,0v1.8c0.4,0,0.8,0,1.2-0.1v0.8c-0.4,0-0.8,0-1.2,0v2.3
		c0.5-0.2,1.1-0.4,1.5-0.7L254.2,218.6L254.2,218.6z M257,218.3h-0.8c-0.3,2-1.3,2.6-3,3.3c0,0-0.1-0.4-0.4-0.7
		c1.5-0.4,2.5-1,2.6-2.6h-1.1v-5.6h4.6v5.5h-1.2v2.1c0,0.3,0.3,0.4,0.7,0.4c0.6,0,0.7,0,0.9-1.2c0.4,0.3,0.7,0.4,0.7,0.4
		c-0.3,1.4-0.5,1.6-1.6,1.6c-0.9,0-1.4-0.1-1.4-1L257,218.3L257,218.3z M258.3,213.4h-3.1v0.9h3.1V213.4z M258.3,214.9h-3.1v1h3.1
		V214.9z M258.3,216.6h-3.1v1.1h3.1V216.6z"/>
	<path d="M262.9,221.6c0.1-1.8,0.1-3.3,0.1-4.2c-0.4,0.5-1,1-1.5,1.4c0,0-0.1-0.5-0.4-0.9c1.4-1,2.4-2.3,3-3.4c-0.8,0-1.6,0-2.5,0.1
		v-0.9c1,0,1.8,0.1,2.8,0.1c0.2-0.4,0.3-0.7,0.4-1.1c0-0.2,0-0.4,0.1-0.4c0.2,0,0.7,0.1,0.9,0.2c0.1,0,0.1,0.1,0.1,0.1
		s0,0.1-0.1,0.2c-0.1,0.2-0.2,0.4-0.3,0.4c-0.1,0.2-0.2,0.4-0.3,0.5c1.6,0,3.1,0,4.8-0.1v0.9c-1.5,0-2.9-0.1-4.3-0.1
		c-0.3,0-0.5,0-0.8,0c-0.4,0.6-0.7,1.3-1.2,2c0,0.9,0,2.9,0.1,5.1L262.9,221.6L262.9,221.6z M270.5,221.1c-0.9,0-1.8,0-2.8,0
		c-1.2,0-2.5,0-3.6,0v-0.8c0.8,0.1,1.7,0.1,2.6,0.1c0-1,0-1.8,0-2.7c-0.8,0-1.6,0-2.3,0.1V217c0.7,0.1,1.5,0.1,2.3,0.1
		c0-0.9,0-1.5-0.1-1.8c0-0.1-0.1-0.2-0.1-0.3c0,0,0-0.1,0.1-0.1l0,0c1,0.1,1.1,0.2,1.1,0.2c0,0.1-0.1,0.1-0.1,0.2
		c-0.1,0.2-0.1,0.4-0.1,1.6c0.8,0,1.6,0,2.3-0.1v0.8c-0.7,0-1.5-0.1-2.3-0.1c0,0.8,0,1.7,0,2.7c1,0,2,0,3-0.1V221.1L270.5,221.1z"/>
	<path d="M274.2,221.3c-0.7-0.8-1.5-1.7-2.3-2.3l0.5-0.5c0.8,0.6,1.8,1.5,2.5,2.1L274.2,221.3z"/>
	<path d="M281.6,221.3c-0.1-0.6-0.3-2.1-0.5-3.7c-1.7,0.2-3.3,0.4-3.9,0.5l-0.2-0.9c0.5,0,2.2-0.2,3.9-0.4c-0.1-0.4-0.2-1-0.3-1.4
		c-1.2,0.2-2.4,0.3-2.8,0.4l-0.2-0.9c0.4,0,1.6-0.1,2.8-0.3c-0.2-0.9-0.3-1.5-0.4-1.8c0-0.1-0.1-0.2-0.1-0.2s0,0,1.1-0.2l0,0
		c0.1,0,0.1,0,0.1,0.1c0,0,0,0.1,0,0.2c-0.1,0.1-0.1,0.2-0.1,0.4s0.1,0.7,0.2,1.4c1.3-0.2,2.5-0.3,2.9-0.4l0.1,0.9h-0.1
		c-0.5,0-1.7,0.1-2.9,0.3c0.1,0.4,0.2,0.9,0.3,1.4c1.5-0.2,3.1-0.4,3.5-0.4l0.1,0.9H285c-0.5,0-1.9,0.2-3.4,0.3
		c0.3,1.6,0.5,3.1,0.7,3.7L281.6,221.3z"/>
	<path d="M292.9,218.8c-0.4-0.4-1.1-0.9-1.7-1.3c-1.1,1.3-2.5,2.6-4.1,3.4c-0.2-0.2-0.5-0.5-0.8-0.6c1.4-0.6,2.9-1.9,4.1-3.3
		c-0.7-0.5-1.4-1-2.1-1.3l0.6-0.5c0.6,0.4,1.3,0.8,2,1.2c0.8-1,1.3-2,1.7-2.9c0.1-0.2,0-0.3,0.1-0.3s1.1,0.5,1.1,0.6
		s-0.1,0.1-0.2,0.2c-0.2,0.1-0.2,0.2-0.3,0.4c-0.5,0.8-1.1,1.7-1.7,2.5c0.6,0.4,1.2,0.9,1.8,1.3L292.9,218.8z"/>
	<path d="M297.6,217.6c-0.4,0-0.7-0.4-0.7-0.7c0-0.4,0.4-0.8,0.7-0.8c0.4,0,0.7,0.4,0.7,0.8C298.3,217.4,297.9,217.6,297.6,217.6z"
		/>
	<path d="M310.1,217.8c-1.5,0.2-3.1,0.3-4.7,0.4v1.7c0,0.4,0.1,0.5,1.8,0.5c0.4,0,0.8,0,1.2-0.1c0.5-0.1,0.8-0.2,1-2
		c0.4,0.3,0.8,0.4,0.8,0.4c-0.3,1.8-0.6,2.3-1.4,2.4c-0.4,0-1,0-1.5,0s-1.1,0-1.5,0c-0.8,0-1.1-0.4-1.1-1.1v-1.8
		c-1.3,0.2-2.6,0.3-3.7,0.4l-0.1-0.8c1.2-0.1,2.6-0.2,3.8-0.4v-1.6c-1.1,0.1-2,0.3-3.2,0.4l-0.1-0.8c1.1-0.1,2.2-0.2,3.3-0.3v-1.4
		c-0.9,0.2-1.8,0.3-2.8,0.4c0,0-0.1-0.4-0.4-0.7c3.4-0.3,5.8-1,6.3-1.3c0,0,0.1-0.1,0.2-0.1s0.8,0.5,0.8,0.6s-0.1,0.1-0.2,0.1h-0.1
		c-0.1,0-0.1,0-0.3,0c-0.8,0.3-1.8,0.5-2.8,0.8v1.4c1.2-0.2,2.4-0.3,3.7-0.5l0.1,0.8c-1.3,0.1-2.6,0.3-3.8,0.4v1.6
		c1.6-0.2,3.1-0.4,4.6-0.6L310.1,217.8z"/>
	<path d="M314,215.7c0-0.1,0-0.2,0-0.2s0-0.1,0.1-0.1l0,0c0.9,0.1,1,0.2,1,0.3s0,0.1-0.1,0.2s-0.2,0.2-0.2,0.4
		c-0.4,2.8-1.6,4.1-3,5.3c0,0-0.2-0.4-0.5-0.8c1.1-0.7,1.6-1.5,2.1-2.4C313.7,217.8,314.1,216.4,314,215.7L314,215.7L314,215.7z
		 M319.5,215.5c0-0.4,0-0.9,0-1.1v-0.2h-7v0.2c0,0.2,0,0.6,0,1.1h-1c0-0.4,0-1.1,0-1.5v-0.5h3.8c0-0.4,0-0.7-0.1-0.9
		c0-0.2-0.1-0.3-0.1-0.3s0-0.1,0.1-0.1l0,0c1.1,0.1,1.1,0.2,1.1,0.2s0,0.1-0.1,0.2c-0.1,0.1-0.1,0.2-0.1,0.4c0,0.1,0,0.4,0,0.4h4
		v0.3c0,0.4,0,1.2,0,1.8L319.5,215.5L319.5,215.5z M317.8,215.4c0.1,2.5,1.1,4.3,3,5.3c-0.3,0.4-0.4,0.9-0.4,0.9
		c-2.1-1.4-3-3.1-3.3-6L317.8,215.4z"/>
	<path d="M326.6,219.9c2.2,0,3.3-1.5,3.3-2.9c0-1.3-0.9-2.6-2.7-2.9c-0.4,3-1.8,6.5-3.2,6.5c-0.8,0-1.8-1.2-1.8-2.9
		c0-2.1,1.4-4.4,4.3-4.4c2.6,0,4.1,1.7,4.1,3.7c0,1.8-1.2,3.5-3.7,3.8c-0.1-0.3-0.3-0.6-0.5-1L326.6,219.9L326.6,219.9z M323,217.7
		c0,1.1,0.5,2,1,2c0.2,0,0.4-0.2,0.6-0.4c0.8-1.2,1.5-3.3,1.8-5.2C324.2,214.2,323,216.1,323,217.7z"/>
	<path d="M333.8,221.6c0-0.7,0.1-2.7,0.1-3.6c-0.4,0.2-0.6,0.3-0.8,0.4c-0.2,0.1-0.3,0.1-0.4,0.3c-0.1,0.1-0.2,0.2-0.2,0.2
		s-0.1,0-0.1-0.1c-0.2-0.4-0.3-0.8-0.3-0.8c0-0.1,0.1-0.1,0.2-0.1c0.3,0,0.9-0.3,1.6-0.5c0-0.4,0-0.7,0-1.1c0-0.4,0-0.7,0-1.1h-0.7
		c-0.1,0.5-0.3,1.1-0.5,1.7c0,0-0.3-0.4-0.5-0.6c0.4-0.9,0.5-1.8,0.6-2.6v-0.3c0-0.1,0-0.1,0.1-0.1l0,0c0.8,0.2,0.8,0.3,0.8,0.3
		s0,0.1-0.1,0.2c-0.1,0.2-0.2,0.3-0.2,0.4c0,0.2,0,0.3-0.1,0.4h0.6c0-1,0-1.6-0.1-1.8c0-0.1-0.1-0.2-0.1-0.3c0,0,0-0.1,0.1-0.1l0,0
		c0.9,0.1,1,0.1,1,0.2c0,0.1,0,0.1-0.1,0.2s-0.1,0.3-0.1,0.4c0,0.2,0,0.6,0,1.2c0.4,0,0.9,0,1.2,0v0.7c-0.4,0-0.8,0-1.2,0
		c0,0.2,0,0.4,0,0.6c0,0.4,0,0.8,0,1.1c0.5-0.3,0.9-0.4,1.2-0.6v0.8c-0.4,0.3-0.8,0.4-1.2,0.6c0,1.3,0,2.7,0.1,4L333.8,221.6
		L333.8,221.6z M341.5,216.2c-1.1,0-2-0.1-3-0.1s-1.9,0-2.9,0.1v-0.8c0.4,0,0.8,0,1.2,0c0.4,0,0.8,0,1.1,0c0-0.4,0-0.8,0-1.1
		c-0.6,0-1.3,0-1.9,0.1v-0.8c0.7,0,1.3,0.1,1.9,0.1c0-0.4,0-0.8-0.1-1c0-0.2-0.1-0.3-0.1-0.3s0-0.1,0.1-0.1l0,0c0.9,0.1,1,0.2,1,0.2
		s0,0.1-0.1,0.2c-0.1,0.2-0.1,0.3-0.1,0.5c0,0.1,0,0.3,0,0.4c0.7,0,1.4,0,2.2-0.1v0.8c-0.8,0-1.5-0.1-2.2-0.1c0,0.4,0,0.8,0,1.1
		c0.9,0,1.8,0,2.7-0.1L341.5,216.2L341.5,216.2z M341.6,218c-0.5,0-1.1,0-1.5,0v2.5c0,0.9-0.4,1.1-1.5,1.1c-0.2,0-0.4,0-0.6,0
		c0,0,0-0.4-0.3-0.8c0.4,0,0.6,0.1,0.9,0.1c0.6,0,0.7-0.2,0.7-0.5s0-0.6,0-1.1c0-0.4,0-0.9,0-1.2c-0.4,0-0.6,0-1,0
		c-0.9,0-1.8,0-2.6,0.1v-0.8c1.1,0,2,0.1,3,0.1c0.2,0,0.4,0,0.6,0c0-0.4,0-0.6,0-0.7c0-0.2-0.1-0.3-0.1-0.3s0-0.1,0.1-0.1l0,0
		c0.9,0.1,0.9,0.1,0.9,0.2c0,0,0,0.1-0.1,0.2c-0.1,0.2-0.1,0.3-0.1,0.4v0.1c0.5,0,1,0,1.5-0.1L341.6,218L341.6,218z M337.5,220
		c-0.4-0.6-0.8-1.1-1.3-1.6l0.5-0.4c0.5,0.4,0.9,0.9,1.4,1.5L337.5,220z"/>
	<path d="M344.3,212.4c0.2,0,0.4,0.1,0.7,0.2c0.1,0,0.1,0.1,0.1,0.1s0,0.1-0.1,0.2s-0.2,0.2-0.2,0.3c-0.4,0.9-1,1.7-1.8,2.5
		c0,0-0.1-0.4-0.4-0.7c0.8-0.7,1.4-1.8,1.5-2.2C344.3,212.4,344.2,212.4,344.3,212.4L344.3,212.4z M343.7,221.6c0-1.2,0-3.1,0-4.2
		c-0.3,0.4-0.5,0.6-0.8,1c0,0-0.1-0.4-0.4-0.7c1-1,1.6-2.4,1.7-2.9c0-0.2,0-0.3,0.1-0.3c0,0,0,0,0.1,0c0.3,0.1,0.4,0.1,0.7,0.2
		c0.1,0,0.1,0.1,0.1,0.1s0,0.1-0.1,0.2c-0.1,0.1-0.2,0.2-0.2,0.3c-0.2,0.4-0.4,0.8-0.5,1.1v1.2c0,1.2,0,3,0,4.1L343.7,221.6
		L343.7,221.6z M349,220c-1.2,0.4-2.4,0.6-3.2,0.8c-0.1,0-0.3,0.1-0.4,0.2c-0.1,0.1-0.2,0.1-0.2,0.1c-0.1,0-0.3-0.5-0.3-0.9v-0.1
		c0-0.1,0.1-0.1,0.2-0.1c0.3,0,0.8-0.1,1.5-0.2v-1.3c-0.4,0-0.9,0-1.3,0v-0.7c0.3,0,0.4,0,0.6,0s0.4,0,0.6,0v-1c-0.4,0-1,0-1.4,0
		V216c0.6,0,1.2,0.1,1.8,0.1s1.2,0,1.8-0.1l-0.1-0.1c0.8-1.3,1-3,1-3.5l0,0c0-0.1,0-0.2,0-0.3s0-0.1,0.1-0.1l0,0
		c0.8,0.1,0.8,0.2,0.8,0.3s0,0.1-0.1,0.2c-0.1,0.2-0.1,0.3-0.2,0.4c-0.1,0.4-0.2,0.8-0.3,1.2c0.5,0,1.4,0,2,0v0.7
		c-0.2,0-0.3,0-0.4,0c-0.2,1.8-0.4,3.1-0.8,4.1c0.3,0.7,0.7,1.2,1.3,1.8c-0.3,0.3-0.4,0.7-0.4,0.7c-0.5-0.6-1-1.3-1.3-1.9
		c-0.4,0.7-1,1.2-1.7,1.9c0,0-0.1-0.4-0.4-0.6c0.8-0.6,1.3-1.2,1.8-2c-0.3-0.8-0.5-1.8-0.6-2.8c-0.1,0.3-0.3,0.5-0.4,0.7
		c0,0-0.1-0.3-0.3-0.5v0.7c-0.5,0-1.1,0-1.5,0v1c0.4,0,0.9,0,1.4-0.1v0.7c-0.5,0-1,0-1.4,0v1.1c0.5-0.1,1.1-0.3,1.7-0.4L349,220
		L349,220z M345.3,215.6c0-0.3,0-0.6,0-1.1s0-1.1-0.1-1.3c0-0.1-0.1-0.2-0.1-0.3s0-0.1,0.1-0.1l0,0c0.7,0.1,0.8,0.1,0.8,0.2
		c0,0,0,0.1-0.1,0.2c-0.1,0.1-0.1,0.2-0.1,0.4v1.3h0.7c0-0.6,0-2-0.1-2.4c0-0.1-0.1-0.2-0.1-0.3c0,0,0-0.1,0.1-0.1l0,0
		c0.3,0,0.5,0.1,0.8,0.1c0.1,0,0.1,0,0.1,0.1c0,0,0,0.1-0.1,0.2c-0.1,0.2-0.1,0.6-0.1,2.3h0.8c0-0.3,0-1.5-0.1-1.8
		c0-0.1-0.1-0.2-0.1-0.3s0-0.1,0.1-0.1l0,0c0.6,0.1,0.8,0.1,0.8,0.2c0,0,0,0.1-0.1,0.2c-0.1,0.2-0.1,0.3-0.1,1.3c0,0.4,0,0.8,0,1
		h-3.2v0.3L345.3,215.6L345.3,215.6z M350,214.9c0.2,1.3,0.3,2.4,0.5,3.2c0.3-0.8,0.4-1.8,0.5-3.2c-0.2,0-0.4,0-0.6,0H350z"/>
	<path d="M357.9,219.5c0-0.6,0-1.1,0-1.4c-1,0.4-1.7,0.9-1.7,1.5c0,0.4,0.4,0.9,1.8,0.9c0.9,0,1.8-0.2,2.6-0.4
		c0,0.3-0.1,0.4-0.1,0.7c0,0.1,0,0.3,0,0.4c-0.7,0.1-1.6,0.2-2.4,0.2c-1.1,0-2.8-0.2-2.8-1.6c0-1.1,1.1-1.7,2.5-2.2
		c0-0.4-0.2-1-0.8-1c-1,0-1.8,1.1-2.6,2.6l-0.9-0.6c1.1-1.2,1.8-2.5,2.4-3.6c-0.4,0-1.1,0.1-1.8,0.1l-0.1-0.9
		c0.3,0.1,0.7,0.1,1.2,0.1c0.4,0,0.7,0,1.1,0c0.1-0.4,0.2-0.8,0.3-1.1v-0.1c0-0.1,0-0.1,0-0.2c0-0.1,0,0,0.1,0l0,0
		c1.1,0.1,1.1,0.2,1.1,0.3s0,0.1-0.1,0.1c-0.1,0.1-0.1,0.2-0.2,0.4s-0.2,0.4-0.3,0.6c1.1-0.1,2-0.3,2.5-0.5v1
		c-0.7,0.2-1.6,0.3-2.7,0.4c-0.3,0.5-0.4,1-0.7,1.5c0.3-0.3,0.8-0.4,1.2-0.4c1.1,0,1.2,1,1.3,1.2c0.7-0.4,1.4-0.6,2.1-1.1
		c0.2-0.1,0.2-0.2,0.3-0.2l0,0c0.2,0.2,0.4,0.7,0.5,0.9v0.1c0,0.1-0.1,0.1-0.2,0.1c-0.3,0-0.5,0.1-2.7,0.9c0,0.4,0,1.1,0,1.7
		L357.9,219.5z"/>
	<path d="M365.7,212.8c0.9,0.2,0.9,0.3,0.9,0.4c0,0.1,0,0.1-0.1,0.2c-0.2,0.2-0.3,0.3-0.3,0.4c-0.7,1.5-1.6,2.6-2.8,3.7
		c0,0-0.1-0.4-0.4-0.8c1.3-0.9,2.5-2.6,2.6-3.3C365.7,212.9,365.6,212.8,365.7,212.8L365.7,212.8z M370.5,216.4
		c-0.1,1.5-0.3,3.1-0.4,4.1c-0.2,0.9-0.5,1.1-1.6,1.1c-0.3,0-0.5,0-0.9,0c0,0,0-0.4-0.3-0.9c0.4,0,0.8,0.1,1.1,0.1
		c0.7,0,0.8-0.2,0.9-0.6c0.1-0.6,0.3-2.1,0.4-3c0,0-1.1,0-2.4,0c-0.5,2.2-1.3,3.3-3.8,4.4c0,0-0.1-0.4-0.4-0.8
		c2.1-0.6,3.1-1.8,3.4-3.6c-0.6,0-1.2,0-1.8,0v-0.8c1.3,0,3.2,0,4.4,0H370.5z M369.3,212.8c0.6,1.3,1.6,2.8,3.3,3.5
		c-0.3,0.4-0.4,0.9-0.4,0.9c-1.8-1.1-2.7-2.4-3.5-4.1L369.3,212.8z"/>
	<path d="M375.4,221.6c0-1.6,0.1-3.5,0.1-5.2c-0.4,1.1-0.9,2-1.5,3c0,0-0.2-0.5-0.4-0.9c0.7-0.9,1.3-2,1.8-3.5c-0.5,0-1.1,0-1.6,0
		v-0.8c0.6,0,1.1,0.1,1.7,0.1c0-0.9,0-1.5-0.1-1.7c0-0.1-0.1-0.2-0.1-0.3c0,0,0-0.1,0.1-0.1l0,0c1,0.1,1,0.2,1,0.2s0,0.1-0.1,0.2
		c-0.1,0.2-0.1,0.3-0.1,1.6c0.5,0,1.1,0,1.6-0.1v0.8c-0.5,0-1.1,0-1.6,0c0.4,0.9,0.9,1.6,1.5,2.2c-0.3,0.3-0.4,0.7-0.4,0.7
		c-0.4-0.6-0.8-1.1-1.1-1.8c0,1.7,0,3.7,0.1,5.5L375.4,221.6L375.4,221.6z M380.6,221.6c0.1-1.4,0.1-3.4,0.1-4.7V216
		c-0.7,0-1.3,0-1.8,0c0,2.4-0.3,3.9-1.4,5.5c0,0-0.3-0.4-0.6-0.6c1-1.3,1.2-2.6,1.2-4.9v-2.9c1.6-0.1,2.8-0.4,3.5-0.5
		c0.1,0,0.1-0.1,0.1-0.1s0.8,0.4,0.8,0.5s-0.1,0.1-0.2,0.1c-0.2,0-0.3,0-0.4,0c-0.9,0.3-1.9,0.4-3.3,0.5v1.7c1,0,3,0,4.1,0v0.8
		c-0.4,0-1.1,0-1.6,0v0.9c0,1.2,0,3.3,0.1,4.7L380.6,221.6L380.6,221.6z"/>
	<path d="M385.3,219.4c0-1.1,0.1-3.2,0.1-4.8c0-0.5,0-1.1,0-1.4c0-0.1-0.1-0.2-0.1-0.2s0,0,0.1,0l0,0c0.2,0,0.8,0,1,0
		c0.1,0,0.1,0,0.1,0.1c0,0,0,0.1-0.1,0.2c-0.1,0.1-0.1,0.2-0.1,0.4c-0.2,2-0.2,4.1-0.2,5.7c0,0.8,0.4,1.1,1.2,1.1
		c1.4,0,3-1.2,3.6-2.4c0.1,0.4,0.3,0.9,0.4,1.1c-1.7,1.8-3.3,2.1-4.1,2.1C386.1,221.3,385.3,220.7,385.3,219.4L385.3,219.4z"/>
	<path d="M392.7,220.7c0.5-1,1.4-3.4,1.8-5.5c-0.4,0-1,0-1.5,0l-0.1-0.9c0.4,0,0.8,0.1,1.2,0.1c0.2,0,0.4,0,0.5,0
		c0.2-0.6,0.3-1.2,0.3-1.7l0,0c0-0.1,0-0.2,0-0.2s0-0.1,0.1-0.1l0,0c0.2,0,0.6,0.1,0.9,0.2c0.1,0,0.1,0.1,0.1,0.1s0,0.1-0.1,0.1
		c-0.1,0.1-0.1,0.2-0.4,1.5c0.7-0.1,1.4-0.3,2-0.4v0.9c-0.7,0.2-1.4,0.3-2.1,0.4c-0.5,2-1.1,4.1-1.8,5.9L392.7,220.7z M400.7,220.7
		c-0.9,0.1-1.6,0.2-2.3,0.2c-1.7,0-2.5-0.4-2.5-1.4c0-0.2,0-0.4,0.1-0.7l0.7,0.1c0,0.2-0.1,0.3-0.1,0.4c0,0.7,0.7,0.8,1.4,0.8
		c0.7,0,1.7-0.1,2.5-0.4L400.7,220.7z M400.1,216.9c-0.4,0-0.7-0.1-1.1-0.1c-0.7,0-1.5,0.1-2.1,0.2l-0.1-0.8
		c1.1-0.1,2.2-0.2,3.3-0.2L400.1,216.9z"/>
	<path d="M409.8,221.6c0-0.2,0-0.4,0-0.6c0,0-4.6,0-6.8,0.1v-0.9c2.1,0.1,6.8,0.1,6.8,0.1c0-0.4,0-1,0-1.5c0,0-4.3,0-6.3,0.1v-0.8
		c1.9,0.1,6.3,0.1,6.3,0.1v-1.3h-1.3c-1.4,0-3.6,0-5.5,0.1v-0.9c1,0,2.2,0,3.4,0c0-0.4,0-1.1,0-1.5c0-0.9,0-1.6-0.1-1.8
		c0-0.2-0.1-0.3-0.1-0.3s0-0.1,0.1-0.1l0,0c1,0.1,1,0.2,1,0.2c0,0.1,0,0.1-0.1,0.2c-0.1,0.2-0.1,0.2-0.1,0.4v2.9h3.3v0.9
		c0,1.3,0,3.7,0,4.8h-0.6L409.8,221.6L409.8,221.6z M404.7,215.7c-0.4-1-1-1.6-1.6-2.4l0.7-0.4c0.7,0.8,1.2,1.4,1.7,2.4L404.7,215.7
		z M409.9,213.2c0-0.2,0-0.3,0.1-0.3c0,0,0,0,0.1,0c0.3,0,0.9,0.1,0.9,0.3c0,0,0,0.1-0.1,0.2s-0.2,0.2-0.3,0.3
		c-0.3,0.7-0.8,1.4-1.4,2.1c0,0-0.3-0.3-0.7-0.4C409.3,214.4,409.7,213.5,409.9,213.2z"/>
	<path d="M414.5,221.6c0-1.2,0-3.2,0-4.2c-0.4,0.4-1,1-1.5,1.3c0,0-0.1-0.4-0.4-0.8c1.2-0.9,2.2-1.9,2.9-3.3h-0.4
		c-0.5,0-1.5,0-2.3,0v-0.8c0.4,0,1.1,0,1.5,0v-0.4c0-0.4,0-0.8,0-1s-0.1-0.3-0.1-0.3s0-0.1,0.1-0.1l0,0c0.9,0.1,0.9,0.2,0.9,0.2
		c0,0.1,0,0.1-0.1,0.2c-0.1,0.2-0.1,0.3-0.1,0.7c0,0.2,0,0.4,0,0.5h0.4c0.1,0,0.2,0,0.3-0.1h0.1c0.1,0,0.7,0.4,0.7,0.5
		s-0.2,0.2-0.3,0.4c-0.4,0.6-0.7,1.1-1.1,1.8c0.5,0.5,1.1,1,1.8,1.4c-0.3,0.3-0.4,0.7-0.4,0.7c-0.5-0.4-1-0.9-1.4-1.3
		c0,1.2,0,3.2,0,4.3h-0.7v0.3L414.5,221.6L414.5,221.6z M422.3,221.2c-1.1,0-2.1,0-3.2,0c-1,0-1.9,0-2.8,0v-0.9c0.4,0,0.8,0,1.2,0
		c0.4,0,0.9,0,1.3,0c0-1.2,0-2.9,0-4.4c-0.7,0-1.4,0-2,0.1v-0.9c0.7,0,1.4,0.1,2,0.1c0-1.4,0-2.5-0.1-2.6c0-0.1-0.1-0.2-0.1-0.3
		c0,0,0-0.1,0.1-0.1l0,0c1,0.1,1.1,0.2,1.1,0.2s0,0.1-0.1,0.2c-0.1,0.2-0.1,0.4-0.1,2.6c0.8,0,1.5,0,2.3-0.1v0.9
		c-0.8,0-1.5-0.1-2.3-0.1v4.4c0.9,0,1.8,0,2.6-0.1L422.3,221.2L422.3,221.2z"/>
	<path d="M431.9,216.6c-0.4,0-1,0-1.8,0c-0.4,0-1,0-1.5,0c0,2.2-0.7,3.9-2.6,4.9c-0.3-0.2-0.6-0.5-0.9-0.7c2.1-0.8,2.6-2.5,2.6-4.1
		v-0.3c-1.7,0-3.3,0.1-3.9,0.2v-1c0.4,0,1.1,0,1.8,0c2.2,0,5.5-0.1,6.3-0.2V216.6z M430.1,214.4c-0.4,0-1-0.1-1.8-0.1
		c-1.2,0-2.8,0-3.3,0.1v-0.9c0.3,0,0.9,0,1.6,0c1.3,0,3-0.1,3.5-0.1L430.1,214.4L430.1,214.4z M431.5,215.3
		c-0.3-0.4-0.5-0.7-0.9-1.1l0.4-0.4c0.3,0.3,0.6,0.6,0.9,1L431.5,215.3z M432.2,214.7c-0.3-0.4-0.5-0.7-0.9-1l0.4-0.4
		c0.3,0.3,0.6,0.6,0.9,1L432.2,214.7z"/>
	<path d="M441.8,217.4c-0.4,0-1.3,0-2.5,0c-2.1,0-4.8,0-5.5,0.1v-1.1c0.4,0,1.5,0.1,2.7,0.1c2,0,4.6,0,5.2-0.1L441.8,217.4
		L441.8,217.4z"/>
	<path d="M446.5,216.2c0.6,0.4,1.2,0.7,1.8,1.1c0.6-0.8,1.1-1.7,1.4-2.5c-0.8,0-2.1,0-3.4,0.1c-0.6,0.8-1.4,1.6-2.3,2.3
		c-0.3-0.2-0.5-0.4-0.8-0.6c1.4-0.9,2.7-2.4,3.3-3.7c0.1-0.3,0-0.4,0.1-0.4c0,0,0,0,0.1,0c0.2,0.1,1.1,0.4,1.1,0.4s0,0.1-0.2,0.2
		c-0.1,0.1-0.2,0.2-0.4,0.4c-0.1,0.2-0.3,0.4-0.4,0.6c1,0,1.8,0,2.9-0.1c0.3,0,0.3-0.1,0.3-0.1c0.1,0,1,0.6,1,0.7
		c0,0.1-0.3,0.2-0.4,0.6c-1.1,2.5-3.1,4.8-6.4,6c-0.2-0.3-0.5-0.5-0.7-0.8c1.8-0.4,3.2-1.4,4.3-2.6c-0.5-0.5-1.2-1-1.9-1.4
		L446.5,216.2z"/>
</g>
</svg>
