<?xml version="1.0" encoding="utf-8"?>
<svg xmlns="http://www.w3.org/2000/svg" viewBox="0 0 153.17 153.1"><defs><style>.cls-1{isolation:isolate;}.cls-2{mix-blend-mode:multiply;}.cls-3,.cls-5{fill:none;}.cls-3,.cls-4,.cls-5{stroke:#1e1e1e;stroke-linecap:round;stroke-linejoin:round;}.cls-3,.cls-4{stroke-width:0.84px;}.cls-4{fill:#fff;}.cls-5{stroke-width:0.81px;}</style></defs><title>step3</title><g class="cls-1"><g id="レイヤー_2" data-name="レイヤー 2"><g id="copy"><g class="cls-2"><path class="cls-3" d="M44.48,106.8c8.25,23.3-2.8,39.56-8.46,39.56"/><path class="cls-3" d="M119.1,56s5.34-6.08,6,3.77c.37,5.35-1.94,12.17-4.83,16.95"/><path class="cls-3" d="M43.43,56s-4.2-6.35-4.91,2.52c-.36,4.45,1,10.27,3,15.08"/><path class="cls-3" d="M103,23.59s13.19,3.09,15.28,12.86"/><path class="cls-3" d="M109.91,38.76s3,8.1,8.45,10.57"/><path class="cls-3" d="M114.1,51.54s1,5.19,3.07,4.38"/><path class="cls-3" d="M71.94,18.22S55.61,14.76,47.17,26"/><path class="cls-3" d="M86.7,18.23S90.28,2.84,88.48.42"/><path class="cls-3" d="M89.92,18s5.56-11.94,4-14.46"/><path class="cls-3" d="M76.57,17.26S66.47,7,66.58,4.48"/><path class="cls-3" d="M94.91,18.47s11-3.67,13.31-.7"/><path class="cls-3" d="M64.33,24.84s-16.22-2.4-20.95,12.64"/><path class="cls-3" d="M52.7,38.5c-.45.74-4.13,10.29-9.36,11.56"/><path class="cls-3" d="M48.74,51.85A6.16,6.16,0,0,1,44,55.76"/><path class="cls-3" d="M55.19,5.68C43.9,9.12,32.23,38,38.71,53.16"/><path class="cls-3" d="M108.28,6.27c15.93,11.18,17.88,40,13.68,46.89"/><path class="cls-3" d="M85.09,89.45a2.93,2.93,0,0,0-2.61,1c-.87,1.29-3.86,1.23-4.57-.17-.54-1-2.9-.92-2.9-.92"/><path class="cls-3" d="M116.33,61.52c-.51,8.26-4.15,22.26-6.38,30.24a41.68,41.68,0,0,1-7.81,15.33l-.08.09c-7.3,8.83-16.17,12.88-21.26,12.88-5.51,0-14.87-5.62-20.17-12.65l-.72-1a59.49,59.49,0,0,1-8.56-18.08c-2.06-7.18-4.79-17.9-5.65-26.82"/><path class="cls-3" d="M68.57,58s-7.07-2.11-11.3-1.18c-3.17.7-3.92,2.21-3.92,2.21"/><path class="cls-3" d="M92,58.49S98.64,55.8,104.71,57a3.45,3.45,0,0,1,1,.38,7.44,7.44,0,0,1,2.59,2.16"/><path class="cls-3" d="M108.17,68.72l-1.52-.67c-4.58,2.64-10.19,1.84-13,1.1-.56-.15-.77-.38-1-.29"/><path class="cls-3" d="M53.23,68.72l1.54-.67c4.62,2.64,10,1.6,12.88.86.56-.15.77-.37,1-.29"/><path class="cls-3" d="M74.46,67.36s-1.78-4.52-5.18-5"/><path class="cls-4" d="M47,102.6c.4-4.26-2.29-13.79-2.43-15.74-.23-3.21-.95-20.15-.78-23.23C44,59.27,47,59.38,47.43,64c.37,4,1.16,9.42,1.16,9.42"/><path class="cls-4" d="M67.3,152.69c2-6.21,3.68-12,4.84-16.19C74.75,127,75,121,72,118.12c-9.5-9-10.16-12.18-12.13-16,.05.52-5.31-9.61-6.72-14.52-1.28-4.47-1.46-10.71-1.68-13.35-.28-3.51-3.32-5-3.45-.93,0,.41,1.08,15.6,1.34,16.73.57,2.45,3.55,9.45,2.8,12.34"/><path class="cls-3" d="M51.55,149.91c2.86-6.86,5.21-13.17,5.76-16.52,1.61-9.82-13.68-25.27-14.92-30.41L41,86.66l1.44-14.81.45-6.9s.31-2.43.89-.94"/><path class="cls-4" d="M114.37,102.35c-.34-4.2,2.43-13.56,2.59-15.48C117.23,83.71,118.15,67,118,64c-.18-4.29-3.13-4.22-3.61.3-.42,3.94-1.26,9.27-1.26,9.27"/><path class="cls-4" d="M93.26,149.91c-1.65-5.55-3.11-10.65-4.11-14.47-2.44-9.38-2.49-16,.48-18.74,9.47-8.78,10.06-11.25,12.05-15a83,83,0,0,0,6.8-14.22c1.32-4.39,1.58-10.54,1.82-13.14.32-3.46,3.34-4.92,3.42-.87,0,.4-1.27,15.36-1.54,16.47-.59,2.41-3.62,9.26-2.91,12.12"/><path class="cls-3" d="M109.68,149.91c-2.91-7.18-5.35-13.88-5.87-17.35-1.47-9.7,13.8-24.73,15.08-29.77l1.85-15.61-1.13-20.63s-.44-2.07-1.47-.63"/><path class="cls-3" d="M80.31,104.72a15.51,15.51,0,0,1-12-6"/><path class="cls-3" d="M68.32,98.77c2.59.47,6.25.14,12,.08"/><path class="cls-3" d="M80.39,104.72a15.51,15.51,0,0,0,12-6"/><path class="cls-3" d="M92.38,98.77c-2.59.47-6.25.14-12,.08"/><path class="cls-3" d="M77.38,106.9a13.25,13.25,0,0,0,6.68,0"/><path class="cls-5" d="M136.29,105.37s7.6-1.28,7.6-14.58"/><path class="cls-5" d="M152.51,105.37s-8.11,1.24-8.11,14.58"/><path class="cls-5" d="M152.51,105.37s-8.62-1.28-8.62-14.58"/><path class="cls-5" d="M136.29,105.37s8.11,1.24,8.11,14.58"/><path class="cls-5" d="M11.39,96.38S19,95.1,19,81.8"/><path class="cls-5" d="M27.61,96.38S19.5,97.62,19.5,111"/><path class="cls-5" d="M27.61,96.38S19,95.1,19,81.8"/><path class="cls-5" d="M11.39,96.38S19.5,97.62,19.5,111"/><path class="cls-5" d="M16.63,36.61S8.52,35.33,8.52,22"/><path class="cls-5" d="M.4,36.61S8.52,37.85,8.52,51.2"/><path class="cls-5" d="M.4,36.61S8.52,35.33,8.52,22"/><path class="cls-5" d="M16.63,36.61S8.52,37.85,8.52,51.2"/><path class="cls-5" d="M152.76,22.31S144.65,21,144.65,7.73"/><path class="cls-5" d="M136.54,22.31s8.11,1.24,8.11,14.58"/><path class="cls-5" d="M136.54,22.31s8.11-1.28,8.11-14.58"/><path class="cls-5" d="M152.76,22.31s-8.11,1.24-8.11,14.58"/></g></g></g></g></svg>