<?xml version="1.0" encoding="utf-8"?>
<svg xmlns="http://www.w3.org/2000/svg" viewBox="0 0 203.47 280.36"><defs><style>.cls-1{fill:#fcb0b7;}.cls-2,.cls-3,.cls-4{fill:#faf1a9;}.cls-3,.cls-4{stroke:#1e1e1e;stroke-linecap:round;stroke-miterlimit:10;}.cls-3{stroke-width:0.72px;}.cls-4{stroke-width:0.8px;}</style></defs><title>step3_2</title><g id="レイヤー_2" data-name="レイヤー 2"><g id="copy"><path class="cls-1" d="M0,280.36l35.73-28.07a180.12,180.12,0,0,0,66.09-109.58l28.53,5.18A208.87,208.87,0,0,1,83,247.06l30.61,27.85Z"/><circle class="cls-2" cx="115.91" cy="90.98" r="87.56"/><path d="M59.66,85.92a19.67,19.67,0,0,0,7.47-1.41,6.79,6.79,0,0,1-1.85-1.78,20.41,20.41,0,0,1-4.09,2.11L60,84a17.31,17.31,0,0,0,7-3.8H64.11V81H63V73.42h3.6a9,9,0,0,0,.59-1.1H60.16v-1H75.77v1H68.48c-.14.26-.4.69-.66,1.1h5.34v7.31H72.08v-.57H68.45c-.37.32-.8.73-1.36,1.2h4.56c.09,0,.18-.11.27-.11a.13.13,0,0,1,.07,0c.07,0,.78.52.78.7s-.15.16-.38.2a18,18,0,0,1-3,2.36,15.71,15.71,0,0,0,5.56.88l1.33,0-1.17,1.22a16.44,16.44,0,0,1-6.86-1.44A19.42,19.42,0,0,1,60.81,87ZM72.08,75.37v-1h-8v1Zm0,1.91v-1h-8v1Zm0,2V78.18h-8v1.06Zm-6,3A6.24,6.24,0,0,0,68.23,84a12,12,0,0,0,2.56-1.76Z"/><path d="M79.32,85.5A9.9,9.9,0,0,1,78.4,81a37.55,37.55,0,0,1,.74-6.14c.14-.83.34-2.07.41-2.72,0,0,0-.09.09-.09s1,.23,1.44.38c.18.05.27.16.27.25s-.18.25-.52.25h-.06a46.94,46.94,0,0,0-1.2,6.72c0,.39-.09.92-.09,1.46,0,0,0,1,.12,1S79.69,82,81,78.36l.54,1.2a14.14,14.14,0,0,0-1.3,4.92,6.3,6.3,0,0,0,0,.75s-.16.09-.18.09Zm3.2-10.33a.11.11,0,0,1,0-.07s0-.06.08-.06h0a10.51,10.51,0,0,0,2.61.4,17.08,17.08,0,0,0,2.15-.2v-1c0-.81,0-1.57,0-2.43,0,0,1.2,0,1.37.07s.43.13.43.23-.16.27-.52.35a9.17,9.17,0,0,0-.08,1.11c0,.49,0,1,0,1.46.93-.18,1.91-.38,2.86-.61l.07,1.2c-1,.2-2,.38-2.93.53,0,2.09.12,3.94.2,5.36a12.89,12.89,0,0,1,3.9,2.2l-1,1a9.26,9.26,0,0,0-2.81-2.07,2.87,2.87,0,0,1-3.1,2.7c-1.53,0-3.13-.88-3.13-2.18,0-1,1.15-2.07,3.47-2.07a8.13,8.13,0,0,1,1.53.14c-.05-1-.14-2.89-.18-4.91a24.4,24.4,0,0,1-2.62.23,8.22,8.22,0,0,1-1.91-.21Zm3.4,6.93c-1.24,0-2.23.43-2.23,1.06s1.12,1,2,1a1.81,1.81,0,0,0,1.93-1.86A5.87,5.87,0,0,0,85.92,82.1Z"/><path d="M93.16,86.26c2.3-2.43,2.72-4.81,2.72-8.48V77c0-1.16-.08-2.62-.09-4h5.34V72s0-.66-.07-1.17h.15c1.49,0,1.69.15,1.69.31s-.16.27-.52.34c0,.29,0,.67,0,.67V73H107c.11,0,.22-.14.31-.14s1,.61,1,.74-.27.2-.31.2a17.51,17.51,0,0,1-1.18,2.73l-1.27-.16a10.41,10.41,0,0,0,1.14-2.29h-4.34v3.1h3c.09,0,.16-.13.29-.13s1,.58,1,.8-.12.18-.32.23a12.81,12.81,0,0,1-3.12,5.13,13,13,0,0,0,6.16,2.07L108,86.51a13.16,13.16,0,0,1-5.6-2.46A14.57,14.57,0,0,1,97,86.73l-1.42-.92a14.45,14.45,0,0,0,5.87-2.54,11.59,11.59,0,0,1-3-5H97.06c-.07,3.94-.7,5.94-2.46,8.28Zm8-9v-3.1H97c0,1,0,1.91,0,2.74v.36ZM99.57,78.3a8.74,8.74,0,0,0,2.72,4.25A11.27,11.27,0,0,0,105,78.3Z"/><path d="M109.57,86.49c1.69-2,1.89-5.45,1.89-8.35,0-.94,0-1.82,0-2.56,0-1.35-.06-3.76-.06-4.16H116v11c0,1.31,0,2.23,0,2.45v0c0,1.55-1.17,1.84-2.54,1.84h-.27l-.81-1.35a11.86,11.86,0,0,0,1.5.16c.72,0,1-.23,1-.85V80.53h-2.3c-.13,2.31-.51,4.69-1.61,6.22Zm5.26-11.18V72.5h-2.29s0,1.26,0,2.81Zm0,4.13v-3.1h-2.27c0,.52,0,1.12,0,1.73,0,.45,0,.9,0,1.37Zm2.81-7v-.32a9.57,9.57,0,0,0,0-1h.07c.31,0,1.75,0,1.75.35,0,.12-.16.25-.54.3a8.6,8.6,0,0,0,0,.94l0,1a24.47,24.47,0,0,0,5.62-2s1.1,1,1.1,1.26-.09.17-.24.17a1.07,1.07,0,0,1-.52-.2,43,43,0,0,1-6,1.8v1c0,.66.33.9,2.23.9,3.32,0,3.59-.16,3.71-2.58l1.21,1c-.4,2.52-1.66,2.63-4.93,2.63-2.29,0-3.41-.25-3.41-1.64v0Zm.31,6.79h6.94v7.53h-1.11v-.9H119v1H118Zm5.83,5.6V83H119l0,1.87Zm0-2.88V80.21H119v1.73Z"/><path d="M128.44,82.44h13v1.41h-13Zm1.46-7.61H140v1.35H129.9Z"/><path d="M145.43,80.1,151.3,79,150.65,76l-5,1-.25-1.23,5-1L150,73.3s-.18-.85-.33-1.35l1.45-.18h.12c.24,0,.36.07.36.16s-.12.25-.41.39c.05.47.23,1.26.23,1.26l.2,1,4.92-.94.25,1.23-4.9,1,.65,2.92,5.76-1.12.27,1.23-5.76,1.11,1.26,5.73-1.26.27-1.28-5.75-5.89,1.16Z"/><path d="M173.37,84.62a39.21,39.21,0,0,1-4.61.29c-3.06,0-4.95-.68-4.95-3.26,0-1.31.16-7.35.16-7.35,0-.52,0-1,0-1.38,1.78,0,2,.2,2,.32s-.18.31-.54.34c0,.22,0,.27-.17,4.42a28.72,28.72,0,0,0,7-3.08c.32.28,1.24,1.15,1.24,1.47,0,.11-.09.15-.21.15a1.08,1.08,0,0,1-.53-.18,50.6,50.6,0,0,1-7.52,2.91c0,1-.06,1.7-.06,1.84,0,1.6.28,2.47,3.44,2.47a30.58,30.58,0,0,0,5.35-.53ZM173.1,72.7a8.63,8.63,0,0,1,2.09,2.09l-.92.68a7.74,7.74,0,0,0-2-2.19Zm1.67-1a8.09,8.09,0,0,1,2.11,2l-.88.72a8.1,8.1,0,0,0-2-2.09Z"/><path d="M88.52,100.64h1.59v8c0,1.55.21,3.92,3.56,3.92,2.77,0,3.58-1.63,3.58-4v-8h1.57v8.23c0,2.84-1.15,5.09-5.15,5.09-5,0-5.15-3.56-5.15-5.09Z"/><path d="M99.09,100.64h1.73l3.69,9.88c.12.35.41,1.14.54,1.64.14-.48.41-1.29.54-1.64l3.74-9.88H111l-5.2,13.14h-1.6Z"/><path d="M116.1,103.39a19.16,19.16,0,0,1,3.11,2l-.84,1a13.59,13.59,0,0,0-3.1-2.17Zm3.33,5.62a39.49,39.49,0,0,1-2.47,5,.53.53,0,0,1,.18.36.17.17,0,0,1-.18.18c-.09,0-.29,0-1.53-.86,1.3-1.37,2.76-5,3.1-5.85Zm-2.11-9.81a17.81,17.81,0,0,1,2.81,2.21l-1,.94a12.93,12.93,0,0,0-2.76-2.4Zm2.29,13.74h5.22v-4.47h-4.16V107.3h4.16v-3.74h-4.48v-1.17H131v1.17h-4.9v3.74h4.32v1.17h-4.32v4.47h5.28v1.17H119.61Zm3.74-14.12a16.62,16.62,0,0,1,3.73,2.22l-.86,1a14.05,14.05,0,0,0-3.66-2.36Z"/><path d="M132,113.78a7,7,0,0,0,2.68-3.15c.45.11,1.52.4,1.52.61s-.18.22-.42.22a.44.44,0,0,1-.16,0,10.83,10.83,0,0,1-2.21,2.87Zm.52-11.36h4.74a12,12,0,0,0-.76-1.53h-2.93V100h6v-.21c0-.11,0-.61,0-1.08.09,0,1.85,0,1.85.34,0,.14-.22.27-.58.32,0,.27-.05.53-.05.63h6v.94h-2.94c-.11.25-.41.9-.77,1.53h4.75v1H132.51Zm2.43,2h10.47v5.38h-1.14v-.5H136v.54h-1.1Zm9.33,2v-1.11H136v1.11Zm0,2v-1.13H136v1.13Zm-7.18,3s0-.58,0-1.07l1.46.09c.25,0,.34.13.34.22s-.21.31-.52.32a15.35,15.35,0,0,0-.09,1.66c0,.65,0,.86,2.3.86,2.85,0,3-.27,3.06-1.6l1.25.85c-.18,1.51-1.15,1.78-4.23,1.78-2.34,0-3.57,0-3.57-1.39v0Zm4.77-9a15,15,0,0,0,.68-1.53h-4.82a9.37,9.37,0,0,1,.72,1.53Zm-1.69,7.35a13.47,13.47,0,0,1,2.75,1.74l-.94.8a11.27,11.27,0,0,0-2.75-2Zm5.06.75A13.2,13.2,0,0,1,148.3,113l-1.13.83a8.31,8.31,0,0,0-2.9-2.72Z"/><circle class="cls-3" cx="118.53" cy="27.36" r="2.86"/><circle class="cls-3" cx="107.88" cy="8.9" r="2.24"/><path class="cls-3" d="M113.34,15.6a34.82,34.82,0,0,1,2.24,6.64A34.75,34.75,0,0,1,111,17c-1.14-2-1.54-3.9-.88-4.28S112.19,13.62,113.34,15.6Z"/><path class="cls-3" d="M120.7,6.89c0,3.61-2.17,10.81-2.17,10.81s-2.16-7.2-2.16-10.81,1-6.53,2.16-6.53S120.7,3.28,120.7,6.89Z"/><circle class="cls-3" cx="97.22" cy="27.36" r="2.24"/><path class="cls-3" d="M105.75,26a34.12,34.12,0,0,1,6.87,1.38,34.12,34.12,0,0,1-6.87,1.38c-2.29,0-4.15-.62-4.15-1.38S103.46,26,105.75,26Z"/><path class="cls-3" d="M101.89,15.25c3.13,1.8,8.28,7.28,8.28,7.28S102.85,20.81,99.72,19s-5.17-4.1-4.57-5.14S98.77,13.45,101.89,15.25Z"/><circle class="cls-3" cx="107.88" cy="45.82" r="2.24"/><path class="cls-3" d="M111,37.74a34.75,34.75,0,0,1,4.63-5.26,34.82,34.82,0,0,1-2.24,6.64c-1.15,2-2.61,3.28-3.27,2.9S109.81,39.73,111,37.74Z"/><path class="cls-3" d="M99.72,35.72c3.13-1.81,10.45-3.53,10.45-3.53s-5.15,5.48-8.28,7.28-6.14,2.43-6.74,1.39S96.6,37.52,99.72,35.72Z"/><circle class="cls-3" cx="129.19" cy="45.82" r="2.24"/><path class="cls-3" d="M123.73,39.12a34.82,34.82,0,0,1-2.24-6.64,34.75,34.75,0,0,1,4.63,5.26c1.14,2,1.54,3.9.88,4.28S124.88,41.1,123.73,39.12Z"/><path class="cls-3" d="M116.37,47.83c0-3.61,2.16-10.81,2.16-10.81s2.17,7.2,2.17,10.81-1,6.53-2.17,6.53S116.37,51.44,116.37,47.83Z"/><circle class="cls-3" cx="139.85" cy="27.36" r="2.24"/><path class="cls-3" d="M131.32,28.74a34.12,34.12,0,0,1-6.87-1.38A34.12,34.12,0,0,1,131.32,26c2.29,0,4.15.62,4.15,1.38S133.61,28.74,131.32,28.74Z"/><path class="cls-3" d="M135.18,39.47c-3.13-1.8-8.28-7.28-8.28-7.28s7.32,1.72,10.44,3.53,5.18,4.1,4.58,5.14S138.3,41.27,135.18,39.47Z"/><circle class="cls-3" cx="129.19" cy="8.9" r="2.24"/><path class="cls-3" d="M126.12,17a34.75,34.75,0,0,1-4.63,5.26,34.82,34.82,0,0,1,2.24-6.64c1.15-2,2.61-3.28,3.27-2.9S127.26,15,126.12,17Z"/><path class="cls-3" d="M137.34,19c-3.12,1.81-10.44,3.53-10.44,3.53s5.15-5.48,8.28-7.28,6.14-2.43,6.74-1.39S140.47,17.2,137.34,19Z"/><circle class="cls-4" cx="176.58" cy="151.49" r="2.91"/><circle class="cls-4" cx="187.46" cy="132.66" r="2.29"/><path class="cls-4" d="M184.32,140.9a35.16,35.16,0,0,1-4.72,5.36,35.12,35.12,0,0,1,2.29-6.77c1.17-2,2.66-3.35,3.33-3S185.49,138.87,184.32,140.9Z"/><circle class="cls-4" cx="176.58" cy="129.74" r="2.29"/><path class="cls-4" d="M178,138.45a34.74,34.74,0,0,1-1.41,7,35,35,0,0,1-1.4-7c0-2.34.63-4.24,1.4-4.24S178,136.11,178,138.45Z"/><circle class="cls-4" cx="165.71" cy="132.66" r="2.29"/><path class="cls-4" d="M171.28,139.49a35.12,35.12,0,0,1,2.29,6.77,35,35,0,0,1-4.73-5.36c-1.16-2-1.57-4-.9-4.37S170.11,137.47,171.28,139.49Z"/><circle class="cls-4" cx="157.75" cy="140.62" r="2.29"/><path class="cls-4" d="M166,143.75a34.88,34.88,0,0,1,5.37,4.72,34.88,34.88,0,0,1-6.78-2.28c-2-1.17-3.35-2.67-3-3.34S164,142.58,166,143.75Z"/><circle class="cls-4" cx="154.83" cy="151.49" r="2.29"/><path class="cls-4" d="M163.54,150.09a35.11,35.11,0,0,1,7,1.4,34.89,34.89,0,0,1-7,1.41c-2.34,0-4.23-.63-4.23-1.41S161.2,150.09,163.54,150.09Z"/><circle class="cls-4" cx="157.75" cy="162.37" r="2.29"/><path class="cls-4" d="M164.58,156.8a35.14,35.14,0,0,1,6.78-2.29,34.88,34.88,0,0,1-5.37,4.72c-2,1.17-4,1.57-4.37.9S162.56,158,164.58,156.8Z"/><circle class="cls-4" cx="165.71" cy="170.33" r="2.29"/><path class="cls-4" d="M168.84,162.08a35,35,0,0,1,4.73-5.36,35.12,35.12,0,0,1-2.29,6.77c-1.17,2-2.66,3.35-3.34,3S167.68,164.11,168.84,162.08Z"/><circle class="cls-4" cx="176.58" cy="173.24" r="2.29"/><path class="cls-4" d="M175.18,164.53a35.13,35.13,0,0,1,1.4-7,34.91,34.91,0,0,1,1.41,7c0,2.34-.63,4.24-1.41,4.24S175.18,166.87,175.18,164.53Z"/><circle class="cls-4" cx="187.46" cy="170.33" r="2.29"/><path class="cls-4" d="M181.89,163.49a35.12,35.12,0,0,1-2.29-6.77,35.16,35.16,0,0,1,4.72,5.36c1.17,2,1.57,4,.9,4.37S183.06,165.52,181.89,163.49Z"/><circle class="cls-4" cx="195.42" cy="162.37" r="2.29"/><path class="cls-4" d="M187.18,159.23a34.88,34.88,0,0,1-5.37-4.72,34.89,34.89,0,0,1,6.77,2.29c2,1.17,3.36,2.66,3,3.33S189.2,160.4,187.18,159.23Z"/><circle class="cls-4" cx="198.33" cy="151.49" r="2.29"/><path class="cls-4" d="M189.63,152.9a34.89,34.89,0,0,1-7-1.41,35.11,35.11,0,0,1,7-1.4c2.34,0,4.23.62,4.23,1.4S192,152.9,189.63,152.9Z"/><circle class="cls-4" cx="195.42" cy="140.62" r="2.29"/><path class="cls-4" d="M188.58,146.19a34.64,34.64,0,0,1-6.77,2.28,34.88,34.88,0,0,1,5.37-4.72c2-1.17,4-1.57,4.37-.9S190.61,145,188.58,146.19Z"/></g></g></svg>