<?xml version="1.0" encoding="utf-8"?>
<svg xmlns="http://www.w3.org/2000/svg" viewBox="0 0 272.21 226.64"><defs><style>.cls-1{fill:#fcb0b7;}.cls-2,.cls-3,.cls-4{fill:#f1d7da;}.cls-3,.cls-4{stroke:#1e1e1e;stroke-linecap:round;stroke-miterlimit:10;}.cls-3{stroke-width:0.8px;}.cls-4{stroke-width:0.72px;}</style></defs><title>step3_1</title><g id="レイヤー_2" data-name="レイヤー 2"><g id="copy"><path class="cls-1" d="M272.21,226.64l-28.06-35.73a180.14,180.14,0,0,0-109.58-66.09l5.18-28.53a209,209,0,0,1,99.17,47.35L266.76,113Z"/><circle class="cls-2" cx="87.56" cy="95.63" r="87.56"/><path d="M26,83.67a11.13,11.13,0,0,1-3,2.27l-1.35-.72a10,10,0,0,0,4.72-3.64l-3.93,0v-1h4.54a12.9,12.9,0,0,0,.77-1.59h-4v-.91h4.38a12.23,12.23,0,0,0,.41-1.45H23.24v-1h5.44A15.52,15.52,0,0,0,28.89,74l1.41.16c.21,0,.34.15.34.24s-.16.25-.58.3c0,.31-.12.65-.21,1h6.88v1h-7.1c-.12.45-.25.94-.43,1.45h7v.91h-4.4a8.63,8.63,0,0,0,.92,1.59h4.92v1l-4.16,0a10.11,10.11,0,0,0,4.88,3.12L37,85.56a10.6,10.6,0,0,1-3.13-2.07l.09,6.77H32.8l0-.79H27l0,.9H25.9Zm7.59-.41a15.86,15.86,0,0,1-1.42-1.68H27.61a13.42,13.42,0,0,1-1.24,1.68Zm-.79,5.26,0-1.8H27l0,1.8Zm0-2.74v-1.6H27.06l0,1.6Zm-1.23-5.13a11.74,11.74,0,0,1-.84-1.59h-1.8a17.39,17.39,0,0,1-.73,1.59Z"/><path d="M41.31,88.93a10.1,10.1,0,0,1-.92-4.55,38.48,38.48,0,0,1,.74-6.14c.15-.83.34-2.08.42-2.72,0-.06,0-.09.09-.09s1,.23,1.44.37c.18.06.27.17.27.26s-.18.25-.53.25h0A48.2,48.2,0,0,0,41.56,83c0,.4-.09.92-.09,1.46,0,.06,0,1,.13,1s.09-.09,1.42-3.69c0,.07.34.76.54,1.21a14,14,0,0,0-1.29,4.91,4.77,4.77,0,0,0,0,.76s-.16.09-.18.09ZM44.52,78.6a.12.12,0,0,1,0-.08s0,0,.07,0h0a10.44,10.44,0,0,0,2.61.4,17,17,0,0,0,2.14-.2v-1c0-.81,0-1.56,0-2.43,0,0,1.21.06,1.37.08s.44.12.44.23-.17.27-.53.34A11.18,11.18,0,0,0,50.53,77c0,.49,0,1,0,1.46.93-.18,1.9-.38,2.86-.61l.07,1.2c-1,.2-2,.38-2.93.52,0,2.09.12,4,.19,5.37a12.82,12.82,0,0,1,3.91,2.2l-1,1a9.1,9.1,0,0,0-2.8-2.07,2.88,2.88,0,0,1-3.1,2.7c-1.53,0-3.13-.89-3.13-2.18,0-1,1.15-2.07,3.47-2.07a8.21,8.21,0,0,1,1.53.14c0-1-.14-2.9-.18-4.91a24.33,24.33,0,0,1-2.63.23,7.82,7.82,0,0,1-1.91-.22Zm3.4,6.93c-1.24,0-2.23.43-2.23,1.06s1.11,1,2,1a1.8,1.8,0,0,0,1.92-1.85A5.75,5.75,0,0,0,47.92,85.53Z"/><path d="M54.88,89.9c1.84-2.27,2-6,2-9,0-1.42,0-5.22-.05-5.93h4.64V85.38c0,1.3,0,2.25,0,2.47v0c0,1.45-1.28,1.85-2.49,1.85l-.32,0-.77-1.33a11.46,11.46,0,0,0,1.29.13c.63,0,1.17-.17,1.17-.87V84H57.85a12.72,12.72,0,0,1-1.71,6.22Zm5.5-7V79.86H57.94c0,.34,0,.68,0,1.06,0,.63,0,1.31-.05,2Zm0-4.08V76.06H57.94v2.79Zm.59,11c2.34-1.73,2.59-5,2.59-7.85,0-.77,0-1.51,0-2.18,0-1.33-.07-4.44-.07-4.71h5.35c0,.57,0,11,0,13.05,0,.32.18.54.8.54.3,0,.72,0,.86-.81s.14-2.74.16-3.2l1.1,1a18.57,18.57,0,0,1-.2,2.56c-.16.92-.54,1.62-2,1.62s-1.85-.77-1.85-1.48V76.16h-2.9c0,.33,0,2.81,0,3.7,0,.52,0,1.08,0,1.63,0,3.1-.22,6.47-2.38,8.7Z"/><path d="M74,88c4.63-.88,5.83-3.47,6-6.1H73.46V80.67h6.59c0-.67,0-1.91,0-2.42V77.8c-1.64.17-3.26.22-4.81.27l-.81-1.26c.44,0,.87,0,1.34,0a29.1,29.1,0,0,0,8.53-1.08,6.22,6.22,0,0,1,1,1.39c0,.1-.07.16-.19.16a.72.72,0,0,1-.49-.24,29.8,29.8,0,0,1-3.19.6v3H87v1.26H81.38c-.12,3.53-2.07,6.14-6,7.22Z"/><path d="M91.6,87.09h4.7v-5H92.49V81h8.87v1.13H97.51v5h4.72v1.17H91.6Z"/><path d="M108.7,76.81a11.94,11.94,0,0,1,4,3.08l-1.08,1.19a11.1,11.1,0,0,0-3.8-3.44Zm11.83,3.82a22.74,22.74,0,0,1-10.91,7.62c0,.32-.1.46-.23.46s-1.41-1.36-1.5-1.51a.19.19,0,0,1,0-.09s0,0,.11-.07c5.07-.68,9.65-4.72,12-8.05Z"/><path d="M124.35,79.75a12,12,0,0,1,4,2L127.66,83a10.6,10.6,0,0,0-4.07-2.2Zm13.16.74a24.29,24.29,0,0,1-10.81,8c0,.27-.09.47-.25.47s-1.31-1.21-1.51-1.48c0,0,0,0,0-.09s0-.07.13-.09c5.65-.92,10.23-6,11.87-8.41Zm-10.64-4.42a11.75,11.75,0,0,1,3.8,2.45l-.9,1.16a10.37,10.37,0,0,0-3.7-2.74Zm7.27-.43a10.05,10.05,0,0,1,2.11,2l-.88.73a10.62,10.62,0,0,0-2-2.09Zm1.59-1.13a10.52,10.52,0,0,1,2.12,1.85l-.86.76a12.24,12.24,0,0,0-2.06-2Z"/><path d="M145.52,87.76c3.2-.25,7.2-1.85,7.2-5.62,0-2.28-1.84-4.32-4.74-4.5,0,.22,0,.45,0,.69,0,3.16-2.18,6.46-3.21,7.72a2.6,2.6,0,0,1-1.91,1.19c-1.08,0-2.61-1.51-2.61-3.75,0-3.31,3.35-6.91,7.42-6.91,3.73,0,6.36,2.54,6.36,5.58,0,4-3.68,6.19-7.06,6.79Zm-4-4.32c0,1.35.83,2.45,1.37,2.45,1.08,0,3.87-4.36,3.87-7.46,0-.23,0-.48,0-.72C144,78.22,141.48,81,141.48,83.44Z"/><path d="M48.46,116.17a15.24,15.24,0,0,0,7.33-4.42,12.43,12.43,0,0,0-3.19-2.3l.84-.81a14.52,14.52,0,0,1,3.25,2,21.59,21.59,0,0,0,2.48-4.25H54.36a18,18,0,0,1-4.55,4.34L48.49,110a16.21,16.21,0,0,0,6.36-6.86c1.39.38,1.69.51,1.69.67s-.2.23-.54.23h-.09c-.25.45-.52.87-.77,1.26,1.69,0,4.48,0,4.57,0s.2-.13.31-.13,1.11.7,1.11,1c0,.11-.16.18-.39.24-2,4.07-5.08,8.91-11,10.73Z"/><path d="M64.93,111.57a22.29,22.29,0,0,0,10.57-8c.18,0,1.62.73,1.62,1,0,.11-.11.18-.33.18a1.09,1.09,0,0,1-.29,0,31,31,0,0,1-3,3.11v9.65H72.11l0-8.44a23.76,23.76,0,0,1-5.78,3.6Z"/><path d="M84.08,113a37.86,37.86,0,0,1,9.63,2.6l-.5,1.54a29.3,29.3,0,0,0-9.69-2.88Zm.7-8.66a45,45,0,0,1,8.12.94l-.41,1.42a26.87,26.87,0,0,0-8.1-1.13Zm.29,4.22a34.65,34.65,0,0,1,7.13,1.22l-.36,1.44a23.09,23.09,0,0,0-7.2-1.46Z"/><path d="M100.33,104.84a11.81,11.81,0,0,1,4,3.08l-1.08,1.19a11.1,11.1,0,0,0-3.8-3.44Zm11.83,3.82a22.73,22.73,0,0,1-10.91,7.61c0,.33-.11.47-.23.47s-1.41-1.37-1.5-1.51a.19.19,0,0,1,0-.09s0,0,.11-.07c5.07-.69,9.65-4.72,12-8Z"/><path d="M115.65,116.13c5.24-1.66,8-4.86,10.37-9.61l-4.64,0a19.12,19.12,0,0,1-4.59,4.41l-1.37-.72a15.83,15.83,0,0,0,6.34-6.9c1.69.4,1.76.45,1.76.62s-.2.23-.49.23H123c-.25.43-.52.85-.79,1.24,1.82,0,4.34,0,4.43,0s.21-.18.36-.18.29.12,1,.74a.21.21,0,0,1,.09.18c0,.12-.14.21-.37.27-2.6,5-5.26,8.77-10.61,10.71ZM127,102.82a10.41,10.41,0,0,1,2.25,1.89l-.81.76a8.08,8.08,0,0,0-2.18-2Zm1.6-1.08a9.65,9.65,0,0,1,2.26,1.73l-.78.79a7.92,7.92,0,0,0-2.2-1.85Z"/><path class="cls-3" d="M136.62,138.4s-7.41,8.84.36,17.22c0,0,9.65-5.83,4.08-16.9l-2.45,2.78Z"/><path class="cls-3" d="M139.28,158s5.51-10.33,15.88-5.25l-1.68,2.3,2.43.38S152.17,165.45,139.28,158Z"/><path class="cls-3" d="M138,160.72s-5.57,11.05,7.12,16.06l0-3.47,2.76,1.43S151.26,164.34,138,160.72Z"/><path class="cls-3" d="M134.83,160.41s-12.25-.62-12.59,11.67l3.39-.54-.6,3.13S137.22,171.52,134.83,160.41Z"/><path class="cls-3" d="M134.53,157.63s-2.88-12-14.83-8.41l1.93,2.51-3.72.94S122.58,161.24,134.53,157.63Z"/><path class="cls-4" d="M89.51,24.9C99.94,13.76,91,.62,91,.62L89.42,2.83a2,2,0,0,1-3.17,0L84.64.62S75.73,13.76,86.16,24.9A2.29,2.29,0,0,0,89.51,24.9Z"/><path class="cls-4" d="M84,26.44c-7.38-13.36-22.62-9-22.62-9L63,19.71a2,2,0,0,1-1,3l-2.59.85S69.18,36.1,83,29.63A2.29,2.29,0,0,0,84,26.44Z"/><path class="cls-4" d="M83.81,32.12c-15,2.89-15.5,18.75-15.5,18.75L70.92,50a2,2,0,0,1,2.56,1.86v2.73s14.92-5.38,13-20.53A2.3,2.3,0,0,0,83.81,32.12Z"/><path class="cls-4" d="M89.14,34.09c-1.88,15.15,13,20.53,13,20.53V51.89A2,2,0,0,1,104.75,50l2.61.84S106.84,35,91.86,32.12A2.3,2.3,0,0,0,89.14,34.09Z"/><path class="cls-4" d="M92.67,29.63c13.82,6.47,23.55-6.06,23.55-6.06l-2.59-.85a2,2,0,0,1-1-3l1.6-2.22s-15.24-4.41-22.62,9A2.29,2.29,0,0,0,92.67,29.63Z"/></g></g></svg>