<?xml version="1.0" encoding="utf-8"?>
<svg xmlns="http://www.w3.org/2000/svg" viewBox="0 0 448.67 189.01"><defs><style>.cls-1{isolation:isolate;}.cls-2{fill:none;stroke-miterlimit:10;}.cls-2,.cls-4{stroke:#1e1e1e;stroke-linecap:round;stroke-width:0.86px;}.cls-3{mix-blend-mode:multiply;}.cls-4{fill:#fff;stroke-linejoin:round;}</style></defs><title>step2</title><g class="cls-1"><g id="レイヤー_2" data-name="レイヤー 2"><g id="copy"><path d="M154.66,54.19h-3.09V53c2.59-.18,3.45-1.63,3.7-2.45h1.34V67.14h-2Z"/><path d="M171.81,66.39c4.34-1.37,5.82-4.52,6.18-8.07h-4A12.27,12.27,0,0,1,171.15,62l-1.66-.57A13.7,13.7,0,0,0,174.17,54c.12,0,2,.32,2,.75,0,.16-.25.32-.68.32-.23.68-.48,1.32-.75,1.93h8.86v1.36h-3.93c-.41,4-2.25,7.61-6.12,9.18Z"/><path d="M187.44,67.93c4.5-2.7,5-6.79,5-10.93,0-.7,0-1.38,0-2.06,0-1.75-.11-5.3-.11-5.64h12.09V62.59c0,1.64,0,2.75,0,3,0,2.24-1.84,2.79-4.2,2.79l-.8,0-1.38-1.8a18,18,0,0,0,2.5.21c1.52,0,2.27-.37,2.27-1.34V60.8h-9.07a11.13,11.13,0,0,1-4.38,7.84Zm15.41-8.61V55.64H194c0,1.23,0,2.46-.09,3.68Zm0-5.09V50.76h-8.91s.05,1.63.07,3.47Z"/><path d="M209.17,51.73h6.38a14.48,14.48,0,0,0-1.68-2.7l1.39-.57a22.06,22.06,0,0,1,1.91,3.27h3.45a13.65,13.65,0,0,0,1.54-3.36s2.16.52,2.16,1c0,.15-.25.31-.66.31l-.25,0a18.59,18.59,0,0,1-1.22,2.11h6.43v1.32H209.17Zm1.68,3.34h7.34v9c0,.36,0,1.91,0,2.05v0c0,1.93-1.52,2.27-3.06,2.27-.25,0-.5,0-.75,0l-1-1.59a14.67,14.67,0,0,0,1.88.18c.84,0,1.48-.23,1.48-1V63.55h-4.55v5.13h-1.38Zm6,3.59V56.37h-4.57v2.29Zm0,3.62,0-2.34h-4.57v2.34Zm4.13-5c0-1.16-.06-1.87-.06-2,2,.16,2.22.21,2.22.41s-.25.37-.68.46c0,.75,0,1.38,0,1.38v6.8h-1.43Zm.21,9.36a22.69,22.69,0,0,0,2.38.2c1.07,0,1.89-.22,1.89-1.16V56.5s0-.88-.07-1.77c.07,0,2.23,0,2.23.43,0,.16-.23.34-.62.41,0,.59,0,1.25,0,1.25v6.84c0,1.11,0,2,0,2.11v.1c0,2.34-2.09,2.54-3.88,2.54h-.69Z"/><path d="M246.13,66.55a20.74,20.74,0,0,1-5.15.68c-1,0-7.16,0-7.16-4.23,0-2.47,2.18-4.06,4.66-5.11a6.21,6.21,0,0,1-.68-3.09c0-.84.09-1.82.09-3v-.52c0-.55,0-1.16-.07-1.84v-.07c0-.09,0-.09.09-.09a19.53,19.53,0,0,1,2,.29c.2,0,.36.16.36.28s-.16.29-.59.41c-.09,1.68-.22,3.47-.25,4.31a5.43,5.43,0,0,0,.53,2.75c.81-.27,1.63-.5,2.38-.7,1-.25,2-.43,2.89-.68h0c.09,0,.16,0,.16.13l0,1.75c-4.3.34-10,1.91-10,5,0,2.56,3.77,2.7,5,2.7a19.35,19.35,0,0,0,6-1Z"/><path d="M253.73,50.85s0-1.09,0-1.62c.5,0,1.39.1,1.84.14.27.05.43.18.43.32s-.18.32-.63.41c0,.22,0,.72,0,1v4.5h5.2v1.48h-5.2v8.43c2.23-.71,4.34-1.5,5.5-2l0,1.5a73.57,73.57,0,0,1-8.59,3,1,1,0,0,1,0,.23c0,.32-.11.52-.27.52s-1.11-1.86-1.16-2c.91-.18,1.95-.46,3-.77Zm8.15.07s0-1.23-.07-1.71c1.44.07,2.3.12,2.3.46,0,.15-.21.34-.64.4,0,.28,0,.78,0,1v5.57a20.65,20.65,0,0,0,5.22-3.95c.09,0,1.44,1.31,1.44,1.68,0,.13-.1.22-.28.22a1.17,1.17,0,0,1-.54-.16,40.44,40.44,0,0,1-5.84,3.89v6.88c0,1.25,1.11,1.32,2.45,1.32,2.27,0,3.05-.27,3.14-4.82l1.59,1.41C270.15,67.52,269,68,265.77,68c-1.5,0-3.91,0-3.91-2.46Z"/><path d="M271.7,63.64h3.86V61.12h-1.84v1.11h-1.18V53.6h3V51.92h-3.75V50.71h3.75V50.1s0-1.16,0-1.71c.34,0,2.11,0,2.11.44,0,.15-.25.31-.66.38,0,.34-.05,1-.05,1v.5h3.66v1.21h-3.66V53.6H280v8.45l-1.23,0v-.91h-1.89v2.52h3.78v1.2h-3.78v3.73h-1.36V64.84H271.7Zm3.91-6.89V54.69h-1.89v2.06Zm0,3.28V57.85h-1.89V60Zm3.2-3.28V54.69h-1.93v2.06Zm0,3.28V57.85h-1.93V60Zm-.29,7.29a12.2,12.2,0,0,0,6.79-4.73,22.42,22.42,0,0,1-2.16-4.84l1.32-.63a16.65,16.65,0,0,0,1.63,4.25,15,15,0,0,0,1.66-4.32c.05,0,1.87.64,1.87,1,0,.16-.21.32-.53.32a1.57,1.57,0,0,0-.16,0,18.52,18.52,0,0,1-2,4.28,13.08,13.08,0,0,0,5.61,4.47L291,68.21a14.06,14.06,0,0,1-4.93-4.44,14.07,14.07,0,0,1-6,4.64Zm2-9.61A11,11,0,0,0,284,53.05c1.16.46,1.71.71,1.71,1s-.19.23-.46.23a1,1,0,0,1-.29,0,15.9,15.9,0,0,1-3.14,4.23Zm.89-6.57h4v-.93s0-1.16-.07-1.73c1.86,0,2.18.21,2.18.41s-.2.34-.64.44c0,.24,0,.93,0,.93l0,.88h4.72v1.32H281.36Zm6.79,2a13.38,13.38,0,0,0,4,4.15l-1.34,1a18.78,18.78,0,0,1-3.8-4.45Z"/><path d="M310.67,62.82c-1.68,2.07-5.3,4.66-8.46,4.66-4.72,0-5-3.59-5-6.23,0-2.81.43-6.29.43-9.38,0-.5,0-1,0-1.48a14.31,14.31,0,0,1,2.18.21c.25,0,.41.16.41.32s-.23.38-.73.47c-.18,3.36-.66,7.43-.66,10s.64,4.38,3.38,4.38c3.32,0,6.32-3.09,7.75-5Z"/><path d="M314.74,53.39a.24.24,0,0,1-.05-.13c0-.07.07-.12.18-.12,3.09,0,7.61-1.52,15.41-2.36l.29-.07a.59.59,0,0,1,.23-.07c.27,0,.84,1.48.84,1.66s-.09.16-.18.16a.72.72,0,0,1-.34-.09,7.19,7.19,0,0,0-2.66.52c-2.16.84-6.13,4.27-6.13,7.52,0,3.82,4.31,4.75,7.29,4.86L328.14,67c-2.2-.34-7.41-1.7-7.41-6.38,0-4.16,4.53-7.38,5.25-7.88-4,.52-8,1.9-10.38,2.2Z"/><path d="M189.06,102c2.32-2.86,2.52-7.61,2.52-11.33,0-1.8,0-6.59-.07-7.48h5.86V96.28c0,1.64,0,2.84,0,3.11v0c0,1.84-1.61,2.34-3.14,2.34l-.41,0-1-1.69a14.51,14.51,0,0,0,1.63.16c.8,0,1.48-.2,1.48-1.09l0-4.59h-3.18c-.21,2.89-.75,5.84-2.16,7.86ZM196,93.19V89.3h-3.07c0,.44,0,.87,0,1.35,0,.79,0,1.65-.06,2.54ZM196,88V84.51h-3.07V88Zm.75,13.84C199.69,99.69,200,95.51,200,92c0-1,0-1.91,0-2.75,0-1.68-.09-5.61-.09-5.95h6.74c0,.73,0,13.86,0,16.47,0,.41.23.69,1,.69.38,0,.91-.07,1.09-1a40,40,0,0,0,.2-4l1.39,1.27a23.76,23.76,0,0,1-.25,3.23c-.21,1.16-.68,2-2.59,2s-2.34-1-2.34-1.86l0-15.38h-3.66c0,.41,0,3.54,0,4.65,0,.66,0,1.37,0,2.07,0,3.91-.27,8.16-3,11Z"/><path d="M214.87,94.33a28.26,28.26,0,0,1-3.09,2.4,1.4,1.4,0,0,1,.07.41c0,.23-.07.34-.21.34s-.18,0-1.47-1.63a24.69,24.69,0,0,0,4.7-3.23V84.06s0-1-.07-1.89c1.52,0,2.32.14,2.32.41s-.23.34-.7.45c0,.44,0,1.19,0,1.19v17.29c4.41-2.75,5.84-7,6.25-11.3h-5.36V88.78h5.45c0-.7,0-1.38,0-2.09,0-.88,0-2.13,0-2.59s0-1.45-.07-1.75c1.89.09,2.28.18,2.28.39s-.25.34-.66.41a7.89,7.89,0,0,0,0,.91v2.88c0,.62,0,1.23,0,1.84h6.25v1.43h-6c.86,4.66,3.16,8.73,6.7,11l-1.86,1a18,18,0,0,1-5.59-9.61,15.78,15.78,0,0,1-5.59,9.82l-1.77-.82v.93h-1.5Zm-2.16-3.93a18.86,18.86,0,0,0-2-4.62l1.29-.41a21,21,0,0,1,2.09,4.43Zm13.7-7a24.25,24.25,0,0,1,3.41,3.25l-1.29,1a14.12,14.12,0,0,0-3.25-3.5Z"/><path d="M231.37,101.14A9.59,9.59,0,0,0,235,97.39c.66.23,1.79.64,1.79.91s-.2.27-.47.27a1.45,1.45,0,0,1-.28,0,11.54,11.54,0,0,1-3,3.38Zm8-18.38a21.29,21.29,0,0,1,2.8,3.3l-1.21.72c-.25-.41-.47-.79-.7-1.13a72.71,72.71,0,0,1-7.25.59c0,.41-.16.68-.32.68s-.41-.59-.63-2c.7,0,1.45,0,2.25,0a20.72,20.72,0,0,0,1.43-3c.13,0,1.11.25,1.61.41a.21.21,0,0,1,.2.2c0,.16-.2.34-.7.37-.07.16-.64,1.2-1.11,2,1.45,0,2.84-.16,3.79-.27a10.56,10.56,0,0,0-1.23-1.32Zm-5.77,4.48h7.07l0,5.43c0,.57,0,.86,0,1.25V94c0,2.07-1.36,2.16-3.09,2.16l-.84-1.41a12,12,0,0,0,1.39.12c1,0,1.25-.32,1.25-1v-.8h-4.52v3.37h-1.3Zm5.82,2.34V88.35h-4.52v1.23Zm0,2.38V90.65h-4.52V92Zm-1.87,6.27s0-.72,0-1.18c2.16,0,2.27.28,2.27.39s-.27.41-.66.43a4.61,4.61,0,0,0-.07.64c0,.41,0,.88,0,1.25,0,.81.16,1.06,2.66,1.06,3.75,0,4.18-.15,4.24-2.13l1.6,1.16c-.39,2.25-2.68,2.27-5.59,2.27-2.73,0-4.41-.05-4.41-1.75v-.07Zm3.64-2.11a16.78,16.78,0,0,1,3.59,2.07l-1,1.13A16,16,0,0,0,240.21,97ZM244,86.51c0,.7.29,1,2.11,1,3.2,0,3.38-.57,3.52-2.52L251,86c-.41,2.16-1.13,2.73-5,2.73-1.75,0-3.27,0-3.27-1.93,0-.41,0-1.87,0-2.8v-.59c0-.5,0-.84,0-1.11.14,0,2,0,2,.41,0,.16-.21.34-.57.38,0,.23,0,.48,0,.66s0,.52,0,.84a20.57,20.57,0,0,0,5.34-1.84c1,1.3,1.09,1.39,1.09,1.5a.22.22,0,0,1-.25.21.73.73,0,0,1-.55-.28A37,37,0,0,1,244,85.76Zm0,5.14a21.67,21.67,0,0,0,5.36-1.82,7.07,7.07,0,0,1,1.09,1.5c0,.13-.11.2-.25.2a.76.76,0,0,1-.54-.27A37.41,37.41,0,0,1,244,92.83c0,.54,0,1,0,1,0,.84.72,1,2.11,1,3.34,0,3.5-.54,3.63-2.61l1.35,1c-.39,2.5-1.75,2.82-5,2.82-2.47,0-3.34-.43-3.34-2,0-.53,0-3.8,0-3.8,0-.32,0-.79,0-1.11,1.68.09,2,.25,2,.43s-.25.32-.59.36a2.81,2.81,0,0,0,0,.62Zm3.7,5.49a17.8,17.8,0,0,1,4.18,3l-1.41,1.13a10.41,10.41,0,0,0-3.88-3.18Z"/><path d="M255.77,100.76A12.62,12.62,0,0,1,254.61,95a48.17,48.17,0,0,1,.93-7.75c.19-1.05.44-2.61.53-3.43,0-.07,0-.11.11-.11s1.25.29,1.82.47c.22.07.34.21.34.32s-.23.32-.66.32h-.07a60.06,60.06,0,0,0-1.52,8.47c0,.5-.11,1.16-.11,1.84,0,.07,0,1.25.15,1.25s.12-.11,1.8-4.65c0,.09.43,1,.68,1.52-1,2.68-1.63,4.5-1.63,6.2a7.73,7.73,0,0,0,.06,1,.76.76,0,0,1-.22.11Zm4-13.05s0-.06,0-.09,0-.06.09-.06h0a13.5,13.5,0,0,0,3.29.5,20.56,20.56,0,0,0,2.7-.25V86.58c0-1,0-2,0-3.07l1.73.09c.36,0,.54.16.54.3s-.2.34-.65.43a12.71,12.71,0,0,0-.1,1.41c0,.61,0,1.22,0,1.84,1.18-.23,2.41-.48,3.61-.77l.09,1.52c-1.22.25-2.5.47-3.7.66,0,2.63.16,5,.25,6.77a16.36,16.36,0,0,1,4.93,2.77l-1.3,1.25a11.31,11.31,0,0,0-3.54-2.61,3.62,3.62,0,0,1-3.91,3.4c-1.93,0-4-1.11-4-2.75,0-1.31,1.45-2.61,4.38-2.61a10.64,10.64,0,0,1,1.93.18c-.06-1.25-.18-3.65-.22-6.2a30.84,30.84,0,0,1-3.32.3,9.72,9.72,0,0,1-2.41-.28Zm4.29,8.75c-1.57,0-2.82.55-2.82,1.34s1.41,1.32,2.52,1.32a2.29,2.29,0,0,0,2.44-2.34A7.43,7.43,0,0,0,264.11,96.46Z"/><path d="M282.24,96c0-2.15.3-3.06,2.46-4.63a4.57,4.57,0,0,0,2.09-3.64c0-1.86-.94-3.09-3.21-3.09a3.36,3.36,0,0,0-3.45,3.55v0h-2A5.24,5.24,0,0,1,283.65,83c3.23,0,5.09,1.88,5.09,4.75,0,2.11-1.09,3.45-3,4.9A3.39,3.39,0,0,0,284.13,96Zm-.34,3.14h2.59v2.52H281.9Z"/><path class="cls-2" d="M358.13,148.6c-27.62-34.81-74.06-8.33-118.63-8.33-67.45,0-122.13-31.3-122.13-69.92S172.05.43,239.5.43,361.62,31.74,361.62,70.35c0,21.39-16.76,40.53-43.18,53.36"/><g class="cls-3"><path class="cls-2" d="M11.39,111.26S.84,121.57,9.58,141.55c10.57,24.17-2.51,41.17-9.15,41.17"/><path class="cls-2" d="M95.94,82.1s6.14-7,6.92,4.33S94,114.79,89,112.42"/><path class="cls-2" d="M9,82.1S4.13,74.8,3.31,85s6.13,26.67,12,27.64"/><path class="cls-2" d="M77.42,44.81S92.58,48.36,95,59.6"/><path class="cls-2" d="M85.38,62.25s3.43,9.32,9.71,12.15"/><path class="cls-2" d="M90.21,77s1.16,6,3.52,5"/><path class="cls-2" d="M41.73,38.64s-18.77-4-28.48,8.89"/><path class="cls-2" d="M58.7,38.66s4.11-17.7,2-20.48"/><path class="cls-2" d="M62.41,38.39S68.79,24.66,67,21.76"/><path class="cls-2" d="M47.06,37.53S35.44,25.7,35.57,22.84"/><path class="cls-2" d="M68.13,38.93s12.62-4.22,15.31-.81"/><path class="cls-2" d="M33,46.25S14.34,43.49,8.9,60.78"/><path class="cls-2" d="M19.61,62c-.51.85-4.75,11.84-10.76,13.3"/><path class="cls-2" d="M15.06,77.3s-1.39,4-5.48,4.5"/><path class="cls-2" d="M22.48,24.22c-13,4-26.4,37.16-19,54.58"/><path class="cls-2" d="M83.51,24.9c18.32,12.85,20.56,46,15.72,53.9"/><path class="cls-2" d="M25.5,183.11c8-12.52,4.72-36.22,4-40.79"/><path class="cls-2" d="M56.85,120.53a3.37,3.37,0,0,0-3,1.14c-1,1.48-4.43,1.4-5.24-.19-.62-1.22-3.34-1.07-3.34-1.07"/><path class="cls-2" d="M40.34,132.44a28.9,28.9,0,0,0,7.27.92c1.43-.06,2.65-.6,4.22-.6s2.52.54,4,.61a28.48,28.48,0,0,0,7.2-.93"/><path class="cls-2" d="M44.28,137.09c4.28,1.41,11.55,1.23,15.34,0"/><path class="cls-2" d="M92.77,88.41c-.6,9.51-4.78,25.6-7.34,34.78a48,48,0,0,1-9,17.61l-.09.11C68,151.06,57.77,155.72,51.92,155.72c-6.33,0-17.1-6.46-23.19-14.55L27.9,140a68.15,68.15,0,0,1-9.83-20.78C15.7,111,12.55,98.68,11.56,88.41"/><path class="cls-2" d="M37.86,84.34s-8.13-2.43-13-1.36c-3.65.8-4.51,2.54-4.51,2.54"/><path class="cls-2" d="M64.76,84.94s7.67-3.1,14.64-1.77a4.13,4.13,0,0,1,1.19.43,8.58,8.58,0,0,1,3,2.48"/><path class="cls-2" d="M83.39,96.69l-1.75-.77c-5.27,3-11.72,2.12-15,1.26-.65-.16-.89-.42-1.1-.33"/><path class="cls-2" d="M20.23,96.69,22,95.92c5.32,3,11.54,1.85,14.81,1,.65-.17.89-.42,1.11-.33"/><path class="cls-2" d="M44.63,95.13s-2-5.2-6-5.75"/><path class="cls-2" d="M67,96.2s8.56,1.51,12.56-1.91"/><path class="cls-2" d="M36.77,95.66s-9.38,2-13.42-1.44"/><path class="cls-4" d="M84.12,188.58c-3.34-8.23-6.13-15.92-6.74-19.9-1.68-11.11,15.83-28.34,17.3-34.13l2.12-17.89L95.5,93s-.5-2.36-1.68-.72l-3,4.78"/><path class="cls-4" d="M89.5,134.05c-.39-4.82,2.79-15.55,3-17.74.31-3.63,1.36-22.76,1.21-26.23-.2-4.93-3.59-4.85-4.14.33-.48,4.52-1.44,10.64-1.44,10.64"/><path class="cls-4" d="M65.29,188.58c-1.89-6.37-3.56-12.21-4.7-16.59-2.81-10.76-2.86-18.32.54-21.48C72,140.44,72.67,137.61,74.94,133.3c-.06.58,6.14-10.79,7.8-16.31,1.52-5,1.81-12.09,2.09-15.07.37-4,3.83-5.64,3.92-1,0,.45-1.45,17.61-1.76,18.88-.68,2.76-4.15,10.62-3.34,13.89"/></g><path class="cls-2" d="M399.37,102.86a37.76,37.76,0,0,0,26.39,21.43,40.22,40.22,0,0,0,7.49,1"/><path class="cls-2" d="M399.16,137.25a55.52,55.52,0,0,0,11.33-1.16,51.36,51.36,0,0,0,22.76-10.84"/><path class="cls-2" d="M393.92,125.25a51.36,51.36,0,0,0,22.76,10.84A55.52,55.52,0,0,0,428,137.25"/><path class="cls-2" d="M393.92,125.25a40.33,40.33,0,0,0,7.49-1,37.78,37.78,0,0,0,26.39-21.43"/><path class="cls-2" d="M413.7,71.65a.12.12,0,0,0-.23,0c-2.91,15.72-19.73,34.23-19.73,50.53,0,12.54,8.88,21.59,19.84,21.59s19.85-9.05,19.85-21.59C433.43,105.88,416.61,87.37,413.7,71.65Z"/><path class="cls-2" d="M440.82,177.42l-54.51-.12a7.4,7.4,0,0,1-7.38-7.4V45.29a7.4,7.4,0,0,1,7.41-7.4l54.52.12a7.4,7.4,0,0,1,7.38,7.4V170A7.4,7.4,0,0,1,440.82,177.42Z"/><path class="cls-2" d="M386.32,173.79a3.9,3.9,0,0,1-3.89-3.89V45.29a3.91,3.91,0,0,1,3.9-3.9l54.52.13a3.89,3.89,0,0,1,3.88,3.89V170a3.89,3.89,0,0,1-3.89,3.89Z"/></g></g></g></svg>