<?xml version="1.0" encoding="utf-8"?>
<svg xmlns="http://www.w3.org/2000/svg" viewBox="0 0 92.84 92.84"><defs><style>.cls-1,.cls-2{fill:none;}.cls-2{stroke:#fb9ca5;stroke-linecap:round;stroke-linejoin:round;stroke-width:5.4px;}</style></defs><title>work1</title><g id="レイヤー_2" data-name="レイヤー 2"><g id="copy"><path class="cls-1" d="M58.92,62.12a20.07,20.07,0,0,1-25-31.4,19.65,19.65,0,0,1,3.42-2.2,20.07,20.07,0,0,1,21.58,33.6Z"/><path class="cls-2" d="M36.69,3.79a43.72,43.72,0,0,1,43.93,15.4"/><polyline class="cls-2" points="81.73 6.93 85.22 23.34 68.46 20.15"/><path class="cls-2" d="M3.79,56.15a43.74,43.74,0,0,1,15.4-43.94"/><polyline class="cls-2" points="6.93 11.11 23.34 7.62 20.15 24.38"/><path class="cls-2" d="M56.15,89.05a43.74,43.74,0,0,1-43.94-15.4"/><polyline class="cls-2" points="11.11 85.91 7.62 69.5 24.38 72.69"/><path class="cls-2" d="M89.05,36.69a43.72,43.72,0,0,1-15.4,43.93"/><polyline class="cls-2" points="85.91 81.73 69.5 85.22 72.69 68.46"/></g></g></svg>