<svg id="レイヤー_1" data-name="レイヤー 1" xmlns="http://www.w3.org/2000/svg" viewBox="0 0 885.97 331.29"><defs><style>.cls-1{fill:#101010;}</style></defs><path class="cls-1" d="M181,247.83a182,182,0,0,1-34.31-4.39,177.51,177.51,0,0,1-73.67-36,171,171,0,0,1-47.29-62.27l4.57-2c21.17,47.89,65.09,83.55,117.49,95.4a176.24,176.24,0,0,0,33.37,4.27Z" transform="translate(-0.03 -0.21)"/><path class="cls-1" d="M27.31,302.06H27v-5h.27a250,250,0,0,0,50.4-5.16C116,284,151.15,267.23,179.42,243.42l3.22,3.82c-28.9,24.34-64.84,41.48-103.92,49.55A254.12,254.12,0,0,1,27.31,302.06Z" transform="translate(-0.03 -0.21)"/><path class="cls-1" d="M157.08,302.06a254.9,254.9,0,0,1-51.41-5.26c-39.09-8.08-75-25.22-103.93-49.56L5,243.42C33.23,267.22,68.4,284,106.68,291.9a250,250,0,0,0,50.4,5.16h.27v5Z" transform="translate(-0.03 -0.21)"/><path class="cls-1" d="M3.43,247.83l-.15-5a176.13,176.13,0,0,0,33.36-4.27c52.41-11.85,96.33-47.51,117.49-95.4l4.58,2a171.13,171.13,0,0,1-47.3,62.27,177.45,177.45,0,0,1-73.67,36A182,182,0,0,1,3.43,247.83Z" transform="translate(-0.03 -0.21)"/><path class="cls-1" d="M92.19,331.5A88.58,88.58,0,0,1,27,303.2C9.6,284.68,0,259.21,0,231.48,0,189.81,24,145,47.12,101.74c18.69-34.95,36.34-68,42.09-99a3,3,0,0,1,3-2.54h0a3,3,0,0,1,3,2.55c5.75,31,23.4,64,42.09,99,23.15,43.29,47.09,88.06,47.09,129.73,0,27.73-9.56,53.2-26.93,71.72A88.6,88.6,0,0,1,92.19,331.5Zm0-318.95C84.92,41.66,68.66,72.07,51.53,104.1,28.67,146.85,5,191.06,5,231.48c0,54.17,37.47,95,87.16,95s87.16-40.85,87.16-95c0-40.42-23.64-84.62-46.5-127.37C115.73,72.08,99.46,41.66,92.19,12.55ZM90.25,3.66h0Z" transform="translate(-0.03 -0.21)"/><path class="cls-1" d="M287.36,115.28a8.79,8.79,0,1,0,8.79,8.79,8.78,8.78,0,0,0-8.79-8.79m0,33.58a7,7,0,0,0-7,7v82.76a7,7,0,0,0,14,0V155.86a7,7,0,0,0-7-7m302.73.71a6.89,6.89,0,0,0-9.22,3.13l-28.73,58.39L521.6,152.57a6.89,6.89,0,1,0-12.23,6.35l35.23,67.49-19.9,40.44a6.89,6.89,0,0,0,12.36,6.08l56.17-114.14a6.88,6.88,0,0,0-3.14-9.22m247.23-.34c-26.88,0-48.67,21.58-48.67,48.19s21.79,48.2,48.67,48.2c16.11,0,31.44-5.26,43-20.38a6.88,6.88,0,1,0-10.9-8.35c-8.88,11.61-19.3,16.21-31.66,16.24a35.73,35.73,0,0,1-35.14-29.2h77a6.33,6.33,0,0,0,6.39-6.16v-.35c0-26.61-21.79-48.19-48.68-48.19m-34.77,42a35.75,35.75,0,0,1,35.22-29.54c17.63,0,31.53,12.76,34.34,29.54Zm-356.26-42a37.16,37.16,0,0,0-35.72,15.2,37.17,37.17,0,0,0-35.72-15.2c-18.5,2.67-31.75,19.38-31.75,38.07v51.3a7,7,0,0,0,14,0V187c0-11.15,7.44-21.42,18.37-23.65a23.28,23.28,0,0,1,28.1,22.74v52.53a7,7,0,1,0,14,0V187c0-11.15,7.44-21.42,18.37-23.65A23.28,23.28,0,0,1,464,186.09v52.53a7,7,0,1,0,14,0v-51.3c0-18.69-13.25-35.4-31.75-38.07m277.89,0a37.16,37.16,0,0,0-35.72,15.2,37.17,37.17,0,0,0-35.72-15.2c-18.5,2.67-31.75,19.38-31.75,38.07v51.3a7,7,0,0,0,14,0V187c0-11.15,7.44-21.42,18.37-23.65a23.28,23.28,0,0,1,28.1,22.74v52.53a7,7,0,0,0,14,0V187c0-11.15,7.44-21.42,18.37-23.65a23.28,23.28,0,0,1,28.1,22.74v52.53a7,7,0,0,0,14,0v-51.3c0-18.69-13.25-35.4-31.75-38.07" transform="translate(-0.03 -0.21)"/></svg>
