<svg xmlns="http://www.w3.org/2000/svg" width="494.788" height="281.887" viewBox="0 0 494.788 281.887">
  <g id="コンポーネント_39_1" data-name="コンポーネント 39 – 1" transform="translate(1.342 1.246)">
    <path id="パス_527" data-name="パス 527" d="M790.67,864.956l-4.531,43.768c0,23.381-22.7,42.323-50.708,42.323s-50.708-18.941-50.708-42.323l-5.2-51c0-25.775,25.032-46.664,55.908-46.664,22.49,0,41.877,11.084,50.75,27.063l-.042.024,18.405,13.412L790.6,864.939" transform="translate(-493.056 -750.035)" fill="#fff" stroke="#9b9b9b" stroke-linecap="round" stroke-linejoin="round" stroke-width="2"/>
    <path id="パス_528" data-name="パス 528" d="M755.516,951.261s21.087-43.008,13.536-66.241c0,0,38.345-20.245,42.991-30.743,0,0,43.569,10.836,49.379,3.656,0,0,21.855,21.343,46.078,19.28s17.976-23.555-8.534-38.659S868.933,815.9,843.4,812.416s-42.389-15.69-72.6,0S656.93,869.925,656.93,869.925" transform="translate(-656.93 -796.906)" fill="none" stroke="#9b9b9b" stroke-linecap="round" stroke-linejoin="round" stroke-width="2"/>
    <path id="パス_529" data-name="パス 529" d="M824.125,824.594s-4.878,15.162-33.343,5.291-35.853-16.4-35.853-16.4-28.63,11.15-45.484,7.089c0,0-24.422,25.107-38.931,26.791" transform="translate(-558.401 -732.461)" fill="none" stroke="#9b9b9b" stroke-linecap="round" stroke-linejoin="round" stroke-width="2"/>
    <path id="パス_530" data-name="パス 530" d="M820.48,815.874l11.068,6.949c2.913,1.188,2.476,5.488,1.056,8.294-2.987,5.926-10.333,11.811-27.607,8.741-26.146-4.647-35.44-16.564-35.44-16.564s-32.534,15.4-45.318,13.081c0,0-41.415,31.949-55.363,33.112" transform="translate(-570.289 -715.133)" fill="none" stroke="#9b9b9b" stroke-linecap="round" stroke-linejoin="round" stroke-width="2"/>
    <path id="パス_531" data-name="パス 531" d="M786.725,858.421c0-24.537-23.926-44.427-53.449-44.427s-53.457,19.89-53.457,44.427l2.749,29.036c0,23.381,22.7,42.323,50.708,42.323s50.708-18.941,50.708-42.323Z" transform="translate(-490.901 -728.77)" fill="#dbdbdb" stroke="#9b9b9b" stroke-linecap="round" stroke-linejoin="round" stroke-width="2"/>
    <ellipse id="楕円形_24" data-name="楕円形 24" cx="53.454" cy="44.431" rx="53.454" ry="44.431" transform="translate(188.918 85.223)" fill="none" stroke="#9b9b9b" stroke-linecap="round" stroke-linejoin="round" stroke-width="2"/>
    <path id="パス_532" data-name="パス 532" d="M692.99,817.592" transform="translate(-395.375 -702.672)" fill="none" stroke="#9b9b9b" stroke-linecap="round" stroke-linejoin="round" stroke-width="2"/>
    <line id="線_36" data-name="線 36" x1="4.533" y2="43.774" transform="translate(293.079 114.918)" fill="#fff" stroke="#9b9b9b" stroke-linecap="round" stroke-linejoin="round" stroke-width="2"/>
    <ellipse id="楕円形_25" data-name="楕円形 25" cx="21.635" cy="15.876" rx="21.635" ry="15.876" transform="translate(247.607 64.711) rotate(-10.745)" fill="#fff" stroke="#1e1e1e" stroke-linecap="round" stroke-linejoin="round" stroke-width="0.3"/>
    <path id="パス_533" data-name="パス 533" d="M726.3,822.775c1.485,7.857-11.8,21.723-22.507,23.753s-14.79-8.534-16.275-16.4,5.975-15.871,16.688-17.9S724.807,814.918,726.3,822.775Z" transform="translate(-436.445 -745.02)" fill="#dbdbdb" stroke="#9b9b9b" stroke-linecap="round" stroke-linejoin="round" stroke-width="2"/>
    <line id="線_37" data-name="線 37" y1="18.974" x2="75.243" transform="translate(293.079 53.266)" fill="none" stroke="#9b9b9b" stroke-linecap="round" stroke-linejoin="round" stroke-width="2"/>
    <line id="線_38" data-name="線 38" y1="18.344" x2="72.743" transform="translate(290.303 48.199)" fill="none" stroke="#9b9b9b" stroke-linecap="round" stroke-linejoin="round" stroke-width="2"/>
    <path id="パス_534" data-name="パス 534" d="M832.468,845.646s-34.92-4.177-63.312-21.128c-16.712-9.97-42.785-23.952-58.9-16.738-11.15,4.993-13.783,22.028-1.807,33.764,29.6,28.994,71.515,48.5,71.515,48.5,15.591,6.29,36.537,35.044,36.537,35.044" transform="translate(-340.133 -788.273)" fill="none" stroke="#9b9b9b" stroke-linecap="round" stroke-linejoin="round" stroke-width="2"/>
    <path id="パス_535" data-name="パス 535" d="M701.508,820.372s-6.38,17.777,13.115,17.315,51.74-8.831,51.74-8.831l19.2,5.6" transform="translate(-340.83 -682.508)" fill="none" stroke="#9b9b9b" stroke-linecap="round" stroke-linejoin="round" stroke-width="2"/>
    <path id="パス_536" data-name="パス 536" d="M745.6,811.42a326.142,326.142,0,0,0-32.881,9.376c-9.013,3.227-16.845,9.31-15.417,16.127,1.651,7.873,10.911,14.559,25.305,15.244,18.867.9,63.361-13.139,63.361-13.139" transform="translate(-365.335 -747.438)" fill="none" stroke="#9b9b9b" stroke-linecap="round" stroke-linejoin="round" stroke-width="2"/>
    <line id="線_39" data-name="線 39" y1="17.513" x2="58.194" transform="translate(385.883)" fill="none" stroke="#9b9b9b" stroke-linecap="round" stroke-linejoin="round" stroke-width="2"/>
    <path id="パス_537" data-name="パス 537" d="M721.905,816.357c-6.858,3.21-14.014,6.4-19.264,8.749a9.081,9.081,0,0,0-4.8,11.555c2.641,6.842,7.882,13.89,27.475,12.834s46.92-13.882,46.92-13.882l32.667,6.544" transform="translate(-364.636 -711.629)" fill="none" stroke="#9b9b9b" stroke-linecap="round" stroke-linejoin="round" stroke-width="2"/>
    <path id="パス_538" data-name="パス 538" d="M690.611,814.174" transform="translate(-412.631 -727.465)" fill="none" stroke="#9b9b9b" stroke-linecap="round" stroke-linejoin="round" stroke-width="2"/>
    <path id="パス_539" data-name="パス 539" d="M689.53,815.135" transform="translate(-420.472 -720.492)" fill="none" stroke="#9b9b9b" stroke-linecap="round" stroke-linejoin="round" stroke-width="2"/>
    <path id="パス_540" data-name="パス 540" d="M688.193,817.457" transform="translate(-430.17 -703.652)" fill="none" stroke="#9b9b9b" stroke-linecap="round" stroke-linejoin="round" stroke-width="2"/>
    <path id="パス_541" data-name="パス 541" d="M688.589,819.966" transform="translate(-427.297 -685.453)" fill="none" stroke="#9b9b9b" stroke-linecap="round" stroke-linejoin="round" stroke-width="2"/>
    <path id="パス_542" data-name="パス 542" d="M687.328,821.048" transform="translate(-436.444 -677.605)" fill="none" stroke="#9b9b9b" stroke-linecap="round" stroke-linejoin="round" stroke-width="2"/>
    <path id="パス_543" data-name="パス 543" d="M689.53,814.234" transform="translate(-420.472 -727.027)" fill="none" stroke="#9b9b9b" stroke-linecap="round" stroke-linejoin="round" stroke-width="2"/>
    <path id="パス_544" data-name="パス 544" d="M686.256,819.122" transform="translate(-444.219 -691.574)" fill="none" stroke="#9b9b9b" stroke-linecap="round" stroke-linejoin="round" stroke-width="2"/>
    <path id="パス_545" data-name="パス 545" d="M690.173,814.846" transform="translate(-415.808 -722.59)" fill="none" stroke="#9b9b9b" stroke-linecap="round" stroke-linejoin="round" stroke-width="2"/>
    <path id="パス_546" data-name="パス 546" d="M690.611,813.315" transform="translate(-412.631 -733.695)" fill="none" stroke="#9b9b9b" stroke-linecap="round" stroke-linejoin="round" stroke-width="2"/>
    <path id="パス_547" data-name="パス 547" d="M691.466,813.315" transform="translate(-406.429 -733.695)" fill="none" stroke="#9b9b9b" stroke-linecap="round" stroke-linejoin="round" stroke-width="2"/>
    <path id="パス_548" data-name="パス 548" d="M690.806,812.523" transform="translate(-411.217 -739.438)" fill="none" stroke="#9b9b9b" stroke-linecap="round" stroke-linejoin="round" stroke-width="2"/>
    <path id="パス_549" data-name="パス 549" d="M688.193,814.45" transform="translate(-430.17 -725.461)" fill="none" stroke="#9b9b9b" stroke-linecap="round" stroke-linejoin="round" stroke-width="2"/>
    <path id="パス_550" data-name="パス 550" d="M689.17,813.13" transform="translate(-423.083 -735.035)" fill="none" stroke="#9b9b9b" stroke-linecap="round" stroke-linejoin="round" stroke-width="2"/>
    <path id="パス_551" data-name="パス 551" d="M688.81,815.135" transform="translate(-425.694 -720.492)" fill="none" stroke="#9b9b9b" stroke-linecap="round" stroke-linejoin="round" stroke-width="2"/>
    <path id="パス_552" data-name="パス 552" d="M687.849,816.7" transform="translate(-432.665 -709.172)" fill="none" stroke="#9b9b9b" stroke-linecap="round" stroke-linejoin="round" stroke-width="2"/>
    <path id="パス_553" data-name="パス 553" d="M689.17,817.6" transform="translate(-423.083 -702.645)" fill="none" stroke="#9b9b9b" stroke-linecap="round" stroke-linejoin="round" stroke-width="2"/>
    <path id="パス_554" data-name="パス 554" d="M687.669,818.917" transform="translate(-433.97 -693.063)" fill="none" stroke="#9b9b9b" stroke-linecap="round" stroke-linejoin="round" stroke-width="2"/>
    <path id="パス_555" data-name="パス 555" d="M678.79,951.359c19.172-30.793,58.194-37.8,74.461-45.93s35.86-10.44,35.86-10.44c16.326,5.827,48.282,2.335,48.282,2.335s8.278-23.819-21.137-32.534-46.928-8.129-57.625-5.8-60.67-4.069-90.3-37.181" transform="translate(-574.22 -672.098)" fill="#fff" stroke="#9b9b9b" stroke-linecap="round" stroke-linejoin="round" stroke-width="2"/>
    <path id="パス_556" data-name="パス 556" d="M680.153,860.09c0-23.374,22.7-42.323,50.708-42.323s50.708,18.949,50.708,42.323" transform="translate(-488.486 -701.402)" fill="none" stroke="#9b9b9b" stroke-linecap="round" stroke-linejoin="round" stroke-width="2"/>
    <path id="パス_557" data-name="パス 557" d="M790.67,823.945c-4.168,22.333-27.31,39.435-55.239,39.435-30.875,0-55.908-20.9-55.908-46.664" transform="translate(-493.056 -709.027)" fill="none" stroke="#9b9b9b" stroke-linecap="round" stroke-linejoin="round" stroke-width="2"/>
  </g>
</svg>
