<svg xmlns="http://www.w3.org/2000/svg" width="512.387" height="407.84" viewBox="0 0 512.387 407.84">
  <g id="コンポーネント_40_1" data-name="コンポーネント 40 – 1" transform="translate(1.321 1)">
    <path id="パス_558" data-name="パス 558" d="M701.492,912.207s.7,27.468,19.005,31.688c0,0-9.563,47.173,12.623,63.137" transform="translate(-316.11 -862.902)" fill="none" stroke="#9b9b9b" stroke-linecap="round" stroke-linejoin="round" stroke-width="2"/>
    <path id="パス_559" data-name="パス 559" d="M714.674,1023.472c-27,4-27.137-23.226-18-30.268s50.7-59.146,50.7-59.146c10.313-15.264,40.141-22.716,66.248-24.587s29.838-9.322,55.935,20.516" transform="translate(-408.473 -907.277)" fill="none" stroke="#9b9b9b" stroke-linecap="round" stroke-linejoin="round" stroke-width="2"/>
    <path id="パス_560" data-name="パス 560" d="M697.391,947.719s27.637-9.934,30.458-32.419" transform="translate(-353.03 -835.055)" fill="none" stroke="#9b9b9b" stroke-linecap="round" stroke-linejoin="round" stroke-width="2"/>
    <g id="グループ_440" data-name="グループ 440" transform="translate(234.53 93.121)">
      <path id="パス_561" data-name="パス 561" d="M747.73,918.153l6.461,10.3c5.431,8.643-3.671,24.137-20.335,34.6s-34.569,11.923-40,3.28l-6.461-10.3" transform="translate(-677.559 -902.492)" fill="#dbdbdb" stroke="#9b9b9b" stroke-linecap="round" stroke-linejoin="round" stroke-width="2"/>
      <ellipse id="楕円形_26" data-name="楕円形 26" cx="35.621" cy="18.49" rx="35.621" ry="18.49" transform="translate(0 37.879) rotate(-32.119)" fill="#dbdbdb" stroke="#9b9b9b" stroke-linecap="round" stroke-linejoin="round" stroke-width="2"/>
    </g>
    <path id="パス_562" data-name="パス 562" d="M837.486,951.538s-14.073-2.69-24.636,0c0,0-36.1-29.708-57.215-32.519s-64.127,5.651-64.707,23.956,43.381,26.047,43.381,26.047,32.769,35.869,42.631,50.323,35.91,18.234,56.325,39.221,44.362,53.384,88.013,50.572" transform="translate(-411.274 -806.355)" fill="#fff" stroke="#9b9b9b" stroke-linecap="round" stroke-linejoin="round" stroke-width="2"/>
    <g id="グループ_441" data-name="グループ 441" transform="translate(0 146.207)">
      <path id="パス_563" data-name="パス 563" d="M743.345,1002.68c25.247-.811,57.965-28.488,57.965-28.488,26.768,9.982,65.377-.949,65.377-.949s24.516,22.185,40.411,29.337,46.042,1.69,28.108-24.666c-5.652-8.312-20.3-19.686-30.858-28.348-4.561-3.741-13.714-14.613-25.017-16.555-26.617-4.561-75.229-14.454-90.664-9.982-13.644,3.951-74.209,20.815-86.953,21.876-25.957,2.16-38.75,30.788-38.75,30.788" transform="translate(-662.964 -921.895)" fill="none" stroke="#9b9b9b" stroke-linecap="round" stroke-linejoin="round" stroke-width="2"/>
      <path id="パス_564" data-name="パス 564" d="M678.886,925.1a25.918,25.918,0,0,1-2.091,20.2" transform="translate(-538.449 -893.011)" fill="none" stroke="#9b9b9b" stroke-linecap="round" stroke-linejoin="round" stroke-width="2"/>
      <path id="パス_565" data-name="パス 565" d="M863.838,930.128s28.087,22.376-.29,30.768C836.281,968.968,794.8,940.37,794.8,940.37s-39.4,4.352-59.855-7.933c0,0-29.488,31.219-64.608,28.738" transform="translate(-596.588 -847.783)" fill="none" stroke="#9b9b9b" stroke-linecap="round" stroke-linejoin="round" stroke-width="2"/>
      <path id="パス_566" data-name="パス 566" d="M681.32,928.673s4.811,39.23-11.894,62.927" transform="translate(-604.78 -860.872)" fill="none" stroke="#9b9b9b" stroke-linecap="round" stroke-linejoin="round" stroke-width="2"/>
    </g>
    <path id="パス_567" data-name="パス 567" d="M722.867,971.658s-54.284-6.162-54.274-38.311" transform="translate(-612.297 -672.586)" fill="none" stroke="#9b9b9b" stroke-linecap="round" stroke-linejoin="round" stroke-width="2"/>
    <path id="パス_568" data-name="パス 568" d="M831,951.818l-15.744,14.893V1074.78c0,14.084-30.048,25.506-67.1,25.506s-67.1-11.422-67.1-25.506h.46V951.818h-.46c0-14.084,30.038-25.508,67.1-25.508,30.108,0,55.585,7.542,64.077,17.926L831,951.818l-16.694,4.15" transform="translate(-500.087 -735.926)" fill="#fff" stroke="#9b9b9b" stroke-linecap="round" stroke-linejoin="round" stroke-width="2"/>
    <path id="パス_569" data-name="パス 569" d="M814.5,932.662c-4.831,12.282-32.7,21.705-66.348,21.705-37.059,0-67.1-11.423-67.1-25.506" transform="translate(-500.087 -712.969)" fill="#fff" stroke="#9b9b9b" stroke-linecap="round" stroke-linejoin="round" stroke-width="2"/>
    <path id="パス_570" data-name="パス 570" d="M748.407,932.574c-36.93,0-66.868,8.923-66.868,19.936V1018.4h-.46c0,14.084,30.038,25.506,67.1,25.506s67.1-11.422,67.1-25.506V952.51C815.274,941.5,785.337,932.574,748.407,932.574Z" transform="translate(-499.881 -679.543)" fill="#dbdbdb" stroke="#9b9b9b" stroke-linecap="round" stroke-linejoin="round" stroke-width="2"/>
    <path id="パス_571" data-name="パス 571" d="M681.056,964.1c0-14.084,30.038-25.5,67.1-25.5s67.1,11.413,67.1,25.5" transform="translate(-500.087 -625.25)" fill="none" stroke="#9b9b9b" stroke-linecap="round" stroke-linejoin="round" stroke-width="2"/>
    <ellipse id="楕円形_27" data-name="楕円形 27" cx="66.865" cy="19.935" rx="66.865" ry="19.935" transform="translate(181.429 253.031)" fill="none" stroke="#9b9b9b" stroke-linecap="round" stroke-linejoin="round" stroke-width="2"/>
    <path id="パス_572" data-name="パス 572" d="M718.664,952.924c32.879,6.781,78.791-1.75,78.791-1.75,20.415-22.156,107.778-24.447,99.956,13.163-3.441,16.6-68.678,31.1-83.441,40.48s-130.745,52.084-149.21,57.1" transform="translate(-646.805 -656.301)" fill="#fff" stroke="#9b9b9b" stroke-linecap="round" stroke-linejoin="round" stroke-width="2"/>
  </g>
</svg>
