<svg id="checkmark" xmlns="http://www.w3.org/2000/svg" width="96.33" height="84.285" viewBox="0 0 96.33 84.285">
  <path id="パス_1697" data-name="パス 1697" d="M73.248,84.294H11.038A11.047,11.047,0,0,1,0,73.256V11.046A11.047,11.047,0,0,1,11.038.008h50.17a3.01,3.01,0,0,1,0,6.02H11.038A5.024,5.024,0,0,0,6.02,11.046V73.256a5.024,5.024,0,0,0,5.017,5.017H73.248a5.024,5.024,0,0,0,5.017-5.017V39.141a3.01,3.01,0,1,1,6.02,0V73.256A11.047,11.047,0,0,1,73.248,84.294Zm0,0" transform="translate(0 -0.008)" fill="#969696"/>
  <path id="パス_1698" data-name="パス 1698" d="M170.41,50.182a2.986,2.986,0,0,1-2.127-.883L150.222,31.238a3.011,3.011,0,1,1,4.258-4.258l15.934,15.934L212.432.9a3.011,3.011,0,0,1,4.259,4.258L172.541,49.3A3.016,3.016,0,0,1,170.41,50.182Zm0,0" transform="translate(-121.243 -0.012)" fill="#e69292"/>
</svg>
