<svg xmlns="http://www.w3.org/2000/svg" width="261" height="241.002" viewBox="0 0 261 241.002">
  <g id="コンポーネント_33_1" data-name="コンポーネント 33 – 1" transform="translate(0.5 0.5)">
    <path id="パス_592" data-name="パス 592" d="M499.948,25977l.052,239.441L240,26217v-240Z" transform="translate(-240 -25977)" fill="#d5c37b" stroke="#d5c37b" stroke-width="1"/>
    <path id="crown" d="M70.1,59.188a2.041,2.041,0,0,1-.054.608l-4.5,18a2.047,2.047,0,0,1-1.975,1.55l-27.007.136H9.548a2.046,2.046,0,0,1-1.985-1.552l-4.5-18.073a2.043,2.043,0,0,1-.054-.624,4.3,4.3,0,1,1,4.017-.782l5.635,5.678a7.649,7.649,0,0,0,11.529-.78L33.45,51.083a4.3,4.3,0,1,1,6.14-.073l.008.01,9.194,12.305a7.674,7.674,0,0,0,6.12,3.067,7.59,7.59,0,0,0,5.4-2.238l5.671-5.671a4.3,4.3,0,1,1,4.117.7ZM65.108,85.9a2.046,2.046,0,0,0-2.046-2.046H10.139A2.046,2.046,0,0,0,8.093,85.9v4.91a2.046,2.046,0,0,0,2.046,2.046H63.062a2.046,2.046,0,0,0,2.046-2.046Z" transform="translate(94 -0.52)" fill="#fff"/>
    <text id="_01" data-name="01" transform="translate(68 186)" fill="#fff" font-size="80" font-family="HiraginoSans-W8, Hiragino Sans"><tspan x="0" y="0">01</tspan></text>
  </g>
</svg>
