<svg xmlns="http://www.w3.org/2000/svg" width="554.957" height="362.406" viewBox="0 0 554.957 362.406">
  <g id="コンポーネント_38_1" data-name="コンポーネント 38 – 1" transform="translate(1.321 0.977)">
    <g id="グループ_433" data-name="グループ 433" transform="translate(0 130.625)">
      <path id="パス_509" data-name="パス 509" d="M727.218,830.977c22.334-.717,51.29-25.211,51.29-25.211,23.689,8.834,57.867-.832,57.867-.832s21.688,19.625,35.763,25.955,40.747,1.5,24.866-21.83c-4.992-7.356-17.961-17.421-27.309-25.087-4.037-3.311-12.137-12.933-22.14-14.651-23.555-4.037-66.568-12.792-80.228-8.834-12.083,3.5-65.684,18.43-76.961,19.369-22.963,1.9-34.294,27.239-34.294,27.239" transform="translate(-656.073 -759.483)" fill="none" stroke="#9b9b9b" stroke-linecap="round" stroke-linejoin="round" stroke-width="2"/>
      <path id="パス_510" data-name="パス 510" d="M671.763,762.691a22.917,22.917,0,0,1-1.859,17.881" transform="translate(-547.468 -734.29)" fill="none" stroke="#9b9b9b" stroke-linecap="round" stroke-linejoin="round" stroke-width="2"/>
      <path id="パス_511" data-name="パス 511" d="M834.693,767.715s24.857,19.8-.265,27.229c-24.131,7.144-60.842-18.165-60.842-18.165s-34.86,3.851-52.962-7.02c0,0-26.106,27.628-57.177,25.432" transform="translate(-598.17 -694.84)" fill="none" stroke="#9b9b9b" stroke-linecap="round" stroke-linejoin="round" stroke-width="2"/>
      <path id="パス_512" data-name="パス 512" d="M673.07,766.262s4.249,34.709-10.534,55.681" transform="translate(-605.324 -706.249)" fill="none" stroke="#9b9b9b" stroke-linecap="round" stroke-linejoin="round" stroke-width="2"/>
    </g>
    <path id="パス_513" data-name="パス 513" d="M709.742,804.839s-48.05-5.453-48.042-33.9" transform="translate(-611.88 -538.934)" fill="none" stroke="#9b9b9b" stroke-linecap="round" stroke-linejoin="round" stroke-width="2"/>
    <path id="パス_514" data-name="パス 514" d="M806.869,786.464l-13.942,13.181v95.648c0,12.464-26.583,22.564-59.381,22.564s-59.381-10.1-59.381-22.564h.416V786.464h-.416c0-12.464,26.584-22.564,59.381-22.564,26.645,0,49.192,6.666,56.708,15.854l16.616,6.71-14.783,3.674" transform="translate(-514.01 -594.172)" fill="#fff" stroke="#9b9b9b" stroke-linecap="round" stroke-linejoin="round" stroke-width="2"/>
    <path id="パス_515" data-name="パス 515" d="M792.272,769.822c-4.276,10.862-28.938,19.2-58.726,19.2-32.8,0-59.381-10.11-59.381-22.574" transform="translate(-514.01 -574.156)" fill="#fff" stroke="#9b9b9b" stroke-linecap="round" stroke-linejoin="round" stroke-width="2"/>
    <path id="パス_516" data-name="パス 516" d="M674.165,798.766c0-12.473,26.584-22.573,59.381-22.573s59.381,10.1,59.381,22.573" transform="translate(-514.01 -497.645)" fill="none" stroke="#9b9b9b" stroke-linecap="round" stroke-linejoin="round" stroke-width="2"/>
    <path id="パス_517" data-name="パス 517" d="M706.6,793.375c0,13.553-4.984,17.005-11.145,17.005s-11.146-3.453-11.146-17.005,11.146-32.054,11.146-32.054S706.6,779.832,706.6,793.375Z" transform="translate(-434.364 -614.414)" fill="#dbdbdb" stroke="#9b9b9b" stroke-linecap="round" stroke-linejoin="round" stroke-width="2"/>
    <path id="パス_518" data-name="パス 518" d="M792.95,787.8c0-9.738-26.495-17.643-59.168-17.643S674.6,778.067,674.6,787.8v58.318h-.416c0,12.464,26.593,22.564,59.381,22.564s59.381-10.1,59.381-22.564Z" transform="translate(-513.829 -545.004)" fill="#dbdbdb" stroke="#9b9b9b" stroke-linecap="round" stroke-linejoin="round" stroke-width="2"/>
    <ellipse id="楕円形_23" data-name="楕円形 23" cx="59.175" cy="17.642" rx="59.175" ry="17.642" transform="translate(160.567 225.164)" fill="none" stroke="#1e1e1e" stroke-linecap="round" stroke-linejoin="round" stroke-width="0.3"/>
    <g id="グループ_437" data-name="グループ 437" transform="translate(275.818)">
      <path id="パス_519" data-name="パス 519" d="M687.5,875.818l124.383,119.9c8.71,10.224,44-5.532,78.838-35.205s56.009-62.02,47.289-72.243L839.421,746.407" transform="translate(-685.126 -731.533)" fill="none" stroke="#9b9b9b" stroke-linecap="round" stroke-linejoin="round" stroke-width="2"/>
      <g id="グループ_436" data-name="グループ 436" transform="translate(0 11.104)">
        <g id="グループ_434" data-name="グループ 434" transform="translate(0 105.907)">
          <path id="パス_520" data-name="パス 520" d="M687.559,774.835c13.553-26.292,73.969-14.04,73.969-14.04-33.479,23.68-63.356,34.453-71.934,24.415-2.125-2.453-2.771-6.046-2.125-10.375Z" transform="translate(-687.231 -757.945)" fill="#dbdbdb"/>
        </g>
        <g id="グループ_435" data-name="グループ 435">
          <path id="パス_521" data-name="パス 521" d="M687.47,868.778c2.532-17.466,25.557-48.006,59.115-76.581,41.969-35.763,84.433-54.787,94.958-42.464,10.455,12.331-15.022,51.281-56.991,87.043-7.754,6.613-15.509,12.571-23.024,17.962-33.479,23.68-63.356,34.453-71.934,24.415C687.47,876.7,686.824,873.107,687.47,868.778Z" transform="translate(-687.231 -745.981)" fill="none" stroke="#9b9b9b" stroke-linecap="round" stroke-linejoin="round" stroke-width="2"/>
          <path id="パス_522" data-name="パス 522" d="M761.237,760.8s-60.417-12.252-73.969,14.04" transform="translate(-686.94 -652.038)" fill="none" stroke="#9b9b9b" stroke-linecap="round" stroke-linejoin="round" stroke-width="2"/>
        </g>
      </g>
      <path id="パス_523" data-name="パス 523" d="M841.932,820.889c-20.033-1.549-64.3-26.911-64.3-26.911-24.972,2.868-49.8-.221-61.957-5.585-20.369-8.977-17.7-24.317-12.251-28.682,3.887-3.116,37.286-4.488,37.286-4.488s30.346-4.293,39.517-2.841c16.544,2.611,61.018,14.172,61.018,14.172" transform="translate(-590.802 -686.97)" fill="#fff" stroke="#9b9b9b" stroke-linecap="round" stroke-linejoin="round" stroke-width="2"/>
      <path id="パス_524" data-name="パス 524" d="M708.067,759.348s30.2,4.887,40.313-9.064c0,0,19.67,16.828,40.313,11.287" transform="translate(-523.621 -701.089)" fill="#fff" stroke="#9b9b9b" stroke-linecap="round" stroke-linejoin="round" stroke-width="2"/>
      <path id="パス_525" data-name="パス 525" d="M822.359,759.087c-19.1-2.134-59.407-18.253-70.65-13.482s-46.447,21.652-46.447,21.652" transform="translate(-545.647 -744.727)" fill="#fff" stroke="#9b9b9b" stroke-linecap="round" stroke-linejoin="round" stroke-width="2"/>
    </g>
    <path id="パス_526" data-name="パス 526" d="M705.574,788.464c29.1,6.01,69.72-1.549,69.72-1.549,18.067-19.6,95.383-21.635,88.47,11.658-3.054,14.686-60.779,27.513-73.854,35.825s-115.7,46.085-132.04,50.529" transform="translate(-641.97 -524.727)" fill="#fff" stroke="#9b9b9b" stroke-linecap="round" stroke-linejoin="round" stroke-width="2"/>
  </g>
</svg>
