<?xml version="1.0" encoding="utf-8"?>
<svg xmlns="http://www.w3.org/2000/svg" viewBox="0 0 131.52 131.52"><defs><style>.cls-1,.cls-2,.cls-3{fill:none;}.cls-2,.cls-3{stroke:#1e1e1e;stroke-linecap:round;stroke-miterlimit:10;}.cls-2{stroke-width:1.73px;}.cls-3{stroke-width:1.6px;}</style></defs><title>cycle</title><g id="レイヤー_2" data-name="レイヤー 2"><g id="copy"><path class="cls-1" d="M123.24,65.76a57.48,57.48,0,0,1-115,0A58.09,58.09,0,0,1,9.45,54.18,57.48,57.48,0,0,1,123.24,65.76Z"/><path class="cls-2" d="M9.45,54.18A57.5,57.5,0,0,1,65.76,8.28"/><path class="cls-2" d="M54.18,122.07A57.5,57.5,0,0,1,8.28,65.76"/><path class="cls-2" d="M122.07,77.34a57.49,57.49,0,0,1-56.31,45.9"/><path class="cls-2" d="M77.34,9.45a57.49,57.49,0,0,1,45.9,56.31"/><polyline class="cls-2" points="52.33 0.86 65.76 8.28 53.23 16.64"/><polyline class="cls-2" points="0.86 79.19 8.28 65.76 16.64 78.3"/><polyline class="cls-2" points="79.19 130.66 65.76 123.24 78.3 114.88"/><polyline class="cls-2" points="130.66 52.33 123.24 65.76 114.88 53.23"/><path class="cls-3" d="M59.73,42.82a.09.09,0,0,0-.17,0C57.41,54.4,45,68.05,45,80.06,45,89.31,51.56,96,59.64,96s14.63-6.67,14.63-15.92C74.27,68.05,61.87,54.4,59.73,42.82Z"/><path class="cls-3" d="M71.72,69.34a11.19,11.19,0,0,0,2.8.35c6.42,0,11.63-5.3,11.63-12.65,0-9.55-9.86-20.4-11.57-29.61,0-.08-.11-.08-.13,0-1.47,7.91-8.94,17-11,25.49"/></g></g></svg>