<svg xmlns="http://www.w3.org/2000/svg" viewBox="0 0 524.39 252.17"><defs><style>.cls-1{fill:#1e1e1e;}</style></defs><title>hero-text</title><g id="レイヤー_2" data-name="レイヤー 2"><g id="copy"><path class="cls-1" d="M88.11,37.16H112A11.45,11.45,0,0,0,106.45,34l3.5-1.72A14.09,14.09,0,0,1,113.22,34a58.81,58.81,0,0,0,6.59-4.51l-22,.24V26.53a69.36,69.36,0,0,1-9,3.8l-4-3.09A61.93,61.93,0,0,0,109,15.37l-20.89.18V12h22.73V6.71c-4.75.18-9.55.29-14.07.29H94L91.14,3.15c3.56.23,7.48.35,11.45.35,9.68,0,19.77-.65,26.06-2,.3.24,2.67,3.45,2.67,4.16,0,.3-.24.47-.65.47A2.64,2.64,0,0,1,129,5.28c-4,.48-9.09.89-14.43,1.19V12h22.85v3.56l-21.31-.18a65.76,65.76,0,0,0,24.7,11l-4.22,3.33c-9.43-3-18.52-8.85-22.14-12,.06,1.3.18,3.2.18,3.86v3.2h-3.8l.06-3.26c0-1,.12-2.38.18-3.74a58.43,58.43,0,0,1-12.82,8.66h24.93c.35,0,.59-.35,1-.35a.54.54,0,0,1,.3.06c1.66,1.18,2.67,2,2.67,2.43,0,.3-.42.54-1.25.59-3.27,2.32-7.6,5.47-10.39,7.07a7.49,7.49,0,0,1,.65,1h21.61v3.68H117.37a17.56,17.56,0,0,1,.18,2.79c0,4.63-2.91,9.43-10.45,9.43a19.33,19.33,0,0,1-4.86-.65l-2.91-4.75a29.59,29.59,0,0,0,8,1.55c5.28,0,6.29-3.33,6.29-7a9.87,9.87,0,0,0-.06-1.36H88.11Z"/><path class="cls-1" d="M146.87,14.13C152.69,10,157.32,2.79,158.15.06c.17,0,4.68,1.25,4.68,2.14,0,.41-.53.71-1.6.71h-.29c-.36.71-.9,1.6-1.49,2.55h14V8.61h-9A37,37,0,0,1,167.17,14l-3.5,1.13a33.31,33.31,0,0,0-2.85-6.47h-3.56a46.66,46.66,0,0,1-6.42,7.12Zm6,2.55h19.23V36.39h-3.38V34.72H156.48v11c4.4-1.12,8.43-2.43,10.75-3.2a44.55,44.55,0,0,0-3.56-4.63l3-1.48a72.88,72.88,0,0,1,9,13.11l-3.45,1.84c-.29-.47-1.36-3-3.2-6.05-2.32.83-10.63,3.74-18.34,5.64v.29c0,1-.3,1.49-.65,1.49-.54,0-.6-.18-2.62-5.17,1.84-.23,3.74-.59,5.58-1Zm15.85,7.42V19.71H156.48V24.1Zm0,7.6V27H156.48V31.7Zm10-23.09a34.12,34.12,0,0,1-4.39,5.75c-.18-.11-3.68-1.24-3.92-1.3,4.69-3.68,7.9-10.45,8.49-13.06,4.21,1.07,4.93,1.25,4.93,1.9,0,.41-.6.71-1.9.71a23.55,23.55,0,0,1-1.37,2.85H199V8.61H187.35a42.35,42.35,0,0,1,2.73,5.22L186.58,15a30,30,0,0,0-2.91-6.41Zm-1.12,8.07h18.22V34.84c0,1.72.06,4.16.12,5.46v.18c0,5.82-4.75,6.53-9.14,6.53h-1.55l-2.55-4.33a43.76,43.76,0,0,0,4.93.41c2.79,0,4.33-.77,4.33-3.2V19.94H181.41V53.3h-3.79Z"/><path class="cls-1" d="M216.73,49.38c-2-4-2.67-9.14-2.67-13.94,0-.89,0-1.84.06-2.73.65-11.4,3.38-19.06,3.85-26.6,0-.29.06-.35.18-.35s3.15.65,4.93,1.24c.59.18.95.54.95.83s-.53.72-1.78.78c-.71,3.85-3.74,14.36-4.51,22.49a25.57,25.57,0,0,0-.18,3.27c0,2.08.24,2.79.36,2.79.29,0,5.1-12,5.16-12.11.12.24.89,2.37,1.6,3.8-1.13,3.26-3,7.54-3.86,10.86a21,21,0,0,0-.71,5.34,18.34,18.34,0,0,0,.24,3.09v.12a.32.32,0,0,1-.24.35ZM234.42,35.2a4.58,4.58,0,0,0-1.55,2.37c0,2.08,4.34,4.51,10.92,4.51a33.8,33.8,0,0,0,12.05-2.31l-.65,5a40.07,40.07,0,0,1-10.86,1.61c-9.5,0-15.37-3.92-15.37-8.25a6.39,6.39,0,0,1,2-4.1Zm-3.21-22.91a28.16,28.16,0,0,0,8.37,1,68.3,68.3,0,0,0,13.47-1.43V16.2a76.18,76.18,0,0,1-12.46,1A33.54,33.54,0,0,1,231,16.15Z"/><path class="cls-1" d="M311.16,47c-3.14-3.8-8.72-7.12-12.88-8.78v.41c0,5.88-4.57,9.68-10.57,9.68-5.28,0-11.63-3-11.63-7.78,0-.71.48-7.3,12.88-7.3a33.83,33.83,0,0,1,5.05.42c-.12-2.26-.36-5.64-.48-9.32-.29-7.66-.12-15.5-.29-20.36,5.81,0,6.29.71,6.29,1.07s-.54.89-1.72,1.06c-.3,2.85-.42,5.94-.48,9.09a13.19,13.19,0,0,0,2.14.11A47.94,47.94,0,0,0,313,12.64l.24,4.22a51.78,51.78,0,0,1-13.53,2c-.9,0-1.67-.06-2.38-.12,0,1.84.06,3.62.06,5.46.12,3.44.36,7.12.59,10.15,5.35,1.48,12.94,5.34,17.16,9.32Zm-23-10.39c-4.45,0-8,1.31-8,3.86,0,2.26,3.62,4.1,7.59,4.1s6.42-2.44,6.47-7.18A24.94,24.94,0,0,0,288.19,36.56Z"/><path class="cls-1" d="M346.77,44.7c12.94,0,22.68-4.4,22.68-11.94,0-1.78-.6-7.24-8.31-7.24a27.36,27.36,0,0,0-11.4,2.79c-3.09,1.43-6.23,3.27-9.56,4.16,0,0-2.25-2.73-2.67-3.21a.83.83,0,0,1-.29-.47c0-.18.17-.3.59-.36,3.68-.65,7.12-2.25,10.57-3.56a36.1,36.1,0,0,1,12.93-2.73c12.23,0,12.29,9.91,12.29,10.74,0,11.28-14.66,15.56-24.33,15.61-1.49-1.48-3.15-3.14-3.86-3.79Z"/><path class="cls-1" d="M394.25,13.47a.76.76,0,0,1-.11-.35c0-.18.17-.3.47-.3,8.07-.12,19.89-4,40.24-6.17l.78-.18a1.27,1.27,0,0,1,.59-.18c.71,0,2.2,3.86,2.2,4.33a.43.43,0,0,1-.48.42,2,2,0,0,1-.89-.24,18.49,18.49,0,0,0-6.94,1.37c-5.64,2.19-16,11.16-16,19.65,0,10,11.28,12.4,19.05,12.7l-3.86,4.57c-5.75-.89-19.35-4.45-19.35-16.68,0-10.86,11.82-19.29,13.72-20.6-10.33,1.37-20.84,5-27.13,5.76Z"/><path class="cls-1" d="M85.62,117.9c6.64-2.91,10.86-10.21,11.27-10.81a32.78,32.78,0,0,1,4,1.61c.59.29.83.59.83.83,0,.41-.59.77-1.6.77a3.56,3.56,0,0,1-.77-.06c-.12.18-5,7.42-9.8,10.09Zm.71,25.93c10.39-.59,17.92-3.08,23.38-6a28.14,28.14,0,0,1-6.52-6.89,63,63,0,0,1-12.59,7.6l-4.09-2.61c12.94-4,21.66-14.07,22.31-14.84.06,0,4.75,1,4.75,1.84,0,.42-.59.83-1.66.83a2.61,2.61,0,0,1-.65-.06c-.48.54-1.07,1.07-1.72,1.72h13.89c.35,0,.77-.35,1.12-.35.18,0,3.27,1.78,3.27,2.55,0,.36-.42.65-1.31.83a52.94,52.94,0,0,1-10.09,9.44c4.81,2.37,11.4,4.15,20.3,4.15,1,0,2,0,3.09-.06l-3.68,4.16c-10.39-.24-17.87-2.85-23.09-6a54.55,54.55,0,0,1-23,7.19Zm6.71-22c10.38-3.5,12.76-9.91,12.76-15V104H88.11v-3.57h22.67V99s0-2-.17-3.86c2,0,6.11.18,6.11,1.13,0,.42-.65,1-1.84,1.19-.06,1.07-.12,2.43-.12,2.43v.59h22.56V104H120.64l.06,5.4c0,2.19.11,4.09.11,4.57v.35c0,5.58-4.27,6.24-8.66,6.24h-.71l-2.5-4.28a37.78,37.78,0,0,0,4.57.42c2.2,0,3.33-.65,3.33-3.09V104h-7.13v2.79c0,6.41-3.44,13.41-12.52,17.33ZM105.62,129a26.12,26.12,0,0,0,7.36,6.94,38.55,38.55,0,0,0,8.43-7.48l-15.2.06Zm20.83-22c.54.48,8.13,6.06,11.34,11.16L134.23,121c-3.09-5.81-10-11.39-10.63-11.93Z"/><path class="cls-1" d="M157.37,126.56c.06-1.42.24-8.49.42-13.12a62.9,62.9,0,0,1-8.07,9.5l-4-2.08c9.79-7.59,15.73-20.3,17.45-25.22,3.8,1.24,5.17,1.78,5.17,2.31s-.6.83-1.43.83a1.6,1.6,0,0,1-.53-.06,103.25,103.25,0,0,1-5.88,10.69c.77.06,1.49.06,1.66.12.95.12,1.37.41,1.37.77s-.71,1-1.78,1.19c-.06,1-.12,3.56-.12,3.56l-.48,32.64-4.09-.06Zm15.91-24.81s-.06-3.8-.18-5.52c1.43,0,6.12.06,6.12,1.13,0,.41-.54.89-1.72,1.13-.06,1-.12,2.19-.12,3.32v16.62c8-5.1,13.29-10,15.91-13.59.11.06,4.39,2.91,4.39,3.86,0,.41-.36.71-1,.71a3.45,3.45,0,0,1-1.19-.24,112.2,112.2,0,0,1-18.16,13.77v16c0,3.14,3.68,3.2,7.06,3.2,9.62,0,10.33-1.18,10.45-12.88L199,133c-1,11.93-4.15,13-15,13-5.81,0-10.92-.53-10.92-6.29Z"/><path class="cls-1" d="M211.39,107.45a.54.54,0,0,1-.06-.3c0-.12.06-.24.29-.24h.12c1.43.12,2.79.18,4.22.18a78.37,78.37,0,0,0,8.37-.53c3.74-.42,8-.77,12.46-1.07-.12-3.09-.3-5.94-.53-7.95,4.27,0,6.23.12,6.23.95,0,.47-.59,1-1.66,1.06-.12,1.31-.18,3.33-.24,5.7,4.1-.23,8.31-.35,12.23-.35,1.84,0,3.56,0,5.22.06l-.18,4.39a101.59,101.59,0,0,0-12.11-.71c-1.78,0-3.5.06-5.22.11-.06,3.92-.06,8-.06,10.39a14.27,14.27,0,0,1,2.38,8.13c0,6.89-5.23,14.31-16.39,18.35-2.07-1.31-4.75-2.85-5.16-3.09,2.91-.59,16.62-4.28,17.69-14.31a7.77,7.77,0,0,1-7.13,4,8.11,8.11,0,0,1-8.25-7.95,8.91,8.91,0,0,1,9.09-9,9.69,9.69,0,0,1,4.27.89v-2c0-1.66,0-3.5-.06-5.34-4.81.36-9.26.89-13.18,1.49a93.57,93.57,0,0,1-11.27,1.3Zm21.31,11.34a4.87,4.87,0,0,0-5.29,4.92,4.45,4.45,0,0,0,4.45,4.69c4.34,0,5-4.09,5-7.89A5.09,5.09,0,0,0,232.7,118.79Z"/><path class="cls-1" d="M274.83,129.23c-.17-.06-.23-.18-.23-.23a.33.33,0,0,1,.18-.3c3.62-3.38,6.76-5.88,8.42-7.48,4.93-4.45,17-16.74,17-17.27,0-.12-.06-.12-.18-.12a2.8,2.8,0,0,0-.53.12A40.79,40.79,0,0,1,285,107.27c-.41,0-.83-.06-1.24-.06l-1.54-3.8a.72.72,0,0,1-.06-.35c0-.12.06-.18.23-.18h.18a28.94,28.94,0,0,0,4,.24,48.84,48.84,0,0,0,15.13-2.73c.6-.18.78-.6,1.19-.6.77,0,4.27,2.85,4.27,3.21s-.71.53-1.3,1c-4.22,3.56-16.92,15.84-16.74,15.84a2.34,2.34,0,0,0,.48-.17,27.57,27.57,0,0,1,11-2.38c7.65,0,13.77,4.22,13.77,10.86,0,8.73-9,15.79-19.65,15.79-7.3,0-13.12-3.26-13.12-7.59,0-3.86,3.86-5.7,7.54-5.7,5.76,0,9.26,3.68,9.26,8.19,0,.3-.06.59-.06.89,8.73-2,11.46-8,11.46-11.16,0-6.23-4.87-8-9.92-8-11.87,0-18.16,7.18-21.19,10.74Zm19.41,9.62c0-1.78-.71-5.11-5.63-5.11-2.56,0-3.45,1.25-3.45,2.44,0,2.19,3.62,4,8.31,4h.66A10.36,10.36,0,0,0,294.24,138.85Z"/><path class="cls-1" d="M328,146.62c6.05-7.47,6.58-19.88,6.58-29.61,0-4.69-.05-17.22-.17-19.53h15.31v34.25c0,4.27.06,7.42.12,8.13V140c0,4.8-4.22,6.11-8.19,6.11-.36,0-.71-.06-1.07-.06L338,141.64a41.33,41.33,0,0,0,4.27.41c2.08,0,3.86-.53,3.86-2.85l-.06-12h-8.31c-.53,7.54-2,15.26-5.64,20.54Zm18.1-23V113.5h-8c0,1.13.06,2.26.06,3.51,0,2.07-.06,4.33-.18,6.64Zm0-13.47V101h-8v9.2Zm2,36.15c7.72-5.7,8.55-16.62,8.55-25.88,0-2.55-.06-5-.06-7.18,0-4.4-.24-14.67-.24-15.56H373.9c0,1.9-.12,36.21-.12,43,0,1.07.59,1.78,2.61,1.78,1,0,2.38-.18,2.85-2.67a101.64,101.64,0,0,0,.53-10.57l3.63,3.33a59.26,59.26,0,0,1-.66,8.42c-.53,3-1.78,5.35-6.76,5.35-5.35,0-6.12-2.56-6.12-4.87l.06-40.19h-9.55c0,1.07.05,9.26.11,12.17,0,1.72.06,3.56.06,5.4,0,10.21-.71,21.31-7.83,28.67Z"/><path class="cls-1" d="M396.57,126.38c-.18-.06-.3-.12-.3-.23a.31.31,0,0,1,.12-.24,76.94,76.94,0,0,0,12.11-17.39c-.48.06-2.85.23-4.33.23a10.93,10.93,0,0,1-5.94-1.48l-.41-4.21V103c0-.18.06-.24.17-.24a.36.36,0,0,1,.24.06,13,13,0,0,0,6.83,2.25,38.26,38.26,0,0,0,4.92-.35A57.13,57.13,0,0,0,412.6,97c1.12.12,4,.71,4.63.83s1.12.54,1.12.89-.65.89-2.13,1c-.54,1.43-1.31,3.09-2,4.51a117.46,117.46,0,0,0,11.81-2.55l-.12,3.92c-4.75,1.07-9.38,1.84-13.35,2.43a65.54,65.54,0,0,1-6,9.26,2.74,2.74,0,0,0-.24.36c.06,0,.18-.12.36-.3,3.44-2.85,6.29-3.5,8.84-3.5,3.86,0,6.12,2.49,6.89,6.29,2.08-1,4.15-1.84,6.29-2.67,2.85-1.19,6-2.31,8.13-3.2l3,3.73c.06.12.12.18.12.24s-.12.18-.3.24a86.77,86.77,0,0,0-16.91,5.46c-.06,2.43-.3,8.19-.42,10.33l-4.16.41c.06-1.9.36-6.17.48-8.72-8.61,4.69-9.32,8-9.32,9.38,0,1.84.95,5.58,10.27,5.58,3.92,0,8.9-1.13,12.94-2.26l-.77,4.93a51.06,51.06,0,0,1-12,1.48c-10,0-14.31-4.45-14.31-9.38,0-4.69,3.8-8.84,13.24-13.77-.24-3.32-1.37-5-4.51-5h-.06c-4.27,0-10.8,6.65-13.3,10.74Z"/><path class="cls-1" d="M0,195.43H5.76V201H0Zm.53,12.88H5.22V238.4H.53Z"/><path class="cls-1" d="M16.26,208.37H21c0,.65-.06,3.32-.06,4.21A10.09,10.09,0,0,1,30,207.42c5,0,7.72,2.19,9.44,5.76a11.19,11.19,0,0,1,9.91-5.76c7.66,0,10.57,5.1,10.57,11.1V238.4H55.14V219.76c0-3.68-.42-8.36-6.77-8.36-4.27,0-7.77,4.09-7.77,7.24V238.4H35.85V219.76c0-3.56-.53-8.36-6.83-8.36-4.45,0-8,4.51-8,8.13V238.4H16.26Z"/><path class="cls-1" d="M67.6,248h1.31c3.92,0,7.54-.42,10.45-10L67,208.31h5.28l8.43,22.08a29.89,29.89,0,0,1,1,3c.3-1,.77-2.5,1-3.15.83-2.73,4.57-14.36,6.77-22h5C90.4,220,86.3,232.94,81.55,244c-2.43,5.58-5.34,8.13-11.51,8.13Z"/><path class="cls-1" d="M101.55,208.37h4.75c0,.65-.06,3.32-.06,4.21a10.09,10.09,0,0,1,9.08-5.16c5.05,0,7.72,2.19,9.44,5.76a11.19,11.19,0,0,1,9.91-5.76c7.66,0,10.57,5.1,10.57,11.1V238.4h-4.81V219.76c0-3.68-.42-8.36-6.77-8.36-4.27,0-7.77,4.09-7.77,7.24V238.4h-4.75V219.76c0-3.56-.53-8.36-6.83-8.36-4.45,0-8,4.51-8,8.13V238.4h-4.75Z"/><path class="cls-1" d="M181.5,228.19c-1.24,6.3-5.87,11.1-13.53,11.1-8.73,0-14.31-6-14.31-15.43,0-8.78,5.29-16.56,14.13-16.56,9.44,0,13.53,7,13.53,15v.35H158.18a13.41,13.41,0,0,0-.06,1.49c.06,6.41,3.38,11,9.79,11,4.51,0,7.84-2.55,8.67-7Zm-5.1-9.2a8.13,8.13,0,0,0-8.61-7.89c-5.28,0-8.31,4-9.08,7.89Z"/><path class="cls-1" d="M206.13,237.39c5.82-9.73,11-19.23,14.31-27.3-5.82,1.36-8.08,1.78-10.75,1.78-.41,0-.77-.06-1.12-.06l-1.37-4c0-.05-.06-.11-.06-.17,0-.24.24-.3.42-.3a33.65,33.65,0,0,0,4.39.3,36.3,36.3,0,0,0,5-.36l5-.83a45.81,45.81,0,0,0,3-12.82c.47.06,3.86.65,5.16,1,.71.18,1,.47,1,.83s-.71.95-1.9.95c-.41,1.72-1.66,5.82-2.91,9.38l1.84-.3a10.91,10.91,0,0,1,2-.18c6.35,0,7.48,5.52,7.48,11.22a41.71,41.71,0,0,1-1.9,12.7c-1.9,5.34-6.35,8.19-10.86,8.19a10.74,10.74,0,0,1-6.29-2L218,229.8a9.91,9.91,0,0,0,7,3.2c2.79,0,5.4-1.48,6.7-5a41.42,41.42,0,0,0,1.84-12.05c0-4.75-.94-7.19-4.33-7.19-.77,0-2.67.3-4.27.54-3.56,8.66-8,17.51-14,28.91Zm38.05-32.29c7.42,4.46,12.88,10.51,13.3,15.73l-3.74,2.08a1,1,0,0,1-.3.12c-.18,0-.24-.12-.24-.36-.53-5.16-4.51-11.22-12.52-15.31a.55.55,0,0,1-.18-.3c0-.12.06-.23.12-.23Zm1.42-8.66a27.48,27.48,0,0,1,8,5.22l-2.44,2.79a21.78,21.78,0,0,0-7.83-5.7Zm4.57-4.39c.78.35,5.29,2.31,7.9,4.8l-2.32,2.91a23.21,23.21,0,0,0-7.77-5.28Z"/><path class="cls-1" d="M278.54,235.73c13.12-3.38,18.64-10.39,18.88-23.15v-2.13H284.6v13.23h-4.16V210.45H266.08v-4h14.36v-6.71s0-3.2-.12-5h.84c3,0,5.22,0,5.22.89,0,.41-.54.95-1.66,1.07-.12,1.6-.12,3.79-.12,3.79v6h12.76c0-1.9.06-5.17.06-8.13,0-1.49,0-2.91-.06-4,5.7,0,6.05.71,6.05,1.07s-.53.89-1.66,1.07c-.06,1-.12,2.37-.18,3.8,0,1-.06,2.07-.06,3.08s.06,2.08.06,3.15h13.77v4H301.63v.41c0,1.66-.06,3.27-.17,4.81-.95,11.93-6.65,18.82-18.35,23.33Z"/><path class="cls-1" d="M338.73,214.48c1.9.77,4.93,2.14,4.93,2.85,0,.42-.48.65-1.37.65h-.47c-2.08,4.46-6.24,10.93-10.21,14.07,0,0-4.52-1.9-4.63-2C332.79,226.29,337,219.17,338.73,214.48ZM350.24,208h-19.7v-4h19.7V200.3c0-1.61,0-3.09-.12-4.57,4.63,0,6.12.17,6.12.89,0,.41-.53.89-1.6,1.06-.06,1.19-.12,2.79-.12,2.85V204h19.05v4H354.46v9c0,1.84.24,12.76.24,13.05,0,5.64-4.58,7.42-9.8,7.42a19.88,19.88,0,0,1-2.67-.12c-.18-.23-2.43-4.21-2.79-4.74a40.43,40.43,0,0,0,5.94.65c2.67,0,4.86-.77,4.86-3.74Zm13.36,6.18c3.38,2.67,9.85,9.67,11.57,14.3l-4,2.67c-1.55-4.75-7-11.75-10.69-15Zm7-24.82a6.39,6.39,0,1,1-6.35,6.42A6.41,6.41,0,0,1,370.6,189.31Zm3.39,6.36a3.38,3.38,0,0,0-3.39-3.33,3.32,3.32,0,0,0-3.32,3.33,3.36,3.36,0,0,0,3.32,3.38A3.42,3.42,0,0,0,374,195.67Z"/><path class="cls-1" d="M389.89,213.65h44.87V218H389.89Z"/><path class="cls-1" d="M466.52,199s0-3.26-.12-5.46c6.41.36,6.71.41,6.71,1.13,0,.41-.6,1-1.9,1.12-.12,1.37-.12,2.68-.12,3.57v8.42c6.17,2,15.73,5.64,21.07,8.67L488.83,221a75.09,75.09,0,0,0-17.74-8.84v27.48h-4.57Z"/><path class="cls-1" d="M516.2,225.7A8.22,8.22,0,1,1,508,234,8.22,8.22,0,0,1,516.2,225.7Zm4.86,8.25a4.87,4.87,0,1,0-9.73,0,4.87,4.87,0,1,0,9.73,0Z"/></g></g></svg>