<?xml version="1.0" encoding="utf-8"?>
<svg xmlns="http://www.w3.org/2000/svg" viewBox="0 0 97.03 151.46"><defs><style>.cls-1{fill:none;}.cls-1,.cls-2{stroke:#1e1e1e;stroke-linecap:round;stroke-miterlimit:10;stroke-width:1.08px;}.cls-2{fill:#fff;}</style></defs><title>start</title><g id="レイヤー_2" data-name="レイヤー 2"><g id="copy"><path class="cls-1" d="M54.94,123.17,7,123.06a6.5,6.5,0,0,1-6.49-6.5V7A6.5,6.5,0,0,1,7.06.54L55,.64a6.51,6.51,0,0,1,6.49,6.51V116.66A6.51,6.51,0,0,1,54.94,123.17Z"/><path class="cls-1" d="M7,120a3.42,3.42,0,0,1-3.41-3.42V7A3.42,3.42,0,0,1,7,3.62L55,3.72a3.43,3.43,0,0,1,3.41,3.43V116.66A3.43,3.43,0,0,1,55,120.09Z"/><path class="cls-2" d="M68.9,89.72c-3.77-.33-12.66-21.61-19.78-37.67-1-2.34-5.68-.55-3,7.75,0,0,6,14.76,6.78,17.83l4.6,13.73c.56,5.44.71,10-1,12.7-.74,1.22-4.68,2.52-4.94,1.86-.41-1-2.61-5.67-3.13-9.21-1.3-8.84-6.77-11.26-9.06-12-.81-.26-1.23.41-1.24,1.26C38.16,87.87,41,96.4,41,96.4l2,11.93s9,21.3,14.76,24.32,11.75,11.61,14.69,18.28"/><path class="cls-2" d="M70.93,83.65c2.56.06,5.87.54,6.71,1.77a22.39,22.39,0,0,1,3.89,11.64c1.13,11.33,0,23.07,3.1,32.63,2.12,6.64,7.72,17.08,11.86,20"/><path class="cls-2" d="M61.15,77.29C64.1,77,66.87,81.37,71.58,84c.82.46,2.07,2.87,3.19,3.44"/><polyline class="cls-1" points="40.09 54.09 21.35 54.14 21.29 35.45 39.99 35.39 40.04 54.02"/><polyline class="cls-1" points="24.77 41.92 29.52 47.19 47.05 34.38"/></g></g></svg>