<?xml version="1.0" encoding="utf-8"?>
<svg xmlns="http://www.w3.org/2000/svg" viewBox="0 0 436.19 151.69"><defs><style>.cls-1,.cls-2{fill:none;}.cls-2{stroke:#1e1e1e;stroke-linecap:round;stroke-linejoin:round;stroke-width:0.93px;}.cls-3{fill:#1e1e1e;}</style></defs><title>step1</title><g id="レイヤー_2" data-name="レイヤー 2"><g id="copy"><polyline class="cls-1" points="214.64 43.13 214.54 43.13 164.31 95.84 164.31 151.23 300.17 151.23 350.32 99.17 350.32 43.13 214.54 43.13"/><polyline class="cls-2" points="300.17 151.23 350.32 99.17 350.32 43.13 214.54 43.13 164.31 95.84"/><line class="cls-2" x1="301.65" y1="93.93" x2="350.32" y2="43.13"/><line class="cls-2" x1="224.58" y1="43.13" x2="175.04" y2="95.84"/><line class="cls-2" x1="341.11" y1="43.13" x2="288.45" y2="95.84"/><polyline class="cls-2" points="164.31 95.84 164.31 151.23 300.17 151.23 300.17 101.05"/><line class="cls-2" x1="170.68" y1="95.84" x2="293.79" y2="95.84"/><path class="cls-2" d="M248.84,63.19c-.8,5.79,4.08,11.29,14.28,14.59a54.08,54.08,0,0,0,6.58,1.65"/><path class="cls-2" d="M231.69,79.87a100.14,100.14,0,0,0,11.24,1.23,113.85,113.85,0,0,0,26.77-1.67"/><path class="cls-2" d="M232.68,73.21c3.23,3.49,8.63,6.58,16.07,8.87a77.25,77.25,0,0,0,10.1,2.35"/><path class="cls-2" d="M232.68,73.21a74.69,74.69,0,0,0,7.52.72c12.94.59,25.94-1.91,35.41-6.25"/><path class="cls-2" d="M277.5,50.25C267,57.43,242.05,63.77,234,71.69c-6.19,6.1-2.28,11.9,8,13.63S265.2,84.06,271.38,78c8-7.92,1.33-19.59,6.34-27.68"/><path class="cls-2" d="M363.25,140.71s1.95,6.11,16.21,6.11c13.48,0,15.65-6.11,15.65-6.11"/><line class="cls-2" x1="363.29" y1="140.71" x2="363.29" y2="65.29"/><line class="cls-2" x1="395.11" y1="65.02" x2="395.11" y2="140.71"/><line class="cls-2" x1="363.3" y1="65.06" x2="363.19" y2="33.43"/><line class="cls-2" x1="395.11" y1="65.06" x2="395.11" y2="33.43"/><path class="cls-2" d="M363.19,33.43c0-3.37,7.15-6.09,16-6.09s16,2.72,16,6.09"/><path class="cls-2" d="M395.11,105.4c-4.75,3.83-15.22,5.2-24.89,2.55a2,2,0,0,0-2.53,1.82v24.29a2.11,2.11,0,0,0,1,1.68c6.1,4.27,20.68,3.81,26.38-2.17"/><path class="cls-1" d="M375.69,122.88a9.53,9.53,0,0,0,6.65,5.39,8.74,8.74,0,0,0,1.89.24"/><path class="cls-1" d="M374.32,128.51a12.87,12.87,0,0,0,5.73,2.74,14.76,14.76,0,0,0,2.86.29"/><path class="cls-1" d="M374.32,128.51a8.74,8.74,0,0,0,1.89-.24,9.49,9.49,0,0,0,6.64-5.39"/><path class="cls-2" d="M379.3,115s-.05,0-.05,0c-.74,4-5,8.62-5,12.72a5,5,0,1,0,10,0C384.27,123.64,380,119,379.3,115Z"/><path class="cls-2" d="M365.63,67.16s1.66,4.09,13.76,4.09c11.44,0,13.28-4.42,13.28-4.42"/><path class="cls-2" d="M365.63,33.14s1.66,4.26,13.76,4.26c11.44,0,13.28-4.6,13.28-4.6"/><path class="cls-1" d="M375.64,131.54a14.76,14.76,0,0,0,2.86-.29,12.87,12.87,0,0,0,5.73-2.74"/><path class="cls-2" d="M403.87,140.71s1.95,6.11,16.21,6.11c13.47,0,15.65-6.11,15.65-6.11"/><line class="cls-2" x1="403.91" y1="140.71" x2="403.91" y2="65.29"/><line class="cls-2" x1="435.73" y1="65.02" x2="435.73" y2="140.71"/><line class="cls-2" x1="403.92" y1="65.06" x2="403.81" y2="33.43"/><line class="cls-2" x1="435.73" y1="65.06" x2="435.73" y2="33.43"/><path class="cls-2" d="M403.81,33.43c0-3.37,7.14-6.09,16-6.09s16,2.72,16,6.09"/><path class="cls-2" d="M435.73,105.4c-4.76,3.83-15.22,5.2-24.89,2.55a2,2,0,0,0-2.53,1.82v24.29a2.12,2.12,0,0,0,1,1.68c6.11,4.27,20.68,3.81,26.39-2.17"/><path class="cls-1" d="M416.31,122.88a9.51,9.51,0,0,0,6.65,5.39,8.73,8.73,0,0,0,1.88.24"/><path class="cls-1" d="M414.94,128.51a12.87,12.87,0,0,0,5.73,2.74,14.66,14.66,0,0,0,2.85.29"/><path class="cls-1" d="M414.94,128.51a8.82,8.82,0,0,0,1.89-.24,9.51,9.51,0,0,0,6.64-5.39"/><path class="cls-2" d="M419.92,115s-.05,0-.06,0c-.73,4-5,8.62-5,12.72a5,5,0,1,0,10,0C424.89,123.64,420.65,119,419.92,115Z"/><path class="cls-2" d="M406.25,67.16s1.65,4.09,13.76,4.09c11.44,0,13.28-4.42,13.28-4.42"/><path class="cls-2" d="M406.25,33.14S407.9,37.4,420,37.4c11.44,0,13.28-4.6,13.28-4.6"/><path class="cls-1" d="M416.26,131.54a14.58,14.58,0,0,0,2.85-.29,12.77,12.77,0,0,0,5.73-2.74"/><path class="cls-2" d="M153.57,80.43c-17.57-18.78-47.1-4.49-75.44-4.49C35.23,75.94.46,59,.46,38.2S35.23.46,78.13.46s77.66,16.9,77.66,37.74c0,11.54-10.67,21.88-27.46,28.8"/><path class="cls-3" d="M39,43.54C39,46.77,41.24,47,42,47A2.86,2.86,0,0,0,45.19,44c0-2.33-2.12-2.86-3.39-3.39-1.74-.59-4.51-1.52-4.51-4.73a4.63,4.63,0,0,1,4.85-4.72,4.55,4.55,0,0,1,4.64,4.63H44.6a2.58,2.58,0,0,0-2.55-2.68,2.53,2.53,0,0,0-2.58,2.56c0,1.8,1.8,2.42,3,2.83,2,.65,4.86,1.74,4.86,5.26C47.4,46.65,45.63,49,42,49a5.09,5.09,0,0,1-5.23-5.44Z"/><path class="cls-3" d="M54.46,33.52H50.89v-2h3.57v-6h2.18v6h4.08v2H56.64V48.58H54.46Z"/><path class="cls-3" d="M82.65,48.58H80.48v-3h-.07A7.86,7.86,0,0,1,73.79,49a8.93,8.93,0,1,1,0-17.85,7.69,7.69,0,0,1,6.62,3.42h.07v-3h2.17ZM73.79,47a7,7,0,1,0-7-6.9A6.75,6.75,0,0,0,73.79,47Z"/><path class="cls-3" d="M88.94,31.56h2.18V34h.06c1-2.4,3-2.77,4.79-2.89v2.3a5.21,5.21,0,0,0-3.67,1.68,5.58,5.58,0,0,0-1.18,3.51v10H88.94Z"/><path class="cls-3" d="M102.63,33.52H99.06v-2h3.57v-6h2.18v6h4.08v2h-4.08V48.58h-2.18Z"/><path class="cls-3" d="M115,25.56h2.3v17H115Zm0,19.1h2.3v3.92H115Z"/></g></g></svg>