<?xml version="1.0" encoding="utf-8"?>
<svg xmlns="http://www.w3.org/2000/svg" viewBox="0 0 205.35 272.08"><defs><style>.cls-1{fill:#fcb0b7;}.cls-2{fill:#e4f6f7;}.cls-3,.cls-4{fill:none;stroke:#1e1e1e;stroke-linecap:round;stroke-miterlimit:10;}.cls-3{stroke-width:0.8px;}.cls-4{stroke-width:0.72px;}</style></defs><title>step3_4</title><g id="レイヤー_2" data-name="レイヤー 2"><g id="copy"><path class="cls-1" d="M103.53,137.64,75,132.46a208.87,208.87,0,0,1,47.35-99.17L91.74,5.45,205.35,0,169.62,28.06A180.14,180.14,0,0,0,103.53,137.64Z"/><circle class="cls-2" cx="87.56" cy="179.93" r="87.56"/><path d="M33.47,147.65s0-1,0-1.66c2,.11,2,.13,2,.34s-.18.29-.58.34c0,.42,0,.81,0,1.08v2.56a39.57,39.57,0,0,1,6.4,2.63l-1,1.37a22.8,22.8,0,0,0-5.39-2.69V160H33.47Zm4.52-.4a11.15,11.15,0,0,1,2.61,1.62l-.76.9A12.21,12.21,0,0,0,37.29,148Zm1.4-1.48A10.7,10.7,0,0,1,42,147.29l-.72.93a10.07,10.07,0,0,0-2.59-1.65Z"/><path d="M47.31,158.18c5-.83,7.85-3.53,8.91-7.11H46.59l0-1.28,10.07,0c.16,0,.25-.11.37-.11s1.19.74,1.19,1-.12.18-.38.25a11.76,11.76,0,0,1-8.93,8.42Zm.61-12h8.75v1.25H47.94Z"/><path d="M62.14,154.07a22.2,22.2,0,0,0,10.57-8c.18.06,1.62.74,1.62,1,0,.11-.11.18-.32.18a1.06,1.06,0,0,1-.29,0,32.19,32.19,0,0,1-3,3.11v9.65H69.33l0-8.44a23.76,23.76,0,0,1-5.78,3.6Z"/><path d="M77.21,160.43c1.83-2.27,2-6,2-9,0-1.42,0-5.22,0-5.92H83.8v10.39c0,1.3,0,2.25,0,2.47v0c0,1.46-1.28,1.86-2.48,1.86l-.33,0-.77-1.33c.36,0,.84.12,1.3.12.62,0,1.16-.16,1.16-.86v-3.64H80.18a13,13,0,0,1-1.71,6.23Zm5.49-7v-3.08H80.27c0,.34,0,.69,0,1.06,0,.63,0,1.32,0,2Zm0-4.09v-2.79H80.27v2.79Zm.59,11c2.34-1.73,2.59-5,2.59-7.85,0-.78,0-1.51,0-2.18,0-1.33-.08-4.45-.08-4.72h5.35c0,.58,0,11,0,13.06,0,.32.18.54.79.54.3,0,.72-.06.86-.81a28.48,28.48,0,0,0,.16-3.21l1.1,1a17.18,17.18,0,0,1-.2,2.56c-.16.92-.54,1.62-2,1.62s-1.85-.78-1.85-1.48l0-12.19H87c0,.33,0,2.81,0,3.69,0,.52,0,1.08,0,1.64,0,3.1-.22,6.46-2.38,8.7Z"/><path d="M95.26,159.29A67.22,67.22,0,0,0,99.6,151a13.37,13.37,0,0,1-3.26.54l-.34,0-.42-1.22a.43.43,0,0,0,0-.05c0-.08.07-.09.12-.09a11.27,11.27,0,0,0,1.33.09,11.57,11.57,0,0,0,1.52-.11l1.51-.25A14.23,14.23,0,0,0,101,146c.14,0,1.17.2,1.56.3.22.06.31.15.31.26s-.22.28-.58.28c-.12.53-.5,1.77-.88,2.85l.56-.09a3,3,0,0,1,.59-.06c1.93,0,2.27,1.68,2.27,3.41a12.93,12.93,0,0,1-.57,3.85,3.53,3.53,0,0,1-3.3,2.48,3.24,3.24,0,0,1-1.91-.61L98.86,157a3,3,0,0,0,2.13,1,2.11,2.11,0,0,0,2-1.53,12.71,12.71,0,0,0,.56-3.65c0-1.44-.29-2.18-1.32-2.18-.23,0-.81.09-1.29.16-1.08,2.63-2.43,5.31-4.25,8.77Zm11.54-9.79c2.25,1.35,3.91,3.19,4,4.77l-1.14.63-.09,0s-.07,0-.07-.11c-.16-1.57-1.37-3.4-3.8-4.65a.12.12,0,0,1,0-.09s0-.07,0-.07Zm.43-2.63a8.31,8.31,0,0,1,2.43,1.59l-.73.84a6.76,6.76,0,0,0-2.38-1.73Zm1.39-1.33A9.53,9.53,0,0,1,111,147l-.7.88a7,7,0,0,0-2.36-1.6Z"/><path d="M110.92,159.78c4.43-.47,5.37-3,5.6-4.34h-4.2v-1.1h4.33c0-.39,0-.82,0-1.24,0-.58,0-1.12,0-1.44h-1.14v-.77a14.33,14.33,0,0,1-3.67,2.41l-1.17-.83c3.63-1.22,6.77-4.81,7.63-6.18l-4.19,0v-1h4.71s.15-.14.24-.14,0,0,0,0c.18.07.83.41.83.59s-.11.18-.3.23v0a14.25,14.25,0,0,0,1.26,1.48,10.34,10.34,0,0,0,2-2.31c.36.18,1.23.79,1.23,1s-.07.12-.22.12a1.39,1.39,0,0,1-.32-.05,26.12,26.12,0,0,1-2,2c.49.45,1,.92,1.58,1.35a12.11,12.11,0,0,0,2-2.32,11.2,11.2,0,0,1,1.06.73c.09.09.15.17.15.22s-.09.14-.24.14a.89.89,0,0,1-.3,0,20.57,20.57,0,0,1-1.86,1.89,16.49,16.49,0,0,0,3.78,2l-1.24.9a18.52,18.52,0,0,1-3.6-2.25v.83h-1.37l0,2.68h4.51v1.1h-4.51c0,1.48,0,2.77,0,2.85,0,.86.52,1,1.87,1s2.1-.38,2.19-2.74l1.21,1c-.34,1.91-.75,2.86-3.55,2.86-2.19,0-2.91-.56-2.91-1.83v-3.12h-2.62c-.24,1.57-1.28,4.54-5.66,5.39Zm2.25-13a24.41,24.41,0,0,1,2.23,1.85l-.88.81a15,15,0,0,0-2.14-2Zm9.54,3.85a23.72,23.72,0,0,1-3.62-3.67,21.78,21.78,0,0,1-3.29,3.67Zm-2.36,3.69,0-2.68h-2.54c0,.23,0,.58,0,1,0,.54,0,1.18,0,1.72Z"/><path d="M128.45,158.88h7.24v-4.34h-4.81v-1.17h4.81V150h-4a16.6,16.6,0,0,1-2.33,4l-1.33-.54a15.33,15.33,0,0,0,3.82-7.94c.2,0,1.74.18,1.74.52,0,.15-.23.27-.54.27H133a21.55,21.55,0,0,1-.83,2.58h3.53v-2.61c0-.87,0-1.17,0-1.34,1.73,0,1.87.2,1.87.33s-.2.29-.54.36c0,.32,0,.59,0,.77v2.49h5.5V150h-5.5v3.42H142v1.17h-5.11v4.34h6.57v1.17h-15Z"/><path d="M25.24,184.21c-1.33,1.64-4.19,3.69-6.69,3.69-3.75,0-4-2.85-4-4.94s.35-5,.35-7.43c0-.4,0-.79,0-1.17a11.84,11.84,0,0,1,1.73.16c.2,0,.32.13.32.25s-.18.31-.57.38c-.15,2.67-.53,5.89-.53,8s.51,3.47,2.69,3.47c2.62,0,5-2.44,6.14-4Z"/><path d="M27.94,180.05a.06.06,0,0,1,0-.07s0-.06.08-.08a14,14,0,0,0,3.18-1.17l.51-.25c-.56-1.2-1.05-2.34-1.41-3.33a10.17,10.17,0,0,1,1.5-.32c.18,0,.25.07.25.14s-.11.25-.32.36a23.06,23.06,0,0,0,1,2.65,32.7,32.7,0,0,1,3.22-1.46A6.08,6.08,0,0,0,34.17,174l1.06-.41a6.39,6.39,0,0,1,1.86,2.48,8.46,8.46,0,0,1,2.3-.35c2.22,0,3.41,1.15,3.41,2.64,0,.94-.85,3.73-4.79,3.73a10,10,0,0,1-1.77-.18l-.72-1.44a11.3,11.3,0,0,0,2.63.39c2.3,0,3.29-1.44,3.29-2.46,0-.15,0-1.64-2.23-1.64-1.66,0-3.69.88-6.1,2.18.39.84.83,1.71,1.26,2.55,1.08,2.11,2.19,4.22,2.93,5.91l-1.35.65c-.38-1.23-.5-1.6-3.82-8.57l-.41.21a17.47,17.47,0,0,1-2.7,1.34Z"/><path d="M45.27,176.57a.25.25,0,0,1,0-.09s0-.07.09-.07h0c.43,0,.85.05,1.28.05a24.05,24.05,0,0,0,2.54-.16c1.13-.12,2.43-.23,3.78-.32,0-.94-.09-1.8-.16-2.41,1.3,0,1.89,0,1.89.28s-.18.29-.5.33c0,.39-.06,1-.08,1.73,1.25-.08,2.52-.11,3.71-.11.56,0,1.08,0,1.59,0l-.06,1.33a32,32,0,0,0-3.67-.22c-.54,0-1.06,0-1.58,0,0,1.19,0,2.41,0,3.15a4.36,4.36,0,0,1,.72,2.47c0,2.09-1.59,4.34-5,5.56-.63-.4-1.44-.86-1.57-.94.88-.18,5-1.29,5.37-4.33a2.36,2.36,0,0,1-2.16,1.22A2.47,2.47,0,0,1,49,181.69,2.7,2.7,0,0,1,51.74,179a3,3,0,0,1,1.3.27v-.6c0-.5,0-1.06,0-1.62-1.46.11-2.81.27-4,.45a28.93,28.93,0,0,1-3.42.4ZM51.74,180a1.48,1.48,0,0,0-1.6,1.5,1.35,1.35,0,0,0,1.35,1.42c1.31,0,1.53-1.24,1.53-2.4A1.56,1.56,0,0,0,51.74,180Z"/><path d="M69.4,184c-1.12,2.13-2.07,2.7-2.89,2.7a2.3,2.3,0,0,1-1-.27c-2.81-1.36-2.83-4.68-2.83-7.16,0-.81,0-1.71,0-2.45v0c0-.05,0-.07.09-.07h.05s1.06.11,1.48.18c.16,0,.27.11.27.2s-.15.23-.45.29c0,1-.09,3.09-.09,3.44,0,2.1.46,3.65,2,4.37a1.14,1.14,0,0,0,.45.11c.67,0,1.21-.86,2.07-3Zm5.72.62H75s0,0,0-.07v-.3a11.07,11.07,0,0,0-3.46-7.39l1.21-.38c1.94,1.72,3.71,5.12,3.71,7.41V184Z"/><path d="M77.4,182.89A17,17,0,0,0,85,179.35a11.26,11.26,0,0,1-2.11-2.92,15.4,15.4,0,0,1-3.31,3l-1.35-.63a14.75,14.75,0,0,0,5.8-6.12c.09,0,1.49.34,1.49.68,0,.11-.14.22-.45.22a.75.75,0,0,1-.2,0c-.14.25-.3.51-.48.79H89c.09,0,.17-.12.29-.12a5.24,5.24,0,0,1,.92.65.21.21,0,0,1,.09.16c0,.12-.16.21-.34.23a19.1,19.1,0,0,1-3.23,4.05,14.6,14.6,0,0,0,7.4,2.94l-1.33,1.22a16.35,16.35,0,0,1-6.89-3.38,18.78,18.78,0,0,1-7.22,3.8Zm4.36,2.67a48.54,48.54,0,0,1,7.94,2.19L89,189a34.67,34.67,0,0,0-8-2.38Zm1.95-3.1A31.73,31.73,0,0,1,89,184.32l-.78,1.08a23.16,23.16,0,0,0-5.29-2Zm0-7a10.59,10.59,0,0,0,2.18,3.12,16.88,16.88,0,0,0,2.57-3.19h-4.7Z"/><path d="M97.11,187.48a10,10,0,0,1-.91-4.55,38.37,38.37,0,0,1,.73-6.14c.15-.83.35-2.07.42-2.72,0,0,0-.09.09-.09s1,.23,1.44.38c.18,0,.27.16.27.25s-.18.25-.52.25h-.06a46.94,46.94,0,0,0-1.2,6.72c0,.39-.09.92-.09,1.46,0,.05,0,1,.12,1s.09-.09,1.43-3.69l.54,1.2a14.14,14.14,0,0,0-1.3,4.92,6.3,6.3,0,0,0,.05.75s-.16.09-.18.09Zm3.21-10.33a.1.1,0,0,1,0-.07s0-.06.07-.06h0a10.51,10.51,0,0,0,2.61.4,15.1,15.1,0,0,0,2.14-.2v-1c0-.81,0-1.57,0-2.43,0,0,1.2.05,1.37.07s.43.13.43.23-.16.27-.52.35a9.17,9.17,0,0,0-.08,1.11c0,.49,0,1,0,1.46.93-.18,1.91-.38,2.86-.61l.07,1.21c-1,.19-2,.37-2.93.52,0,2.09.12,3.94.2,5.36a12.89,12.89,0,0,1,3.9,2.2l-1,1a9.26,9.26,0,0,0-2.81-2.07,2.87,2.87,0,0,1-3.1,2.7c-1.53,0-3.13-.88-3.13-2.18,0-1,1.15-2.07,3.47-2.07a8.1,8.1,0,0,1,1.53.15c0-1-.14-2.9-.18-4.92a24.33,24.33,0,0,1-2.63.23,8.19,8.19,0,0,1-1.9-.21Zm3.4,6.93c-1.24,0-2.23.43-2.23,1.06s1.12,1.05,2,1.05a1.81,1.81,0,0,0,1.93-1.86A5.87,5.87,0,0,0,103.72,184.08Z"/><path d="M111.68,185.32h15v1.34h-15ZM113.3,176h11.79v1.32H113.3Z"/><path d="M127.53,188c2.2-2.52,2.33-6,2.33-11,0-1.24,0-2.52-.06-3.69h13v4h-1.17v-.63H131c0,4.36-.07,9.07-2.1,11.77Zm14.12-12.35v-1.39H131l0,1.39Zm-9.49,3.08H135a12,12,0,0,0-1-1.21l.92-.56a11,11,0,0,1,1.42,1.77h2.07A12.52,12.52,0,0,0,139.4,177c.95.38,1.3.52,1.3.7s-.19.2-.45.2h-.06s-.32.43-.65.85l3.12,0v4.86h-1v-.43h-8.44v.5h-1Zm.94,5.44,8.6,0v4.8h-1.06v-.47h-6.5V189h-1Zm3.62-3.68v-1h-3.53v1Zm0,1.82v-1.06h-3.53v1.06Zm3.92,3.6v-.95h-6.5v.95Zm0,1.77v-1h-6.5v1Zm1-7.19v-1h-3.91v1Zm0,1.82v-1.06h-3.91v1.06Z"/><path d="M145.08,176.3H154c-.07-1.08-.14-2.32-.25-3.45.11,0,1.31.1,1.6.14s.34.13.34.23-.16.27-.54.35c0,.88,0,1.89.09,2.73h5.15v1.17h-5.06c.63,7,2.58,9.49,3.35,9.49s1.1-2.61,1.15-3.29l1.08,1.47c-.25,1.62-1.09,3.33-2.26,3.33-.83,0-3.59-1.29-4.54-11h-9Zm4,5.15h-3.24v-1.11h7.74v1.11h-3.31v4.22c1.69-.42,3.21-.83,4-1.1l0,1.15a81.7,81.7,0,0,1-8.1,2v.13c0,.25-.09.41-.22.41s-.16-.07-.25-.23c-.22-.4-.54-1.28-.6-1.39,1.19-.16,2.61-.43,4-.73Zm8-8.41a13.24,13.24,0,0,1,2.43,1.88l-.8.9a9.94,9.94,0,0,0-2.41-2.09Z"/><path d="M36.53,208.74c1-.29,2.77-.79,4.64-1.37l.07-3.54v-.4c0-.31,0-.59,0-.88.12,0,1.22,0,1.63.12.22,0,.31.13.31.22s-.2.29-.52.31a7.33,7.33,0,0,0-.07,1.09c0,.87-.06,1.81-.08,2.69L48.86,205c.16-.05.2-.21.34-.21s1.24.48,1.24.72-.1.18-.32.27a21.8,21.8,0,0,1-3.44,5.36l-1.49-.32a15.53,15.53,0,0,0,3.27-4.5c-1.15.38-3.6,1.15-6,1.89,0,1.67-.07,3-.07,3.22v.13c0,1.91.46,2.43,3,2.43a25.69,25.69,0,0,0,4.52-.54L49.4,215a28.92,28.92,0,0,1-3.82.3c-3.2,0-4.48-.86-4.48-3.22V212c0-.61,0-1.94,0-3.35L37,210Z"/><path d="M55.68,214.23c5-.82,7.85-3.53,8.91-7.11H55l0-1.28H65c.16,0,.25-.11.37-.11s1.19.74,1.19.95-.12.18-.38.25a11.76,11.76,0,0,1-8.93,8.43Zm.61-11.95H65v1.24H56.31Z"/><path d="M82.77,214.72c-.32-.68-.65-1.31-1-1.91-1.82.36-6.41,1.14-10,1.64v0c0,.32-.11.55-.26.55s-.19-.1-.28-.34c-.22-.57-.45-1.44-.49-1.53l1.73-.18a66.48,66.48,0,0,0,3.6-10.48c.11,0,1.92.4,1.92.74,0,.14-.17.25-.5.25h-.16a75.92,75.92,0,0,1-3.46,9.33c2.56-.32,5.37-.79,7.19-1.15a21.31,21.31,0,0,0-2.7-3.41l1.06-.61A24.82,24.82,0,0,1,84,213.89Z"/><path d="M92.51,214.34c3.2-.25,7.2-1.85,7.2-5.62,0-2.28-1.84-4.32-4.74-4.5,0,.22,0,.45,0,.69,0,3.17-2.18,6.46-3.2,7.72a2.62,2.62,0,0,1-1.91,1.19c-1.08,0-2.61-1.51-2.61-3.75,0-3.31,3.34-6.91,7.41-6.91,3.73,0,6.36,2.54,6.36,5.58,0,4-3.67,6.2-7.06,6.79Zm-4-4.32c0,1.35.83,2.45,1.37,2.45,1.08,0,3.87-4.36,3.87-7.45,0-.24,0-.49,0-.73C91,204.8,88.47,207.55,88.47,210Z"/><path d="M104.28,211.44s0-.9-.06-1.53c1.48,0,1.82.11,1.82.33s-.18.28-.54.36c0,.45,0,1,0,1v3h4.75l0-6.48H106v.81h-1.19V204.1s0-.9-.07-1.53c1.8,0,1.82.18,1.82.3s-.17.29-.53.36c0,.47,0,1,0,1V207h4.23v-4.49s0-.9-.07-1.53c1.67,0,1.87.17,1.87.33s-.16.29-.52.36c0,.45,0,.95,0,.95V207h4.41V204.1s0-.9-.07-1.53c1.8,0,1.82.18,1.82.3s-.16.29-.52.36c0,.47,0,1,0,1v4.7h-1.19v-.81h-4.41v6.48h4.93v-3.12s0-.9-.07-1.53c1.73,0,1.82.16,1.82.33s-.16.28-.52.36c0,.45,0,1,0,1v5.15h-1.19v-1H105.47v1.08h-1.19Z"/><path d="M122.5,210a19,19,0,0,1-1.93.92l-1.28-.81a19.76,19.76,0,0,0,6.9-4l-6.09,0v-1l4,0a8.7,8.7,0,0,0-1.18-1.64l.88-.48a10.69,10.69,0,0,1,1.51,2.12H127V202.8c-1.88.11-3.8.2-5.55.22l-.81-1.1c.5,0,1.06,0,1.64,0a62.05,62.05,0,0,0,10.33-.81c.85.84,1,1.08,1,1.22s-.07.13-.19.13a1.14,1.14,0,0,1-.6-.24c-1.24.16-2.9.34-4.66.47v2.52h1.93a20.07,20.07,0,0,0,1.17-2.39,12.17,12.17,0,0,1,1.26.37c.14.06.23.15.23.24s-.16.25-.56.25h-.09a11.62,11.62,0,0,1-.93,1.53l3.92,0v1l-6.16,0a17.22,17.22,0,0,0,7.08,3.45l-1.26,1a12.67,12.67,0,0,1-1.93-.81l.06,7h-1.1V216h-8.25l0,1h-1.06Zm10.29-.22a17.5,17.5,0,0,1-4.62-3.26l-.08-.09c0,.56.08,1.37.08,1.75v1.15H127v-1.15c0-.31,0-1.08.07-1.67l-.07.07a18,18,0,0,1-4.09,3.2ZM127,215v-1.73h-3.49l0,1.73Zm0-2.64v-1.57h-3.49v1.57Zm4.7,0v-1.57h-3.6v1.57Zm0,2.64v-1.73h-3.62V215Z"/><line class="cls-3" x1="42.23" y1="230.43" x2="45.73" y2="251.05"/><polygon class="cls-3" points="51.63 246.18 52.9 253.72 47.01 258.6 39.84 255.93 38.56 248.39 44.45 243.51 51.63 246.18"/><line class="cls-3" x1="43.88" y1="240.11" x2="47.17" y2="237.38"/><line class="cls-3" x1="43.28" y1="236.57" x2="48.57" y2="232.18"/><line class="cls-3" x1="43.88" y1="240.11" x2="39.87" y2="238.62"/><line class="cls-3" x1="43.28" y1="236.57" x2="36.83" y2="234.17"/><line class="cls-3" x1="61.84" y1="237.71" x2="45.73" y2="251.05"/><line class="cls-3" x1="54.28" y1="243.97" x2="58.29" y2="245.46"/><line class="cls-3" x1="57.05" y1="241.68" x2="63.5" y2="244.08"/><line class="cls-3" x1="54.28" y1="243.97" x2="53.57" y2="239.76"/><line class="cls-3" x1="57.05" y1="241.68" x2="55.9" y2="234.9"/><line class="cls-3" x1="65.34" y1="258.34" x2="45.73" y2="251.05"/><line class="cls-3" x1="56.14" y1="254.92" x2="56.85" y2="259.13"/><line class="cls-3" x1="59.51" y1="256.17" x2="60.66" y2="262.95"/><line class="cls-3" x1="56.14" y1="254.92" x2="59.43" y2="252.19"/><line class="cls-3" x1="59.51" y1="256.17" x2="64.8" y2="251.78"/><line class="cls-3" x1="49.23" y1="271.68" x2="45.73" y2="251.05"/><line class="cls-3" x1="47.59" y1="262" x2="44.3" y2="264.72"/><line class="cls-3" x1="48.19" y1="265.54" x2="42.89" y2="269.92"/><line class="cls-3" x1="47.59" y1="262" x2="51.59" y2="263.49"/><line class="cls-3" x1="48.19" y1="265.54" x2="54.64" y2="267.93"/><line class="cls-3" x1="29.62" y1="264.4" x2="45.73" y2="251.05"/><line class="cls-3" x1="37.18" y1="258.13" x2="33.18" y2="256.65"/><line class="cls-3" x1="34.42" y1="260.42" x2="27.97" y2="258.03"/><line class="cls-3" x1="37.18" y1="258.13" x2="37.9" y2="262.34"/><line class="cls-3" x1="34.42" y1="260.42" x2="35.57" y2="267.2"/><line class="cls-3" x1="26.12" y1="243.77" x2="45.73" y2="251.05"/><line class="cls-3" x1="35.33" y1="247.19" x2="34.61" y2="242.98"/><line class="cls-3" x1="31.96" y1="245.94" x2="30.81" y2="239.16"/><line class="cls-3" x1="35.33" y1="247.19" x2="32.04" y2="249.91"/><line class="cls-3" x1="31.96" y1="245.94" x2="26.66" y2="250.33"/><line class="cls-4" x1="80.98" y1="76.24" x2="80.98" y2="103.24"/><polygon class="cls-4" points="72.43 98.31 72.43 108.18 80.98 113.12 89.53 108.18 89.53 98.31 80.98 93.37 72.43 98.31"/><line class="cls-4" x1="80.98" y1="88.91" x2="76.21" y2="86.16"/><line class="cls-4" x1="80.98" y1="84.28" x2="73.3" y2="79.84"/><line class="cls-4" x1="80.98" y1="88.91" x2="85.76" y2="86.16"/><line class="cls-4" x1="80.98" y1="84.28" x2="88.67" y2="79.84"/><line class="cls-4" x1="57.6" y1="89.74" x2="80.98" y2="103.24"/><line class="cls-4" x1="68.57" y1="96.08" x2="63.8" y2="98.83"/><line class="cls-4" x1="64.56" y1="93.76" x2="56.87" y2="98.2"/><line class="cls-4" x1="68.57" y1="96.08" x2="68.57" y2="90.57"/><line class="cls-4" x1="64.56" y1="93.76" x2="64.56" y2="84.88"/><line class="cls-4" x1="57.6" y1="116.74" x2="80.98" y2="103.24"/><line class="cls-4" x1="68.57" y1="110.41" x2="68.57" y2="115.92"/><line class="cls-4" x1="64.56" y1="112.72" x2="64.56" y2="121.6"/><line class="cls-4" x1="68.57" y1="110.41" x2="63.8" y2="107.65"/><line class="cls-4" x1="64.56" y1="112.72" x2="56.87" y2="108.29"/><line class="cls-4" x1="80.98" y1="130.24" x2="80.98" y2="103.24"/><line class="cls-4" x1="80.98" y1="117.57" x2="85.76" y2="120.33"/><line class="cls-4" x1="80.98" y1="122.21" x2="88.67" y2="126.64"/><line class="cls-4" x1="80.98" y1="117.57" x2="76.21" y2="120.33"/><line class="cls-4" x1="80.98" y1="122.21" x2="73.3" y2="126.64"/><line class="cls-4" x1="104.37" y1="116.74" x2="80.98" y2="103.24"/><line class="cls-4" x1="93.39" y1="110.41" x2="98.17" y2="107.65"/><line class="cls-4" x1="97.41" y1="112.72" x2="105.09" y2="108.29"/><line class="cls-4" x1="93.39" y1="110.41" x2="93.39" y2="115.92"/><line class="cls-4" x1="97.41" y1="112.72" x2="97.41" y2="121.6"/><line class="cls-4" x1="104.37" y1="89.74" x2="80.98" y2="103.24"/><line class="cls-4" x1="93.39" y1="96.08" x2="93.39" y2="90.57"/><line class="cls-4" x1="97.41" y1="93.76" x2="97.41" y2="84.88"/><line class="cls-4" x1="93.39" y1="96.08" x2="98.17" y2="98.83"/><line class="cls-4" x1="97.41" y1="93.76" x2="105.09" y2="98.2"/></g></g></svg>