<?xml version="1.0" encoding="utf-8"?>
<svg xmlns="http://www.w3.org/2000/svg" viewBox="0 0 272.21 218.93"><defs><style>.cls-1{fill:#fcb0b7;}.cls-2,.cls-3,.cls-5{fill:#e5c9c2;}.cls-3,.cls-4,.cls-5,.cls-6{stroke:#1e1e1e;stroke-linecap:round;stroke-miterlimit:10;}.cls-3,.cls-4{stroke-width:0.72px;}.cls-4,.cls-6{fill:none;}.cls-5,.cls-6{stroke-width:0.8px;}</style></defs><title>step3_3</title><g id="レイヤー_2" data-name="レイヤー 2"><g id="copy"><path class="cls-1" d="M132.47,130.35A208.87,208.87,0,0,1,33.3,83L5.45,113.61,0,0,28.06,35.73a180.14,180.14,0,0,0,109.58,66.09Z"/><circle class="cls-2" cx="184.66" cy="131.01" r="87.56"/><path d="M121.23,108.09c0-1.3.11-4.12.14-5.55a17.41,17.41,0,0,1-2.39,4.94l-1.3-.36a19.51,19.51,0,0,0,3.42-6.18h-2.64V99.86h2.82V97.34c-1.11.22-2,.34-2.14.36l-.68-.94a20.44,20.44,0,0,0,5.2-1.17c.2.15,1,.81,1,1.07,0,.09-.07.14-.18.14a1,1,0,0,1-.45-.14c-.5.16-1.08.32-1.64.45v2.75h2.45v1.08h-2.3a15.47,15.47,0,0,0,2.55,4l-1.11.47a27.17,27.17,0,0,1-1.68-3.46c0,1.15.13,5,.13,6.16,0,0,0,2.52,0,3.24h-1.19Zm1.85,2.27c4.81-2.65,5.4-7.46,5.4-11.63,0-1.53,0-2.88-.07-3.21,1.41,0,1.71.15,1.71.29s-.18.23-.5.31c0,.25,0,1.24,0,2.44v.63a20.12,20.12,0,0,0,.43,3.28,26.79,26.79,0,0,0,3.1-4c.05,0,1.33.81,1.33,1.12,0,.11-.12.16-.3.16a.88.88,0,0,1-.31,0,41.25,41.25,0,0,1-3.08,3.48l-.66-.38a11.94,11.94,0,0,0,4.73,7.28l-1.44.79a14.4,14.4,0,0,1-4.19-7.83,12,12,0,0,1-4.69,8Zm2-6.34a11.13,11.13,0,0,0,.52-3.6,15.15,15.15,0,0,0-.11-1.82c1.69,0,1.71.27,1.71.31s-.2.27-.52.32v.34a15.88,15.88,0,0,1-.33,4.5Z"/><path d="M137.52,110.05a9.93,9.93,0,0,1-.92-4.55,38.48,38.48,0,0,1,.74-6.14c.14-.83.34-2.07.41-2.72,0-.06,0-.09.09-.09s1,.23,1.44.38c.18,0,.27.16.27.25s-.18.25-.52.25H139a48.11,48.11,0,0,0-1.21,6.72c0,.39-.09.91-.09,1.45,0,.06,0,1,.13,1s.09-.09,1.42-3.69l.54,1.21a14,14,0,0,0-1.3,4.91,4.77,4.77,0,0,0,.06.76s-.16.09-.18.09Zm3.2-10.33a.22.22,0,0,1,0-.08s0,0,.07,0h0a10.44,10.44,0,0,0,2.61.4,17,17,0,0,0,2.14-.2v-1c0-.81,0-1.57,0-2.43,0,0,1.21,0,1.37.07s.43.12.43.23-.16.27-.52.34c-.05.44-.07.9-.07,1.12,0,.49,0,1,0,1.46.94-.18,1.91-.38,2.86-.61l.08,1.2c-1,.2-2,.38-2.94.52,0,2.09.13,4,.2,5.37a12.94,12.94,0,0,1,3.91,2.2l-1,1a9.14,9.14,0,0,0-2.81-2.07,2.87,2.87,0,0,1-3.09,2.7c-1.54,0-3.14-.89-3.14-2.18,0-1,1.15-2.07,3.48-2.07a8.21,8.21,0,0,1,1.53.14c-.06-1-.15-2.9-.18-4.91a24.75,24.75,0,0,1-2.63.23,7.76,7.76,0,0,1-1.91-.22Zm3.41,6.93c-1.25,0-2.24.43-2.24,1.06s1.12,1,2,1a1.8,1.8,0,0,0,1.93-1.85A5.8,5.8,0,0,0,144.13,106.65Z"/><path d="M152.94,109.26a15.14,15.14,0,0,0,7.33-4.41,12.23,12.23,0,0,0-3.19-2.31l.85-.81a14.6,14.6,0,0,1,3.24,2,21.16,21.16,0,0,0,2.49-4.25h-4.81a18.26,18.26,0,0,1-4.56,4.34l-1.31-.72a16.33,16.33,0,0,0,6.36-6.86c1.38.38,1.69.5,1.69.66s-.2.24-.54.24h-.09c-.25.45-.52.86-.78,1.26,1.7,0,4.49,0,4.58,0s.2-.12.3-.12,1.12.7,1.12,1c0,.11-.16.18-.4.23-2,4.07-5.07,8.91-10.94,10.73ZM164.59,96a11.23,11.23,0,0,1,2.18,1.81l-.77.77a8.27,8.27,0,0,0-2.13-1.93ZM166.18,95a9.36,9.36,0,0,1,2.14,1.68l-.77.77a8.29,8.29,0,0,0-2.07-1.8Z"/><path d="M169,109a20.31,20.31,0,0,0,7.36-6,29.3,29.3,0,0,0-3.78-2.33l.81-.84a24.62,24.62,0,0,1,3.75,2.12,22.08,22.08,0,0,0,2.61-5c.09,0,1.78.65,1.78,1,0,.15-.14.26-.41.26a1.67,1.67,0,0,1-.29,0,34.54,34.54,0,0,1-2.63,4.54,22.21,22.21,0,0,1,3,2.52l-1,1.26a19.35,19.35,0,0,0-2.79-2.7,21,21,0,0,1-7,6Z"/><path d="M186,102.69H199.6V104H186Z"/><path d="M203.45,100.87a12.1,12.1,0,0,1,4,2l-.72,1.24a10.73,10.73,0,0,0-4.07-2.19Zm13.16.74a24.14,24.14,0,0,1-10.8,8c0,.27-.09.47-.25.47s-1.32-1.21-1.51-1.48c0,0,0,0,0-.09s0-.07.13-.09c5.65-.92,10.22-6,11.86-8.41ZM206,97.2a11.63,11.63,0,0,1,3.8,2.44l-.9,1.16a10.34,10.34,0,0,0-3.69-2.74Zm7.28-.44a10.19,10.19,0,0,1,2.1,2l-.88.72a10.47,10.47,0,0,0-2-2.09Zm1.58-1.13A10.21,10.21,0,0,1,217,97.48l-.87.76a11.66,11.66,0,0,0-2.05-2Z"/><path d="M232.6,106.77c-1.33,1.64-4.2,3.7-6.7,3.7-3.74,0-3.94-2.85-3.94-4.94s.34-5,.34-7.43c0-.4,0-.8,0-1.17a11.84,11.84,0,0,1,1.73.16c.2,0,.33.12.33.25s-.18.31-.58.38c-.14,2.66-.52,5.89-.52,8s.5,3.47,2.68,3.47c2.63,0,5-2.45,6.14-4Z"/><path d="M236.25,109.93c1.19-2.85,3.11-7.89,3.73-10.09a11.21,11.21,0,0,1-2,.2,4.32,4.32,0,0,1-1.49-.23l-.2-1.26v0s0-.07.06-.07l0,0a5.45,5.45,0,0,0,2,.43,8.74,8.74,0,0,0,1.79-.22,16.89,16.89,0,0,0,.27-2.61c.11,0,1,.07,1.49.16.25,0,.38.15.38.24s-.18.25-.5.3c-.08.47-.2,1.1-.31,1.62.81-.19,1.69-.43,2.45-.66L244,99l-2.68.59c-.63,2.23-2.61,7.45-3.55,10.48Zm7.65-3.52a1.16,1.16,0,0,0-.31.71c0,.91,1.8,1.49,3.5,1.49a9.85,9.85,0,0,0,2.7-.41l-.45,1.51a12.53,12.53,0,0,1-2,.18c-2.86,0-4.93-1.22-4.93-2.61a1.89,1.89,0,0,1,.36-1Zm.34-5.76a18.42,18.42,0,0,1,2.27-.12,8,8,0,0,1,3.17.46l-.38,1.3a7.05,7.05,0,0,0-3.28-.59,13.85,13.85,0,0,0-2,.12Z"/><path d="M134.35,139.05c1.84-2.27,2-6,2-9,0-1.43,0-5.23-.06-5.93h4.65v10.39c0,1.3,0,2.25,0,2.47v0c0,1.46-1.28,1.86-2.49,1.86l-.32,0-.78-1.33c.36,0,.85.12,1.3.12.63,0,1.17-.16,1.17-.86l0-3.64h-2.52a12.73,12.73,0,0,1-1.71,6.23Zm5.49-7V129h-2.43c0,.35,0,.69,0,1.07,0,.63,0,1.31-.05,2Zm0-4.08v-2.8h-2.43V128Zm.6,11c2.34-1.73,2.59-5,2.59-7.85,0-.77,0-1.51,0-2.18,0-1.33-.07-4.45-.07-4.72h5.35c0,.58,0,11,0,13.06,0,.32.18.54.79.54.31,0,.72-.06.87-.81s.14-2.74.16-3.21l1.1,1a18.67,18.67,0,0,1-.2,2.56c-.16.92-.54,1.62-2.05,1.62s-1.86-.78-1.86-1.48l0-12.19h-2.9c0,.33,0,2.81,0,3.69,0,.53,0,1.08,0,1.64,0,3.1-.22,6.47-2.38,8.7Z"/><path d="M154,137.23c4.43-1.1,6.21-4.37,6.68-8.46H156.4a13,13,0,0,1-2.77,3.82l-1.42-.53a14,14,0,0,0,4.37-7.67c1.71.29,1.82.49,1.82.6s-.22.27-.63.29a16.66,16.66,0,0,1-.83,2.28h9.31v1.21h-4.12c-.49,4.32-2.58,8.14-6.65,9.49Z"/><path d="M169.59,137.38a8.32,8.32,0,0,0,5.26-7.94,12.16,12.16,0,0,0-.07-1.34c.14,0,1.37,0,1.66.08s.41.14.41.25-.22.3-.54.36V129c0,.31,0,.61,0,.92,0,.13,0,.27,0,.4a11.13,11.13,0,0,0,4.68-3.73l-11,0V125.4l11.72,0c.14,0,.21-.1.34-.1s1.12.74,1.12.92-.22.25-.45.27a13.63,13.63,0,0,1-5.26,4.86l-1.17-.74a10.34,10.34,0,0,1-5.06,7.69Z"/><path d="M186.19,126.74h5.94v-1.93s0-.67-.07-1.37c1.82,0,1.91.23,1.91.32s-.23.35-.56.38c0,.34,0,.83,0,.83v1.77h6.15v7.88h-1.24v-1.2h-4.91v5.94h-1.25v-5.94H187.4v1.31h-1.21Zm5.94,5.51v-4.38H187.4v4.38Zm6.16,0v-4.38h-4.91v4.38Z"/><path d="M201.17,136.22c1.42-1.53,2.26-4.66,2.55-6.71,1.62.27,1.73.47,1.73.59s-.18.25-.54.27a18.82,18.82,0,0,1-2.3,6.27Zm5.4-7.22v-.32a11,11,0,0,0,0-1.1c.11,0,1.05,0,1.57.11.21,0,.3.13.3.23s-.21.31-.5.35a7.54,7.54,0,0,0-.05.86c-.06,2.43-.13,6.32-.13,7.13,0,1.22.58,1.42,2.48,1.42,2.49,0,2.8-.43,2.8-3.49.12.11,1.27,1.06,1.4,1.13-.32,3-1.06,3.53-4.32,3.53-2.05,0-3.62-.11-3.62-2.3v-.11Zm.68-5.11a13.18,13.18,0,0,1,5.44,2.31l-.85,1.15a10.6,10.6,0,0,0-5.27-2.54Zm9.13,11.87a12.58,12.58,0,0,0-2.86-6.16l1.1-.49a14,14,0,0,1,3.11,6Z"/><path d="M224.53,136.91c3.21-.25,7.2-1.86,7.2-5.62,0-2.29-1.83-4.32-4.73-4.5,0,.22,0,.45,0,.68,0,3.17-2.18,6.47-3.21,7.73a2.6,2.6,0,0,1-1.91,1.19c-1.08,0-2.61-1.52-2.61-3.75,0-3.31,3.35-6.91,7.42-6.91,3.73,0,6.35,2.54,6.35,5.58,0,4-3.67,6.19-7.05,6.79Zm-4-4.32c0,1.35.83,2.45,1.37,2.45,1.08,0,3.87-4.36,3.87-7.46,0-.23,0-.48,0-.72C223,127.37,220.5,130.12,220.5,132.59Z"/><path d="M110.55,159.34c1-.29,2.77-.8,4.64-1.37l.07-3.55V154c0-.3,0-.59,0-.88.12,0,1.22.06,1.63.13.22,0,.31.12.31.21s-.2.29-.52.31a7.46,7.46,0,0,0-.07,1.1c0,.86-.06,1.8-.08,2.68l6.36-1.94c.16-.06.2-.22.34-.22s1.24.49,1.24.72-.1.18-.32.27a22.08,22.08,0,0,1-3.44,5.37l-1.49-.33a15.53,15.53,0,0,0,3.27-4.5c-1.15.38-3.6,1.15-6,1.89,0,1.68-.07,3-.07,3.23v.12c0,1.91.46,2.43,3,2.43a25.69,25.69,0,0,0,4.52-.54l-.52,1.55a29,29,0,0,1-3.82.31c-3.2,0-4.48-.87-4.48-3.23v-.1c0-.62,0-1.95,0-3.35L111,160.54Z"/><path d="M129.61,164.83c5-.83,7.85-3.53,8.91-7.11h-9.63l0-1.28,10.07,0c.16,0,.25-.11.37-.11s1.19.74,1.19,1-.12.18-.38.25a11.76,11.76,0,0,1-8.93,8.42Zm.61-12H139v1.24h-8.73Z"/><path d="M156.61,165.31c-.32-.68-.65-1.31-1-1.9-1.82.36-6.41,1.13-10,1.63v0c0,.32-.1.56-.25.56s-.2-.11-.29-.34c-.21-.58-.45-1.44-.48-1.53l1.73-.18a66.84,66.84,0,0,0,3.6-10.48c.11,0,1.92.39,1.92.73,0,.15-.18.26-.5.26h-.16a75.78,75.78,0,0,1-3.46,9.32c2.56-.32,5.37-.79,7.19-1.15a20.38,20.38,0,0,0-2.71-3.4l1.07-.61a24.65,24.65,0,0,1,4.52,6.23Z"/><path d="M161,155.36a.23.23,0,0,1,0-.11c0-.05.05-.09.14-.09,2.45,0,6-1.21,12.21-1.87l.23-.06a.49.49,0,0,1,.18,0c.22,0,.67,1.17.67,1.31s-.07.13-.15.13a.67.67,0,0,1-.27-.07,5.49,5.49,0,0,0-2.1.41c-1.71.67-4.86,3.39-4.86,6,0,3,3.42,3.76,5.78,3.85l-1.17,1.39c-1.75-.27-5.87-1.35-5.87-5.06,0-3.29,3.58-5.85,4.15-6.25-3.13.42-6.31,1.52-8.22,1.75Zm11.78.75a10.05,10.05,0,0,1,1.92,2.2l-.9.61a11,11,0,0,0-1.85-2.3Zm1.71-.81a8.55,8.55,0,0,1,1.92,2l-.86.65a9.06,9.06,0,0,0-1.87-2.13Z"/><path d="M177.45,164.9a16.93,16.93,0,0,0,9.36-9.33l-7.16,0V154.4l7.7,0c.18,0,.26-.13.36-.13s1.16.74,1.16.92-.26.22-.42.27a31.23,31.23,0,0,1-2.72,4.61,38.19,38.19,0,0,1,5.39,4.81l-1.24,1A30.91,30.91,0,0,0,185,161a16.84,16.84,0,0,1-6.19,4.86Z"/><path d="M195,160.71l5.87-1.16-.65-2.93-5,1-.25-1.22,5-1-.34-1.49s-.18-.85-.33-1.35l1.44-.18h.13c.23,0,.36.07.36.16s-.13.25-.41.4c.05.46.23,1.26.23,1.26l.2.95,4.91-.93.26,1.22-4.9.95.65,2.92,5.76-1.12.27,1.23-5.76,1.11,1.26,5.73-1.26.27-1.28-5.74-5.89,1.15Z"/><path d="M212.88,154a11.77,11.77,0,0,1,3.94,3.08l-1.08,1.19a10.91,10.91,0,0,0-3.8-3.44Zm11.83,3.82a22.75,22.75,0,0,1-10.92,7.61c0,.33-.1.47-.23.47s-1.4-1.37-1.49-1.51a.15.15,0,0,1,0-.09s0-.06.11-.07c5.08-.69,9.65-4.72,12-8.05Z"/><path d="M228.91,165.26c4.43-1.1,6.22-4.38,6.68-8.46h-4.26a12.87,12.87,0,0,1-2.78,3.81l-1.42-.52a14,14,0,0,0,4.38-7.67c1.71.29,1.82.49,1.82.6s-.22.27-.63.28a19.31,19.31,0,0,1-.83,2.29h9.31v1.21h-4.13c-.48,4.32-2.57,8.14-6.64,9.49Z"/><path d="M244.52,165.4a8.31,8.31,0,0,0,5.26-7.94,12.1,12.1,0,0,0-.07-1.33c.14,0,1.36,0,1.65.07s.42.15.42.26-.22.3-.54.36v.23c0,.31,0,.61,0,.92a2.55,2.55,0,0,1,0,.39,11,11,0,0,0,4.68-3.72l-11,0v-1.24l11.72,0c.15,0,.22-.11.35-.11s1.11.74,1.11.92-.21.26-.45.27a13.42,13.42,0,0,1-5.26,4.86l-1.17-.73a10.28,10.28,0,0,1-5.06,7.68Z"/><path class="cls-3" d="M185,81.9l-.59-16.25c.34,5.92,8.68,8.46,8.68,8.46a10.12,10.12,0,0,0-2-9.31c8.47,3.89,18.79-3.39,18.79-3.39a22.22,22.22,0,0,0-18.11-2.54C205,55,205.64,41.1,205.64,41.1c-11.34,1.35-17.1,11-17.1,11A25,25,0,0,0,184,27.9a25,25,0,0,0-4.57,24.2s-5.75-9.65-17.1-11c0,0,.68,13.88,13.88,17.77a22.22,22.22,0,0,0-18.11,2.54s10.33,7.28,18.79,3.39a10.15,10.15,0,0,0-2,9.31s8.34-2.54,8.68-8.46l-.59,16.25Z"/><path class="cls-4" d="M176.35,71.43C178.66,66,183.88,62,183.88,62"/><path class="cls-4" d="M191.6,71.43C189.28,66,184.07,62,184.07,62"/><path class="cls-4" d="M163,61.49c7.68-1.33,20.9.48,20.9.48"/><path class="cls-4" d="M165.62,43.83C173.19,48,183.88,62,183.88,62"/><path class="cls-4" d="M205,61.49c-7.69-1.33-20.9.48-20.9.48"/><path class="cls-4" d="M202.32,43.83C194.76,48,184.07,62,184.07,62"/><line class="cls-4" x1="183.97" y1="33.06" x2="183.97" y2="61.97"/><path class="cls-5" d="M151.67,184.93l-9.16,8.51c3.41-3,9.32.12,9.32.12a7.79,7.79,0,0,1-6.16,3.95c6.71,2.49,8.37,12.06,8.37,12.06a17,17,0,0,1-11.22-8.47c5.06,9.29-2.12,17.21-2.12,17.21-5.43-6.9-3.31-15.28-3.31-15.28a19.23,19.23,0,0,1-15.65,10.68,19.21,19.21,0,0,1,10.68-15.64s-8.38,2.11-15.28-3.32c0,0,7.92-7.17,17.21-2.11a17.07,17.07,0,0,1-8.46-11.23s9.56,1.66,12,8.37a7.78,7.78,0,0,1,4-6.16s3.15,5.91.11,9.32l8.52-9.16Z"/><path class="cls-6" d="M141.26,185.9a20.77,20.77,0,0,0-1,9.24"/><path class="cls-6" d="M149.55,194.19a20.73,20.73,0,0,1-9.23,1.05"/><path class="cls-6" d="M128.59,184c3.46,4.89,11.62,11.1,11.62,11.1"/><path class="cls-6" d="M120.43,195.07c6.4,1.83,19.78.07,19.78.07"/><path class="cls-6" d="M151.41,206.86c-4.89-3.46-11.09-11.62-11.09-11.62"/><path class="cls-6" d="M140.38,215c-1.83-6.4-.06-19.78-.06-19.78"/><line class="cls-6" x1="124.55" y1="210.9" x2="140.26" y2="195.19"/></g></g></svg>