<?xml version="1.0" encoding="utf-8"?>
<svg xmlns="http://www.w3.org/2000/svg" viewBox="0 0 105.4 96.09"><defs><style>.cls-1{fill:none;stroke:#fb9ca5;stroke-linecap:round;stroke-linejoin:round;stroke-width:2.7px;}</style></defs><title>work2</title><g id="レイヤー_2" data-name="レイヤー 2"><g id="copy"><path class="cls-1" d="M27.86,20.34c0,5.55-3.79,10.05-8.47,10.05s-8.46-4.5-8.46-10,8.46-19,8.46-19S27.86,14.79,27.86,20.34Z"/><path class="cls-1" d="M70.74,20.34c0,5.55-3.79,10.05-8.46,10.05s-8.47-4.5-8.47-10,8.47-19,8.47-19S70.74,14.79,70.74,20.34Z"/><path class="cls-1" d="M92.19,20.34c0,5.55-3.79,10.05-8.47,10.05s-8.46-4.5-8.46-10,8.46-19,8.46-19S92.19,14.79,92.19,20.34Z"/><path class="cls-1" d="M49.3,20.34c0,5.55-3.79,10.05-8.46,10.05s-8.47-4.5-8.47-10,8.47-19,8.47-19S49.3,14.79,49.3,20.34Z"/><path class="cls-1" d="M27.86,84.69c0,5.55-3.79,10-8.47,10s-8.46-4.5-8.46-10,8.46-19,8.46-19S27.86,79.13,27.86,84.69Z"/><path class="cls-1" d="M70.74,84.69c0,5.55-3.79,10-8.46,10s-8.47-4.5-8.47-10,8.47-19,8.47-19S70.74,79.13,70.74,84.69Z"/><path class="cls-1" d="M92.19,84.69c0,5.55-3.79,10-8.47,10s-8.46-4.5-8.46-10,8.46-19,8.46-19S92.19,79.13,92.19,84.69Z"/><path class="cls-1" d="M49.3,84.69c0,5.55-3.79,10-8.46,10s-8.47-4.5-8.47-10,8.47-19,8.47-19S49.3,79.13,49.3,84.69Z"/><path class="cls-1" d="M61.17,52.51c0,5.56-3.79,10.06-8.47,10.06s-8.46-4.5-8.46-10.06,8.46-19,8.46-19S61.17,47,61.17,52.51Z"/><path class="cls-1" d="M104.05,52.51c0,5.56-3.79,10.06-8.46,10.06s-8.47-4.5-8.47-10.06,8.47-19,8.47-19S104.05,47,104.05,52.51Z"/><path class="cls-1" d="M18.28,52.51c0,5.56-3.79,10.06-8.47,10.06s-8.46-4.5-8.46-10.06,8.46-19,8.46-19S18.28,47,18.28,52.51Z"/><path class="cls-1" d="M82.61,52.51c0,5.56-3.79,10.06-8.46,10.06s-8.47-4.5-8.47-10.06,8.47-19,8.47-19S82.61,47,82.61,52.51Z"/><path class="cls-1" d="M39.72,52.51c0,5.56-3.79,10.06-8.46,10.06s-8.47-4.5-8.47-10.06,8.47-19,8.47-19S39.72,47,39.72,52.51Z"/></g></g></svg>