<?xml version="1.0" encoding="utf-8"?>
<!-- Generator: Adobe Illustrator 23.0.3, SVG Export Plug-In . SVG Version: 6.00 Build 0)  -->
<svg version="1.1" id="レイヤー_1" xmlns="http://www.w3.org/2000/svg" xmlns:xlink="http://www.w3.org/1999/xlink" x="0px"
	 y="0px" viewBox="0 0 40 40" style="enable-background:new 0 0 40 40;" xml:space="preserve">
<style type="text/css">
	.st0{fill:#FF9EA7;}
	.st1{font-family:'YuGo-Medium-83pv-RKSJ-H';}
	.st2{font-size:25.4183px;}
	.st3{letter-spacing:1;}
</style>
<path class="st0" d="M4.71,16.84c-0.06,0.05-0.1,0.11-0.11,0.2c-0.03,0.2,0.23,0.36,0.36,0.47c0.17,0.15,0.31,0.31,0.46,0.48
	c0.54,0.62,1.09,1.24,1.63,1.86c1.06,1.22,2.09,2.47,2.94,3.85c1.37,2.23,3.06,4.18,4.58,6.3c0.62,0.86,1.74,1.54,1.76,2.68
	c1.36-0.42,2.36-3.11,3.12-4.35c2.92-4.76,5.78-9.83,9.11-14.29c0.71-0.95,1.43-1.9,2.14-2.85c0.6-0.8,1.19-1.62,1.77-2.44
	c0.22-0.31,0.36-0.61,0.53-0.93c0.22-0.4,0.6-0.76,0.89-1.11c0.19-0.23,0.29-0.48,0.38-0.77c0.14-0.45,0.21-1.21-0.1-1.58
	C34.04,4.2,34,4.2,33.83,4.26c-0.32,0.12-0.57,0.51-0.8,0.75c-0.36,0.37-0.65,0.79-0.99,1.17c-0.24,0.27-0.55,0.51-0.78,0.79
	c-0.15,0.18-0.22,0.42-0.37,0.61c-0.39,0.49-0.95,0.76-1.2,1.35c-0.08,0.19-0.16,0.34-0.29,0.5c-0.19,0.23-0.5,0.42-0.65,0.67
	c-0.12,0.2-0.18,0.38-0.34,0.58c-0.18,0.23-0.38,0.44-0.56,0.68c-0.49,0.68-0.92,1.4-1.4,2.08c-0.15,0.22-0.34,0.39-0.51,0.59
	c-0.19,0.22-0.33,0.47-0.52,0.68c-0.2,0.21-0.44,0.34-0.67,0.51c-0.29,0.22-0.51,0.48-0.74,0.76c-0.4,0.47-0.81,0.93-1.2,1.41
	c-0.12,0.15-0.26,0.29-0.4,0.44c-0.33,0.37-0.57,0.81-0.87,1.21c-0.73,0.94-1.56,1.77-2.3,2.7c-0.42,0.53-0.94,1.09-1.46,1.52
	c-0.44,0.36-0.53,0.35-0.98,0.18c-0.54-0.2-1.11-0.71-1.57-1.05c-2.05-1.51-4.24-2.66-6.46-3.88c-0.44-0.24-0.89-0.46-1.34-0.68
	c-0.32-0.15-0.63-0.31-0.95-0.46c-0.29-0.14-0.6-0.27-0.86-0.47C5.44,16.77,4.94,16.66,4.71,16.84z"/>
<text transform="matrix(1 0 0 1 5.601 33.8711)" class="st1 st2 st3">□</text>
</svg>
