<?xml version="1.0" encoding="utf-8"?>
<!-- Generator: Adobe Illustrator 23.0.3, SVG Export Plug-In . SVG Version: 6.00 Build 0)  -->
<svg version="1.1" id="レイヤー_1" xmlns="http://www.w3.org/2000/svg" xmlns:xlink="http://www.w3.org/1999/xlink" x="0px"
	 y="0px" viewBox="0 0 40 40" style="enable-background:new 0 0 40 40;" xml:space="preserve">
<style type="text/css">
	.st0{fill:none;stroke:#FFFFFF;stroke-width:0.9395;stroke-linecap:round;stroke-linejoin:round;stroke-miterlimit:10;}
</style>
<g>
	<g>
		<path class="st0" d="M1.31,19.01c-0.37,10.37,7.73,19.08,18.1,19.46c10.37,0.37,19.08-7.73,19.46-18.1
			c0.37-10.37-7.73-19.08-18.1-19.46C10.4,0.53,1.69,8.64,1.31,19.01z"/>
	</g>
	<path class="st0" d="M5.08,14.53C3.61,18.26,3.65,22.3,5.5,26.62c0.3,0.7,1.55,2.57,2.95,1.84C9.24,28.05,9.56,27,9.06,26
		c-3.31-6.65-0.23-14.68,7.05-17.9c1.01-0.45,1.47-1.39,1.02-2.15C16.63,5.11,14.7,5.08,14,5.39C9.7,7.29,6.55,10.8,5.08,14.53z"/>
	<circle class="st0" cx="23.85" cy="7.51" r="2.03"/>
</g>
</svg>
