<?xml version="1.0" encoding="utf-8"?>
<!-- Generator: Adobe Illustrator 23.0.3, SVG Export Plug-In . SVG Version: 6.00 Build 0)  -->
<svg version="1.1" id="レイヤー_1" xmlns="http://www.w3.org/2000/svg" xmlns:xlink="http://www.w3.org/1999/xlink" x="0px"
	 y="0px" viewBox="0 0 40 40" style="enable-background:new 0 0 40 40;" xml:space="preserve">
<style type="text/css">
	.st0{fill:none;stroke:#FFFFFF;stroke-width:0.7518;stroke-linecap:round;stroke-linejoin:round;stroke-miterlimit:10;}
</style>
<g>
	<g>
		<path class="st0" d="M38.46,20.22c0,1.85-3.14,3.58-6.61,2.88c-2.52-0.52-6.06-2.88-6.06-2.88s3.53-2.44,6.06-2.88
			C35,16.81,38.46,18.16,38.46,20.22z"/>
	</g>
	<g>
		<path class="st0" d="M1.35,20.27c0-1.85,3.58-3.58,7.07-2.88c2.52,0.52,5.62,2.88,5.62,2.88s-3.07,2.44-5.62,2.88
			C5.25,23.68,1.35,22.33,1.35,20.27z"/>
	</g>
	<g>
		<path class="st0" d="M19.99,1.02c1.85,0,3.58,3.58,2.88,7.07c-0.52,2.52-2.88,5.62-2.88,5.62s-2.44-3.07-2.88-5.62
			C16.57,4.92,17.92,1.02,19.99,1.02z"/>
	</g>
	<g>
		<g>
			<path class="st0" d="M10.23,10.59c0.93-0.93,2.88-0.74,3.97,1.05c0.78,1.3,1.05,3.97,1.05,3.97s-2.69-0.24-3.97-1.05
				C9.7,13.51,9.18,11.63,10.23,10.59z"/>
		</g>
		<path class="st0" d="M29.59,10.59c-0.93-0.93-2.88-0.74-3.97,1.05c-0.78,1.3-1.05,3.97-1.05,3.97s2.69-0.24,3.97-1.05
			C30.11,13.51,30.63,11.63,29.59,10.59z"/>
		<g>
			<path class="st0" d="M29.59,29.43c-0.93,0.93-2.88,0.74-3.97-1.05c-0.78-1.3-1.05-3.97-1.05-3.97s2.69,0.24,3.97,1.05
				C30.11,26.51,30.63,28.39,29.59,29.43z"/>
		</g>
		<path class="st0" d="M10.23,29.43c0.93,0.93,2.88,0.74,3.97-1.05c0.78-1.3,1.05-3.97,1.05-3.97s-2.69,0.24-3.97,1.05
			C9.7,26.51,9.18,28.39,10.23,29.43z"/>
	</g>
	<g>
		<path class="st0" d="M19.82,39c-1.85,0-3.58-3.14-2.88-6.61c0.52-2.52,2.88-6.06,2.88-6.06s2.44,3.07,2.88,5.62
			C23.24,35.1,21.89,39,19.82,39z"/>
	</g>
</g>
</svg>
